<svg xmlns="http://www.w3.org/2000/svg" xmlns:xlink="http://www.w3.org/1999/xlink" viewBox="0 0 71.1 78.7"><defs><style>.cls-1,.cls-5{fill:#fedd10;}.cls-2{isolation:isolate;}.cls-3{fill:#fbf4a0;}.cls-4{clip-path:url(#clip-path);}.cls-5{mix-blend-mode:multiply;}.cls-6{fill:#fff;}.cls-7{fill:#726659;}</style><clipPath id="clip-path"><path class="cls-1" d="M11.9,78.6,0,56.6H0A102,102,0,0,0,16.4,44.9c6.9-6.1,15.4-15.4,17.1-25.7a12.5,12.5,0,0,1,24.7,3.9C55.9,37.4,47.3,51.2,32.5,64A125.6,125.6,0,0,1,11.9,78.6Z"/></clipPath></defs><title>amarilAsset 5</title><g class="cls-2"><g id="Layer_2" data-name="Layer 2"><g id="Layer_5" data-name="Layer 5"><path class="cls-3" d="M37.9,12.8S29.5,10.4,32.4.9c0,0-1-2-2.6-.1s-8.1,15.4,5.6,19.7Z"/><path class="cls-3" d="M57.4,19.8s8.2,3.1,11.5-6.3c0,0,2-1,2.2,1.5S68.4,32.1,54.9,27.4Z"/><path class="cls-1" d="M11.9,78.6,0,56.6H0A102,102,0,0,0,16.4,44.9c6.9-6.1,15.4-15.4,17.1-25.7a12.5,12.5,0,0,1,24.7,3.9C55.9,37.4,47.3,51.2,32.5,64A125.6,125.6,0,0,1,11.9,78.6Z"/><g class="cls-4"><path class="cls-5" d="M30.1,28s2.1,21.9,10.8,27.9.2.7.2.7L29.8,68,16,55.3S21.6,26.6,30.1,28"/></g><path class="cls-5" d="M55.3,12.8a12.4,12.4,0,0,1,.8,6.8C53.9,34,45.3,47.8,30.5,60.6A127.1,127.1,0,0,1,10.1,75l2,3.7A125.7,125.7,0,0,0,32.8,64.2c14.8-12.9,23.5-26.7,25.7-41A12.5,12.5,0,0,0,55.3,12.8Z"/><ellipse class="cls-6" cx="44.9" cy="24.2" rx="9.2" ry="6.8" transform="translate(9.9 61.3) rotate(-74.9)"/><path class="cls-7" d="M39.4,37.7a4.5,4.5,0,0,1,1-1.4l-2.1-.9a4.5,4.5,0,0,1-.3,1.7,1.8,1.8,0,0,1-1.5,1.1l1.7,1,1.5.5A1.8,1.8,0,0,1,39.4,37.7Z"/><path class="cls-7" d="M35.8,34.4l-2.9-1.2a9.5,9.5,0,0,0,1.7,3.2,1.8,1.8,0,0,1,.1-.7A4.5,4.5,0,0,1,35.8,34.4Z"/><path class="cls-7" d="M46.4,38.9,43,37.5a4.5,4.5,0,0,1-.3,1.7,1.8,1.8,0,0,1-.7.8A9.5,9.5,0,0,0,46.4,38.9Z"/><path class="cls-6" d="M37.6,33.7c-.5-.2-1.2.2-1.8.7l2.5,1.1C38.3,34.7,38.1,33.9,37.6,33.7Z"/><path class="cls-6" d="M38.1,37.2a4.5,4.5,0,0,0,.3-1.7l-2.5-1.1a4.5,4.5,0,0,0-1,1.4,1.8,1.8,0,0,0-.1.7,9.4,9.4,0,0,0,1.9,1.8A1.8,1.8,0,0,0,38.1,37.2Z"/><path class="cls-6" d="M42.2,35.7c-.5-.2-1.2.2-1.8.7L43,37.5C42.9,36.6,42.7,35.9,42.2,35.7Z"/><path class="cls-6" d="M43,37.5l-2.5-1.1a4.5,4.5,0,0,0-1,1.4,1.8,1.8,0,0,0,.4,1.9l2.2.3a1.8,1.8,0,0,0,.7-.8A4.5,4.5,0,0,0,43,37.5Z"/></g></g></g></svg>