<svg xmlns="http://www.w3.org/2000/svg" viewBox="0 0 90.4 26.6"><defs><style>.cls-1{fill:#92c1c1;}.cls-1,.cls-2{fill-rule:evenodd;}.cls-2{fill:#649a99;}.cls-3{fill:#529da5;}</style></defs><title>anillosAsset 1</title><g id="Layer_2" data-name="Layer 2"><g id="animables"><g id="Layer_119" data-name="Layer 119"><path class="cls-1" d="M72.3,3.5c10.8.1,17.9,1.7,18.1,4.7.4,5.1-19.4,12.4-44.3,16.1S.7,27,.3,21.9c-.3-3.5,8.8-7.9,22.4-11.6l1.2-.3v.2l.4,1-1.5.4c-8.9,2.3-14.6,4.6-14.4,6.3s16.9,2.5,37.2-.5S82.2,9.5,81.9,6.7c-.1-1.3-3.6-1.9-9.4-1.9a2.1,2.1,0,0,0-.1-.8h0Z"/><path class="cls-2" d="M71.7,2c10.6-.4,17.5.7,17.6,3.3C89.4,9.8,69.6,17.1,45,21.5S.3,25.9.2,21.4s9-7.4,22.5-11.2l1.2-.3v.2l.3.9-1.5.4c-8.8,2.4-14.5,4.7-14.5,6.2S24.7,19,44.8,15.3,81.1,6.8,81,4.3s-3.5-1.5-9.1-1.3a1.6,1.6,0,0,0-.1-.7h0Z"/><path class="cls-1" d="M71.1.4C81.5-.5,88.2.1,88.2,2.4c-.1,3.9-19.9,11.2-44.2,16.3S-.1,24.9,0,21s9.2-6.8,22.6-10.9l1.2-.3v.2l.3.7-1.5.4c-8.8,2.5-14.5,4.8-14.5,6.1s16,.4,35.9-3.8S80.1,4.1,80.1,2,76.8.8,71.3,1.4a1.2,1.2,0,0,0-.1-.6h0Z"/><ellipse class="cls-3" cx="10.1" cy="20.9" rx="2.5" ry="0.3" transform="translate(-6.8 5) rotate(-21)"/><ellipse class="cls-3" cx="13" cy="22.3" rx="1.3" ry="0.3" transform="translate(-7.1 6.1) rotate(-21)"/><ellipse class="cls-3" cx="13.8" cy="20.4" rx="0.9" ry="0.2" transform="translate(-6.4 6.3) rotate(-21)"/><ellipse class="cls-3" cx="18.3" cy="21.8" rx="1.9" ry="0.5" transform="translate(-6.6 8) rotate(-21)"/><ellipse class="cls-3" cx="21.2" cy="21.3" rx="0.7" ry="0.2" transform="translate(-6.2 9) rotate(-21)"/><ellipse class="cls-3" cx="15.6" cy="21.1" rx="0.7" ry="0.2" transform="translate(-6.5 7) rotate(-21)"/><ellipse class="cls-3" cx="18.5" cy="20" rx="0.7" ry="0.2" transform="translate(-5.9 8) rotate(-21)"/><ellipse class="cls-3" cx="76.8" cy="6.3" rx="2.5" ry="0.3" transform="translate(2.9 28) rotate(-21)"/><ellipse class="cls-3" cx="75.7" cy="9.3" rx="1.3" ry="0.3" transform="translate(1.7 27.7) rotate(-21)"/><ellipse class="cls-3" cx="73.8" cy="8.4" rx="0.9" ry="0.2" transform="translate(1.9 27.1) rotate(-21)"/><ellipse class="cls-3" cx="71.4" cy="12.4" rx="1.9" ry="0.5" transform="matrix(0.93, -0.36, 0.36, 0.93, 0.3, 26.43)"/><ellipse class="cls-3" cx="68.9" cy="14.1" rx="0.7" ry="0.2" transform="translate(-0.5 25.6) rotate(-21)"/><ellipse class="cls-3" cx="72.9" cy="10.1" rx="0.7" ry="0.2" transform="translate(1.2 26.8) rotate(-21)"/><ellipse class="cls-3" cx="70" cy="11.2" rx="0.7" ry="0.2" transform="translate(0.6 25.8) rotate(-21)"/></g></g></g></svg>