<svg xmlns="http://www.w3.org/2000/svg" viewBox="0 0 21.9 29.4"><defs><style>.cls-1{fill:#e6d0b2;}.cls-2,.cls-6{fill:#fbe9c9;}.cls-2,.cls-4,.cls-7{fill-rule:evenodd;}.cls-3,.cls-4{fill:#bdb099;}.cls-5{fill:#723a39;}.cls-7{fill:#162123;}</style></defs><title>astronautaAsset 5</title><g id="Layer_2" data-name="Layer 2"><g id="animables"><g id="_--_Generator:_Adobe_Illustrator_20.1.0_SVG_Export_Plug-In_--_" data-name="&lt;!-- Generator: Adobe Illustrator 20.1.0, SVG Export Plug-In  --&gt;"><path class="cls-1" d="M19.6,6.9s2,0,2.3,1.1-2,5.1-2,5.1L18.7,7.8Z"/><path class="cls-2" d="M12,6.6a23.4,23.4,0,0,0-4-.7,22.8,22.8,0,0,0-4.8,1s-.9,1.6.3,2.5A20.1,20.1,0,0,1,8,9.3l2.3.8,2.3-2.6Z"/><path class="cls-2" d="M3.2,6.9A6.2,6.2,0,0,0,.9,6.6c-.5.2.9.5.9.5S0,7.2,0,7.6s1.8.2,1.8.2S0,7.8,0,8.1s1.8.2,1.8.2S.4,8.7.3,9,2,9,2,9a6.1,6.1,0,0,1-.4.9c-.2.4.8.4,1.9-.6Z"/><path class="cls-3" d="M3.5,9.6H3.3a2.7,2.7,0,0,1-.4-2.8.3.3,0,0,1,.6.3,2.1,2.1,0,0,0,.3,2.1.3.3,0,0,1-.1.4Z"/><path class="cls-4" d="M7.3,6a19,19,0,0,0,0,3.2s.1.3.7.1A7,7,0,0,0,8.8,6,1.8,1.8,0,0,0,7.3,6Z"/><path class="cls-3" d="M10.5,10.1h-.2a6.7,6.7,0,0,1,1.9-2.6v.2A6.7,6.7,0,0,0,10.5,10.1Z"/><path class="cls-2" d="M12.4,7.4a7.9,7.9,0,0,0-2.6,7.8,22.5,22.5,0,0,0-3.9,2.4c-.8.8-1.7,4.3-1.7,4.3s-1.7.7-1.9,1.8,3,1.1,4.8,0c0,0,1.1-2.8,1.3-3.7l2.8-.6v.3a11.7,11.7,0,0,0-.2,1.7,8.4,8.4,0,0,0,1.2,4s-.8,2.8.3,3.9,3.2-1.5,2.9-4.3a9.8,9.8,0,0,1-.8-3l2-4.2s1-.8,1-3.1l.2-5.9Z"/><circle class="cls-5" cx="11.5" cy="11.1" r="0.7"/><path class="cls-3" d="M13.4,25.9h-.3a2.8,2.8,0,0,1-1.1-.4.3.3,0,0,1,.3-.5,2.4,2.4,0,0,0,2.8-.4.3.3,0,1,1,.4.5A3.2,3.2,0,0,1,13.4,25.9Z"/><path class="cls-4" d="M14.6,22.2c-1.1.9-3.4.9-3.5.4a2.4,2.4,0,0,1-.1-.9,4.1,4.1,0,0,1,3.6,0A.7.7,0,0,1,14.6,22.2Z"/><path class="cls-3" d="M16.5,17.9h-.2a4.1,4.1,0,0,0-4.6-.1.3.3,0,1,1-.4-.5c2.6-1.8,5.3.1,5.3.1a.3.3,0,0,1,.1.4Z"/><path class="cls-3" d="M7.1,24H7c-3-.7-3.1-1.9-3.1-2a.3.3,0,0,1,.6-.1s.2.9,2.7,1.5a.3.3,0,0,1-.1.6Z"/><path class="cls-4" d="M6.6,17S8.3,18.7,8.4,20s-3-1.5-3-1.5A1.6,1.6,0,0,1,6.6,17Z"/><path class="cls-3" d="M11.7,17.7a.3.3,0,0,1-.3-.2,2.8,2.8,0,0,0-1.7-2,.3.3,0,0,1,.2-.6A3.4,3.4,0,0,1,12,17.3a.3.3,0,0,1-.2.4Z"/><rect class="cls-3" x="10.3" y="18.1" width="2.2" height="0.21" transform="matrix(0.16, -0.99, 0.99, 0.16, -8.42, 26.66)"/><ellipse class="cls-6" cx="15.9" cy="4.6" rx="4.7" ry="4.6"/><path class="cls-7" d="M16.6,8.9h-1a4.3,4.3,0,0,1-4.4-4.3,4.3,4.3,0,0,1,1.1-2.9h0a.2.2,0,0,1,.4,0c.3.6,1.5,1.8,5.3,1.3a.4.4,0,0,1,.5.4c.1,1.1.1,3.8-1.7,5.3Z"/><path class="cls-2" d="M19.9,19.3a13.6,13.6,0,0,1-.7,3c-.3.4-.3-1-.3-1s-.5,1.7-.8,1.6.3-1.8.3-1.8-.5,1.8-.8,1.7.2-1.8.2-1.8-.7,1.3-1,1.2.4-1.6.4-1.6l-1,.2c-.5.1-.2-.9,1-1.7Z"/><path class="cls-2" d="M18.8,8.6s-2.3-.2-2.9,1.7a14.9,14.9,0,0,0,1.6,4.1,4.4,4.4,0,0,1,.1,1.8c-.1,1.1-.5,2.7-.5,2.7a3,3,0,0,0,2.8.3,11.3,11.3,0,0,0,1-5A16.7,16.7,0,0,0,18.8,8.6Z"/><path class="cls-3" d="M18.6,19.9a2.3,2.3,0,0,1-1.7-.7.3.3,0,0,1,.5-.4,1.8,1.8,0,0,0,2.3.1.3.3,0,0,1,.3.6A2.9,2.9,0,0,1,18.6,19.9Z"/><path class="cls-4" d="M17.6,15.3s3,0,3.3-1.1a3.7,3.7,0,0,1,0,1.6,5.1,5.1,0,0,1-3.3-.1S17.5,15.7,17.6,15.3Z"/><path class="cls-3" d="M16,11h-.1a.4.4,0,0,1-.3-.5,2.8,2.8,0,0,1,3.3-2.3.4.4,0,0,1-.1.8,2,2,0,0,0-2.3,1.6A.4.4,0,0,1,16,11Z"/></g></g></g></svg>