<svg xmlns="http://www.w3.org/2000/svg" viewBox="0 0 226.6 104.9"><defs><style>.cls-1,.cls-3{fill:#f7daad;}.cls-1,.cls-10,.cls-13,.cls-14,.cls-2,.cls-5,.cls-6,.cls-7,.cls-9{fill-rule:evenodd;}.cls-2{fill:#4e4e4e;}.cls-4,.cls-5{fill:#a56a28;}.cls-6,.cls-8{fill:#f9a922;}.cls-7{fill:#ce882a;}.cls-12,.cls-9{fill:#ffcd7e;}.cls-10,.cls-11,.cls-13{fill:#fff;}.cls-13{stroke:#fff;stroke-miterlimit:22.93;stroke-width:0.22px;}.cls-14{fill:#ffcb79;}.cls-15{fill:#c12026;}.cls-16{fill:#741012;}.cls-17{fill:#f9ee3f;}</style></defs><title>avion6Asset 8</title><g id="Layer_2" data-name="Layer 2"><g id="Layer_1-2" data-name="Layer 1"><path class="cls-1" d="M165,65c6.3,2.4,12.8.7,22.7-8.1s21.4-15.4,26.4-10.1,1.6,21.8-2.3,27.8-15.1,8.1-41.6,8.1S138.3,64.5,165,65Z"/><path class="cls-2" d="M45.9,98.2a8,8,0,1,0-8-8A8,8,0,0,0,45.9,98.2Z"/><circle class="cls-3" cx="45.9" cy="90.2" r="4.3"/><rect class="cls-4" x="43.8" y="74.5" width="19.9" height="4.44" transform="translate(-39.6 84.5) rotate(-59.8)"/><polygon class="cls-5" points="27.1 63.7 29.2 61.6 55.4 89.2 53.3 91.3 27.1 63.7"/><path class="cls-6" d="M6.8,48C6,55.3,18,68.9,69.4,75.3s123.3,9.8,126.3,5.2-51.7-25-90.3-33.7c-.5,4.7-1.8,8.2-5,7.4-5.4-1.3-24.5-4.6-32.4-6.1s-6.8-3.9-7-7.3C32.1,38.8,7.6,40.4,6.8,48Z"/><path class="cls-7" d="M34.1,68.3c8.9,2.7,20.5,5.2,35.3,7l10.3,1.2,3.4-25.7-15-2.8c-6.7-1.3-6.8-3.9-7-7.3l-13.2-.7Z"/><ellipse class="cls-8" cx="13.8" cy="49.3" rx="4.3" ry="14" transform="translate(-37.1 54.3) rotate(-79.9)"/><path class="cls-7" d="M6.7,48.8h3.7l.2.2h.1l.2.2h1.1l.2.2h.2l.3.2.2.2.3.2h.1l.4.3H14C21.6,58.4,37.6,66,66.9,69.1c44.8,4.8,102.5,10.1,121.3,6.8l1.5-.3c4.3,2.3,6.6,4,6,4.9-3.1,4.6-74.9,1.2-126.3-5.2C26.7,70,11.2,59.7,7.6,52.2,3.3,50.8.4,49,0,47.3Z"/><path class="cls-7" d="M6.7,48.8h3.7l.2.2h.1l.2.2h1.1l.2.2h.2l.3.2.2.2.3.2h.1l.4.3H14l.4.3-1.3-.2a42.2,42.2,0,0,1-5.5-1.3H6.1l-2.2-.9h0l-.4-.2H2.3l-.2-.2H1.9l-.4-.3H1l-.2-.2h0l-.2-.2h0l-.2-.2H0Z"/><path class="cls-9" d="M2.6,50C.8,48.9-.2,47.8,0,46.8s1.5-1.7,3.5-2.1a9.3,9.3,0,0,1-.1,2.7A9.3,9.3,0,0,1,2.6,50Z"/><path class="cls-2" d="M52.9,104.9A8.9,8.9,0,1,0,44,96,8.9,8.9,0,0,0,52.9,104.9Z"/><circle class="cls-3" cx="52.9" cy="96" r="4.8"/><path class="cls-10" d="M43.7,23.9c-1.8-.1-1.8,1,1.3,1.6S78.3,33,82.2,33.3s15.3,1,22.9-1S149,18.2,152,17s5.2-1.5,1.9-3S110.2,2,103.9,1,92.4-1,88.7,2.3,59.8,20.8,57.9,22.5,47.6,24.1,43.7,23.9Z"/><rect class="cls-4" x="44.6" y="82.6" width="23.4" height="4.44" transform="translate(-41.2 113.9) rotate(-73)"/><polygon class="cls-10" points="112.2 21.1 115.9 21.5 111 78.1 107.3 77.7 112.2 21.1"/><rect class="cls-11" x="51.3" y="42.6" width="61.3" height="3.74" transform="translate(28.7 121.1) rotate(-83.7)"/><polygon class="cls-12" points="87.1 14.2 108.4 77.3 107.3 77.7 86 14.6 87.1 14.2"/><polygon class="cls-12" points="113.2 21.7 80.4 75.2 79.4 74.5 112.2 21.1 113.2 21.7"/><path class="cls-13" d="M66.4,29l2.9.3L67.3,47.9a14.5,14.5,0,0,1-2.9-.9Z"/><path class="cls-10" d="M48.8,25.7l2.9.3L50.2,40.2h-3Z"/><polygon class="cls-12" points="51.7 26 55.7 40.5 55 40.4 51 26.2 51.7 26"/><polygon class="cls-12" points="67 29.7 60.7 40.8 59.9 40.7 66.4 29.3 67 29.7"/><path class="cls-10" d="M52.7,72.9c7.5-.5,28.1-.4,37.6.2S112.6,77,123,80.2s21.5,7.2,22,8.4-5.2.7-12.5.2-36.2-5.7-41.6-6.3S49.5,73.4,52.7,72.9Z"/><path class="cls-7" d="M216.7,57c-.2,6.5-2.4,14-4.8,17.6-3.9,6-15.1,8.1-41.6,8.1-10.7,0-17.9-3-21-6.4,17.1.9,31.3,1,39-.4,18.9-3.4,22.8-5.1,28.2-18.3Z"/><ellipse class="cls-8" cx="196.4" cy="74.3" rx="2.9" ry="30.5" transform="translate(95.1 258.2) rotate(-81.9)"/><path class="cls-14" d="M196.8,71.4c16.7,2.4,30,5.6,29.8,7.2L166.2,70C166.4,68.4,180.1,69,196.8,71.4Z"/><path class="cls-15" d="M119.1,57h6.7a1.6,1.6,0,0,1,1.5,1.1,2,2,0,0,1-.3,1.7,1.8,1.8,0,0,1,.7,1.1,2.4,2.4,0,0,1,1.8,1.2,2.4,2.4,0,0,1,2.5.9h.2s.1-3.1.4-3.3.9-1.7,3.4-.9a1.7,1.7,0,0,1,1,1.7V63a1.7,1.7,0,0,1,1.4.9,4.3,4.3,0,0,1,4,.8,2.9,2.9,0,0,1,3,.3,3.8,3.8,0,0,1,2.6.1,1.9,1.9,0,0,1,1.4,1.5,5.1,5.1,0,0,1,3,2.1,4.1,4.1,0,0,1,.7,3.3,3.1,3.1,0,0,1-2.6,2.3,5,5,0,0,1-2.9-.3,4.1,4.1,0,0,1-2-1.7,2.8,2.8,0,0,1-2.7-.4,2.2,2.2,0,0,1-.6-.7,3.2,3.2,0,0,1-2.4.8,5.5,5.5,0,0,1-2.7-.7l-.6-.4a2.3,2.3,0,0,1-1.9.8,2.5,2.5,0,0,1-2.1-1,1.8,1.8,0,0,1-.2-.9,3.4,3.4,0,0,1-2.2-.4l-.8-.6a2.9,2.9,0,0,1-1.1.4,2.2,2.2,0,0,1-1.1-.1,1.7,1.7,0,0,1-1.2,1.1,2.6,2.6,0,0,1-1.7-.1,3.1,3.1,0,0,1-.9-.6,2.4,2.4,0,0,1-1.5.2,2.1,2.1,0,0,1-1.5-1.1,2.6,2.6,0,0,1-.2-1.3s0-1.4.1-2.1V63.2s.1-1.1.1-1.8a5,5,0,0,1-1.9-1,2,2,0,0,1-.7-1.7,2.1,2.1,0,0,1,.5-1.2,1.6,1.6,0,0,1,.9-.5Z"/><path class="cls-16" d="M119.2,58.1s-.4.1-.4.9a.8.8,0,0,0,.3.5l1.1.5,1.3.3-.2,2.7v2.3s-.1,1.4-.1,2a1.1,1.1,0,0,0,.4.9,1.2,1.2,0,0,0,1.3,0,1,1,0,0,0,.4-.6,11.3,11.3,0,0,0,.2-1.9V63.1s0-1.7,0-2.3v-.4l1.4-.3a3,3,0,0,0,1.1-.6.9.9,0,0,0,.2-1s-.1-.2-.5-.2h-6.4Z"/><path class="cls-16" d="M124.6,60.5a.8.8,0,0,0-.4.9,1.3,1.3,0,0,0,.8.9,1.6,1.6,0,0,0,1.3,0,.9.9,0,0,0,.4-1s-.3-.7-1.5-.8h-.5Z"/><path class="cls-16" d="M123.9,63.4a11.4,11.4,0,0,0-.2,1.4s-.1.9-.1,1.8a12.8,12.8,0,0,0,0,1.4s0,.8,1.3,1a.8.8,0,0,0,.8-.4,8.9,8.9,0,0,0,.1-1.5s0-1.1.1-1.6V64s.2-.6-.5-1a1.5,1.5,0,0,0-1.2-.1.7.7,0,0,0-.4.3Z"/><path class="cls-16" d="M128.6,64l.7-.4a2,2,0,0,1,1.1-.2s.8.1.8.7,0,1.3-.1,1.5a2,2,0,0,0,.3,1,.8.8,0,0,0,.5.2s1.1-.1,1.1.2.2.3-.2,1a2,2,0,0,1-1.3.6,2,2,0,0,1-1.6-.6l-.8-.9a3.9,3.9,0,0,1-.8.8,1.1,1.1,0,0,1-1.1.1,2,2,0,0,1-.7-1,4.9,4.9,0,0,1-.3-2.6s.1-.7.2-1.3,0-.6.5-.7a1.8,1.8,0,0,1,1.4.3s.3.2.2,1a2.9,2.9,0,0,1,0,.4Z"/><path class="cls-16" d="M133.4,64.1s-1.3.1-1.6.4a1.1,1.1,0,0,0-.3,1.1s.2.5,1,.6h.8s0,1.6-.1,2.3a3.8,3.8,0,0,0,.1,1.4,1.2,1.2,0,0,0,1.1.5s.8-.1.9-.4a13.3,13.3,0,0,0,.2-2.4V66a2.6,2.6,0,0,0,1.2-.6s.5-.5.4-1-.1-.4-.8-.5h-.8V61.5s0-.9.1-1.2-.1-.5-.8-.6a1.8,1.8,0,0,0-1.4.4,1,1,0,0,0-.2.7V64Z"/><path class="cls-16" d="M141.1,69.2h-1.2s-1-.1-1.3-.6a6,6,0,0,0,2.2-.5s1.3-.6,1.3-1.5.1-.9-1.2-1.6a3.1,3.1,0,0,0-1.3-.3l-1.3.2h-.2a3.4,3.4,0,0,0-1.8,1.5,2.4,2.4,0,0,0,.1,2.4,4,4,0,0,0,2.3,1.6,3.6,3.6,0,0,0,2.1-.1s.8-.3.7-.9A.5.5,0,0,0,141.1,69.2Zm-2.8-2a1.9,1.9,0,0,1,1.3-1.1h.2c.4,0,.3.3.3.3s-.6.7-.6.7S138.3,67.2,138.3,67.2Z"/><path class="cls-16" d="M142.6,66.3a20.6,20.6,0,0,0,.1,2.2s.2,1.4.3,1.9a1,1,0,0,0,.8.8,1.4,1.4,0,0,0,1.3-.2s.2,0,.2-.7a7.2,7.2,0,0,1,.4-1.6,2.1,2.1,0,0,1,1.2-1h.6a.9.9,0,0,0,.5-.4.6.6,0,0,0-.1-.8,2.9,2.9,0,0,0-1.6-.4,2.1,2.1,0,0,0-1.3.5,1.2,1.2,0,0,0-.1-.4,1.3,1.3,0,0,0-1.1-.5s-.9-.1-1,.4,0,0,0,.2Z"/><path class="cls-16" d="M151.8,70.6a3.9,3.9,0,0,0-1.1-2.1,3.7,3.7,0,0,0-1.8-.9,3,3,0,0,0-1.9.3H147a2.3,2.3,0,0,0-1,1.7,3.1,3.1,0,0,0,1.2,2.9,3.9,3.9,0,0,0,2.4.6,3,3,0,0,0,1.8-.7A1.9,1.9,0,0,0,151.8,70.6Zm-1.9.4a1.6,1.6,0,0,1-1,.2,1.1,1.1,0,0,1-.9-.6,1,1,0,0,1,.1-1.1h.1a1.1,1.1,0,0,1,1-.1,1.7,1.7,0,0,1,.7.6C150.2,70.6,149.9,71,149.9,71Z"/><path class="cls-16" d="M118.9,59s-.2.6.3.9a6.3,6.3,0,0,0,2.3.8,56.6,56.6,0,0,0-.8,5.9s-.1.8-.1,1.3a.8.8,0,0,0,.4.7,1.2,1.2,0,0,0,1-.1,1.5,1.5,0,0,1-.5-.9l.4-4.3.2-2.1v-.8a14.2,14.2,0,0,1-2.2-.7l-.7-.5Z"/><path class="cls-16" d="M123.9,63.5a.6.6,0,0,0-.3.4s-.2,1-.3,1.6l-.2,2s-.1.9.1,1.1a1.4,1.4,0,0,0,.7.6s.6.2.9-.2l.3-.3c0-.1-.7-.4-.7-.4a1.9,1.9,0,0,1-.2-.5c0-.2,0-1.2,0-1.5l.2-1.5a3.8,3.8,0,0,0,.1-.8c0-.2-.3-.5-.3-.5h-.3Z"/><path class="cls-16" d="M126.6,62.8a.7.7,0,0,0-.2.4s-.1.4-.3,1.6a5.4,5.4,0,0,0,.1,1.9,2.6,2.6,0,0,0,.7,1.2.8.8,0,0,0,1-.1l-.3-.5c-.1-.2-.4-.2-.4-.6s-.1-.9-.2-1.1.1-.7,0-1a3,3,0,0,1,0-1,3.4,3.4,0,0,0,0-.6C126.9,62.9,126.6,62.8,126.6,62.8Z"/><path class="cls-16" d="M128.8,67.3l.7.8a2.3,2.3,0,0,0,1.3.6,2.1,2.1,0,0,0,1-.3l-.4-.4-.9-.5L130,67l-.9-.4-.2.3Z"/><path class="cls-16" d="M131.5,64.9a1.1,1.1,0,0,0-.3.6.7.7,0,0,0,.3.7,1.8,1.8,0,0,0,.9.2h.7s-.2,1.6-.2,2.1-.1.9-.1,1.3a.7.7,0,0,0,.6.6,1.8,1.8,0,0,0,1.2-.2h-.1c-.1-.1-.6-.1-.7-.3a13.3,13.3,0,0,1-.2-1.5,11.4,11.4,0,0,1,0-1.6c0-.2,0-.5.1-.6s-.3-.2-.6-.3-.6-.1-.7-.2l-.6-.5C131.8,65,131.5,64.9,131.5,64.9Z"/><path class="cls-16" d="M138.9,66.4a1.7,1.7,0,0,1,.9,0s.2.1.2.5h.3c.1-.1.2-.5.1-.6a1.1,1.1,0,0,0-.8-.3l-.6.2-.2.3Z"/><path class="cls-16" d="M136.4,66.5a2,2,0,0,0-.6.9,2,2,0,0,0,.1,1.7,3.1,3.1,0,0,0,1.3,1.3,4.4,4.4,0,0,0,1.7.5,3.1,3.1,0,0,0,1.4-.3s.2,0,0-.1l-1.2-.3a6.9,6.9,0,0,1-1.8-.8,3.3,3.3,0,0,1-.5-.9,6.1,6.1,0,0,1-.2-1.2l.2-.6C136.8,66.6,136.4,66.5,136.4,66.5Z"/><path class="cls-16" d="M142.7,66.1s-.3.1-.3.3a15.8,15.8,0,0,0,.1,4s0,.6.5.8a1.9,1.9,0,0,0,1,.1l.5-.2H144l-.5-.6a13.9,13.9,0,0,1-.3-1.8c0-.2-.1-.9-.1-1a10.8,10.8,0,0,0,0-1.1,1,1,0,0,0-.2-.4Z"/><path class="cls-16" d="M146.4,68.6a1.6,1.6,0,0,0-.6.8,3,3,0,0,0,.3,2.7,3.4,3.4,0,0,0,2.6,1.1A3.1,3.1,0,0,0,150,73l-.7-.3-2.1-.6a4.2,4.2,0,0,1-.6-1.4,6,6,0,0,1,0-1.5C146.6,69,146.4,68.6,146.4,68.6Z"/><path class="cls-16" d="M147.9,69.6s.3-.3.9,0a1.4,1.4,0,0,1,.9,1.1.9.9,0,0,1-.1.6h.2c.1,0,.5-.3.6-.4a3.1,3.1,0,0,0,.1-.9,4.3,4.3,0,0,0-.8-.9,2.3,2.3,0,0,0-1.2-.3c-.4.1-.4.1-.6.2a.6.6,0,0,0-.1.4.4.4,0,0,1,0,.2Z"/><path class="cls-17" d="M119.2,58.1s-.4.1-.4.9a.8.8,0,0,0,.3.5l1.1.5,1.3.3-.2,2.7v2.3s-.1,1.4-.1,2a1.1,1.1,0,0,0,.4.9,1.2,1.2,0,0,0,1.3,0,1,1,0,0,0,.4-.6,11.3,11.3,0,0,0,.2-1.9V63.1s0-1.7,0-2.3v-.4l1.4-.3a3,3,0,0,0,1.1-.6.9.9,0,0,0,.2-1s-.1-.2-.5-.2h-6.4Z"/><path class="cls-17" d="M124.6,60.5a.8.8,0,0,0-.4.9,1.3,1.3,0,0,0,.8.9,1.6,1.6,0,0,0,1.3,0,.9.9,0,0,0,.4-1s-.3-.7-1.5-.8h-.5Z"/><path class="cls-17" d="M123.9,63.4a11.4,11.4,0,0,0-.2,1.4s-.1.9-.1,1.8a12.8,12.8,0,0,0,0,1.4s0,.8,1.3,1a.8.8,0,0,0,.8-.4,8.9,8.9,0,0,0,.1-1.5s0-1.1.1-1.6V64s.2-.6-.5-1a1.5,1.5,0,0,0-1.2-.1.7.7,0,0,0-.4.3Z"/><path class="cls-17" d="M128.6,64l.7-.4a2,2,0,0,1,1.1-.2s.8.1.8.7,0,1.3-.1,1.5a2,2,0,0,0,.3,1,.8.8,0,0,0,.5.2s1.1-.1,1.1.2.2.3-.2,1a2,2,0,0,1-1.3.6,2,2,0,0,1-1.6-.6l-.8-.9a3.9,3.9,0,0,1-.8.8,1.1,1.1,0,0,1-1.1.1,2,2,0,0,1-.7-1,4.9,4.9,0,0,1-.3-2.6s.1-.7.2-1.3,0-.6.5-.7a1.8,1.8,0,0,1,1.4.3s.3.2.2,1a2.9,2.9,0,0,1,0,.4Z"/><path class="cls-17" d="M133.4,64.1s-1.3.1-1.6.4a1.1,1.1,0,0,0-.3,1.1s.2.5,1,.6h.8s0,1.6-.1,2.3a3.8,3.8,0,0,0,.1,1.4,1.2,1.2,0,0,0,1.1.5s.8-.1.9-.4a13.3,13.3,0,0,0,.2-2.4V66a2.6,2.6,0,0,0,1.2-.6s.5-.5.4-1-.1-.4-.8-.5h-.8V61.5s0-.9.1-1.2-.1-.5-.8-.6a1.8,1.8,0,0,0-1.4.4,1,1,0,0,0-.2.7V64Z"/><path class="cls-17" d="M141.1,69.2h-1.2s-1-.1-1.3-.6a6,6,0,0,0,2.2-.5s1.3-.6,1.3-1.5.1-.9-1.2-1.6a3.1,3.1,0,0,0-1.3-.3l-1.3.2h-.2a3.4,3.4,0,0,0-1.8,1.5,2.4,2.4,0,0,0,.1,2.4,4,4,0,0,0,2.3,1.6,3.6,3.6,0,0,0,2.1-.1s.8-.3.7-.9A.5.5,0,0,0,141.1,69.2Zm-2.8-2a1.9,1.9,0,0,1,1.3-1.1h.2c.4,0,.3.3.3.3s-.6.7-.6.7S138.3,67.2,138.3,67.2Z"/><path class="cls-17" d="M142.6,66.3a20.6,20.6,0,0,0,.1,2.2s.2,1.4.3,1.9a1,1,0,0,0,.8.8,1.4,1.4,0,0,0,1.3-.2s.2,0,.2-.7a7.2,7.2,0,0,1,.4-1.6,2.1,2.1,0,0,1,1.2-1h.6a.9.9,0,0,0,.5-.4.6.6,0,0,0-.1-.8,2.9,2.9,0,0,0-1.6-.4,2.1,2.1,0,0,0-1.3.5,1.2,1.2,0,0,0-.1-.4,1.3,1.3,0,0,0-1.1-.5s-.9-.1-1,.4,0,0,0,.2Z"/><path class="cls-17" d="M151.8,70.6a3.9,3.9,0,0,0-1.1-2.1,3.7,3.7,0,0,0-1.8-.9,3,3,0,0,0-1.9.3H147a2.3,2.3,0,0,0-1,1.7,3.1,3.1,0,0,0,1.2,2.9,3.9,3.9,0,0,0,2.4.6,3,3,0,0,0,1.8-.7A1.9,1.9,0,0,0,151.8,70.6Zm-1.9.4a1.6,1.6,0,0,1-1,.2,1.1,1.1,0,0,1-.9-.6,1,1,0,0,1,.1-1.1h.1a1.1,1.1,0,0,1,1-.1,1.7,1.7,0,0,1,.7.6C150.2,70.6,149.9,71,149.9,71Z"/></g></g></svg>