<?xml version="1.0" encoding="utf-8"?>
<!-- Generator: Adobe Illustrator 21.0.0, SVG Export Plug-In . SVG Version: 6.00 Build 0)  -->
<svg version="1.1" id="Layer_1" xmlns="http://www.w3.org/2000/svg" xmlns:xlink="http://www.w3.org/1999/xlink" x="0px" y="0px"
	 viewBox="0 0 401.4 70.8" style="enable-background:new 0 0 401.4 70.8;" xml:space="preserve">
<style type="text/css">
	.st0{fill:#FDE2E2;}
	.st1{fill:none;stroke:#FFFFFF;stroke-width:1.92;stroke-miterlimit:22.93;}
	.st2{enable-background:new    ;}
	.st3{fill:#C23333;}
</style>
<g id="Layer_2">
	<g id="Layer_1-2">
		<polygon class="st0" points="47.5,0.8 401.4,0.8 365.6,35.4 401.4,70.1 47.5,70.1 		"/>
		<polyline class="st1" points="47.5,0.8 1.6,35.4 47.5,70.1 		"/>
		<g class="st2">
			<path class="st3" d="M79.6,46.9V17.3h7.7c2.3,0,4.3,0.8,5.9,2.5c1.6,1.6,2.5,3.6,2.5,5.9c0,2.2-0.8,4.1-2.3,5.7
				c1.2,0.8,2.1,1.8,2.8,3c0.7,1.3,1,2.6,1,4.1c0,2.3-0.8,4.3-2.5,5.9c-1.6,1.6-3.6,2.5-5.9,2.5H79.6z M83.6,30.1h3.6
				c1.2,0,2.3-0.4,3.2-1.3c0.9-0.9,1.3-1.9,1.3-3.1c0-1.2-0.4-2.3-1.3-3.1c-0.9-0.9-1.9-1.3-3.1-1.3h-3.7V30.1z M83.6,42.9h5.3
				c1.2,0,2.2-0.4,3.1-1.3c0.9-0.9,1.3-1.9,1.3-3.1c0-1.2-0.4-2.3-1.3-3.1c-0.9-0.9-1.9-1.3-3.1-1.3h-5.3V42.9z"/>
			<path class="st3" d="M107.9,46.9c-1.1,0-2.1-0.2-3.1-0.6c-1-0.4-2-1-2.7-1.8c-0.8-0.8-1.5-1.7-1.9-2.7c-0.5-1-0.7-2-0.7-3.1v-0.3
				c0-1.1,0.2-2.1,0.6-3.1c0.4-1,1-2,1.7-2.7c0.8-0.8,1.7-1.5,2.8-1.9c1-0.5,2.1-0.7,3.2-0.7h0.2c1.1,0,2.1,0.2,3.1,0.6
				c1,0.4,1.9,1,2.7,1.8c1,0.9,1.9,2.5,2.7,4.6l-11.4,5c0.4,0.3,0.8,0.5,1.2,0.7c0.5,0.2,1.1,0.3,1.6,0.3h0.2c0.6,0,1.1-0.2,1.6-0.4
				c0.5-0.2,1-0.6,1.4-1c0.4-0.4,0.7-0.9,0.9-1.4l3.8,1.4c-0.4,1-1,1.9-1.7,2.7c-0.8,0.8-1.7,1.5-2.7,1.9c-1,0.5-2,0.7-3.1,0.7
				H107.9z M107.7,34c-0.6,0-1.1,0.2-1.6,0.4c-0.6,0.3-1.1,0.6-1.5,1c-0.4,0.4-0.7,0.9-0.9,1.4c-0.2,0.5-0.3,0.9-0.3,1.4l7.2-3.2
				c-0.4-0.3-0.8-0.5-1.2-0.7C108.9,34.1,108.4,34,107.7,34L107.7,34z"/>
			<path class="st3" d="M130.2,40.6l3.3,2.4c-0.3,0.5-0.7,1-1.2,1.4c-1.7,1.7-3.7,2.5-6,2.5c-2.3,0-4.3-0.8-6-2.5
				c-1.7-1.7-2.5-3.7-2.5-6s0.8-4.3,2.5-6c1.6-1.7,3.6-2.5,6-2.5c2.3,0,4.4,0.8,6,2.5c0.4,0.4,0.8,0.9,1.2,1.4l-3.3,2.4
				c-0.2-0.4-0.5-0.7-0.8-1c-0.9-0.9-1.9-1.3-3.2-1.3c-1.2,0-2.3,0.4-3.1,1.3c-0.9,0.9-1.3,1.9-1.3,3.1s0.4,2.3,1.3,3.1
				c0.9,0.9,1.9,1.3,3.1,1.3c1.2,0,2.3-0.4,3.2-1.3C129.7,41.2,130,40.9,130.2,40.6z"/>
			<path class="st3" d="M148.6,45.6c-1.3,0.8-2.8,1.3-4.5,1.3c-2.3,0-4.3-0.8-6-2.5c-1.7-1.7-2.5-3.7-2.5-6s0.8-4.3,2.5-6
				c1.6-1.7,3.6-2.5,6-2.5c2.3,0,4.4,0.8,6,2.5c1.7,1.6,2.5,3.6,2.5,6v8.5h-4V45.6z M140.9,35.3c-0.9,0.9-1.3,1.9-1.3,3.1
				s0.4,2.3,1.3,3.1c0.9,0.9,1.9,1.3,3.1,1.3c1.2,0,2.3-0.4,3.2-1.3c0.9-0.9,1.3-1.9,1.3-3.1s-0.4-2.3-1.3-3.1
				c-0.9-0.9-1.9-1.3-3.2-1.3C142.9,34,141.8,34.4,140.9,35.3z"/>
			<path class="st3" d="M167.9,17.3l0.3,6.3h-3.9l-0.3-6.3H167.9z M173.1,17.3l0.3,6.3h-3.9l-0.3-6.3H173.1z"/>
			<path class="st3" d="M192.6,43.2h-12l-1.5,3.7h-4.4l11.8-29.6l11.9,29.6h-4.4L192.6,43.2z M191,39.2l-4.4-10.9l-4.3,10.9H191z"/>
			<path class="st3" d="M215.2,38.4c0,2.3-0.8,4.3-2.5,6c-1.7,1.7-3.6,2.5-6,2.5c-2.3,0-4.4-0.8-6-2.5c-1.7-1.7-2.5-3.7-2.5-6
				c0-2.3,0.8-4.3,2.5-6c1.7-1.7,3.7-2.5,6-2.5c1.6,0,3.1,0.4,4.5,1.3V17.3h4V38.4z M206.7,33.9c-1.2,0-2.3,0.4-3.2,1.3
				c-0.9,0.9-1.3,1.9-1.3,3.2c0,1.2,0.4,2.3,1.3,3.1c0.9,0.9,1.9,1.3,3.2,1.3c1.2,0,2.3-0.4,3.1-1.3c0.9-0.9,1.3-1.9,1.3-3.1
				c0-1.2-0.4-2.3-1.3-3.2C209,34.4,208,33.9,206.7,33.9z"/>
			<path class="st3" d="M219.9,44.4c-1.7-1.7-2.5-3.7-2.5-6s0.8-4.3,2.5-6c1.6-1.7,3.6-2.5,6-2.5s4.3,0.8,6,2.5
				c1.7,1.6,2.5,3.6,2.5,6s-0.8,4.3-2.5,6s-3.7,2.5-6,2.5S221.6,46.1,219.9,44.4z M222.7,35.3c-0.9,0.9-1.3,1.9-1.3,3.1
				s0.4,2.3,1.3,3.1c0.9,0.9,1.9,1.3,3.1,1.3c1.2,0,2.3-0.4,3.1-1.3c0.9-0.9,1.3-1.9,1.3-3.1s-0.4-2.3-1.3-3.1
				c-0.9-0.9-1.9-1.3-3.1-1.3C224.7,34,223.6,34.4,222.7,35.3z"/>
			<path class="st3" d="M240.5,46.9h-4V17.3h4V46.9z"/>
			<path class="st3" d="M249.6,35.1h2.9v4h-2.9v7.8h-4v-7.8h-2.9v-4h2.9v-7.2c0-3.7,1.1-6.5,3.3-8.4c1.6-1.4,3.5-2.2,5.6-2.2v2l0,2
				c-1,0-1.9,0.3-2.7,1c-1.4,1.1-2.1,3-2.1,5.6V35.1z"/>
			<path class="st3" d="M257.6,44.4c-1.7-1.7-2.5-3.7-2.5-6s0.8-4.3,2.5-6c1.6-1.7,3.6-2.5,6-2.5c2.3,0,4.3,0.8,6,2.5
				c1.7,1.6,2.5,3.6,2.5,6s-0.8,4.3-2.5,6s-3.7,2.5-6,2.5C261.3,46.9,259.3,46.1,257.6,44.4z M260.4,35.3c-0.9,0.9-1.3,1.9-1.3,3.1
				s0.4,2.3,1.3,3.1c0.9,0.9,1.9,1.3,3.1,1.3s2.3-0.4,3.1-1.3c0.9-0.9,1.3-1.9,1.3-3.1s-0.4-2.3-1.3-3.1c-0.9-0.9-1.9-1.3-3.1-1.3
				S261.3,34.4,260.4,35.3z"/>
			<path class="st3" d="M295.8,40.6l3.3,2.4c-0.3,0.5-0.7,1-1.2,1.4c-1.7,1.7-3.7,2.5-6,2.5c-2.3,0-4.3-0.8-6-2.5
				c-1.7-1.7-2.5-3.7-2.5-6s0.8-4.3,2.5-6c1.6-1.7,3.6-2.5,6-2.5c2.3,0,4.4,0.8,6,2.5c0.4,0.4,0.8,0.9,1.2,1.4l-3.3,2.4
				c-0.2-0.4-0.5-0.7-0.8-1c-0.9-0.9-1.9-1.3-3.2-1.3c-1.2,0-2.3,0.4-3.1,1.3c-0.9,0.9-1.3,1.9-1.3,3.1s0.4,2.3,1.3,3.1
				c0.9,0.9,1.9,1.3,3.1,1.3c1.2,0,2.3-0.4,3.2-1.3C295.4,41.2,295.6,40.9,295.8,40.6z"/>
			<path class="st3" d="M314.3,45.6c-1.3,0.8-2.8,1.3-4.5,1.3c-2.3,0-4.3-0.8-6-2.5c-1.7-1.7-2.5-3.7-2.5-6s0.8-4.3,2.5-6
				c1.7-1.7,3.6-2.5,6-2.5c2.3,0,4.4,0.8,6,2.5c1.7,1.6,2.5,3.6,2.5,6v8.5h-4V45.6z M306.6,35.3c-0.9,0.9-1.3,1.9-1.3,3.1
				s0.4,2.3,1.3,3.1c0.9,0.9,1.9,1.3,3.1,1.3c1.2,0,2.3-0.4,3.2-1.3c0.9-0.9,1.3-1.9,1.3-3.1s-0.4-2.3-1.3-3.1
				c-0.9-0.9-1.9-1.3-3.2-1.3C308.5,34,307.5,34.4,306.6,35.3z"/>
			<path class="st3" d="M324.4,46.9h-4V17.3h4V46.9z"/>
			<path class="st3" d="M330.6,46.9h-4V17.3h4V46.9z"/>
			<path class="st3" d="M341.3,46.9c-1.1,0-2.1-0.2-3.1-0.6c-1-0.4-2-1-2.7-1.8c-0.8-0.8-1.5-1.7-1.9-2.7c-0.5-1-0.7-2-0.7-3.1v-0.3
				c0-1.1,0.2-2.1,0.6-3.1c0.4-1,1-2,1.7-2.7c0.8-0.8,1.7-1.5,2.8-1.9c1-0.5,2.1-0.7,3.2-0.7h0.2c1.1,0,2.1,0.2,3.1,0.6
				c1,0.4,1.9,1,2.7,1.8c1,0.9,1.9,2.5,2.7,4.6l-11.4,5c0.4,0.3,0.8,0.5,1.2,0.7c0.5,0.2,1.1,0.3,1.6,0.3h0.2c0.6,0,1.1-0.2,1.6-0.4
				c0.5-0.2,1-0.6,1.4-1c0.4-0.4,0.7-0.9,0.9-1.4l3.8,1.4c-0.4,1-1,1.9-1.7,2.7c-0.8,0.8-1.7,1.5-2.7,1.9c-1,0.5-2,0.7-3.1,0.7
				H341.3z M341.1,34c-0.6,0-1.1,0.2-1.6,0.4c-0.6,0.3-1.1,0.6-1.5,1c-0.4,0.4-0.7,0.9-0.9,1.4c-0.2,0.5-0.3,0.9-0.3,1.4L344,35
				c-0.4-0.3-0.8-0.5-1.2-0.7C342.3,34.1,341.7,34,341.1,34L341.1,34z"/>
			<path class="st3" d="M356.2,17.3l-0.3,6.3H352l0.3-6.3H356.2z M361.4,17.3l-0.3,6.3h-3.9l0.3-6.3H361.4z"/>
		</g>
	</g>
</g>
</svg>
