<svg id="Layer_1" data-name="Layer 1" xmlns="http://www.w3.org/2000/svg" viewBox="0 0 95.6 106.7"><defs><style>.cls-1{fill:#881719;}.cls-2{fill:#f37677;}.cls-3{fill:#1d1d1b;}</style></defs><title>boquitaAsset 1</title><path class="cls-1" d="M374.6,440.2c29.1-22.4,11.8-78.2,11.8-78.2-19,13-90.5,46-90.5,46a164.1,164.1,0,0,0,24.7,23.4C334.3,426.3,356.2,422.9,374.6,440.2Z" transform="translate(-295.8 -339.8)"/><path class="cls-2" d="M372.8,441.5l1.7-1.3c-18.4-17.3-40.2-13.9-54-8.9C336.2,443.1,356.4,452.7,372.8,441.5Z" transform="translate(-295.8 -339.8)"/><ellipse class="cls-3" cx="311.1" cy="371.8" rx="5.8" ry="11.8" transform="translate(-407.9 -204.5) rotate(-20.9)"/><ellipse class="cls-3" cx="356.7" cy="351" rx="5.8" ry="11.8" transform="translate(-397.5 -189.6) rotate(-20.9)"/></svg>