<svg xmlns="http://www.w3.org/2000/svg" viewBox="0 0 61 44.5"><defs><style>.cls-1{fill:#d91f26;}.cls-2{fill:#eaeaea;}.cls-3{fill:#fff;}.cls-4{fill:#bde6f9;}</style></defs><title>coheteAsset 3</title><g id="Layer_2" data-name="Layer 2"><g id="animables"><g id="Layer_118" data-name="Layer 118"><path class="cls-1" d="M17.7,12.9S5,2.8,0,17c0,0,8,.8,10.8,5.6Z"/><path class="cls-1" d="M25.2,27.4S31,43.8,13.1,44.5c0,0,6.2-4.3,1.9-14.5Z"/><path class="cls-2" d="M10.5,33.5a83.6,83.6,0,0,0,12.4-3.3l-8-15A98.9,98.9,0,0,0,7,22.6Z"/><path class="cls-1" d="M51.1,14.1A48.7,48.7,0,0,0,61,1.1S55-.9,45.4.5C47.2,3,50.7,8.7,51.1,14.1Z"/><path class="cls-3" d="M51.1,14.1C50.7,8.7,47.2,3,45.4.5c-8.1,1.2-18.8,5-30.5,14.7l8,15C31.2,27.5,42.3,22.5,51.1,14.1Z"/><circle class="cls-1" cx="38.5" cy="12.3" r="6.5" transform="translate(18.7 47.6) rotate(-78.4)"/><circle class="cls-4" cx="38.5" cy="12.3" r="5" transform="translate(18.7 47.6) rotate(-78.4)"/><circle class="cls-1" cx="24.9" cy="19.2" r="2.8" transform="translate(1.1 39.8) rotate(-78.4)"/><circle class="cls-4" cx="24.9" cy="19.2" r="2.2" transform="translate(1.1 39.8) rotate(-78.4)"/><path class="cls-1" d="M6,36s6.4-.5,7.3-1.8S8.2,23.2,7.4,20.8c0,0-5.5,3.5-6.1,6.5Z"/></g></g></g></svg>