<svg xmlns="http://www.w3.org/2000/svg" viewBox="0 0 10.7 11.1"><defs><style>.cls-1{fill:#f1f2f2;stroke:#f1f2f2;stroke-miterlimit:10;}</style></defs><title>estrellaAsset 1</title><g id="Layer_2" data-name="Layer 2"><g id="Layer_1-2" data-name="Layer 1"><path class="cls-1" d="M4.4,2.7a7.9,7.9,0,0,1-.1.9H4.1L3.4,4,1,4.8c-.3.1-.4.1-.4.2s-.1.2.4.4l1.1.4.8.3.7.3H4c0,.1.1,1,.1,1.6v.4a6.4,6.4,0,0,1,0,1,3.5,3.5,0,0,0,0,.4.6.6,0,0,1,0,.2c-.1.1,0,.2.1.2l.5-.5.2-.3.7-.9.5-.8.3-.4.6.2.4.2.6.3.5.2.6.2.4.2.3.2h.3c0-.1,0-.1-.1-.3l-.2-.2-.2-.3-.4-.6-.5-.8-.5-.9-.2-.3H8l.8-1.2h0l.5-.7h.1l.2-.2.2-.3c.1-.2.1-.2,0-.3H9.6l-1.8.6H7.5l-.9.2V3.2l-.7-.9a6.2,6.2,0,0,1-.7-1.2L4.9.7H4.5c-.1,0-.1.2-.1,1s0,.6,0,.7ZM5.1,2l.4.6.2.3.2.3.2.3.2.2h.7l1.7-.4h.2L8.2,4.4l-.3.3-.4.7c-.1.2,0,.2.2.6l.6.9.7,1.2h0l.2.4H9.1L7.6,7.8l-.5-.2-.6-.2H6.2l-.4.5L4.5,9.7a.5.5,0,0,1,0-.2c0-.3,0-.4,0-1.1S4.4,7,4.4,6.8a.5.5,0,0,1,0-.2.4.4,0,0,0-.1-.4L2.9,5.7,1.4,5.2l.8-.3,1.2-.4.8-.3c.3-.1.4-.1.5-.4V1.6Z"/></g></g></svg>