<svg xmlns="http://www.w3.org/2000/svg" viewBox="0 0 225.1 134.2"><defs><style>.cls-1{fill:#010101;opacity:0.1;}.cls-2{fill:#f5f5c5;}.cls-3{fill:#49bcbc;}.cls-4{fill:#73cbce;}.cls-5{fill:#88cb9b;}.cls-6{fill:#fdd35d;}.cls-7{fill:#f05653;}.cls-8{fill:#57c5c8;}.cls-9{fill:#fff;opacity:0.3;}</style></defs><title>game3Asset 1</title><g id="Layer_2" data-name="Layer 2"><g id="Layer_1-2" data-name="Layer 1"><path class="cls-1" d="M27.5,133.4a25.8,25.8,0,0,0,31.4-18.3L64,95.6a18.5,18.5,0,0,0,33.3-3.5h38.9a18.5,18.5,0,0,0,33.3,3.4l5.2,19.6A25.7,25.7,0,1,0,224.3,102l-13-49.3a25.5,25.5,0,0,0-3.7-8c0-.6.1-1.3.1-1.9a30.9,30.9,0,0,0-30.8-30.9,30.4,30.4,0,0,0-20.3,7.5H76.8a30.4,30.4,0,0,0-20.3-7.5A30.8,30.8,0,0,0,25.7,42.8c0,.7,0,1.4.1,2a25.6,25.6,0,0,0-3.6,7.9L9.2,102A25.8,25.8,0,0,0,27.5,133.4Z"/><circle class="cls-2" cx="48.2" cy="30.9" r="24.7"/><polygon class="cls-3" points="108.4 7.5 48.4 7.5 48.4 80.2 108.4 80.2 168.8 80.2 168.8 7.5 108.4 7.5"/><path class="cls-3" d="M50.5,103.2A25.7,25.7,0,0,1,.8,90.1l13-49.3A25.7,25.7,0,0,1,63.5,53.9Z"/><path class="cls-3" d="M166.3,103.2A25.7,25.7,0,0,0,216,90.1L203,40.8a25.7,25.7,0,0,0-49.7,13.1Z"/><polygon class="cls-4" points="129.5 17 87.8 17 87.8 36.2 108.6 47 129.5 36.2 129.5 17"/><circle class="cls-4" cx="71.5" cy="74" r="18.5"/><circle class="cls-3" cx="71.5" cy="74" r="10.4"/><circle class="cls-4" cx="145.3" cy="74" r="18.5"/><circle class="cls-3" cx="145.3" cy="74" r="10.4"/><circle class="cls-4" cx="48.2" cy="30.9" r="30.8"/><circle class="cls-2" cx="48.2" cy="30.9" r="24.7"/><rect class="cls-3" x="42.5" y="25.4" width="11.9" height="11.92" rx="2.8" ry="2.8"/><path class="cls-3" d="M52.8,14.5l-4.6-3.7h0l-5,4h0a4.3,4.3,0,0,0-.7,2.3v3.1A2.7,2.7,0,0,0,45,23h6.3a3.1,3.1,0,0,0,3.1-2.9V16.9A2.9,2.9,0,0,0,52.8,14.5Z"/><path class="cls-3" d="M43.8,47.4l4.5,3.7h-.1l5-4.2h0c.6,0,1.2-1,1.2-1.9V41.8a3.6,3.6,0,0,0-3.1-3.4H45c-1.6,0-2.6,1.8-2.6,3.4V45A2.7,2.7,0,0,0,43.8,47.4Z"/><path class="cls-3" d="M64.6,35.7,68.3,31h-.2l-4.3-5h0c0-.6-.9-.6-1.7-.6H59.1c-1.6,0-2.3.9-2.3,2.4v6.3c0,1.6.7,3.2,2.3,3.2h3.1A3,3,0,0,0,64.6,35.7Z"/><path class="cls-3" d="M31.7,26.6,28,31.1h-.2l3.9,5h0c1.2.6,1.6,1.3,2.4,1.3h3.1a3.2,3.2,0,0,0,2.8-3.2V27.8a2.5,2.5,0,0,0-2.8-2.4H34.2A2.7,2.7,0,0,0,31.7,26.6Z"/><circle class="cls-4" cx="168.6" cy="30.9" r="30.8"/><circle class="cls-2" cx="168.6" cy="30.9" r="24.7"/><circle class="cls-3" cx="168.6" cy="31" r="6.9"/><circle class="cls-5" cx="168.6" cy="15.7" r="5.1"/><circle class="cls-6" cx="168.6" cy="46.5" r="5.1"/><circle class="cls-7" cx="184" cy="31.1" r="5.1"/><circle class="cls-8" cx="153.2" cy="31.1" r="5.1"/><path class="cls-9" d="M108,7.5H68.5A30.4,30.4,0,0,0,48.2,0,30.8,30.8,0,0,0,17.4,30.9c0,.7,0,1.4.1,2a25.5,25.5,0,0,0-3.6,7.9L.8,90.1a25.7,25.7,0,1,0,49.7,13.1l5.2-19.5a18.5,18.5,0,0,0,33.3-3.5H108Z"/></g></g></svg>