<svg xmlns="http://www.w3.org/2000/svg" viewBox="0 0 94.2 66.2"><defs><style>.cls-1{fill:#fff;stroke:#231f20;stroke-miterlimit:10;}.cls-2{fill:#010101;}</style></defs><title>haceclick3Asset 6</title><g id="Layer_2" data-name="Layer 2"><g id="Layer_1-2" data-name="Layer 1"><path class="cls-1" d="M90.4,18.1c6.8,11.7-1.8,25.3-12.5,30.7-6.9,3.5-14.7,4.8-22.4,5.3s-16.7.7-24.8-1.5c-.5-.1-.7.6-.2.8h.3a29.4,29.4,0,0,1-29,10.9c6.5-4.2,13.3-9,15.6-16.8a.4.4,0,0,0-.2-.4V47c-8.3-10.2-4.6-25.1,4.3-33.6S44.1.9,56.5,1.4A49.2,49.2,0,0,1,75.4,5.7C81.3,8.4,87.1,12.4,90.4,18.1Z"/><path class="cls-1" d="M.7,64.9A30.2,30.2,0,0,0,31.7,53.8h0c7.4,1.8,15.1,1.8,22.7,1.3S68.6,53.6,75.2,51A30.3,30.3,0,0,0,90.2,38.8c3.1-5.1,4.5-11.4,2.7-17.1S85.6,10.6,80.1,7.2A47.9,47.9,0,0,0,61.1.9C48.1-.7,33.6,2.5,23.2,10.8a29.7,29.7,0,0,0-11,17.8,23.2,23.2,0,0,0,4.5,18.9h0C14.3,55.4,7.2,60.1.6,64.3A.4.4,0,0,0,.7,64.9ZM17.4,47.6a.4.4,0,0,0-.2-.4V47c-8.3-10.2-4.6-25.1,4.3-33.6S44.1.9,56.5,1.4A49.2,49.2,0,0,1,75.4,5.7c5.9,2.7,11.7,6.7,15,12.4,6.8,11.7-1.8,25.3-12.5,30.7-6.9,3.5-14.7,4.8-22.4,5.3s-16.7.7-24.8-1.5c-.5-.1-.7.6-.2.8h.3a29.4,29.4,0,0,1-29,10.9C8.4,60.2,15.2,55.4,17.4,47.6Z"/><path class="cls-2" d="M26.4,11.6a1.8,1.8,0,0,1,1.2.5,1.7,1.7,0,0,1,0,2.5,1.8,1.8,0,0,1-1.2.5h-.7l-.6-.4-.4-.5a1.7,1.7,0,0,1,0-1.4l.4-.5.6-.4Zm1.7,12.2H24.7l.4-7.9h2.6Z"/><path class="cls-2" d="M37.5,11.8h3.2v12H37.5V19.9H33.3v3.8H30.1v-12h3.2v5.5h4.2Z"/><path class="cls-2" d="M44.9,23.7H41.8l5.8-12.2h.2l5.8,12.2H50.3l-.5-1H45.3Zm2.7-6.2-1.2,2.8h2.4Z"/><path class="cls-2" d="M64.5,21.1a5.7,5.7,0,0,1-2.2,2.2,6.5,6.5,0,0,1-3.1.7,6.4,6.4,0,0,1-2.4-.4,6.2,6.2,0,0,1-3.3-8.2,6.1,6.1,0,0,1,5.6-3.6l1.8.2,1.4.5,1.1.8.9,1-2.4,1.6-.4-.5-.6-.5-.8-.3h-1l-1.2.3a2.7,2.7,0,0,0-.9.7,3.1,3.1,0,0,0-.6,1.1,4.4,4.4,0,0,0-.2,1.3,4.2,4.2,0,0,0,.2,1.3,3.2,3.2,0,0,0,.6,1.1,2.8,2.8,0,0,0,.9.7l1.2.3a3,3,0,0,0,1.8-.5,3.5,3.5,0,0,0,1-1.2Z"/><path class="cls-2" d="M65.7,11.8h8.4v2.7H68.9v2.8h4.3v2.6H68.9v1.3h5.4v2.7H65.7Z"/><path class="cls-2" d="M35.7,42.2a5.7,5.7,0,0,1-2.2,2.2,6.5,6.5,0,0,1-3.1.7,6.4,6.4,0,0,1-2.4-.4,6.2,6.2,0,0,1-3.3-8.2,6.1,6.1,0,0,1,5.6-3.6L32,33l1.4.5,1.1.8.9,1L33,37l-.4-.5-.6-.5-.8-.3h-1l-1.2.3a2.7,2.7,0,0,0-.9.7,3.1,3.1,0,0,0-.6,1.1,4.4,4.4,0,0,0-.2,1.3,4.2,4.2,0,0,0,.2,1.3,3.2,3.2,0,0,0,.6,1.1,2.8,2.8,0,0,0,.9.7l1.2.3a3,3,0,0,0,1.8-.5,3.5,3.5,0,0,0,1-1.2Z"/><path class="cls-2" d="M36.9,32.9h3.2v9.3h5.1v2.7H36.9Z"/><path class="cls-2" d="M46.8,32.9H50v12H46.8Z"/><path class="cls-2" d="M63,42.2a5.7,5.7,0,0,1-2.2,2.2,6.5,6.5,0,0,1-3.1.7,6.4,6.4,0,0,1-2.4-.4A6.2,6.2,0,0,1,52,36.4a6.1,6.1,0,0,1,5.6-3.6l1.8.2,1.4.5,1.1.8.9,1L60.4,37l-.4-.5-.6-.5-.8-.3h-1l-1.2.3a2.7,2.7,0,0,0-.9.7,3.1,3.1,0,0,0-.6,1.1,4.4,4.4,0,0,0-.2,1.3,4.2,4.2,0,0,0,.2,1.3,3.2,3.2,0,0,0,.6,1.1,2.8,2.8,0,0,0,.9.7l1.2.3a3,3,0,0,0,1.8-.5,3.5,3.5,0,0,0,1-1.2Z"/><path class="cls-2" d="M71.2,32.9h3.6l-2.4,3.4-.9,1.2-.8,1.1-.7,1,5,5.2H70.8l-3.3-3.6v3.6H64.3v-12h3.2v5.5Z"/><path class="cls-2" d="M77.5,45.1a1.8,1.8,0,0,1-1.2-.5,1.7,1.7,0,0,1,0-2.5,1.8,1.8,0,0,1,1.2-.5h.7l.6.4.4.5a1.7,1.7,0,0,1,0,1.4l-.4.5-.6.4ZM75.9,32.9h3.3l-.4,7.9H76.2Z"/></g></g></svg>