<svg xmlns="http://www.w3.org/2000/svg" viewBox="0 0 50.1 14.1"><defs><style>.cls-1{fill:#fcee25;stroke:#c22026;stroke-miterlimit:10;stroke-width:0.75px;}</style></defs><title>juegosAsset 1</title><g id="Layer_2" data-name="Layer 2"><g id="Layer_1-2" data-name="Layer 1"><path class="cls-1" d="M1.5,2.2H1.2L1,1.8.8,1.5a1,1,0,0,1-.1-.4A.6.6,0,0,1,.8.8H5.6L6.3.5H7.9l.8.4.6.5a.7.7,0,0,1,.2.5.5.5,0,0,1-.1.3l-.3.2H7.5a.4.4,0,0,0-.1.3v.5l.2.9.2,1.2a12.2,12.2,0,0,1,.1,1.4,4.3,4.3,0,0,1-.2,1.4,3.1,3.1,0,0,1-.6,1.1,2.6,2.6,0,0,1-1,.7l-1.2.2L3.7,10,2.6,9.6l-.9-.8L1,7.8A5,5,0,0,1,.5,6.7,4.7,4.7,0,0,1,.4,5.4a.7.7,0,0,1,.2-.5L1,4.7h.5l.4.2.3.2a.5.5,0,0,1,.1.3,3.3,3.3,0,0,0,.2,1.3,3.5,3.5,0,0,0,.6,1l.9.7,1.1.3A.9.9,0,0,0,6,8.4a1.9,1.9,0,0,0,.3-1.1,13.7,13.7,0,0,0-.2-2Q6,4.2,5.7,3t-.5-.5H3.3Z"/><path class="cls-1" d="M11.3,5.8a3.5,3.5,0,0,0,.3,1.7,1,1,0,0,0,1,.6l.7-.2.6-.7a3.6,3.6,0,0,0,.4-1A5.6,5.6,0,0,0,14.4,5a6.9,6.9,0,0,0,0-.7v-1a2.1,2.1,0,0,1,0-.4.4.4,0,0,1,.2-.4h.7a1.4,1.4,0,0,1,.9.3,1,1,0,0,1,.3.8,10.8,10.8,0,0,1-.3,2.6A6.2,6.2,0,0,1,15.4,8a3.7,3.7,0,0,1-1.3,1.2,3.3,3.3,0,0,1-1.7.4l-1.2-.3a2.8,2.8,0,0,1-1-.8,3.7,3.7,0,0,1-.6-1.2A4.6,4.6,0,0,1,9.4,6q0-.3,0-.7V2.7a.5.5,0,0,1,.2-.4h1l.4.2.3.2V4.9A7,7,0,0,0,11.3,5.8Z"/><path class="cls-1" d="M24.3,6.9l.5-.2H25l.2.2.2.3v.2a.6.6,0,0,1-.2.5l-.8.6-.9.4-1,.3h-1l-1.2-.2-1-.5L18.3,8a2.8,2.8,0,0,1-.4-1V6.7h-.7a.5.5,0,0,1-.2-.4h0V5.8a.8.8,0,0,1,.2-.4h.5a.5.5,0,0,0,.5-.3,4.3,4.3,0,0,1,.6-1l.9-.8,1-.5,1.1-.2,1.1.2.9.5.6.7a1.8,1.8,0,0,1,.2.9,1.4,1.4,0,0,1-.1.6l-.4.5-.6.3-.8.2L20,6.6h-.3v.2a.6.6,0,0,0,.2.4l.4.3.6.2h1.4l.7-.2.7-.3ZM22.5,4.9h.2V4.3l-.2-.2H21l-.6.3-.5.3a.6.6,0,0,0-.2.4c0,.1.1.2.2.2h2.5Z"/><path class="cls-1" d="M30.2,2.4h2.3l.2-.2.3-.2h.4l.5.2a.5.5,0,0,1,.2.4q0,3-.2,5a14.7,14.7,0,0,1-.7,3.4A4.1,4.1,0,0,1,32,13.1a2.7,2.7,0,0,1-1.7.6l-1-.2-.9-.5-.7-.7a1.4,1.4,0,0,1-.3-.8v-.3l.3-.3.4-.3h.6l.2.3.2.4.2.4.4.3h.5q1.8,0,2.1-5.4c0-.2,0-.2-.1-.2h-.2a5,5,0,0,1-1.8,1.5,4.9,4.9,0,0,1-2.2.5L27,8.5l-.8-.5a2.2,2.2,0,0,1-.5-.7,2.3,2.3,0,0,1-.2-.9,2.9,2.9,0,0,1,.2-1,3.7,3.7,0,0,1,.5-.9l.8-.8,1-.6L29,2.6ZM28.3,7.2a3.3,3.3,0,0,0,2-.7,5.6,5.6,0,0,0,1.6-2h0l-.2-.2L31.3,4H30l-1.1.2-.9.5-.7.7a1.6,1.6,0,0,0-.2.9.9.9,0,0,0,.4.8A1.4,1.4,0,0,0,28.3,7.2Z"/><path class="cls-1" d="M35.4,6V5.7a2,2,0,0,0,0-.4V5.1L35.1,5l-.3-.2a.6.6,0,0,1-.1-.4.8.8,0,0,1,.1-.4l.3-.3,1-.6,1-.5,1-.3h1a3.7,3.7,0,0,1,3.4,2.2,3.5,3.5,0,0,1,.3,1.4,3.3,3.3,0,0,1-.3,1.4,3.8,3.8,0,0,1-.8,1.2,4,4,0,0,1-1.2.8,3.8,3.8,0,0,1-1.5.3l-1.4-.3a3.4,3.4,0,0,1-1.1-.7,3.2,3.2,0,0,1-.7-1.1A3.5,3.5,0,0,1,35.4,6Zm3.7,2h.7l.7-.4.5-.6a1.8,1.8,0,0,0,.2-.9,2.3,2.3,0,0,0-.2-.9,2.3,2.3,0,0,0-.5-.7l-.7-.5-.9-.2a1.9,1.9,0,0,0-1.4.5,1.9,1.9,0,0,0-.5,1.4,2.9,2.9,0,0,0,.2,1,2.4,2.4,0,0,0,.4.8l.7.5Z"/><path class="cls-1" d="M45.9,1.7H47l1,.4.8.5a.8.8,0,0,1,.3.5v.3l-.3.3-.4.2h-.3L47.7,4l-.5-.4-.6-.4-.7-.2h-.4a.4.4,0,0,0-.2.4.6.6,0,0,0,.2.4l.5.4.7.5.8.5.8.6.7.7.5.8a2.4,2.4,0,0,1,.2,1,2.1,2.1,0,0,1-.2.8l-.5.6-.7.4h-.9l-1.1-.2-.9-.5A2.3,2.3,0,0,1,44.6,8a1.7,1.7,0,0,1,.3-1,1,1,0,0,1,.8-.3h.5a.4.4,0,0,1,.2.3V8a.9.9,0,0,0,.1.4l.3.3.4.2h.5q.6,0,.6-.5a1.2,1.2,0,0,0-.3-.8L46.9,7l-1.1-.7-1.1-.8-.8-.8a1.6,1.6,0,0,1-.3-1,1.8,1.8,0,0,1,.2-.8l.5-.6.7-.4Z"/></g></g></svg>