<svg xmlns="http://www.w3.org/2000/svg" viewBox="0 0 92.6 91.1"><defs><style>.cls-1{fill:#bcbdbf;}.cls-1,.cls-2,.cls-3,.cls-5,.cls-7{fill-rule:evenodd;}.cls-2{fill:#fff;}.cls-3{fill:#d1d2d3;}.cls-4{fill:#e0e1e1;}.cls-5{fill:#cbccce;}.cls-6{fill:#dbdddd;}.cls-7{fill:#a9abae;}</style></defs><title>luna2Asset 1</title><g id="Layer_2" data-name="Layer 2"><g id="Layer_1-2" data-name="Layer 1"><path class="cls-1" d="M46.3,91.1c25.5,0,46.3-20.5,46.3-45.6S71.8,0,46.3,0,0,20.5,0,45.6,20.8,91.1,46.3,91.1Z"/><path class="cls-2" d="M45.5,88c24.2,0,43.9-19.4,43.9-43.2S69.7,1.6,45.5,1.6,1.7,21,1.7,44.8,21.4,88,45.5,88Z"/><path class="cls-3" d="M47.9,84.7C70,86.9,86.5,67.8,87.6,48.2S79.8,18.2,68,9.7c22.6,28.5,9.1,54.2-4.4,66.9C56.5,83.3,47.3,84.6,47.9,84.7Z"/><ellipse class="cls-4" cx="83.2" cy="51.9" rx="8.2" ry="2.9" transform="translate(21.8 128.3) rotate(-83.2)"/><path class="cls-5" d="M83.8,43.9c1.5.2,2.3,3.8,1.8,8.1s-2.1,7.6-3.6,7.4,1.4-2.1,2.2-7.7S82.3,43.7,83.8,43.9Z"/><ellipse class="cls-4" cx="5.6" cy="49.1" rx="2.5" ry="7.2" transform="translate(-10.1 2.2) rotate(-12)"/><path class="cls-5" d="M7.3,55.9c-1.3.3-3-2.5-3.8-6.2s-.4-6.9.9-7.2-.5,2.1.4,7.1S8.6,55.6,7.3,55.9Z"/><ellipse class="cls-6" cx="18.7" cy="17.9" rx="10" ry="3.5" transform="translate(-7.1 16.6) rotate(-40.8)"/><path class="cls-5" d="M11.6,24.6c-1.2-1.4,1-5.3,5-8.8s8.2-5.1,9.4-3.7-2.9.8-8.3,5.2S12.8,26,11.6,24.6Z"/><ellipse class="cls-4" cx="46.2" cy="7.6" rx="10" ry="3.5" transform="translate(-0.3 2.5) rotate(-3.1)"/><path class="cls-5" d="M36.5,8.6c-.1-1.8,4.1-3.6,9.4-3.9s9.6,1,9.7,2.8-2.8-1.2-9.8-1S36.6,10.4,36.5,8.6Z"/><path class="cls-3" d="M60.9,50.8a2.3,2.3,0,0,1,2,3,3.4,3.4,0,0,1-3.1,2.8,2.3,2.3,0,0,1-2-3A3.4,3.4,0,0,1,60.9,50.8Z"/><path class="cls-7" d="M60.6,50.9a2.2,2.2,0,0,1,1.9,2.8,3.2,3.2,0,0,1-3,2.7c-1.3,0,1.1-.7,1.6-2.7S59.2,50.8,60.6,50.9Z"/><path class="cls-3" d="M72.8,49.8c3.5.1,5.8,3.4,5,7.4s-4.3,7.1-7.8,7-5.8-3.4-5-7.4S69.3,49.6,72.8,49.8Z"/><path class="cls-7" d="M72,49.9c3.4.1,5.5,3.3,4.7,7s-4.1,6.8-7.4,6.7,2.8-1.9,4.1-6.9S68.7,49.8,72,49.9Z"/><path class="cls-3" d="M60.8,58.1a2.3,2.3,0,0,1,2,3,3.4,3.4,0,0,1-3.1,2.8,2.3,2.3,0,0,1-2-3A3.4,3.4,0,0,1,60.8,58.1Z"/><path class="cls-7" d="M60.5,58.1A2.2,2.2,0,0,1,62.4,61a3.2,3.2,0,0,1-3,2.7c-1.3,0,1.1-.8,1.6-2.8S59.2,58.1,60.5,58.1Z"/><path class="cls-3" d="M50.4,54.4a2.3,2.3,0,0,1,2,3,3.4,3.4,0,0,1-3.1,2.8,2.3,2.3,0,0,1-2-3A3.4,3.4,0,0,1,50.4,54.4Z"/><path class="cls-7" d="M50.1,54.4A2.2,2.2,0,0,1,52,57.2a3.2,3.2,0,0,1-3,2.7c-1.3,0,1.1-.7,1.6-2.8S48.8,54.4,50.1,54.4Z"/><path class="cls-3" d="M25.7,57.9c1.2,0,2,1.4,1.7,3s-1.5,2.9-2.7,2.8-2-1.4-1.7-3S24.5,57.9,25.7,57.9Z"/><path class="cls-7" d="M25.4,58c1.1,0,1.9,1.3,1.6,2.8s-1.4,2.7-2.5,2.7,1-.8,1.4-2.8S24.3,57.9,25.4,58Z"/><path class="cls-3" d="M35.2,61.2c1.2,0,2,1.4,1.7,3S35.4,67,34.2,67s-2-1.4-1.7-3S34,61.2,35.2,61.2Z"/><path class="cls-7" d="M34.9,61.3c1.1,0,1.9,1.3,1.6,2.8s-1.4,2.7-2.5,2.7,1-.8,1.4-2.8S33.8,61.2,34.9,61.3Z"/><path class="cls-3" d="M25.7,65.2c1.2,0,2,1.4,1.7,3s-1.5,2.9-2.7,2.8-2-1.4-1.7-3S24.5,65.2,25.7,65.2Z"/><path class="cls-7" d="M25.4,65.3c1.1,0,1.9,1.3,1.6,2.8s-1.4,2.7-2.5,2.7,1-.8,1.4-2.8S24.2,65.2,25.4,65.3Z"/><path class="cls-3" d="M16.8,61.5c1.2,0,2,1.4,1.7,3s-1.5,2.9-2.7,2.8-2-1.4-1.7-3S15.6,61.4,16.8,61.5Z"/><path class="cls-7" d="M16.5,61.5c1.1,0,1.9,1.3,1.6,2.8s-1.4,2.7-2.5,2.7,1-.8,1.4-2.8S15.4,61.5,16.5,61.5Z"/><ellipse class="cls-4" cx="38.3" cy="19" rx="4.8" ry="1.7" transform="translate(-4.1 13.5) rotate(-19)"/><path class="cls-5" d="M33.9,20.7c-.3-.8,1.4-2.2,3.8-3s4.5-.8,4.8,0-1.4-.2-4.6.8S34.2,21.6,33.9,20.7Z"/><ellipse class="cls-4" cx="32" cy="15.4" rx="4.8" ry="1.7" transform="translate(-2.9 21.7) rotate(-35.9)"/><path class="cls-5" d="M28.3,18.3c-.5-.7.7-2.5,2.7-4s4.1-2.1,4.6-1.4-1.4.2-4.2,2.1S28.9,19,28.3,18.3Z"/><ellipse class="cls-4" cx="31.3" cy="8.1" rx="3.2" ry="1.1" transform="matrix(0.85, -0.53, 0.53, 0.85, 0.47, 17.83)"/><path class="cls-5" d="M28.8,9.8c-.3-.5.6-1.6,2-2.5s2.8-1.2,3.1-.7-1,.1-2.8,1.2S29.1,10.3,28.8,9.8Z"/><ellipse class="cls-4" cx="29.2" cy="22.2" rx="3.2" ry="1.1" transform="translate(-7.3 18.8) rotate(-32)"/><path class="cls-5" d="M26.6,23.9c-.3-.5.6-1.6,2-2.5s2.8-1.2,3.1-.7-1,.1-2.8,1.2S26.9,24.4,26.6,23.9Z"/><ellipse class="cls-4" cx="35.1" cy="25.2" rx="2.4" ry="0.8" transform="translate(-8 22.4) rotate(-32)"/><path class="cls-5" d="M33.2,26.5c-.2-.4.4-1.2,1.5-1.9s2.1-.9,2.4-.5-.7.1-2.2.9S33.4,26.9,33.2,26.5Z"/><ellipse class="cls-4" cx="38.8" cy="27.8" rx="1.6" ry="0.6" transform="translate(-8.8 24.8) rotate(-32)"/><path class="cls-5" d="M37.5,28.7c-.2-.2.3-.8,1-1.3s1.4-.6,1.6-.4-.5,0-1.4.6S37.7,28.9,37.5,28.7Z"/><ellipse class="cls-4" cx="45.4" cy="14.6" rx="1.7" ry="4.8" transform="translate(27.1 58.6) rotate(-85.2)"/><path class="cls-5" d="M40.7,14.4c.1-.9,2.2-1.4,4.7-1.2s4.5,1.1,4.4,2-1.2-.8-4.5-1.1S40.7,15.3,40.7,14.4Z"/><ellipse class="cls-4" cx="66.8" cy="12.7" rx="3.5" ry="10" transform="translate(20.6 62.6) rotate(-57.9)"/><path class="cls-5" d="M58.3,7.9c1-1.6,5.4-.6,9.9,2.2s7.3,6.3,6.3,7.9-1.6-2.6-7.4-6.4S57.3,9.5,58.3,7.9Z"/><ellipse class="cls-4" cx="58.1" cy="15.5" rx="1.7" ry="4.8" transform="translate(20.7 62.5) rotate(-66.4)"/><path class="cls-5" d="M53.7,13.8c.4-.8,2.5-.6,4.8.4s3.9,2.5,3.5,3.3-.9-1.1-4-2.5S53.4,14.6,53.7,13.8Z"/><ellipse class="cls-4" cx="41.3" cy="76" rx="4.4" ry="12.6" transform="translate(-36.9 113.1) rotate(-86.9)"/><path class="cls-5" d="M29,74.8c-.1,2.3,5.1,4.5,11.7,4.8s12.1-1.2,12.2-3.6-3.5,1.5-12.3,1.2S29.1,72.5,29,74.8Z"/><path class="cls-3" d="M50.1,35.1c3.1.1,5.1,3,4.4,6.6s-3.8,6.3-6.9,6.2-5.1-3-4.4-6.6S47,35,50.1,35.1Z"/><path class="cls-7" d="M49.4,35.3c3,.1,4.9,2.9,4.2,6.3s-3.6,6-6.6,5.9,2.5-1.7,3.7-6.1S46.4,35.2,49.4,35.3Z"/><path class="cls-3" d="M23.7,41.9c2.2.1,3.6,2.5,3.1,5.4s-2.6,5.2-4.8,5.1S18.3,50,18.8,47,21.5,41.8,23.7,41.9Z"/><path class="cls-7" d="M23.1,42c2.1.1,3.4,2.4,2.9,5.1s-2.5,4.9-4.6,4.9,1.8-1.4,2.5-5S21.1,41.9,23.1,42Z"/><path class="cls-3" d="M71.3,20.3c5.7.2,9.3,6.5,8.1,14.2S72.5,48.1,66.7,47.9s-9.3-6.6-8.1-14.2S65.6,20.1,71.3,20.3Z"/><path class="cls-7" d="M70,20.5c5.4.2,8.9,6.2,7.7,13.5s-6.6,12.9-12,12.7,4.6-3.6,6.7-13.2S64.5,20.3,70,20.5Z"/><path class="cls-3" d="M65.1,69.2c3.6.7,5.3,4.4,3.9,8.3s-5.4,6.6-9,5.9-5.3-4.4-3.9-8.3S61.5,68.5,65.1,69.2Z"/><path class="cls-7" d="M64.3,69.2c3.4.6,5.1,4.2,3.7,7.9s-5.2,6.3-8.6,5.6,3.2-1.5,5.2-6.4S60.9,68.6,64.3,69.2Z"/><path class="cls-3" d="M15,27.8c3.4.1,5.6,3.9,4.8,8.4s-4.1,8.1-7.5,8-5.6-3.9-4.8-8.4S11.6,27.7,15,27.8Z"/><path class="cls-7" d="M14.2,28c3.2.1,5.3,3.7,4.6,8s-3.9,7.7-7.2,7.6,2.8-2.1,4-7.9S10.9,27.9,14.2,28Z"/></g></g></svg>