<svg xmlns="http://www.w3.org/2000/svg" xmlns:xlink="http://www.w3.org/1999/xlink" viewBox="0 0 23.4 27.2"><defs><style>.cls-1{fill:#fff;}.cls-2{fill:#e64d3c;}.cls-3,.cls-4{fill:#f16161;}.cls-4{opacity:0.5;}.cls-5{clip-path:url(#clip-path);}.cls-6{fill:#231f20;}.cls-7{fill:none;stroke:#873232;stroke-linecap:round;stroke-linejoin:round;stroke-width:2.7px;}</style><clipPath id="clip-path"><path class="cls-1" d="M15.8,15.7a4.8,4.8,0,1,0-9.3-1.8Z"/></clipPath></defs><title>murciAsset 7</title><g id="Layer_2" data-name="Layer 2"><g id="Layer_7" data-name="Layer 7"><ellipse class="cls-2" cx="19.8" cy="9.8" rx="5.5" ry="2.8" transform="translate(2.2 23.2) rotate(-63.5)"/><path class="cls-2" d="M18.1,1.6c-1.4-.7-3.7,1-5,3.7l-.2.4V5.3C12.6,2.2,11.1-.1,9.5,0S6.9,2.7,7.1,5.8s1.7,5.4,3.3,5.3a2.2,2.2,0,0,0,1.6-1.3,2.2,2.2,0,0,0,1,1.8c1.4.7,3.7-1,5-3.7S19.5,2.4,18.1,1.6Z"/><ellipse class="cls-2" cx="4.7" cy="6.9" rx="2.8" ry="5.5" transform="translate(-0.5 0.4) rotate(-4.7)"/><circle class="cls-3" cx="10.8" cy="16.4" r="10.8" transform="translate(-7.3 23.9) rotate(-79.1)"/><path class="cls-4" d="M21.1,13.2A10.8,10.8,0,0,1,.2,18.3a10.8,10.8,0,1,0,20.9-5.2Z"/><path class="cls-1" d="M15.8,15.7a4.8,4.8,0,1,0-9.3-1.8Z"/><g class="cls-5"><circle class="cls-6" cx="11.3" cy="13.8" r="2.6" transform="translate(-4.4 22.3) rotate(-79.1)"/></g><path class="cls-1" d="M6.1,15.2a.5.5,0,0,1,.3,1l-1,1.1a.5.5,0,0,1-1-.2L4,15.6c-.2-.5.1-.9.7-.8Z"/><path class="cls-1" d="M16.8,17.2a.5.5,0,0,1,.3,1l-1,1.1a.5.5,0,0,1-1-.2l-.5-1.4c-.2-.5.1-.9.7-.8Z"/><line class="cls-7" x1="3.2" y1="14.9" x2="18.3" y2="17.8"/></g></g></svg>