<svg xmlns="http://www.w3.org/2000/svg" xmlns:xlink="http://www.w3.org/1999/xlink" viewBox="0 0 57.8 112.5"><defs><style>.cls-1,.cls-7{fill:#f6891f;}.cls-2{fill:#8d4747;}.cls-3{isolation:isolate;}.cls-11,.cls-4{fill:none;}.cls-4{stroke:#fdb814;stroke-miterlimit:10;stroke-width:4.01px;}.cls-5{clip-path:url(#clip-path);}.cls-6{fill:#bc8e46;opacity:0.5;}.cls-6,.cls-7{mix-blend-mode:multiply;}.cls-7{opacity:0.4;}.cls-8{clip-path:url(#clip-path-2);}.cls-9{fill:#f16161;}.cls-10{fill:#fff;}.cls-11{stroke:#713f19;stroke-linecap:round;stroke-linejoin:round;stroke-width:2.96px;}</style><clipPath id="clip-path"><rect class="cls-1" x="22" y="31.2" width="31.2" height="81.33" rx="15.4" ry="15.4"/></clipPath><clipPath id="clip-path-2"><path class="cls-2" d="M47.6,50.6a10,10,0,0,1-20.1,0c0-5.5,6.5-1.2,10-1.2S47.6,45.1,47.6,50.6Z"/></clipPath></defs><title>naranAsset 4</title><g class="cls-3"><g id="Layer_2" data-name="Layer 2"><g id="Layer_4" data-name="Layer 4"><line class="cls-4" x1="37.7" y1="33.2" x2="37.7" y2="23.8"/><circle class="cls-1" cx="37.7" cy="23" r="2.4"/><rect class="cls-1" x="22" y="31.2" width="31.2" height="81.33" rx="15.4" ry="15.4"/><g class="cls-5"><path class="cls-6" d="M57.8,48.9a3.1,3.1,0,0,0-.4,3.3s-3.5.1-2.9,3.1c0,0-2.8-2.3-4.9-.8C49.6,54.6,50.5,48.2,57.8,48.9Z"/><path class="cls-6" d="M21.1,7.2c-.7-2.6-1.2-5.1-1.6-7.2L0,3.6C.4,6.1,1,9,1.8,12,5.7,26.5,12.3,37,21.6,43.1A9.9,9.9,0,1,0,32.5,26.6C29.1,24.3,24.3,19.1,21.1,7.2Z"/></g><path class="cls-7" d="M45.1,33a15.3,15.3,0,0,1,6.1,12.3V95.9a15.4,15.4,0,0,1-15.4,15.4h-.4a15.3,15.3,0,0,1-7.3-1.8,15.3,15.3,0,0,0,9.3,3.1h.4A15.4,15.4,0,0,0,53.2,97.1V46.5A15.4,15.4,0,0,0,45.1,33Z"/><path class="cls-2" d="M47.6,50.6a10,10,0,0,1-20.1,0c0-5.5,6.5-1.2,10-1.2S47.6,45.1,47.6,50.6Z"/><g class="cls-8"><ellipse class="cls-9" cx="37.7" cy="59.8" rx="6.3" ry="4.1"/><path class="cls-10" d="M34,48.9c-.4.9-2.1,2.8-3,2.4s-.8-2.9-.4-3.8A1.8,1.8,0,1,1,34,48.9Z"/><path class="cls-10" d="M29.3,57.6c.6-.8,2.6-2.3,3.4-1.7s.2,3-.4,3.8a1.8,1.8,0,1,1-3-2.1Z"/><path class="cls-10" d="M45.8,57.6c-.6-.8-2.6-2.3-3.4-1.7s-.2,3,.4,3.8a1.8,1.8,0,1,0,3-2.1Z"/><path class="cls-10" d="M41.6,48.9c.4.9,2.1,2.8,3,2.4s.8-2.9.4-3.8a1.8,1.8,0,1,0-3.4,1.4Z"/></g><path class="cls-11" d="M30.4,45c0-1.8,1.1-3.2,2.5-3.2s2.5,1.4,2.5,3.2"/><path class="cls-11" d="M40.7,45c0-1.8,1.1-3.2,2.5-3.2s2.5,1.4,2.5,3.2"/></g></g></g></svg>