<svg id="Layer_1" data-name="Layer 1" xmlns="http://www.w3.org/2000/svg" viewBox="0 0 24.3 17.3"><defs><style>.cls-1{fill:#451310;}.cls-2{fill:#8b1948;}</style></defs><title>ojitoluna</title><ellipse class="cls-1" cx="340.6" cy="398.6" rx="3" ry="4.5" transform="translate(-431.5 -281.6) rotate(-15.5)"/><ellipse class="cls-1" cx="358.6" cy="391.4" rx="3" ry="4.5" transform="translate(-428.9 -277) rotate(-15.5)"/><path class="cls-2" d="M358.9,398.4h.7l.4.4a2.9,2.9,0,0,1,.2,2.7,4.6,4.6,0,0,1-2.3,2.4,4.8,4.8,0,0,1-3.2.3l.5-.5,1.4-1.1,1.8-1.5a5.2,5.2,0,0,0,.8-1.1,2.2,2.2,0,0,0,.2-.8.9.9,0,0,0-.1-.4l-.2-.2Z" transform="translate(-337.4 -387)"/></svg>