<svg xmlns="http://www.w3.org/2000/svg" xmlns:xlink="http://www.w3.org/1999/xlink" viewBox="0 0 298.7 294.2"><defs><style>.cls-1{fill:none;}.cls-2{fill:#d696a4;}.cls-3{fill:#d8d13e;}.cls-4{fill:#c26558;}.cls-5{fill:#a9c538;}.cls-6{fill:#97d2b5;}.cls-7{fill:#c9ac68;}.cls-8{fill:url(#linear-gradient);}.cls-9{fill:url(#linear-gradient-2);}.cls-10{fill:#d9bc7b;}.cls-11{fill:#a3b476;}.cls-12{fill:#cdaf70;}.cls-13{fill:#eb753a;}.cls-14{fill:#45390c;}.cls-15{fill:#a06262;}.cls-16{fill:#4d4d62;}.cls-17{fill:#7e706d;}.cls-18{fill:#a99260;}.cls-19{fill:#604810;}.cls-20{fill:#443f35;}.cls-21{fill:#d1a292;}.cls-22{fill:#3ca5d5;}.cls-23{fill:#008896;}.cls-24{fill:#a9c3cb;}.cls-25{fill:url(#Blue_Radial);}.cls-26{fill:#c38a6d;}.cls-27{fill:#809ead;}.cls-28{fill:#c6cdc7;}.cls-29{fill:#689676;}</style><linearGradient id="linear-gradient" x1="288.34" y1="7.63" x2="292.24" y2="7.63" gradientUnits="userSpaceOnUse"><stop offset="0" stop-color="#beb8c1"/><stop offset="0.5" stop-color="#a29aa8"/><stop offset="1" stop-color="#8d8394"/></linearGradient><linearGradient id="linear-gradient-2" x1="288.34" y1="8.57" x2="292.24" y2="8.57" xlink:href="#linear-gradient"/><radialGradient id="Blue_Radial" cx="157.83" cy="120.89" r="4.58" gradientUnits="userSpaceOnUse"><stop offset="0.01" stop-color="#d7f0fc"/><stop offset="0.45" stop-color="#abe1fa"/><stop offset="1" stop-color="#96cff1"/></radialGradient></defs><title>parte01Asset 2</title><g id="Layer_2" data-name="Layer 2"><g id="Layer_96" data-name="Layer 96"><path class="cls-1" d="M222.7,91l5.2,8.1A86.6,86.6,0,0,0,222.7,91Z"/><path class="cls-1" d="M219.7,87l2.5,3.3Z"/><path class="cls-1" d="M228.1,99.6l.5,1Z"/><path class="cls-1" d="M161.1,46.9l-.6-.2-1.7,5.4c-.8,4.5-1.4,7.6-1.5,8.1C157.5,59.2,159.7,47.4,161.1,46.9Z"/><path class="cls-1" d="M236.5,122.3a41.6,41.6,0,0,1-8,2A16.2,16.2,0,0,0,236.5,122.3Z"/><path class="cls-1" d="M216.4,83.1l1,1.1Z"/><path class="cls-1" d="M163.3,62.7a71.6,71.6,0,0,1,2.8-9.6C164.9,56.1,163.5,60.1,163.3,62.7Z"/><path class="cls-1" d="M201,68l2.4,2.1Z"/><path class="cls-1" d="M203.4,70.1l.5.4Z"/><path class="cls-1" d="M194.9,63.3l-5-3c3.9,2.5,10.4,7.3,10.6,7.4C197.1,64.9,194.9,63.3,194.9,63.3Z"/><polygon class="cls-1" points="180.6 55.1 177.7 60.6 174.1 67.6 180.6 55.1 180.6 55.1"/><path class="cls-1" d="M235.1,115.4l.2.6Z"/><path class="cls-1" d="M228.6,124.2h0l8.7,4.6,1.1,1.6a26.5,26.5,0,0,0-1.1-8.7l1.1,7.2Z"/><path class="cls-1" d="M216.2,95h0l3.1-1.7Z"/><path class="cls-1" d="M232.4,108.9l2.4,5.9Z"/><path class="cls-1" d="M217.6,84.5l-13.3,7.9,13.3-7.9Z"/><path class="cls-1" d="M188.2,59.3l-.8-.5C185.7,59.5,179,71,179,71c3.1-4.7,6.8-10.6,6.8-10.6Z"/><polygon class="cls-1" points="200.6 67.7 196.3 73.2 191.5 79.2 200.6 67.7 200.6 67.7"/><path class="cls-1" d="M207.2,73.5l9,9.3C213.1,79.3,210,76.2,207.2,73.5Z"/><path class="cls-1" d="M203.4,135.5l.2.9h0Z"/><path class="cls-1" d="M159.8,80.5a73.4,73.4,0,0,0-13.7-4.4A89,89,0,0,1,159.8,80.5Z"/><path class="cls-1" d="M199.1,161.7h0Z"/><path class="cls-1" d="M179.6,93.3c1.8,1.8,3.6,3.6,5.3,5.5A53.2,53.2,0,0,0,179.6,93.3Z"/><path class="cls-1" d="M122.6,83.7l3.3-.2h-3.3Z"/><path class="cls-1" d="M268.7,27l-.8-1.7-2,1.5C270.4,31.4,268.7,27,268.7,27Z"/><path class="cls-1" d="M126,83.5h0Z"/><path class="cls-1" d="M167.8,49.3,180.5,55A132.8,132.8,0,0,0,167.8,49.3Z"/><path class="cls-1" d="M209.2,137.6c4.2,12.4,3.3,21.2,3.3,21.2S214.3,151.4,209.2,137.6Z"/><path class="cls-1" d="M147.4,44.1c-.8,2.4.5,12.8.5,12.8l-.5-12.8Z"/><path class="cls-1" d="M142.5,43.9h4.9A39.4,39.4,0,0,0,142.5,43.9Z"/><path class="cls-1" d="M152.1,44.7l8.3,2A74.1,74.1,0,0,0,152.1,44.7Z"/><path class="cls-1" d="M161.3,47l6.3,2.2Z"/><path class="cls-1" d="M142.3,53l1,3.3a27.8,27.8,0,0,1-.9-5.9Z"/><path class="cls-1" d="M195.9,72.6l-.3-.4Z"/><path class="cls-1" d="M174.5,71.5a107.5,107.5,0,0,0-13.9-7.3A128.6,128.6,0,0,1,174.5,71.5Z"/><path class="cls-1" d="M195.3,71.9l-.2-.2Z"/><path class="cls-1" d="M102.2,90.2h.5l.7-.7H103Z"/><path class="cls-1" d="M263.1,34.1s1-1.1-1.1-4.4l-2.8,2.1A6.1,6.1,0,0,0,263.1,34.1Z"/><path class="cls-1" d="M95.3,96.4h0Z"/><path class="cls-1" d="M232.6,45.5l-.7-.7Z"/><path class="cls-1" d="M95.4,96.3h0Z"/><polygon class="cls-1" points="225.4 131.1 225.9 132 225.4 131.1 225.4 131.1"/><path class="cls-1" d="M185.2,48.3A112.5,112.5,0,0,1,204.6,60a102.3,102.3,0,0,0-17.9-11Z"/><path class="cls-1" d="M164.9,41.3a50.9,50.9,0,0,0-7.5-1.2A74.6,74.6,0,0,1,164.9,41.3Z"/><path class="cls-1" d="M138.3,44.5l4.2-.5A18,18,0,0,0,138.3,44.5Z"/><path class="cls-1" d="M238.1,133a20.9,20.9,0,0,0,.3-2.3Z"/><path class="cls-1" d="M95.5,96.1h0Z"/><path class="cls-1" d="M253.9,22.8s-.8.4.6,3.7l2.2-1.4,1.2-.7C256.3,22.7,254.6,21.4,253.9,22.8Z"/><path class="cls-1" d="M218.8,120h1.1a43.4,43.4,0,0,0,9.3-1.9A89.5,89.5,0,0,1,218.8,120Z"/><path class="cls-1" d="M231.7,44.7l-1.3-1.2Z"/><path class="cls-1" d="M207.3,62.1A114.5,114.5,0,0,1,223,78.3,102.4,102.4,0,0,0,207.3,62.1Z"/><path class="cls-1" d="M95.2,96.5h0Z"/><path class="cls-1" d="M95.6,96h0Z"/><path class="cls-1" d="M96.6,96.2l-1-.3.9.3Z"/><path class="cls-2" d="M36,207.8h0Z"/><path class="cls-2" d="M209.2,240.9l.3,13.1a6.3,6.3,0,0,1-3.7,5.9h0l-31.5,19.5c-.3,5.7-.4,9.1-.4,9.1.3,1.9.6,3.9.9,5.8h47.5l3.3-54.5Z"/><polygon class="cls-2" points="43.7 177.7 43.7 177.7 43.3 177.6 43.7 177.7"/><polygon class="cls-2" points="81.9 112.6 81.9 112.6 81.8 112.6 81.9 112.6"/><path class="cls-2" d="M31.8,276l-1.3-13.1V248.2l.8-12.2,1.6-14.8,2.3-13.4.5-1.5a108.2,108.2,0,0,1,3.8-15.2l4-13.5,6-14.3.5-.9a129.8,129.8,0,0,1,7.8-14.7c1.6-3.7,6.1-10,8.3-13.1,3.7-5.7,7.5-11,11.1-15.7s4.8-6.2,4.8-6.2l3.5-4.5a438.5,438.5,0,0,0-42,56.6L9.5,157.3,12.3,239l-8,9.2H17a426.3,426.3,0,0,0-.6,46H34.9l-.7-3Z"/><polygon class="cls-2" points="32.2 236 32.2 236 31.2 236 32.2 236"/><path class="cls-2" d="M32.8,221.1h0Z"/><path class="cls-3" d="M96.5,96.3l7,2.2c-2.7-1-5.5-1.8-7-2.2Z"/><path class="cls-3" d="M65.9,134.5l1.3-1.7,6.4-8.7c1.2-2,2.4-3.7,3.5-5.2C73.4,123.5,69.7,128.8,65.9,134.5Z"/><path class="cls-3" d="M43.6,208.5c-2.9-.4-6.2-.6-7.7-.7h0Z"/><path class="cls-3" d="M160.3,288.7V288l-5.2,3.2-91-2.5L49.4,231.2l13.8-61.1h0a6.3,6.3,0,0,1,6.1-5.3L184.2,162l4.3-7.1,9,6-4.5-3.7,4.2-8.5-1.4-1.4,7.8-10.9-.2-.9c-3.7-11.5-11.9-21.2-11.9-21.2l-1.9-2a29.7,29.7,0,0,1-.1,15.4c-3.8,14.7-17.4,29.5-32.1,29.5-17.3,0-37.2-9.3-35.2-37.3,1.1-16.1,18.2-29.3,34.8-30.3a78.8,78.8,0,0,0-29.6-6.1h-1.6l-3.3.2-5.6,9-7.8-1.8-5.7-1.3-.7.7,7.5,1.7-4.8,7-1.8-.6c2.5.9,5,2,6,3.1s-1,4.6-6.1,8.9c0,0-4.1-2-8.3-3.8l1.9,1-7.7,9.2-7.4-4.1h0l13.7,8.1-6.6,9.4C87,128.3,73.6,124,73.6,124l8.3,2.8c-1.1.5-5.6,8-6.2,8.9a49.8,49.8,0,0,1,6.2,3.5l-8.2,14.3-7.9-2.9-7.9,15.5,4.8,1.9a37.7,37.7,0,0,1-5,13.8l-13.8-4.1h0l8.4,2.5c-.4-.1-3.7,11-4.2,12.8,2.5.9,2.9,1.5,2.9,1.5,2.4,5.2-1.7,15.6-1.7,15.6s-3.1-1.2-5.4-1.6-2.3,11.8-2.5,13.1a21.2,21.2,0,0,1,4.2,1.1c-.3,10.8-1.8,13.8-1.8,13.8L32.2,236h0l6.7.3c-1,1.5-.7,11.9-.7,11.9h-.1c3.3.2,3.3.6,3.3.6l.8,14.1h-4V276h4.8c1.6.8,3.1,15.3,3.1,15.3H41.2l.6,3H167.7l-.5-5.5Z"/><path class="cls-3" d="M174.2,279.4l-.8.5-.2,8.8,1,5.5h.6c-.3-1.9-.6-3.8-.9-5.7C173.8,288.5,173.9,285.1,174.2,279.4Z"/><path class="cls-4" d="M107.1,86.4a41.8,41.8,0,0,0-4.1,3.2h.4l5.7,1.3,7.8,1.8,5.6-9h0A58.7,58.7,0,0,0,107.1,86.4Z"/><path class="cls-4" d="M103.5,98.4l1.8.6,4.8-7-7.5-1.7h-.5C99,92.9,95.6,96,95.6,96l1,.3C98,96.6,100.8,97.4,103.5,98.4Z"/><path class="cls-4" d="M95.1,106.5c4.2,1.8,8.3,3.8,8.3,3.8,5.1-4.2,6.1-8.9,6.1-8.9s-3.4-2.1-6-3.1l-7-2.2-.9-.3h0l-7.1,8.1C89.8,104,93,105.5,95.1,106.5ZM95.5,96h0Zm-.1.2h0Zm-.1.1h0Zm-.1.2h0Z"/><path class="cls-4" d="M81.9,112.6l7.4,4.1,7.7-9.2-1.9-1c-2.1-1-5.3-2.5-6.6-2.5l-3.2,4-3.5,4.5Z"/><path class="cls-4" d="M77,118.8c-1.1,1.5-2.2,3.3-3.5,5.2,0,0,13.4,4.3,15.4,6.1l6.6-9.4-13.7-8.1h-.1S79.8,114.9,77,118.8Z"/><path class="cls-4" d="M75.6,135.8c.6-1,5.1-8.4,6.2-8.9L73.6,124l-6.4,8.8A41,41,0,0,1,75.6,135.8Z"/><path class="cls-4" d="M65.9,134.5c-2.2,3.1-6.7,9.4-8.3,13.1l8.1,3h0l7.9,2.9,8.3-14.2a49.8,49.8,0,0,0-6.2-3.5,41,41,0,0,0-8.4-3Z"/><path class="cls-4" d="M57.6,147.6a129.8,129.8,0,0,0-7.7,14.8l-.5.9c.6-.1,4.9,1.5,8.4,2.9l7.9-15.5h0Z"/><path class="cls-4" d="M49.4,163.2l-6,14.3h.4l13.8,4.1a37.7,37.7,0,0,0,5-13.8l-4.8-1.9C54.3,164.7,50,163.1,49.4,163.2Z"/><path class="cls-4" d="M39.3,191.1a50.7,50.7,0,0,1,8.6,1.9c.5-1.8,3.9-12.9,4.2-12.8l-8.4-2.5h-.4Z"/><path class="cls-4" d="M39.3,191.1a108.2,108.2,0,0,0-3.7,15.2l-.5,1.5H36c1.5.1,4.7.3,7.7.7h0c2.3.4,4.4.9,5.4,1.6s4.2-10.4,1.8-15.6c0,0-.4-.6-2.9-1.5A50.7,50.7,0,0,0,39.3,191.1Z"/><path class="cls-4" d="M43.6,208.5l-7.7-.7h-.9l-2.3,13.4h.9a34.9,34.9,0,0,1,7.6.5c.1-1.4,1.3-12.1,2.5-13.1h0Z"/><path class="cls-4" d="M33.6,221.1h-.9L31.2,236h1l11.5.5s1.4-3,1.8-13.7a21.2,21.2,0,0,0-4.2-1.1A34.9,34.9,0,0,0,33.6,221.1Z"/><path class="cls-4" d="M30.4,248.2c3.6-.1,6-.1,7.7,0h.1s-.3-10.5.7-11.9l-6.7-.3h-1Z"/><path class="cls-4" d="M30.4,248.2v14.7H42.2l-.7-14.1s0-.4-3.3-.6C36.5,248.1,34,248.1,30.4,248.2Z"/><polygon class="cls-4" points="30.4 262.9 31.8 276 38.2 276 38.2 262.9 30.4 262.9"/><path class="cls-4" d="M31.8,276l2.5,15.3H46s-1.5-14.5-3.1-15.2H31.8Z"/><polygon class="cls-4" points="34.3 291.2 35 294.2 41.8 294.2 41.2 291.2 34.3 291.2"/><polygon class="cls-4" points="167.1 288.7 167.7 294.2 174.1 294.2 173.1 288.7 167.1 288.7"/><polygon class="cls-4" points="160.3 288.7 167.1 288.7 173.1 288.7 173.4 279.9 160.3 288 160.3 288.7"/><path class="cls-4" d="M198.9,161.7h0l-.4-.2,3.7-7.7-5-5-4.2,8.5,4.5,3.7-9-6-4.3,7.1Z"/><path class="cls-4" d="M202.2,153.8l2.9-6.1a31.7,31.7,0,0,0-1.5-11.3h0l-7.8,10.9,1.4,1.4Z"/><path class="cls-5" d="M9.5,157.3,0,180.5l4.3,67.7,8-9.2ZM2.4,183.5l6.3-13.4,1.8,60.7L6.5,239Z"/><polygon class="cls-5" points="225.5 239.7 222.2 294.2 226.2 294.2 228.8 258.9 232.1 266.1 231.3 294.2 233.9 294.2 234.5 261 225.5 239.7"/><polygon class="cls-6" points="8.8 170.1 2.4 183.5 6.5 239 10.6 230.8 8.8 170.1"/><polygon class="cls-6" points="228.8 258.9 226.2 294.2 231.3 294.2 232.1 266.1 228.8 258.9"/><path class="cls-7" d="M288.1,10.8a4.1,4.1,0,0,0,.8-1.7L288.3,8a3,3,0,0,0-1.3-.1L268.1,18.6A42.3,42.3,0,0,1,271,23C281.1,15.5,288.1,10.8,288.1,10.8Z"/><path class="cls-7" d="M231.7,44.7l.2.2.7.7a53.1,53.1,0,0,1,3.7,3.9l.7.8c7.2-6.3,14.6-12.4,21.6-17.8h-.1l.7-.6h.1l2.8-2.1-1.1-1.5a38.8,38.8,0,0,0-3.1-3.9l-1.2.7-2.2,1.4h0l-1.2.8h0L229.5,42.7l.9.7h0Z"/><path class="cls-7" d="M264.5,27.8l-.2-.2,1.3-1,.2.2,2-1.5a28.9,28.9,0,0,0-3-4.9l-4.1,2.3a40.4,40.4,0,0,1,3.7,5.1Z"/><path class="cls-8" d="M288.9,9.1h0l3.2-1.9s.5-.8-.6-1.2h-.3L288.3,8h0A.9.9,0,0,1,288.9,9.1Z"/><path class="cls-7" d="M288.3,8l.6,1.1A.9.9,0,0,0,288.3,8Z"/><path class="cls-9" d="M288.3,8l.6,1.1A.9.9,0,0,0,288.3,8Z"/><circle class="cls-10" cx="294.9" cy="3.8" r="3.8"/><path class="cls-11" d="M254.5,26.5h0c-1.4-3.3-.6-3.7-.6-3.7s2.4,0,4,1.7a38.8,38.8,0,0,1,3.1,3.9l1.1,1.5c2.1,3.3,1.1,4.4,1.1,4.4a6.1,6.1,0,0,1-3.9-2.2h-.1l-.7.6h.1c1.5,2.2,8.3,7.5,8.3,7.5,5.7,1.5,0-8.2,0-8.2s-1.5-2.7-2.3-3.9a40.4,40.4,0,0,0-3.7-5.1c-5.2-6-9.3-6.3-9.3-6.3-4.8.6,1.9,10.8,1.9,10.8h0Z"/><path class="cls-11" d="M268.7,27s1.7,4.4-2.8-.2l-.2-.2-1.3,1,.2.2c1.2,1.4,7.5,8.4,9,7.3,0,0,2.1-.1,1-4.2v-.4A51.9,51.9,0,0,0,271,23a42.3,42.3,0,0,0-2.9-4.4c-2.4-3.2-5.5-6.2-9.2-7.3,0,0-5.8-.3,1.6,11.2l2.2-1.4s-2.2-3.1-1-3.4,1.2.2,3.1,2.6a28.9,28.9,0,0,1,3,4.9Z"/><path class="cls-12" d="M164.9,41.3a92.2,92.2,0,0,1,20.3,7l1.5.7a102.3,102.3,0,0,1,17.9,11l2.7,2.1h0A102.4,102.4,0,0,1,223,78.3a98.1,98.1,0,0,1,17.2,32.3c.9,2.8,1.2,4.4,1.2,4.4,8.3-12.3,7.5-27,7.5-27,.4-18-5.9-30.4-12.7-38.5a53.1,53.1,0,0,0-3.7-3.9l-.7-.7-.2-.2-1.3-1.2h0a45,45,0,0,0-10.8-7.2c-36.8-17.5-64.4,3.6-64.4,3.6h.4l1.9.2A50.9,50.9,0,0,1,164.9,41.3Z"/><polygon class="cls-13" points="217.6 84.5 217.6 84.5 217.6 84.5 217.6 84.5"/><path class="cls-13" d="M142.5,43.9h0a39.4,39.4,0,0,1,4.9.1h0c4,.3,4.7.6,4.7.6h0a74.1,74.1,0,0,1,8.3,2h0l.6.2h.2l6.3,2.2h.2A132.8,132.8,0,0,1,180.5,55h.1c3.4,1.7,6.8,3.7,6.8,3.7h0l.8.5h0l1.7,1,5,3s2.2,1.6,5.6,4.4h0l.4.3,2.4,2.1h0l.5.4,3.2,2.9h0c2.8,2.7,5.9,5.8,9,9.3h0l.2.2,1,1.1.2.2,2,2.5,2.5,3.3.4.6h0a86.6,86.6,0,0,1,5.2,8.1h.1l.2.4.5,1,.3.6a55.9,55.9,0,0,1,2.6,5.6l.9,2.1,2.4,5.9v.2l.2.4.2.6v.2a50.9,50.9,0,0,1,1.9,5.7h0a26.5,26.5,0,0,1,1.1,8.7h0v.2a20.9,20.9,0,0,1-.3,2.3l5.2-6.3a65.5,65.5,0,0,0-3.1-16.1A98.1,98.1,0,0,0,223,78.3a114.5,114.5,0,0,0-15.7-16.1h0L204.6,60a112.5,112.5,0,0,0-19.4-11.7,92.2,92.2,0,0,0-20.3-7,74.6,74.6,0,0,0-7.5-1.2l-1.9-.2a64.3,64.3,0,0,0-12.1.2l-5.2,4.3a18,18,0,0,1,4.2-.5Z"/><polygon class="cls-13" points="200.6 67.7 200.6 67.7 200.6 67.7 200.6 67.7"/><polygon class="cls-13" points="147.4 44.1 147.4 44.1 147.4 44.1 147.4 44.1"/><polygon class="cls-13" points="180.6 55.1 180.6 55 180.6 55.1 180.6 55.1"/><path class="cls-14" d="M147.4,44.1h-4.9l-.2,6.4a27.8,27.8,0,0,0,.9,5.9l4.6.6S146.6,46.4,147.4,44.1Z"/><path class="cls-14" d="M167.7,49.2h-.1L161.3,47h-.2c-1.3.5-3.6,12.2-3.8,13.3h0a11.3,11.3,0,0,1,6,2.4c.2-2.6,1.7-6.6,2.8-9.6C166.6,51.8,167.1,50.5,167.7,49.2Z"/><path class="cls-14" d="M187.4,58.8h0s-3.4-2-6.8-3.7h0l-6.5,12.5L179,71S185.7,59.5,187.4,58.8Z"/><path class="cls-14" d="M207.1,73.5l-3.2-2.9-.5-.4h0L201,68l-.4-.3h0l-9.1,11.5,4.8,5.3,5.8-5.9Z"/><path class="cls-14" d="M222.6,90.9l-.4-.6L219.7,87l-2-2.5h0l-13.3,7.9,3.5,6.9,8.5-4.3,3.1-1.7A21.5,21.5,0,0,0,222.6,90.9Z"/><path class="cls-14" d="M229,101.2l-14.6,5.7,2.5,5.4,8.1-3,6.6-2.4A55.9,55.9,0,0,0,229,101.2Z"/><polygon class="cls-14" points="228.6 124.2 228.6 124.2 228.6 124.2 228.6 124.2"/><path class="cls-14" d="M236.5,122.3l.8-.5a50.9,50.9,0,0,0-1.9-5.7,32.2,32.2,0,0,1-6.2,2.1,43.4,43.4,0,0,1-9.3,1.9l1.8,5.3,7-1.1h0A41.6,41.6,0,0,0,236.5,122.3Z"/><polygon class="cls-14" points="238.4 130.5 225.4 131.1 225.9 132 226.9 133.5 238.1 133 238.3 130.7 238.4 130.5"/><polygon class="cls-15" points="238.4 130.5 238.4 130.5 237.3 128.8 228.6 124.2 228.6 124.2 225.4 131.1 225.4 131.1 238.4 130.5"/><path class="cls-15" d="M235.4,116.1v-.2l-.2-.6-.2-.4H224.3l-5.5,5a89.5,89.5,0,0,0,10.5-1.8A32.2,32.2,0,0,0,235.4,116.1Z"/><polygon class="cls-15" points="229 101.2 228.6 100.6 228.1 99.6 227.9 99.2 219.9 100.3 214.4 106.8 229 101.2"/><path class="cls-15" d="M217.6,84.5l-.2-.2-1-1.1-.2-.2-7.5,2.8-4.5,6.7,13.3-7.9Z"/><path class="cls-15" d="M188.3,59.3h0l-2.4,1.1S182.1,66.3,179,71l2.9-1.2,4-5Z"/><path class="cls-15" d="M167.7,49.2c-.6,1.3-1.2,2.6-1.6,3.9a71.6,71.6,0,0,0-2.8,9.6l5.8-5.9Z"/><path class="cls-15" d="M152.1,44.7s-.7-.4-4.7-.6h0l.5,12.8,5.5-6.5Z"/><path class="cls-16" d="M142.3,50.3l.2-6.4h0l-4.2.5s-4.3,4.1,0,12.4l4-3.9Z"/><path class="cls-16" d="M160.4,46.7h-.1l-8.3-2h0l1.3,5.7c4.4.5,5.3,1.8,5.3,1.8l1.7-5.4Z"/><path class="cls-16" d="M180.6,55h-.1l-12.6-5.7h-.1l1.3,7.6c4.1.7,8.6,3.8,8.6,3.8l2.9-5.6Z"/><path class="cls-16" d="M200.6,67.7h0c-.2-.1-6.7-5-10.6-7.4l-1.7-1-2.3,5.5a29.2,29.2,0,0,1,9.2,6.8l.2.2.3.3.3.4.4.6,4.3-5.5Z"/><polygon class="cls-16" points="216.2 82.8 216.2 82.8 207.2 73.5 207.1 73.5 202.1 78.6 208.8 85.6 216.2 82.8"/><path class="cls-16" d="M227.9,99.2h-.1L222.7,91h0a21.5,21.5,0,0,1-3.4,2.4L216.2,95c3,1.4,3.7,5.3,3.7,5.3Z"/><polygon class="cls-16" points="234.9 115 234.9 114.8 232.4 108.9 231.6 106.8 225 109.2 227.1 115 234.9 115"/><path class="cls-16" d="M238.4,129l-1.1-7.2h0l-.8.5a16.2,16.2,0,0,1-8,2h0Z"/><path class="cls-17" d="M160.6,64.2a107.5,107.5,0,0,1,13.9,7.3c15,9.2,36.8,27.5,48.8,63.5l2.6-3-.5-.9,3.2-6.8-7,1.1-1.7-5.2h-1.1l5.5-5h2.8l-2.1-5.7-8.1,3-2.5-5.4,5.5-6.5s-.7-4-3.7-5.3h0l-8.5,4.3-3.5-6.9,4.5-6.7-6.7-7.1-5.8,5.9-4.7-5.2,4.8-6-.4-.6-.3-.4-.3-.3-.2-.2a29.2,29.2,0,0,0-9.2-6.8l-4,5L179,71l-4.9-3.4,3.6-7s-4.6-3.1-8.6-3.8l-5.8,5.9a11.3,11.3,0,0,0-6-2.4h0c.1-.5.7-3.6,1.5-8.1,0,0-.9-1.2-5.3-1.8l-5.5,6.5-4.6-.6-1-3.2-4,3.9s2.3.4,5.9,1.5a86.4,86.4,0,0,1,16.3,5.8Z"/><path class="cls-18" d="M146.1,76.1a73.4,73.4,0,0,1,13.7,4.4,54.7,54.7,0,0,1,5,2.3c5.2,2.2,10.2,6,14.8,10.4a53.2,53.2,0,0,1,5.3,5.5,152.1,152.1,0,0,1,16.3,22.3,76.1,76.1,0,0,1,8,16.5c5,13.7,3.3,21.2,3.3,21.2,4.2-3.5,13.7-13.8,13.7-13.8q-1.4-5.2-3-10c-12-36-33.8-54.3-48.8-63.5a128.6,128.6,0,0,0-13.9-7.3h-.1a86.4,86.4,0,0,0-16.3-5.8c-18.5-4.5-30.6-.4-30.6-.4-8.9,7.4-16.4,21.4-16.4,21.4s0,.8,0,.8c15.3-6.3,32.1-6.3,32.1-6.3A85.5,85.5,0,0,1,146.1,76.1Z"/><path class="cls-19" d="M103,89.5a41.8,41.8,0,0,1,4.1-3.2,58.7,58.7,0,0,1,15.5-2.7h4.9a78.8,78.8,0,0,1,29.6,6.1h2.2a31.2,31.2,0,0,1,30.4,22.8l1.9,2s8.1,9.7,11.9,21.2l.3.9a31.7,31.7,0,0,1,1.5,11.3l-2.9,6.1-3.7,7.7.4.2h2a6.3,6.3,0,0,1,2.2.4l3.1-.5,6.3-2.7s.9-8.7-3.3-21.2a76.1,76.1,0,0,0-8-16.5,152.1,152.1,0,0,0-16.3-22.3c-1.7-1.9-3.5-3.7-5.3-5.5-4.6-4.4-9.7-8.2-14.8-10.4a54.7,54.7,0,0,0-5-2.3,89,89,0,0,0-13.7-4.4,85.5,85.5,0,0,0-16.8-2.3s-16.8,0-32.1,6.3c0,0-1.9,9.9-1.5,15.8,0,0,3.4-3.1,6.6-5.8Z"/><path class="cls-4" d="M159.3,150.4c-17.3,0-31.4-13.6-31.4-30.4s14-30.4,31.4-30.4h-2.2c-16.7,1.1-33.7,14.3-34.8,30.3-2,28,17.9,37.3,35.2,37.3,14.7,0,28.3-14.8,32.1-29.5A31.2,31.2,0,0,1,159.3,150.4Z"/><path class="cls-12" d="M144.8,107.2h0Z"/><path class="cls-12" d="M174.4,116.1h0Z"/><path class="cls-12" d="M145,107a17.1,17.1,0,0,1,6-3.3A15.7,15.7,0,0,0,145,107Z"/><path class="cls-12" d="M171,134.7a21,21,0,0,0,3.4-18.3C175.6,120.7,175.6,127,171,134.7Z"/><path class="cls-12" d="M140,114.7a23.8,23.8,0,0,1,3.7-6.5A19,19,0,0,0,140,114.7Z"/><path class="cls-12" d="M170.7,109.4a19.1,19.1,0,0,0-12-6.2c3.5.6,7.5,2.4,11.9,6.1Z"/><path class="cls-12" d="M159.3,89.6c-17.3,0-31.4,13.6-31.4,30.4s14,30.4,31.4,30.4a31.2,31.2,0,0,0,30.3-22.6,29.7,29.7,0,0,0,.1-15.4A31.2,31.2,0,0,0,159.3,89.6ZM173.8,133l-3.7,2.9h0c-1.7,1.4-7.4,5.2-17.2,1.4a16.3,16.3,0,0,1-5-2.4h-.1s-11.1-6.8-8.4-18.1l-.4,1.8s-.8-12.4,14.2-19.2c0,0,15.4-6,24.9,9.6C178.1,108.8,183.5,123,173.8,133Z"/><path class="cls-20" d="M153.3,99.2c-15,6.9-14.2,19.3-14.2,19.3l.4-1.8a17.4,17.4,0,0,1,.6-2,19,19,0,0,1,3.7-6.5v-.2l1-.9h.2a15.7,15.7,0,0,1,6-3.3,16.2,16.2,0,0,1,7.7-.4,19.1,19.1,0,0,1,12,6.2,17,17,0,0,1,3.6,6.6h0v.2a21,21,0,0,1-3.4,18.3l-.4.6-.5.5h0l3.7-2.9c9.7-10,4.3-24.1,4.3-24.1C168.6,93.2,153.3,99.2,153.3,99.2Z"/><path class="cls-21" d="M170.7,135.3l.4-.6c4.6-7.7,4.6-14,3.4-18.3v-.2h0a17,17,0,0,0-3.6-6.6h-.1c-4.4-3.7-8.4-5.5-11.9-6.1a16.2,16.2,0,0,0-7.7.4,17.1,17.1,0,0,0-6,3.3h-.2l-1,.9v.2a23.8,23.8,0,0,0-3.7,6.5,17.4,17.4,0,0,0-.6,2c-2.6,11.2,8.4,18.1,8.4,18.1h.1a16.5,16.5,0,1,1,5,2.4c9.8,3.7,15.5,0,17.2-1.4Z"/><path class="cls-22" d="M157.8,114.6h1.1a5.4,5.4,0,0,0-6.2,2.5A6.3,6.3,0,0,1,157.8,114.6Z"/><path class="cls-22" d="M151.6,121.7a5.7,5.7,0,0,0,2.5,4.3A6.3,6.3,0,0,1,151.6,121.7Z"/><path class="cls-22" d="M173.8,121.5a16.4,16.4,0,1,0-16.4,16.4A16.4,16.4,0,0,0,173.8,121.5ZM146,113.8s7.1-10.6,18.2-2.9,4.8,16.3,4.8,16.3c-5.5,10.6-17.4,4.8-17.4,4.8C140.3,125.7,146,113.8,146,113.8Z"/><path class="cls-22" d="M164,119.5a5.5,5.5,0,0,0-3.4-4.3h0A6.3,6.3,0,0,1,164,119.5Z"/><path class="cls-22" d="M163.7,123.2h0Z"/><path class="cls-23" d="M163.7,123.2h0a8.7,8.7,0,0,0,.3-3.7,6.3,6.3,0,0,0-3.4-4.3,8.3,8.3,0,0,0-1.7-.6h-1.1a6.3,6.3,0,0,0-5.1,2.6h0a8.2,8.2,0,0,0-1.2,4.5,6.3,6.3,0,0,0,2.5,4.3h0C160.6,129.7,163.6,123.5,163.7,123.2Zm-10.5-2.4a4.6,4.6,0,1,1,4.6,4.6A4.6,4.6,0,0,1,153.3,120.9Z"/><path class="cls-24" d="M152.7,117.2h0a5.4,5.4,0,0,1,6.2-2.5,8.3,8.3,0,0,1,1.7.6h0l3.5-4.3c-11.1-7.7-18.2,2.9-18.2,2.9Z"/><path class="cls-24" d="M164,119.5a8.7,8.7,0,0,1-.3,3.7h0l5.2,4s6.2-9.7-4.7-16.3l-3.5,4.3A5.5,5.5,0,0,1,164,119.5Z"/><path class="cls-24" d="M163.7,123.2c-.1.2-3.1,6.4-9.7,2.7l-2.5,6s11.9,5.8,17.4-4.7l-5.2-4Z"/><path class="cls-24" d="M151.5,132l2.5-6h0a5.7,5.7,0,0,1-2.5-4.3,8.2,8.2,0,0,1,1.2-4.5l-6.7-3.4S140.3,125.7,151.5,132Z"/><circle class="cls-23" cx="157.8" cy="120.9" r="4.6"/><circle class="cls-25" cx="157.8" cy="120.9" r="4.6"/><path class="cls-26" d="M65.4,258.9a6.3,6.3,0,0,1-.2-1.5l-2.1-86.1a6.4,6.4,0,0,1,.1-1.2h0L49.4,231.2,64,288.7l1.4-29.8Z"/><path class="cls-27" d="M71.7,263.6a6.3,6.3,0,0,1-6.3-4.7h0L64,288.7l91,2.5,5.3-3.2,13.1-8.1.8-.5,31.5-19.5h0a6.3,6.3,0,0,1-2.5.6Z"/><path class="cls-28" d="M199.1,161.7h-.2l-14.7.4L69.3,164.8a6.4,6.4,0,0,0-6.2,6.5l2.1,86.1a6.4,6.4,0,0,0,6.5,6.2l131.6-3.2a6.3,6.3,0,0,0,6.2-6.5l-.3-13.1-1.8-73a6.4,6.4,0,0,0-6.5-6.2Zm1,84.3H72.8V177.6H200.1Z"/><rect class="cls-29" x="72.8" y="177.6" width="127.3" height="68.42"/></g></g></svg>