<!-- Generator: Adobe Illustrator 21.0.0, SVG Export Plug-In  -->
<svg version="1.1"
	 xmlns="http://www.w3.org/2000/svg" xmlns:xlink="http://www.w3.org/1999/xlink" xmlns:a="http://ns.adobe.com/AdobeSVGViewerExtensions/3.0/"
	 x="0px" y="0px" width="62.7px" height="60.8px" viewBox="0 0 62.7 60.8" style="enable-background:new 0 0 62.7 60.8;"
	 xml:space="preserve">
<style type="text/css">
	.st0{fill:#CDAF70;}
	.st1{fill:#443F35;}
	.st2{fill:#D1A292;}
	.st3{fill:#3CA5D5;}
	.st4{fill:#008896;}
	.st5{fill:#A9C3CB;}
	.st6{fill:url(#SVGID_1_);}
	.st7{fill:url(#SVGID_2_);}
</style>
<defs>
</defs>
<path class="st0" d="M31.4,0C14,0,0,13.6,0,30.4c0,16.8,14,30.4,31.4,30.4c14.5,0,26.7-9.6,30.3-22.6c0.7-2.5,1.1-5.1,1.1-7.8
	c0-2.6-0.3-5.2-1-7.6C58.3,9.7,46,0,31.4,0z M45.9,43.4l-3.7,2.9l0,0c-1.7,1.4-7.4,5.2-17.2,1.4c-1.8-0.5-3.5-1.3-5-2.4
	c0,0-0.1,0-0.1,0c0,0-11.1-6.8-8.4-18.1c-0.1,0.6-0.3,1.1-0.4,1.8c0,0-0.8-12.4,14.2-19.3c0,0,15.4-6,24.9,9.6
	C50.2,19.3,55.6,33.4,45.9,43.4z"/>
<path class="st1" d="M25.3,9.7c-15,6.9-14.2,19.3-14.2,19.3c0.1-0.6,0.3-1.2,0.4-1.8c0.2-0.6,0.4-1.3,0.6-2c1-2.8,2.3-4.9,3.7-6.5
	c0-0.1,0.1-0.1,0.1-0.2c0,0,0.3-0.4,1-0.9c0,0,0,0,0.1-0.1c0,0,0.1-0.1,0.1-0.1c2-1.8,4.2-2.8,6-3.3c2.2-0.7,4.8-1,7.7-0.4
	c3.3,0.5,8.3,1.9,12,6.2c0.4,0.5,2.5,2.8,3.6,6.6c0,0,0,0,0,0c0,0,0,0.1,0,0.1c0,0.1,0,0.1,0.1,0.2c2.6,8.8-1.5,15.7-3.4,18.3
	c-0.1,0.2-0.2,0.4-0.4,0.6c0,0-0.2,0.2-0.5,0.5l0,0l3.7-2.9c9.7-10,4.3-24.1,4.3-24.1C40.7,3.7,25.3,9.7,25.3,9.7z"/>
<path class="st2" d="M42.7,45.8c0.1-0.2,0.3-0.4,0.4-0.6c4.6-7.7,4.6-14,3.4-18.3c0-0.1,0-0.1-0.1-0.2c0,0,0-0.1,0-0.1
	c-1.1-3.8-3.1-6.1-3.6-6.6c-0.1-0.1-0.1-0.1-0.1-0.1c-4.4-3.7-8.4-5.5-11.9-6.1c-3-0.5-5.6-0.2-7.7,0.4c-2.8,0.9-4.8,2.3-6,3.3
	c-0.1,0-0.1,0.1-0.1,0.1c0,0,0,0-0.1,0.1c-0.6,0.6-1,0.9-1,0.9c0,0.1-0.1,0.1-0.1,0.2c-1.8,2.3-3,4.4-3.7,6.5
	c-0.2,0.7-0.5,1.3-0.6,2c-2.6,11.2,8.4,18.1,8.4,18.1c0,0,0.1,0,0.1,0c-4.2-3-6.9-7.8-6.9-13.3c0-9.1,7.3-16.4,16.4-16.4
	c9.1,0,16.4,7.3,16.4,16.4s-7.3,16.4-16.4,16.4c-1.6,0-3-0.2-4.5-0.6c9.8,3.7,15.5,0,17.2-1.4C42.6,46,42.7,45.8,42.7,45.8z"/>
<path class="st3" d="M45.9,31.9c0-9.1-7.3-16.4-16.4-16.4c-9.1,0-16.4,7.3-16.4,16.4c0,5.5,2.7,10.4,6.9,13.3c1.5,1.1,3.2,1.9,5,2.4
	c1.4,0.4,2.9,0.6,4.5,0.6C38.6,48.3,45.9,41,45.9,31.9z M18.1,24.3c0,0,7.1-10.6,18.2-2.9C47.2,27.9,41,37.7,41,37.7
	c-5.5,10.6-17.4,4.8-17.4,4.8C12.3,36.2,18.1,24.3,18.1,24.3z"/>
<path class="st4" d="M35.8,33.7C35.8,33.7,35.8,33.7,35.8,33.7c0.4-1.5,0.5-2.7,0.3-3.7c-0.4-1.9-1.7-3.5-3.4-4.3
	c0,0-0.7-0.3-1.7-0.6C30.6,25,30.3,25,29.9,25c-2.1,0-4,1-5.1,2.6l0,0c-1,1.8-1.2,3.3-1.2,4.5c0.2,1.7,1.1,3.3,2.5,4.3l0,0
	C32.7,40.1,35.7,33.9,35.8,33.7z M25.3,31.3c0-2.5,2.1-4.6,4.6-4.6s4.6,2.1,4.6,4.6c0,2.5-2.1,4.6-4.6,4.6S25.3,33.9,25.3,31.3z"/>
<path class="st5" d="M24.8,27.6L24.8,27.6c1.7-2.9,4.4-2.9,6.2-2.5c1,0.2,1.7,0.6,1.7,0.6l0,0l3.5-4.3c-11.1-7.7-18.2,2.9-18.2,2.9
	L24.8,27.6z"/>
<path class="st5" d="M36.1,30c0.2,1,0.1,2.2-0.3,3.7c0,0,0,0,0,0l5.2,4c0,0,6.2-9.8-4.8-16.3l-3.5,4.3C32.7,25.7,35.6,26.6,36.1,30z
	"/>
<path class="st5" d="M35.8,33.7c-0.1,0.2-3.1,6.4-9.7,2.7l-2.5,6c0,0,11.9,5.8,17.4-4.8L35.8,33.7C35.8,33.7,35.8,33.7,35.8,33.7z"
	/>
<path class="st5" d="M23.6,42.4l2.5-6l0,0c0,0-2.3-1.4-2.5-4.3c-0.1-1.2,0.2-2.7,1.2-4.5l-6.7-3.4C18.1,24.3,12.3,36.2,23.6,42.4z"
	/>
<radialGradient id="SVGID_1_" cx="29.9167" cy="31.3346" r="4.5833" gradientUnits="userSpaceOnUse">
	<stop  offset="5.618000e-03" style="stop-color:#D7F0FC"/>
	<stop  offset="0.4494" style="stop-color:#ABE1FA"/>
	<stop  offset="1" style="stop-color:#96CFF1"/>
</radialGradient>
<circle class="st6" cx="29.9" cy="31.3" r="4.6"/>
</svg>
