<svg xmlns="http://www.w3.org/2000/svg" xmlns:xlink="http://www.w3.org/1999/xlink" viewBox="0 0 92 48.1"><defs><style>.cls-1{fill:#dea14c;}.cls-2{clip-path:url(#clip-path);}.cls-3,.cls-5{fill:#ca6232;}.cls-4,.cls-8{fill:#f3d94a;}.cls-5,.cls-6,.cls-7,.cls-8{fill-rule:evenodd;}.cls-6{fill:#eac257;}.cls-7{fill:#d3824b;}</style><clipPath id="clip-path"><circle class="cls-1" cx="48.6" cy="24" r="24" transform="translate(-5.4 19) rotate(-21)"/></clipPath></defs><title>saturnAsset 2</title><g id="Layer_2" data-name="Layer 2"><g id="animables"><g id="Layer_119" data-name="Layer 119"><circle class="cls-1" cx="48.6" cy="24" r="24" transform="translate(-5.4 19) rotate(-21)"/><g class="cls-2"><circle class="cls-3" cx="48.3" cy="23.7" r="23.2" transform="translate(-5.3 18.9) rotate(-21)"/><ellipse class="cls-4" cx="44.6" cy="23.4" rx="18.7" ry="19.6" transform="translate(-5.4 17.6) rotate(-21)"/><path class="cls-5" d="M23.4,38.3c-.3-3.3-.4-6.2-.8-9.5,16.8-1,33.9-5.2,50.1-9.5l1.7,9.6C58.1,33.8,40.6,37.8,23.4,38.3Z"/><path class="cls-6" d="M.8,40.1C.4,34.5.4,29.8,0,24.3c29.8-2.3,60.4-9.8,89.5-17.7L92,22.4C62.7,31.3,31.5,38.6.8,40.1Z"/><path class="cls-7" d="M23.6,34.1c-.3-3.3-.4-6.2-.7-9.5,16.8-.9,33.9-4.9,50.1-9.2L74.7,25C58.4,29.9,40.9,33.7,23.6,34.1Z"/><path class="cls-5" d="M22.7,24.5c-.3-3.3.8,1,.5-2.4C40,21.3,57.1,17.3,73.4,13c.6,3.2-.1-.7.5,2.5C57.5,20.3,40,24.1,22.7,24.5Z"/><path class="cls-8" d="M23.7,31.9c.2-2.2-.4.1-.2-2.2A217.9,217.9,0,0,0,74,20.1c0,2.1,0-.5.1,1.6C57.6,26.3,40.3,30.3,23.7,31.9Z"/></g><ellipse class="cls-3" cx="37.1" cy="10.6" rx="1.4" ry="0.7" transform="translate(-1.3 14) rotate(-21)"/><ellipse class="cls-3" cx="40.6" cy="7.1" rx="2.5" ry="1.2" transform="translate(0.1 15) rotate(-21)"/><ellipse class="cls-3" cx="45.1" cy="8" rx="1.4" ry="0.7" transform="translate(0.1 16.7) rotate(-21)"/><ellipse class="cls-3" cx="44.3" cy="12.8" rx="0.6" ry="0.3" transform="translate(-1.7 16.7) rotate(-21)"/><ellipse class="cls-3" cx="52.7" cy="7.3" rx="3.2" ry="1.6" transform="translate(0.9 19.4) rotate(-21)"/><ellipse class="cls-3" cx="48.5" cy="3.5" rx="2.6" ry="1.3" transform="translate(2 17.6) rotate(-21)"/><ellipse class="cls-3" cx="59.6" cy="8.3" rx="1.4" ry="0.7" transform="translate(1 21.9) rotate(-21)"/><ellipse class="cls-3" cx="44.4" cy="44.6" rx="1" ry="0.5" transform="translate(-1.5 1.5) rotate(-1.9)"/><ellipse class="cls-3" cx="47.4" cy="45.8" rx="1.6" ry="0.8" transform="matrix(1, -0.03, 0.03, 1, -1.49, 1.6)"/><ellipse class="cls-3" cx="50" cy="44.1" rx="1" ry="0.5" transform="translate(-1.4 1.7) rotate(-1.9)"/><ellipse class="cls-3" cx="48.2" cy="41.3" rx="0.4" ry="0.2" transform="translate(-1.3 1.6) rotate(-1.9)"/><ellipse class="cls-3" cx="54.9" cy="42.6" rx="2.1" ry="1.1" transform="translate(-1.4 1.9) rotate(-1.9)"/><ellipse class="cls-3" cx="58.8" cy="40.1" rx="1" ry="0.5" transform="matrix(1, -0.03, 0.03, 1, -1.3, 1.98)"/></g></g></g></svg>