<svg xmlns="http://www.w3.org/2000/svg" xmlns:xlink="http://www.w3.org/1999/xlink" viewBox="0 0 177.4 82.5"><defs><style>.cls-1{fill:#0f384b;opacity:0.2;}.cls-12,.cls-2,.cls-21{fill:#fff;}.cls-13,.cls-3{fill:#6e6f71;}.cls-10,.cls-11,.cls-12,.cls-14,.cls-15,.cls-16,.cls-17,.cls-18,.cls-19,.cls-20,.cls-3,.cls-4,.cls-5,.cls-6,.cls-7,.cls-8,.cls-9{fill-rule:evenodd;}.cls-4{fill:#808184;}.cls-5{fill:#d0d2d3;}.cls-6{fill:url(#GradientFill_3);}.cls-7{fill:#dbdddd;}.cls-8{fill:url(#GradientFill_4);}.cls-9{fill:#a4adb3;}.cls-10{fill:url(#GradientFill_1);}.cls-11{fill:url(#GradientFill_2);}.cls-14{fill:url(#GradientFill_5);}.cls-15{fill:#9dbdcd;}.cls-16{fill:url(#GradientFill_3-2);}.cls-17{fill:url(#GradientFill_4-2);}.cls-18{fill:url(#GradientFill_1-2);}.cls-19{fill:url(#GradientFill_2-2);}.cls-20{fill:url(#GradientFill_5-2);}.cls-21{stroke:#9a9a9a;stroke-miterlimit:10;stroke-width:0.25px;}</style><linearGradient id="GradientFill_3" x1="174.72" y1="41.33" x2="175.34" y2="46.36" gradientUnits="userSpaceOnUse"><stop offset="0" stop-color="#bbbdbf"/><stop offset="1" stop-color="#fff"/></linearGradient><linearGradient id="GradientFill_4" x1="153.3" y1="-11.95" x2="153.3" y2="-20.93" gradientUnits="userSpaceOnUse"><stop offset="0" stop-color="#b6bfc4"/><stop offset="0.16" stop-color="#b6bfc4"/><stop offset="0.84" stop-color="#eef9fe"/><stop offset="1" stop-color="#eef9fe"/></linearGradient><linearGradient id="GradientFill_1" x1="169.2" y1="41.3" x2="171.3" y2="41.3" gradientUnits="userSpaceOnUse"><stop offset="0" stop-color="#595a5c"/><stop offset="1" stop-color="#fff"/></linearGradient><linearGradient id="GradientFill_2" x1="154.22" y1="11.38" x2="154.22" y2="71.02" gradientUnits="userSpaceOnUse"><stop offset="0" stop-color="#ebecee"/><stop offset="1" stop-color="#fff"/></linearGradient><linearGradient id="GradientFill_5" x1="132.61" y1="76.44" x2="178.72" y2="8.06" gradientUnits="userSpaceOnUse"><stop offset="0" stop-color="#dcf2fd"/><stop offset="1" stop-color="#fff"/></linearGradient><linearGradient id="GradientFill_3-2" x1="2.64" y1="41.34" x2="2.11" y2="46.37" xlink:href="#GradientFill_3"/><linearGradient id="GradientFill_4-2" x1="24.1" y1="-11.95" x2="24.1" y2="-20.93" xlink:href="#GradientFill_4"/><linearGradient id="GradientFill_1-2" x1="8.2" y1="41.3" x2="6.1" y2="41.3" xlink:href="#GradientFill_1"/><linearGradient id="GradientFill_2-2" x1="23.17" y1="11.38" x2="23.17" y2="71.02" xlink:href="#GradientFill_2"/><linearGradient id="GradientFill_5-2" x1="44.16" y1="76.74" x2="-0.69" y2="7.68" xlink:href="#GradientFill_5"/></defs><title>ventaabiertaAsset 1</title><g id="Layer_2" data-name="Layer 2"><g id="Layer_1-2" data-name="Layer 1"><rect class="cls-1" x="28.7" y="7.7" width="121.4" height="4.03"/><rect class="cls-1" x="25.7" y="70.5" width="127.3" height="4.03"/><path class="cls-2" d="M153,74.5H25.7V6.1H153V74.5ZM29.6,71.1H149.1V9.5H29.6V71.1Z"/><path class="cls-3" d="M172.2,37.8h.1c.6-.1,1.5,1.2,1.6,1.4a23.5,23.5,0,0,1,1.9,3.4c.2.5,2.3,5.1,1.2,5.3l-.4.2h0c-1.2,0-3.2-4.1-3.5-4.8a20,20,0,0,1-1.3-3.5c-.1-.3-.4-1.7.1-1.9h.3Z"/><path class="cls-4" d="M171.9,37.9h.4c-1,.7,3.8,10.3,4.8,10.1l-.4.2C174.9,48,170.5,38.5,171.9,37.9Z"/><path class="cls-5" d="M172.3,37.8c1.5-.3,6.2,9.8,4.7,10.1S170.9,38.1,172.3,37.8Z"/><path class="cls-6" d="M173,39.2c1.2-.3,5.2,8.2,3.9,8.5S171.8,39.4,173,39.2Z"/><polygon class="cls-7" points="164.1 75 145.9 68.4 142.3 68.4 164.1 76.6 164.1 75"/><polygon class="cls-8" points="142.5 11.5 145.9 11.6 164.1 5.8 164.1 4.6 142.5 11.5"/><polygon class="cls-5" points="142.3 68.4 145.9 68.4 145.9 11.6 142.5 11.5 142.3 68.4"/><polygon class="cls-9" points="143.6 68.4 144.6 68.4 144.8 11.7 143.9 11.6 143.6 68.4"/><polygon class="cls-5" points="167.7 82.4 173 82 173 0.8 168 0.1 167.7 82.4"/><polygon class="cls-10" points="169.8 82.1 171 82 171.2 0.7 170 0.5 169.8 82.1"/><path class="cls-11" d="M168,.1,140.5,10V70.6l27.3,11.8L168,.1Zm-3.9,4.5v72l-21.8-8.2.2-56.9Z"/><polygon class="cls-12" points="167.3 81.9 167.5 0.6 142.9 9.4 142.9 9.3 166.4 2 166.3 80.7 142.8 71.4 167.3 81.9"/><path class="cls-13" d="M140.4,9.9V70.6l27.3,11.9,5.4-.4V.7L168,0,140.4,9.9Zm.3.2,27-9.7.2,31,.4-31,4.6.6v81l-4.9.4V61.7l-.3,20.5-27-11.6V10.1Zm23.2,64.7-17.8-6.4V11.7L164,6V74.8Zm-18-6.3h-.1V11.7l-3.3-.2h3.4L164,5.8V4.6l.2,1.3-.2,70.8-.3-1.6Z"/><polygon class="cls-14" points="146.1 11.7 164 6 163.9 74.8 146.1 68.4 146.1 11.7"/><path class="cls-15" d="M152.2,35.8l7.9,13.4v.2l-7.8-13.2v-.4ZM149,63.9v-.3l12.1-8.3v.2L149,63.9Zm1-3.2,7.5-5.2h0l-7.4,5.1v.2Zm3.5,1.7,7.5-5.2h-.1l-7.4,5.1v.2Zm-.4.6,7.5-5.2h0l-7.4,5.1v.2Zm-4.3-39.3v-.3l7.4-7.9h.1l-7.5,8Zm3.5.4,7.5-8h-.1l-7.4,7.9V24Zm-.4.8,7.5-8h-.1l-7.4,7.9v.3Zm-4.1,2.5L160,14.2h-.1L147.9,26.9v.4Zm4,7.1v.4L159.6,48v-.2l-7.9-13.4Zm-4.4-3.7v.6l12.8,21.6v-.3l-13-21.9Zm1.1,6.7v.4l7.8,13.2v-.2Z"/><path class="cls-3" d="M5.2,37.8H5.1c-.6-.1-1.5,1.2-1.6,1.4a23.5,23.5,0,0,0-1.9,3.4c-.2.5-2.3,5.1-1.2,5.3l.4.2h0C2,48,4,43.9,4.3,43.2a20,20,0,0,0,1.3-3.5c.1-.3.4-1.7-.1-1.9H5.2Z"/><path class="cls-4" d="M5.5,37.9H5.1c1,.7-3.8,10.3-4.8,10.1l.4.2C2.5,48,6.9,38.5,5.5,37.9Z"/><path class="cls-5" d="M5.1,37.8C3.6,37.5-1.1,47.6.4,47.9S6.5,38.1,5.1,37.8Z"/><path class="cls-16" d="M4.4,39.2C3.2,38.9-.8,47.3.5,47.6S5.6,39.4,4.4,39.2Z"/><polygon class="cls-7" points="13.3 75 31.5 68.4 35.1 68.4 13.3 76.6 13.3 75"/><polygon class="cls-17" points="34.9 11.5 31.5 11.6 13.3 5.8 13.3 4.6 34.9 11.5"/><polygon class="cls-5" points="35.1 68.4 31.5 68.4 31.5 11.6 34.9 11.5 35.1 68.4"/><polygon class="cls-9" points="33.8 68.4 32.8 68.4 32.6 11.7 33.5 11.6 33.8 68.4"/><polygon class="cls-5" points="9.7 82.4 4.4 82 4.4 0.8 9.4 0.1 9.7 82.4"/><polygon class="cls-18" points="7.6 82.1 6.4 82 6.2 0.7 7.4 0.5 7.6 82.1"/><path class="cls-19" d="M9.4.1,36.9,10V70.6L9.7,82.4,9.4.1Zm3.9,4.5v72l21.8-8.2-.2-56.9Z"/><polygon class="cls-12" points="10.1 81.9 9.9 0.6 34.5 9.4 34.5 9.3 11 2 11.1 80.7 34.6 71.4 10.1 81.9"/><path class="cls-13" d="M37,9.9V70.6L9.7,82.5l-5.4-.4V.7L9.4,0,37,9.9Zm-.3.2L9.7.3l-.2,31L9.1.3,4.5.9v81l4.9.4V61.7l.3,20.5,27-11.6V10.1ZM13.5,74.8l17.8-6.4V11.7L13.4,6V74.8Zm18-6.3h.1V11.7l3.3-.2H31.5L13.4,5.8V4.6l-.2,1.3.2,70.8.3-1.6Z"/><polygon class="cls-20" points="31.3 11.7 13.4 6 13.5 74.8 31.3 68.4 31.3 11.7"/><path class="cls-15" d="M25.2,35.8,17.3,49.2v.2l7.8-13.2v-.4Zm3.2,28.1v-.3L16.2,55.3v.2l12.3,8.4Zm-1-3.2-7.5-5.2h0l7.4,5.1v.2Zm-3.5,1.7-7.5-5.2h.1l7.4,5.1v.2Zm.4.6-7.5-5.2h0l7.4,5.1v.2Zm4.3-39.3v-.3l-7.4-7.9h-.1l7.5,8Zm-3.5.4-7.5-8h.1l7.4,7.9V24Zm.4.8-7.5-8h.1l7.4,7.9v.3Zm4.1,2.5L17.4,14.2h.1L29.5,26.9v.4Zm-4,7.1v.4L17.8,48v-.2l7.9-13.4ZM30,30.7v.6L17.1,52.9v-.3L30,30.7Zm-1.1,6.7v.4L21,51.1v-.2Z"/><polygon class="cls-21" points="31.5 38.4 13.4 37.4 13.4 38.7 31.5 39.6 31.5 38.4"/><polygon class="cls-21" points="164.1 38.6 146 38.3 146 39.9 164.1 40 164.1 38.6"/></g></g></svg>