<svg id="Layer_1" data-name="Layer 1" xmlns="http://www.w3.org/2000/svg" xmlns:xlink="http://www.w3.org/1999/xlink" viewBox="0 0 62.7 60.8"><defs><style>.cls-1{fill:#cdaf70;}.cls-2{fill:#443f35;}.cls-3{fill:#d1a292;}.cls-4{fill:#3ca5d5;}.cls-5{fill:#008896;}.cls-6{fill:#a9c3cb;}.cls-7{fill:url(#Blue_Radial);}</style><radialGradient id="Blue_Radial" cx="29.92" cy="31.33" r="4.58" gradientUnits="userSpaceOnUse"><stop offset="0.01" stop-color="#d7f0fc"/><stop offset="0.45" stop-color="#abe1fa"/><stop offset="1" stop-color="#96cff1"/></radialGradient></defs><title>ventanin</title><path class="cls-1" d="M350.5,365.6c-17.3,0-31.4,13.6-31.4,30.4s14,30.4,31.4,30.4a31.2,31.2,0,0,0,30.3-22.6,29.7,29.7,0,0,0,.1-15.4A31.2,31.2,0,0,0,350.5,365.6ZM365.1,409l-3.7,2.9h0c-1.7,1.4-7.4,5.2-17.2,1.4a16.3,16.3,0,0,1-5-2.4h-.1s-11.1-6.8-8.4-18.1l-.4,1.8s-.8-12.4,14.2-19.2c0,0,15.4-6,24.9,9.6C369.4,384.9,374.8,399,365.1,409Z" transform="translate(-319.2 -365.6)"/><path class="cls-2" d="M344.5,375.3c-15,6.9-14.2,19.3-14.2,19.3l.4-1.8a17.4,17.4,0,0,1,.6-2,19,19,0,0,1,3.7-6.5v-.2l1-.9h.2a15.7,15.7,0,0,1,6-3.3,16.2,16.2,0,0,1,7.7-.4,19.1,19.1,0,0,1,12,6.2,17,17,0,0,1,3.6,6.6h0v.2a21,21,0,0,1-3.4,18.3l-.4.6-.5.5h0l3.7-2.9c9.7-10,4.3-24.1,4.3-24.1C359.9,369.3,344.5,375.3,344.5,375.3Z" transform="translate(-319.2 -365.6)"/><path class="cls-3" d="M361.9,411.4l.4-.6c4.6-7.7,4.6-14,3.4-18.3v-.2h0a17,17,0,0,0-3.6-6.6h-.1c-4.4-3.7-8.4-5.5-11.9-6.1a16.2,16.2,0,0,0-7.7.4,17.1,17.1,0,0,0-6,3.3h-.2l-1,.9v.2a23.8,23.8,0,0,0-3.7,6.5,17.4,17.4,0,0,0-.6,2c-2.6,11.2,8.4,18.1,8.4,18.1h.1a16.5,16.5,0,1,1,5,2.4c9.8,3.7,15.5,0,17.2-1.4Z" transform="translate(-319.2 -365.6)"/><path class="cls-4" d="M365.1,397.5a16.4,16.4,0,1,0-16.4,16.4A16.4,16.4,0,0,0,365.1,397.5Zm-27.8-7.7s7.1-10.6,18.2-2.9,4.8,16.3,4.8,16.3c-5.5,10.6-17.4,4.8-17.4,4.8C331.5,401.8,337.3,389.8,337.3,389.8Z" transform="translate(-319.2 -365.6)"/><path class="cls-5" d="M355,399.3h0a8.7,8.7,0,0,0,.3-3.7,6.3,6.3,0,0,0-3.4-4.3,8.3,8.3,0,0,0-1.7-.6h-1.1a6.3,6.3,0,0,0-5.1,2.6h0a8.2,8.2,0,0,0-1.2,4.5,6.3,6.3,0,0,0,2.5,4.3h0C351.8,405.7,354.8,399.5,355,399.3Zm-10.5-2.4a4.6,4.6,0,1,1,4.6,4.6A4.6,4.6,0,0,1,344.5,396.9Z" transform="translate(-319.2 -365.6)"/><path class="cls-6" d="M344,393.2h0a5.4,5.4,0,0,1,6.2-2.5,8.3,8.3,0,0,1,1.7.6h0l3.5-4.3c-11.1-7.7-18.2,2.9-18.2,2.9Z" transform="translate(-319.2 -365.6)"/><path class="cls-6" d="M355.3,395.6a8.7,8.7,0,0,1-.3,3.7h0l5.2,4s6.2-9.7-4.7-16.3l-3.5,4.3A5.5,5.5,0,0,1,355.3,395.6Z" transform="translate(-319.2 -365.6)"/><path class="cls-6" d="M355,399.3c-.1.2-3.1,6.4-9.7,2.7l-2.5,6s11.9,5.8,17.4-4.7l-5.2-4Z" transform="translate(-319.2 -365.6)"/><path class="cls-6" d="M342.8,408l2.5-6h0a5.7,5.7,0,0,1-2.5-4.3,8.2,8.2,0,0,1,1.2-4.5l-6.7-3.4S331.5,401.8,342.8,408Z" transform="translate(-319.2 -365.6)"/><circle class="cls-7" cx="29.9" cy="31.3" r="4.6"/></svg>