<svg xmlns="http://www.w3.org/2000/svg" xmlns:xlink="http://www.w3.org/1999/xlink" viewBox="0 0 60.6 94.1"><defs><style>.cls-1,.cls-4{fill:#8cc540;}.cls-2{isolation:isolate;}.cls-3{clip-path:url(#clip-path);}.cls-4{opacity:0.5;}.cls-4,.cls-6{mix-blend-mode:multiply;}.cls-5{fill:#d7de27;}.cls-7{fill:#fff;}.cls-8{fill:#046938;}</style><clipPath id="clip-path"><path class="cls-1" d="M55.2,68.1A44.2,44.2,0,0,1,49,60.4c.9-.3,1.4-1,.9-2.5s-3.7-5.1-6.3-7l-1.3-2.8c1.6-.1,3-.6,2.2-2.4s-3.3-4-5.2-5.3l-.3-.9c1.5.3,3.2.1,2.9-2.3s-1.7-3.7-3.3-5.1H40c4-1.1-4.4-16.9-7.9-23.2a14.5,14.5,0,0,0-1.5-2.6h0A14.6,14.6,0,0,0,17.2.2h-.1A14.6,14.6,0,0,0,4.9,10.1h0S-4,34.9,2.2,37l1.5.3c-2,4.2-3.9,9.4-2,11S6,45.9,6.3,44.4c-.4,2.1-2,10.7.7,12.3S9.3,49.3,9.2,48c.1,1.5,1.3,13.2,5,19.3S15.7,63,15.7,63s4.6,11.8,7.5,15.7c1.4,1.8,1.9.5,2-1.4,5.7,8.3,10.4,12.4,11.5,13.3A14.6,14.6,0,0,0,55.2,68.1Z"/></clipPath></defs><title>verdinAsset 3</title><g class="cls-2"><g id="Layer_2" data-name="Layer 2"><g id="Layer_2-2" data-name="Layer 2"><path class="cls-1" d="M55.2,68.1A44.2,44.2,0,0,1,49,60.4c.9-.3,1.4-1,.9-2.5s-3.7-5.1-6.3-7l-1.3-2.8c1.6-.1,3-.6,2.2-2.4s-3.3-4-5.2-5.3l-.3-.9c1.5.3,3.2.1,2.9-2.3s-1.7-3.7-3.3-5.1H40c4-1.1-4.4-16.9-7.9-23.2a14.5,14.5,0,0,0-1.5-2.6h0A14.6,14.6,0,0,0,17.2.2h-.1A14.6,14.6,0,0,0,4.9,10.1h0S-4,34.9,2.2,37l1.5.3c-2,4.2-3.9,9.4-2,11S6,45.9,6.3,44.4c-.4,2.1-2,10.7.7,12.3S9.3,49.3,9.2,48c.1,1.5,1.3,13.2,5,19.3S15.7,63,15.7,63s4.6,11.8,7.5,15.7c1.4,1.8,1.9.5,2-1.4,5.7,8.3,10.4,12.4,11.5,13.3A14.6,14.6,0,0,0,55.2,68.1Z"/><g class="cls-3"><path class="cls-4" d="M36.7,16.9,29.2,83s3.9,8,8.1,9,3.9-58.5,3.9-58.5Z"/></g><path class="cls-5" d="M14.9,3h.1a14.6,14.6,0,0,1,13.9,5h0a14.5,14.5,0,0,1,1.7,2.5c3.3,5,10.3,16,10.6,20.6,1.3-3.6-5.7-16.7-8.8-22.3a14.5,14.5,0,0,0-1.5-2.6h0A14.6,14.6,0,0,0,17.3.1h-.1A14.6,14.6,0,0,0,5,9.9,14.6,14.6,0,0,1,14.9,3Z"/><g class="cls-6"><path class="cls-1" d="M43.3,45.9l.9,1.9c.6-.3.8-.9.3-1.9H43.3Z"/><path class="cls-1" d="M49.9,58.2h0Z"/><path class="cls-1" d="M15.1,65.2c-3.7-6.1-4.9-17.9-5-19.3.1.9.4,5.4-.3,7.6.7,4.3,2,10.3,4.3,14.1s2.5,1.7,2.2-.6A10,10,0,0,1,15.1,65.2Z"/><path class="cls-1" d="M8,54.5c-2.7-1.7-1.1-10.2-.7-12.3a11.8,11.8,0,0,1-1.1,3C5.7,48,4.6,55.3,7,56.8s1.8-.5,2.1-2.2A1,1,0,0,1,8,54.5Z"/><path class="cls-1" d="M2.2,37.1l1.4.3,1.1-2.3-1.5-.3C-2.6,32.8,4.8,11,5.8,8.2a14.6,14.6,0,0,0-.9,2h0S-4,35,2.2,37.1Z"/><path class="cls-1" d="M58.2,86.5a14.6,14.6,0,0,1-20.6,2c-1-.9-5.8-5-11.5-13.3-.2,1.9-.7,3.2-2,1.4-2.9-3.9-7.5-15.7-7.5-15.7s1.1,5,.6,6.2c1.6,3.8,4.1,9.4,5.9,11.9s1.9.5,2-1.4c5.7,8.3,10.4,12.4,11.5,13.3a14.6,14.6,0,0,0,23.2-6.9A14.7,14.7,0,0,1,58.2,86.5Z"/><path class="cls-1" d="M2.7,46.1c-1.4-1.1-.8-4.1.4-7.3C1.3,42.7,0,47,1.7,48.4s3.8-1.2,4.4-3.2C5.4,46.5,4.3,47.3,2.7,46.1Z"/></g><circle class="cls-7" cx="19.8" cy="15.5" r="7" transform="translate(-1.6 2.3) rotate(-6.3)"/><ellipse class="cls-8" cx="22.3" cy="28.2" rx="1.1" ry="2.2" transform="translate(-3 2.6) rotate(-6.3)"/></g></g></g></svg>