<?xml version="1.0" encoding="utf-8"?>
<!-- Generator: Adobe Illustrator 21.0.0, SVG Export Plug-In . SVG Version: 6.00 Build 0)  -->
<svg version="1.1" id="Layer_1" xmlns="http://www.w3.org/2000/svg" xmlns:xlink="http://www.w3.org/1999/xlink" x="0px" y="0px"
	 viewBox="0 0 241.2 299.6" style="enable-background:new 0 0 241.2 299.6;" xml:space="preserve">
<style type="text/css">
	.st0{opacity:0.2;fill:#231F20;enable-background:new    ;}
	.st1{fill:#4891CE;stroke:#FFFFFF;stroke-width:10;stroke-linecap:round;stroke-linejoin:round;}
	.st2{display:none;fill:#F9F9FA;}
	.st3{fill:#FCFCFC;}
	.st4{fill:#414042;}
	.st5{fill:#707070;}
	.st6{fill:#EDEDED;}
	.st7{fill:#F6B918;}
	.st8{fill:#EB2A26;}
	.st9{fill:#65BA47;}
	.st10{fill:#F06C25;}
</style>
<g id="Layer_2">
	<g id="Layer_1-2">
		<path class="st0" d="M129.6,164.5c-18.5,0.1-36.8-3.5-53.3-10.3c-12.3,16.9-19.1,43.3-22.5,60.7c-0.3,1.3-1.8,2.1-3.4,1.8
			c-1.2-0.2-2.1-1-2.3-1.9c-5-35.3-3-60.5,0.4-77.5c-15.2-13-24.4-29.7-24.4-47.9c0-41.5,47.2-75,105.4-75S235,48,235,89.4
			S187.8,164.5,129.6,164.5z"/>
		<path class="st1" d="M115.3,176.2c-18.5,0.1-36.8-3.5-53.3-10.3c-19.5,27-25.3,78.1-25.3,78.1c-8.3-44.6-6.4-75.3-2.4-94.9
			c-15.2-13-24.4-29.7-24.4-47.9c0-41.5,47.2-75,105.4-75s105.4,33.6,105.4,75S173.5,176.2,115.3,176.2z"/>
		<path class="st2" d="M78,140c-0.8-3-1.7-5.9-3-8.8c-2.7-6.1-5.7-9.7-9.1-10.7c-7.1,4.6-12.1,10.8-15.2,18.6l11.5,0.6
			c1-3,2.4-6,4-8.8c1.6,2.8,2.5,5.9,2.5,9L78,140z"/>
		<path class="st2" d="M93.5,141.1L89.4,120H84l-5.5,19.7L93.5,141.1z M80.8,142.9c-2.8,2.3-2.8,6,0,8.3c2.8,2.3,7.4,2.3,10.2,0
			c2.7-2.4,2.5-6.1-0.4-8.3C87.9,140.9,83.6,140.9,80.8,142.9L80.8,142.9z"/>
		<path class="st2" d="M124.1,152.7l-2.9-32.9l-5.4-0.3l-0.2,1.6c-2.3-1.6-5.2-2.5-8.3-2.5c-2.2,0-4.4,0.5-6.3,1.4
			c-1.9,0.9-3.6,2.2-4.7,3.7c-2.3,3.2-2.2,7.2,0.1,10.4c1.2,1.6,2.8,3,4.9,3.9c3.9,1.8,8.6,1.9,12.5,0.2l-1.7,15.4L124.1,152.7z
			 M114.1,126.3c0,0.7-0.2,1.3-0.6,1.9c-0.8,1.2-2.4,2-4.1,1.9c-0.8,0-1.7-0.2-2.4-0.5c-1.5-0.7-2.4-2-2.4-3.4
			c0-0.7,0.2-1.3,0.6-1.9c0.8-1.2,2.4-2,4.1-1.9c0.8,0,1.7,0.2,2.4,0.5C113.2,123.6,114.1,124.9,114.1,126.3z"/>
		<path class="st2" d="M153.6,129.5l-19.1-4.4c0.9-1.6,2.8-2.6,5-2.5c1,0,2.1,0.2,3,0.7l5-2.3c-2.6-1.5-5.7-2.4-9-2.3
			c-3.4,0-6.7,0.9-9.3,2.6c-2.7,1.7-4.5,4.1-5.2,6.8c-0.2,0.9-0.4,1.8-0.4,2.6c0,2.8,1.2,5.4,3.3,7.6c2.1,2.2,5.1,3.7,8.5,4.3
			c1.1,0.2,2.2,0.3,3.3,0.3c3.4,0,6.7-0.9,9.3-2.6c2.7-1.7,4.5-4.1,5.2-6.8C153.6,132.1,153.7,130.8,153.6,129.5z M144.3,131
			c-1,1.3-2.8,2.1-4.7,2c-1.5,0-3-0.5-4.1-1.4c-1.1-0.9-1.7-2.2-1.5-3.4L144.3,131z"/>
		<path class="st2" d="M178.1,138.9c5.7-4.5,5.8-12,0.2-16.6c-0.1-0.1-0.2-0.1-0.2-0.2c-5.8-4.6-15.1-4.6-20.9,0
			c-5.7,4.5-5.8,12-0.2,16.6c0.1,0.1,0.2,0.1,0.2,0.2C163,143.5,172.3,143.5,178.1,138.9z M171.5,124.3c2.1,1.7,2.1,4.4,0.1,6.2
			c0,0-0.1,0-0.1,0.1c-1,0.9-2.4,1.3-3.8,1.3c-1.5,0-2.9-0.5-3.9-1.3c-2.1-1.7-2.1-4.4-0.1-6.2c0,0,0.1,0,0.1-0.1
			c1-0.9,2.4-1.3,3.9-1.3C169.2,122.9,170.6,123.4,171.5,124.3L171.5,124.3z"/>
		<path class="st2" d="M66.3,69c0-0.3,0.1-0.7,0.1-1c0-2.9-1.6-5.7-4.4-7.6c-2.8-2-6.4-3.2-10.2-3.1c-4.5-0.1-8.7,1.6-11.4,4.4
			l8.7,7.1c0.8-0.4,1.7-0.6,2.7-0.6c1.4,0,2.8,0.4,3.8,1.2c1,0.8,1.6,1.9,1.5,3l-0.4,18.8h6.7C65.3,78,66.3,70.6,66.3,69z
			 M55.3,95.1c-2.5,2.1-2.5,5.4,0,7.5c2.5,2.1,6.6,2.1,9.2,0c2.5-2.1,2.5-5.4,0-7.5c-1.2-1-2.9-1.5-4.6-1.5
			C58.1,93.5,56.5,94.1,55.3,95.1z"/>
		<path class="st2" d="M98.1,92.2l-4.6-22l-6.7,0.5v3.9c-4.3-3.2-10.8-3-14.9,0.3c-2.3,1.8-3.7,4.3-3.8,6.9
			c-0.2,3.8,0.4,7.7,1.8,11.4l10.9-0.9c-0.5-1.1-0.9-2.3-1.1-3.4c-0.5-1.8-0.9-3.6-1-5.5c0-0.3,0-0.7,0.1-1c0.1-1,0.7-1.9,1.5-2.6
			c0.8-0.7,1.9-1,3-0.9c1.7,0.1,3.1,1,3.6,2.3v2.9l-0.2,0.3H87l0.2,7.8L98.1,92.2z"/>
		<path class="st2" d="M127.1,81.2l-19.1-4.4c0.9-1.6,2.8-2.6,5-2.5c1,0,2.1,0.2,3,0.7l5-2.3c-2.6-1.5-5.7-2.4-9-2.3
			c-3.4,0-6.7,0.9-9.3,2.6c-2.7,1.7-4.5,4.1-5.2,6.8c-0.2,0.9-0.4,1.8-0.4,2.6c0,2.8,1.2,5.4,3.3,7.6c2.1,2.2,5.1,3.7,8.5,4.3
			c1.1,0.2,2.2,0.3,3.3,0.3c3.4,0,6.7-0.9,9.3-2.6c2.7-1.7,4.5-4.1,5.2-6.8C127.1,83.9,127.2,82.6,127.1,81.2z M117.8,82.8
			c-1,1.3-2.8,2.1-4.7,2c-1.5,0-3-0.5-4.1-1.4c-1.1-0.9-1.7-2.2-1.5-3.4L117.8,82.8z"/>
		<path class="st2" d="M148.9,76.3c-1.9-1.8-4.6-2.9-7.4-3.1l-0.4-2.6c2.8-0.4,5.3-1.5,7.1-3.3c4-3.8,3.7-9.5-0.7-13
			c-2.2-1.8-5.2-2.8-8.4-2.8c-3.6-0.1-7.1,1.3-9.3,3.7l7.1,5.8c0.7-0.3,1.5-0.5,2.3-0.5c1.2,0,2.3,0.3,3.1,1
			c0.9,0.6,1.3,1.5,1.3,2.5c0,0.9-0.5,1.8-1.3,2.5c-0.8,0.7-2,1-3.1,1c-1.4,0.1-2.8,0-4.1-0.3l2,6.1c-2.6,0.5-4.9,1.7-6.5,3.4
			c-3.7,3.8-3.3,9.3,1,12.7c2.2,1.8,5.2,2.8,8.4,2.8c1,0,2-0.1,3-0.3l-1.1,7.2l12-3.7l-5.1-5.7c2.1-1.9,3.3-4.4,3.3-7
			C151.9,80.3,150.8,78,148.9,76.3z M143,78.2c0.8,0.6,1.3,1.5,1.3,2.5c0,0.9-0.5,1.9-1.3,2.5c-0.8,0.7-2,1-3.1,1
			c-1.2,0-2.3-0.3-3.1-1c-0.9-0.6-1.3-1.5-1.3-2.5c0-0.9,0.5-1.8,1.3-2.5c0.8-0.7,2-1,3.1-1C141.1,77.2,142.2,77.5,143,78.2z"/>
		<path class="st2" d="M177.3,90.7c5.7-4.5,5.8-12,0.2-16.6c-0.1-0.1-0.2-0.1-0.2-0.2c-5.8-4.6-15.1-4.6-20.9,0
			c-5.7,4.5-5.8,12-0.2,16.6c0.1,0.1,0.2,0.1,0.2,0.2C162.3,95.3,171.5,95.3,177.3,90.7z M170.8,76c2.1,1.7,2.1,4.4,0.1,6.2
			c0,0-0.1,0-0.1,0.1c-1,0.9-2.4,1.3-3.8,1.3c-1.5,0-2.9-0.5-3.9-1.3c-2.1-1.7-2.1-4.4-0.1-6.2c0,0,0.1,0,0.1-0.1
			c1-0.9,2.4-1.3,3.9-1.3C168.4,74.7,169.8,75.2,170.8,76z"/>
		<path class="st2" d="M194.6,78.9c0.3-0.5,0.5-1.1,0.5-1.6c0-1.2-0.9-2.5-2.7-3.8c-1.5-1-3.4-1.6-5.3-1.5c-2-0.1-3.9,0.5-5.3,1.6
			c-0.4,0.3-0.7,0.7-1,1.1l3.5,2.5c0.5-1,1.6-1.6,3-1.6c1.1,0,1.8,0.3,1.9,0.9c0.1,0.6-0.7,1.3-2.4,2c-5.4,1.4-8.1,4.2-8,8.5
			c0,2.3,1.2,4.4,3.2,5.9c2,1.6,4.7,2.5,7.4,2.4l4-0.2l3-11.5c-1.2,0.4-2.6,0.6-3.9,0.5c-0.9,0-1.8,0-2.7-0.2
			c-0.6-0.2-0.9-0.7-0.9-1.5c0-0.4,0.3-0.9,0.7-1.2c0.4-0.3,0.9-0.4,1.4-0.5C192.6,80.6,193.8,79.9,194.6,78.9z"/>
	</g>
</g>
<g>
	<g>
		<path class="st3" d="M52.1,71l2.4,17.5l-11.2,0.3l2.2-18.1L52.1,71z M45.7,68.7c-1-0.8-1.6-1.9-1.7-3.2c-0.1-1.3,0.3-2.5,1.1-3.5
			c0.8-1,1.9-1.6,3.3-1.7c1.3-0.1,2.4,0.3,3.4,1.1c1,0.8,1.6,1.9,1.7,3.2c0.1,1.3-0.3,2.5-1.1,3.5c-0.8,1-1.9,1.6-3.2,1.7
			C47.8,69.9,46.7,69.5,45.7,68.7z"/>
		<path class="st3" d="M76.2,67.8l-4-0.2c0.6,6.3,0.9,10.4,1,12.2c0.1,2.8-0.9,5.2-3,7.2c-2.1,2-4.6,3-7.5,2.9c-3.4-0.1-6-1.4-8.1-4
			l3.2-8c2.7,1.6,4.3,2.4,5,2.4c1.1,0,2-0.4,2.8-1.1c0.8-0.7,1.2-1.6,1.2-2.7l0-9.2L63,67.2l-1.6-6.6l5.3-0.2v-0.2l4.8,0.1v0
			l5.1-0.2L76.2,67.8z"/>
		<path class="st3" d="M99.7,65.3c0,3.5-0.1,8-0.4,13.4c0,3.2-1.7,6.1-5,8.7c-1.8,1.5-3.8,2.2-6,2.2c-1.9,0-3.7-0.6-5.3-1.7
			c-1.7-1.1-3.1-2.7-4.1-4.8c-1.2-2.4-1.7-5-1.6-7.8l-1-14.8l9,0.4c-0.1,8.4,0.2,14.8,0.8,19.3c0.3,2,0.6,3.2,0.9,3.8
			c0.5,1,1.3,1.6,2.5,1.6c1.9-0.3,2.9-2.1,2.8-5.5l-0.2-19.4l7.3-0.8C99.6,60.5,99.7,62.4,99.7,65.3z"/>
		<path class="st3" d="M125.1,83.6l-3.5-0.4l0.1,7l-5.5-0.7l0-1.2c-0.8,0.1-1.5,0.1-2.3,0.1c-3.9-0.1-7.3-1.5-10-4.2
			c-2.7-2.8-4.1-6.1-4-10c0.1-3.9,1.5-7.2,4.3-9.8c2.8-2.7,6.2-4,10.1-4c4.6,0.1,8.3,1.9,11.1,5.5l-8.7,8.3
			c-0.8-0.5-1.7-0.7-2.7-0.7c-1.5,0-2.7,0.5-3.8,1.5s-1.6,2.2-1.6,3.6c0,1.4,0.5,2.7,1.5,3.7c1,1,2.2,1.6,3.7,1.6
			c0.7,0,1.4-0.1,2.1-0.4l0.2,0.7l0-1.6l-4.3-0.4l-0.7-4.8l15.6,0.4L125.1,83.6z"/>
		<path class="st3" d="M140.9,84.7l-4.6,0.5c-0.2,1-0.4,1.9-0.6,2.8l-9.4-0.9c1.7-7.4,4.3-14,7.8-19.7c1.4-2.4,3-4.5,4.7-6.4
			c2.8,1.4,5.3,6.4,7.5,15c0.9,3.6,1.7,7.7,2.4,12.5l-7.6-0.2C141.1,86.6,141,85.4,140.9,84.7z M140.3,80.4
			c-0.3-1.9-0.8-3.5-1.3-4.8c-0.7,2.2-1.2,3.7-1.4,4.6L140.3,80.4z"/>
		<path class="st3" d="M165.1,88.7l-6.9-10.3l-0.5,12.8l-7.4-0.1l-0.7-32.7l9.5-0.4c4.8-0.2,8.6,0.8,11.4,3c1.2,0.9,2.1,2,2.7,3.4
			c0.5,1.4,0.7,2.8,0.7,4.1c0,2-0.5,3.8-1.4,5.4c-1,1.7-2.4,3-4.2,3.9c-0.9,0.4-1.8,0.7-2.8,0.9l8.7,10.3L165.1,88.7z M158.9,70.5
			c0,0.5,0.1,1.1,0.3,1.6c0.7,1.4,1.8,2.1,3.4,2.1c0.6,0,1.1-0.1,1.6-0.4c1.5-0.7,2.2-1.8,2.2-3.4c0-0.5-0.1-1.1-0.4-1.6
			c-0.7-1.4-1.8-2.1-3.4-2.1c-0.5,0-1.1,0.1-1.6,0.4C159.6,67.7,158.9,68.9,158.9,70.5z"/>
		<path class="st3" d="M177.2,78.9l-2.4-17.5l11.1-0.3l-2.1,18.1L177.2,78.9z M183.6,81.3c1,0.8,1.6,1.9,1.7,3.2
			c0.1,1.3-0.2,2.5-1.1,3.5c-0.9,1-1.9,1.6-3.2,1.7c-1.3,0.1-2.4-0.3-3.4-1.1c-1-0.8-1.6-1.9-1.7-3.2c-0.1-1.3,0.3-2.5,1.1-3.5
			c0.8-1,1.9-1.6,3.2-1.7C181.4,80.1,182.6,80.5,183.6,81.3z"/>
	</g>
	<g>
		<path class="st4" d="M156.1,131.7L156.1,131.7l-0.1-0.1c0-0.1-0.1-0.2-0.1-0.3l-7.1-17.6c0-0.1-0.1-0.1-0.1-0.2l-0.2-0.4l0,0
			c-2.4-4.5-8.8-7.3-14.2-7.1c-3.5,0.2-6.5,1.6-8.8,3.9l-21,1c-2.5-2-5.7-3.2-9.2-3c-5.4,0.3-11.5,3.7-13.4,8.4l0,0l-0.1,0.4
			c0,0.1-0.1,0.1-0.1,0.2L76.2,135c0,0.1-0.1,0.2-0.1,0.3l-0.1,0.1l0,0c-0.5,1.6-0.8,3.3-0.7,5.1c0.4,7.5,6.7,13.2,14.1,12.9
			c5.7-0.3,10.3-4,12.1-9l0,0l4.1-10.6l20.8-1l5.1,10.2l0,0c2.2,4.9,7.2,8.1,12.9,7.9c7.5-0.4,13.2-6.7,12.9-14.1
			C157.2,134.9,156.8,133.2,156.1,131.7z"/>
		
			<ellipse transform="matrix(0.9989 -4.742474e-02 4.742474e-02 0.9989 -5.6984 4.6759)" class="st5" cx="95.7" cy="122.4" rx="11.5" ry="11.5"/>
		
			<ellipse transform="matrix(0.9989 -4.742601e-02 4.742601e-02 0.9989 -5.5585 6.6407)" class="st5" cx="137.2" cy="120.5" rx="11.5" ry="11.5"/>
		<path class="st6" d="M100.7,120.5l-4,0.2l-0.2-4c0-0.3-0.2-0.5-0.5-0.5l-1.1,0.1c-0.3,0-0.5,0.2-0.5,0.5l0.2,4l-4,0.2
			c-0.3,0-0.5,0.2-0.5,0.5l0.1,1.1c0,0.3,0.2,0.5,0.5,0.5l4-0.2l0.2,4c0,0.3,0.2,0.5,0.5,0.5l1.1-0.1c0.3,0,0.5-0.2,0.5-0.5l-0.2-4
			l4-0.2c0.3,0,0.5-0.2,0.5-0.5l-0.1-1.1C101.2,120.7,100.9,120.5,100.7,120.5z"/>
		
			<ellipse transform="matrix(0.9989 -4.742474e-02 4.742474e-02 0.9989 -5.698 5.5178)" class="st6" cx="113.4" cy="122.8" rx="2.7" ry="2.7"/>
		
			<ellipse transform="matrix(0.9989 -4.742474e-02 4.742474e-02 0.9989 -5.6703 5.9061)" class="st6" cx="121.6" cy="122.5" rx="2.7" ry="2.7"/>
		<g>
			
				<ellipse transform="matrix(0.9989 -4.741938e-02 4.741938e-02 0.9989 -5.2384 6.6028)" class="st7" cx="136.5" cy="113.7" rx="2.7" ry="2.7"/>
			
				<ellipse transform="matrix(0.9989 -4.742474e-02 4.742474e-02 0.9989 -5.5787 6.3546)" class="st8" cx="131.1" cy="120.7" rx="2.7" ry="2.7"/>
			
				<ellipse transform="matrix(0.9989 -4.743011e-02 4.743011e-02 0.9989 -5.5406 6.8991)" class="st9" cx="142.6" cy="120.2" rx="2.7" ry="2.7"/>
			
				<ellipse transform="matrix(0.9989 -4.742513e-02 4.742513e-02 0.9989 -5.8171 6.6448)" class="st10" cx="137.1" cy="125.9" rx="2.7" ry="2.7"/>
		</g>
	</g>
</g>
</svg>
