<svg xmlns="http://www.w3.org/2000/svg" viewBox="0 0 24.6 101.6"><defs><style>.cls-1{fill:#7093a5;}.cls-2{fill:#ceebf1;stroke:#a4b2ba;stroke-miterlimit:10;stroke-width:0.5px;}.cls-3{fill:#60c5bf;}.cls-4{fill:#c8896e;}</style></defs><title>Asset 2puewerta2</title><g id="Layer_2" data-name="Layer 2"><g id="Layer_1-2" data-name="Layer 1"><path class="cls-1" d="M24.1,58.1l.5,43.5L1.3,91.3C-1,60.2.5,12.8.5,12.8,4.7,6.4,23.5,0,23.5,0ZM23.1,44.4V42.6l-.3-.5c-.5-.9-1.2-.8-1.7.2v4.1H21L20.6,6.2,1.5,14.8c-.2.8-.1,7.6.1,16.5h0c.1,5.1.3,10.9.4,16.6H2v3.2h0c.2,5.4.3,10.8.5,15.2h0c.2,7.3.4,12.4.4,12.4l18.4,5.4-.3-26.8h2.1Z"/><polygon class="cls-2" points="20.6 6.2 13.7 9.3 13.8 28.2 20.8 26.4 20.6 6.2"/><polygon class="cls-2" points="7.2 29.8 7.6 12.1 13.7 9.3 13.8 28.1 7.2 29.8"/><polygon class="cls-2" points="1.6 31.2 1.6 31.2 1.5 14.8 7.6 12.1 7.2 29.8 1.6 31.2"/><path class="cls-2" d="M14,47.2V28.1l7-1.8L21,46.6,14,47Z"/><polygon class="cls-2" points="13.8 28.1 7.2 29.8 7.3 47.5 14 47.2 13.8 28.1"/><polygon class="cls-2" points="7.2 29.8 7.3 47.6 2 47.9 2 47.9 1.6 31.3 1.6 31.2 7.2 29.8"/><path class="cls-2" d="M14,47.2l6.9-.4a5.1,5.1,0,0,0,0,3.4h0l-6.9.2Z"/><polygon class="cls-2" points="7.7 51.1 7.3 47.6 14 47.2 14 50.4 7.7 51.1"/><polygon class="cls-2" points="7.3 47.6 7.7 51.1 2.1 51.2 2.1 51.1 2 47.9 2 47.9 7.3 47.6"/><polygon class="cls-2" points="7.7 51.1 8.3 67.3 2.5 66.4 2.5 66.4 2.1 51.2 2.1 51.2 7.7 51.1"/><polygon class="cls-2" points="14.6 68.3 8.3 67.3 7.7 51.1 14 50.4 14.6 68.3"/><path class="cls-2" d="M14,50.4l7.1-.2.2,19.1-6.6-1Z"/><polygon class="cls-2" points="21.2 69.3 14.6 68.3 14.8 82.3 21.4 84.3 21.2 69.3"/><polygon class="cls-2" points="14.6 68.3 14.8 82.4 9.1 80.7 8.3 67.3 14.6 68.3"/><polygon class="cls-2" points="8.3 67.3 9.1 80.7 3 78.9 2.5 66.4 2.5 66.4 8.3 67.3"/><path class="cls-3" d="M21.1,50.5c.5.7,1.1.4,1.3-.8a4.8,4.8,0,0,0-.3-3.3.6.6,0,0,0-.5-.3l-.5.4V42.3c.5-.9,1.1-1,1.6-.2l.3.5.2,14.8H21Z"/><path class="cls-4" d="M22.6,48.4c0,1.3-.4,2.4-1,2.4a.7.7,0,0,1-.5-.3H21a5.1,5.1,0,0,1,0-3.4h.2l.5-.4C22.1,46.7,22.5,47.4,22.6,48.4Z"/></g></g></svg>