<svg xmlns="http://www.w3.org/2000/svg" viewBox="0 0 18 97.5"><defs><style>.cls-1{fill:#7093a5;}.cls-2{fill:#ceebf1;stroke:#a4b2ba;stroke-miterlimit:10;stroke-width:0.5px;}.cls-3{fill:#c8896e;}</style></defs><title>Asset 3</title><g id="Layer_2" data-name="Layer 2"><g id="Layer_2-2" data-name="Layer 2"><path class="cls-1" d="M4,95.9,0,97.5.5,55.8,2,55.7V47.4l.2-.6L1.7,82.9l14-3.1c.6-6.2.8-20.4.7-33.2h0c0-5.4-.1-10.5-.1-14.7h0c0-3.3-.1-6-.1-7.7h0V21.7l-.2-2.8V17c-.1-1.3-.1-1.2-.1-1.2-.5-2-3.8-4.1-3.8-4.1h0A61.9,61.9,0,0,0,6.7,7.9h0L2.9,5.5,2.6,26.1h0L2.3,44.6V39.7H.7L1.2,0c2.7-.2,13,9.3,13,9.3,3.6,2,3.5,9.4,3.5,9.4,1.1,5-.5,70.6-.5,70.6v.9Z"/><path class="cls-2" d="M12.3,29.4l-.2-17.6s3.2,2.1,3.8,4.1v3c.1,1.7.2,3.5.2,5.2h0v7.7h0Z"/><polygon class="cls-2" points="12.3 29.4 6.5 27 6.7 7.9 6.7 7.9 12.1 11.7 12.1 11.7 12.3 29.4"/><polygon class="cls-2" points="6.5 27 2.5 26.1 2.8 5.5 6.7 7.9 6.7 7.9 6.5 27"/><polygon class="cls-2" points="11.9 45.5 12.3 29.4 16.4 31.7 16.4 31.7 16.5 46.5 16.5 46.5 11.9 45.5"/><polygon class="cls-2" points="6.5 27 12.3 29.4 11.9 45.5 6.6 44.9 6.5 27"/><polygon class="cls-2" points="6.5 27 6.6 44.9 2.3 44.8 2.5 26.1 2.5 26.1 6.5 27"/><polygon class="cls-2" points="11.9 49.2 11.9 45.5 16.5 46.5 16.5 46.5 16.5 49 11.9 49.2"/><polygon class="cls-2" points="6.6 44.9 11.9 45.5 11.9 49.2 6.5 48.6 6.6 44.9"/><path class="cls-2" d="M6.6,44.9v3.7l-4.2-.4V45.8h0v-.6Z"/><polygon class="cls-2" points="6.2 66.6 2.1 66.7 2.3 48.1 6.5 48.6 6.2 66.6"/><polygon class="cls-2" points="6.5 48.6 11.9 49.2 11.5 66.2 6.2 66.6 6.5 48.6"/><polygon class="cls-2" points="11.9 49.2 16.5 49 16.3 66.5 11.5 66.2 11.9 49.2"/><polygon class="cls-2" points="11.5 66.2 16.3 66.5 15.7 79.7 10.9 80.9 11.5 66.2"/><polygon class="cls-2" points="10.9 80.9 6 82 6.2 66.6 11.5 66.2 10.9 80.9"/><polygon class="cls-2" points="6.2 66.6 6 82 1.7 82.9 2.1 66.7 6.2 66.6"/><path class="cls-3" d="M.9,45.6c0-1.4.4-2.4.8-2.3s.3.2.4.6v.7a6.9,6.9,0,0,1,.1.8h0a7.1,7.1,0,0,1-.1,1l-.2.6c-.3.9-.8.8-1.1-.2a6.3,6.3,0,0,1-.2-1.5Z"/></g></g></svg>