<svg xmlns="http://www.w3.org/2000/svg" viewBox="0 0 205.2 152.5"><defs><style>.cls-1{fill:#f89f20;}.cls-2{fill:#9f6430;}.cls-3{fill:#e48925;}.cls-4{fill:#633b1c;}.cls-5,.cls-6{fill:#191818;}.cls-5{opacity:0.4;}.cls-6,.cls-7{opacity:0.1;}.cls-7{fill:#171817;}.cls-8{fill:#58bf8f;}.cls-9{fill:#c03b28;}.cls-10{fill:#ee694e;}.cls-11{fill:#c6e8f3;}.cls-12{fill:#fff7f5;opacity:0.7;}.cls-13{fill:#8c8886;}.cls-14{fill:#e65540;}.cls-15{fill:#f69285;}.cls-16{fill:#ffc554;}.cls-17{fill:#c44128;}</style></defs><title>autin1Asset 1puewerta2</title><g id="Layer_2" data-name="Layer 2"><g id="Layer_1-2" data-name="Layer 1"><path class="cls-1" d="M152.1,39a4.4,4.4,0,0,1-2.3,5.7L138,49.7a4.4,4.4,0,0,1-5.7-2.3L117,11a4.4,4.4,0,0,1,2.3-5.7L131.1.3a4.4,4.4,0,0,1,5.7,2.3Z"/><path class="cls-2" d="M131.1.3l-.9.4a4.5,4.5,0,0,0,.3,1.5,4.5,4.5,0,0,0,5.9,2.4l.9-.5-.6-1.5A4.4,4.4,0,0,0,131.1.3Z"/><path class="cls-2" d="M119.4,5.3l.9-.4a4.5,4.5,0,0,1,.9,1.3,4.5,4.5,0,0,1-2.4,5.9l-1,.3L117,11A4.4,4.4,0,0,1,119.4,5.3Z"/><path class="cls-2" d="M149.7,44.7l-.9.4a4.5,4.5,0,0,1-.9-1.3,4.5,4.5,0,0,1,2.4-5.9l1-.3.6,1.5A4.4,4.4,0,0,1,149.7,44.7Z"/><path class="cls-2" d="M138,49.7l.9-.4a4.5,4.5,0,0,0-6.3-4l-.9.5.6,1.5A4.4,4.4,0,0,0,138,49.7Z"/><rect class="cls-3" x="136.5" y="-0.1" width="1.1" height="48.14" transform="translate(1.4 54.8) rotate(-22.7)"/><path class="cls-3" d="M130.6,17.2a3.6,3.6,0,0,0-1.3,3.8l3.5,8.3a3.5,3.5,0,0,0,3.6,1.7Z"/><path class="cls-2" d="M137.2,27.4a3.3,3.3,0,0,1-.7,3.5,3.9,3.9,0,0,1-3.2-1.9Z"/><path class="cls-2" d="M133.7,19.1a3.3,3.3,0,0,0-3-2s-1.6,1.8-.9,3.6Z"/><polygon class="cls-4" points="133.7 19.1 132.5 19.8 130.8 19.4 133.7 19.1"/><polygon class="cls-4" points="137.2 27.4 135.9 27.8 135.1 29.3 137.2 27.4"/><path class="cls-5" d="M130.6,17.2s-1.6,1.8-.9,3.6l1.1-1.4A3.3,3.3,0,0,1,130.6,17.2Z"/><path class="cls-5" d="M133.6,28.9h-.3a3.9,3.9,0,0,0,3.2,1.9,4.9,4.9,0,0,1-1.4-1.7Z"/><polygon class="cls-2" points="135.1 29.3 133.3 29.1 129.8 20.8 130.8 19.4 132.6 19.7 136.1 27.8 135.1 29.3"/><path class="cls-6" d="M130.8,19.4s1.4,7.1,4.2,9.9l-1.7-.2-3.5-8.3Z"/><path class="cls-7" d="M131.1.3l-.9.4c3.4,0,5.2,1.6,5.6,2.2S148,31.9,150,36.7s-.7,7.2-.7,7.2-9.9,4-12.4,4.6a5.6,5.6,0,0,1-4.3-.6,4.4,4.4,0,0,0,5.4,1.7l11.7-4.9a4.4,4.4,0,0,0,2.3-5.7L136.8,2.7A4.4,4.4,0,0,0,131.1.3Z"/><path class="cls-8" d="M122.4,47.4a3,3,0,0,1-3,3H85.3a3,3,0,0,1-3-3V24.3a3,3,0,0,1,3-3h34.1a3,3,0,0,1,3,3Z"/><path class="cls-2" d="M119.4,21.3h-3.5s-1.1,6.6,6.4,6.6V24.3A3,3,0,0,0,119.4,21.3Z"/><path class="cls-2" d="M85.3,21.4h3.5S89.8,28,82.3,28V24.3A3,3,0,0,1,85.3,21.4Z"/><path class="cls-2" d="M119.4,50.4h-3.5s-1.1-6.6,6.4-6.6v3.6A3,3,0,0,1,119.4,50.4Z"/><path class="cls-2" d="M85.3,50.4h3.5s1.1-6.6-6.4-6.6v3.6A3,3,0,0,0,85.3,50.4Z"/><path class="cls-2" d="M106.2,16.7H97.4a1.7,1.7,0,0,0-1.7,1.9c0,1.2,0,2.8,0,2.8h2V18.5h8.1v2.9h2s0-1.6,0-2.8A1.7,1.7,0,0,0,106.2,16.7Z"/><polygon class="cls-7" points="97.3 21.4 97.2 18.2 106.4 18.1 106.4 21.4 105.9 21.4 105.9 18.5 97.8 18.5 97.8 21.4 97.3 21.4"/><path class="cls-7" d="M122.4,47.4V24.3a3,3,0,0,0-3-3,3.8,3.8,0,0,1,2.1,3.1c.2.6.3,17.2.1,20.8s-1.1,4-2.1,4.2-28.4.3-32.7.2-4.3-1.4-4.4-1.7a3,3,0,0,0,2.9,2.5h34.1A3,3,0,0,0,122.4,47.4Z"/><path class="cls-9" d="M21,152.5H194.5L192,130.2l-15.3-12.5-28.5-1.6-80.9,2-21.9.2L29.1,121s-15.4,17.6-15,18.6S21,152.5,21,152.5Z"/><path class="cls-10" d="M157.9,50.2H73.5L50.3,97,2.1,108.5l10.6,43.9H21c0-.6-.1-1.1-.1-1.7a27.3,27.3,0,1,1,54.5,0c0,.6-.1,1.1-.1,1.7h62.9c0-.6-.1-1.1-.1-1.7a27.3,27.3,0,1,1,54.5,0c0,.6-.1,1.1-.1,1.7H196l6.8-43.9Z"/><polygon class="cls-11" points="61.2 96.4 79.3 56.9 126.7 56.9 126.7 96.4 61.2 96.4"/><polygon class="cls-12" points="72 72.8 93.9 56.9 102.4 56.9 68.2 81 72 72.8"/><polygon class="cls-12" points="71.2 96.4 123.6 56.9 126.7 56.9 126.7 67.5 93.9 96.4 71.2 96.4"/><polygon class="cls-12" points="110.4 96.4 126.7 81 126.7 86.8 115.4 96.4 110.4 96.4"/><polygon class="cls-11" points="134.3 56.9 154.2 56.9 173 96.4 134.3 96.4 134.3 56.9"/><polygon class="cls-12" points="134.3 65.6 143.9 56.9 149.2 56.9 134.3 72.6 134.3 65.6"/><polygon class="cls-12" points="134.3 85.9 156.5 61.7 159.9 68.9 136 96.4 134.3 96.4 134.3 85.9"/><polygon class="cls-12" points="139.6 96.4 161.7 72.6 162.9 75.2 142.2 96.4 139.6 96.4"/><polygon class="cls-12" points="149.2 96.4 165.2 80.1 167.9 85.8 156.2 96.4 149.2 96.4"/><polygon class="cls-13" points="57.3 96.7 65.3 90.3 65.3 92.3 57.3 101.3 57.3 96.7"/><ellipse class="cls-13" cx="67.2" cy="89.5" rx="3.5" ry="6.3"/><rect class="cls-9" x="109.3" y="102.9" width="15.2" height="3.08"/><path class="cls-14" d="M11.2,146.2l1.5,6.3H21c0-.6-.1-1.1-.1-1.7a27.2,27.2,0,0,1,.4-4.6Z"/><path class="cls-14" d="M75,146.2a27.3,27.3,0,0,1,.4,4.6c0,.6-.1,1.1-.1,1.7h62.9c0-.6-.1-1.1-.1-1.7a27.3,27.3,0,0,1,.4-4.6Z"/><path class="cls-14" d="M192.2,146.2a27.3,27.3,0,0,1,.4,4.6c0,.6-.1,1.1-.1,1.7H196l1-6.3Z"/><polygon class="cls-14" points="157.9 50.2 73.5 50.2 73 51 156.2 52.1 197.8 110 197.8 141.1 197.8 141.1 202.8 108.5 157.9 50.2"/><polygon class="cls-15" points="2.1 108.5 2.6 110.7 53 100.3 73 51 50.3 97 2.1 108.5"/><rect class="cls-14" x="124.5" y="96.4" width="2.2" height="49.82"/><polygon class="cls-16" points="0 114.5 10.3 114.5 10.3 134.4 5.2 134.4 0 114.5"/><rect class="cls-17" x="196" y="120.1" width="9.2" height="13.39"/><rect class="cls-10" x="79.7" y="41.9" width="73.9" height="1.46"/><rect class="cls-10" x="79.7" y="42.7" width="1.6" height="7.48"/><rect class="cls-10" x="103.8" y="42.7" width="1.6" height="7.48"/><rect class="cls-10" x="127.9" y="42.7" width="1.6" height="7.48"/><rect class="cls-10" x="152" y="42.7" width="1.6" height="7.48"/></g></g></svg>