<svg xmlns="http://www.w3.org/2000/svg" viewBox="0 0 323.4 130.3"><defs><style>.cls-1{fill:#61813a;}.cls-2{fill:#93c742;}.cls-3{fill:#c6e8f3;}.cls-4{fill:#fff;opacity:0.7;}.cls-5{fill:#7ba13f;}.cls-6{fill:#83b140;}.cls-7{fill:#c2dc7d;}.cls-8{fill:#8c8886;}.cls-9{fill:#c44128;}.cls-10{fill:#ffc554;}</style></defs><title>autoverdeAsset 1puewerta2</title><g id="Layer_2" data-name="Layer 2"><g id="Layer_1-2" data-name="Layer 1"><rect class="cls-1" x="44.5" y="88.7" width="246.5" height="41.6"/><path class="cls-2" d="M310.7,74,286.7,0H67.5L10.3,63.2v67.1H71.9a27.9,27.9,0,0,1,55.9,0H209a27.9,27.9,0,0,1,55.9,0h48.5Z"/><polygon class="cls-3" points="32.6 56.4 73.5 9.8 131.6 9.8 131.6 56.4 32.6 56.4"/><path class="cls-4" d="M61.2,23.8l25.9-14h9.4L53,33.1Z"/><polygon class="cls-4" points="47.9 39 101 9.8 104.6 9.8 45.4 41.8 47.9 39"/><polygon class="cls-4" points="40.8 47 109.2 9.8 117.6 9.8 34.2 56.4 32.6 56.4 40.8 47"/><path class="cls-4" d="M53,56.4c1.6,0,78.6-46.6,78.6-46.6V27.5L83.5,56.4Z"/><polygon class="cls-4" points="99.7 56.4 131.6 37.4 131.6 43 109 56.4 99.7 56.4"/><rect class="cls-3" x="138.5" y="9.8" width="46.6" height="46.65"/><polygon class="cls-4" points="138.5 20.3 154.5 9.8 167.5 9.8 138.5 29.1 138.5 20.3"/><polygon class="cls-4" points="138.5 40.8 178.3 9.8 185.2 9.8 138.5 47.6 138.5 40.8"/><polygon class="cls-4" points="141.1 56.4 185.2 21.4 185.2 26.9 149.3 56.4 141.1 56.4"/><polygon class="cls-4" points="157.3 56.4 185.2 35.4 185.2 44 170.3 56.4 157.3 56.4"/><rect class="cls-3" x="192.5" y="9.8" width="46.6" height="46.65"/><polygon class="cls-4" points="192.5 18.2 201.4 9.8 205.8 9.8 192.5 23.1 192.5 18.2"/><polygon class="cls-4" points="192.5 29.7 213.8 9.8 222 9.8 192.5 40.6 192.5 29.7"/><polygon class="cls-4" points="192.2 56.4 232.3 9.8 239.2 9.8 198.4 56.4 192.2 56.4"/><polygon class="cls-4" points="210.7 56.4 239.2 19.9 239.2 25.8 215.8 56.4 210.7 56.4"/><polygon class="cls-4" points="223.1 56.4 239.2 36.6 239.2 40.8 227.1 56.4 223.1 56.4"/><polygon class="cls-3" points="246.3 9.8 281.1 9.8 296.3 56.4 246.3 56.4 246.3 9.8"/><polygon class="cls-4" points="246.3 17.3 252.9 9.8 260.7 9.8 246.3 28.3 246.3 17.3"/><polygon class="cls-4" points="246.3 38.9 270 9.8 277 9.8 246.3 50.8 246.3 38.9"/><polygon class="cls-4" points="249.5 56.4 283.5 17.3 287.1 28.3 261.6 56.4 249.5 56.4"/><polygon class="cls-4" points="264.6 56.4 288 31 289.4 35.4 268.3 56.4 264.6 56.4"/><polygon class="cls-4" points="276 56.4 290.9 40.1 293 46.5 282.2 56.4 276 56.4"/><rect class="cls-1" x="116.4" y="62.2" width="13.3" height="2.7"/><rect class="cls-5" x="129.7" y="56.4" width="1.9" height="64.27"/><path class="cls-6" d="M264.9,130.3h48.5l-.5-9.6H263.2A27.9,27.9,0,0,1,264.9,130.3Z"/><path class="cls-6" d="M73.6,120.7H10.3v9.6H71.9A27.9,27.9,0,0,1,73.6,120.7Z"/><path class="cls-6" d="M209,130.3a27.9,27.9,0,0,1,1.7-9.6H126a27.9,27.9,0,0,1,1.7,9.6Z"/><polygon class="cls-6" points="312.5 112.1 306.2 73.7 284.3 2.8 64.9 2.8 67.5 0 286.7 0 310.7 74 312.5 112.1"/><polygon class="cls-7" points="61.2 6.9 14.4 64.8 10.3 120.7 10.3 63.2 61.2 6.9"/><polygon class="cls-8" points="29.2 57.1 38.9 49.3 38.9 51.6 29.2 62.7 29.2 57.1"/><ellipse class="cls-8" cx="41.2" cy="48.3" rx="4.2" ry="7.7"/><rect class="cls-9" x="309.6" y="83.6" width="13.8" height="19.96"/><polygon class="cls-10" points="0 74.8 14.4 74.8 14.4 102.6 7.2 102.6 0 74.8"/></g></g></svg>