<svg xmlns="http://www.w3.org/2000/svg" viewBox="0 0 298.2 430.7"><defs><style>.cls-1{fill:#e5a959;}.cls-2{fill:#f08482;}.cls-3{fill:#ffe3a4;}.cls-4{fill:#3c3c3b;}.cls-5{fill:#fff;}.cls-6{fill:#f7c1c0;}</style></defs><title>ositoAsset 1puewerta2</title><g id="Layer_2" data-name="Layer 2"><g id="Objects"><path class="cls-1" d="M277.6,312.5h0c-.3-28.1-10.6-56.1-36.5-75.7-42.7-32.3-52-79-57-101.3-3.8-17-3.6-39.1-17.7-59.7A22.9,22.9,0,0,0,130,48C101.5,39.4,60.9,46.4,37.4,68A22.9,22.9,0,1,0,18,108.1c-5.2,42,21.1,77.9,24.1,109.3,3.3,35,7.6,51,16.3,70.3s31.9,44.3,31.9,44.3a41,41,0,0,0-4.9,9.9L174,430.7a20.3,20.3,0,0,1,11.4-5.9c31.3-4.4,64.7-18.7,81.7-59.7,1.6-4,3.1-8.1,4.4-12.3a20.6,20.6,0,1,0,6.1-40.3Z"/><path class="cls-2" d="M258.7,254.2a91.4,91.4,0,0,0-17.6-17.5c-29.2-22.1-42.8-50.9-50-74.1-15.2,9-42.3,23.9-69.3,31.9-31.3,9.3-67.9,7.5-83,6.2a93.5,93.5,0,0,1,3.3,16.6c3.3,35,7.6,51,16.3,70.3,5.4,11.9,16.2,25.9,23.7,35,16.8-3.6,49.5-11,82.7-21.1S237.7,267.6,258.7,254.2Z"/><circle class="cls-3" cx="66.4" cy="104.1" r="16.7"/><circle class="cls-4" cx="68.5" cy="106.2" r="4.9"/><circle class="cls-5" cx="69.9" cy="104.8" r="1.4"/><circle class="cls-3" cx="119.7" cy="93.8" r="16.7" transform="translate(20.2 208.8) rotate(-87.2)"/><circle class="cls-4" cx="118.3" cy="96.3" r="4.9" transform="translate(16.3 209.8) rotate(-87.2)"/><circle class="cls-5" cx="119.8" cy="95" r="1.4" transform="translate(19 210) rotate(-87.2)"/><ellipse class="cls-3" cx="99.9" cy="142.4" rx="38.5" ry="27" transform="translate(-20.7 17.1) rotate(-8.9)"/><path class="cls-4" d="M111.1,152.6a27.4,27.4,0,0,1-7.3-4.6h-.1l-.8-4.8c4.8-1.4,8-5.5,7.3-9.8s-5-1.6-10.7-.7-10.7-.7-10,4,5,7.2,10,7l.8,4.8h0a27.4,27.4,0,0,1-5.5,6.6c-1.7,1.4.4,4,2.2,2.6a28,28,0,0,0,5.5-6.5,28.1,28.1,0,0,0,7.3,4.4C111.9,156.5,113.1,153.4,111.1,152.6Z"/><path class="cls-6" d="M158.4,268.1A448.8,448.8,0,0,0,217.2,249q12.7-5.1,25-11.3l-1.2-.9-5.7-4.6-2.4,1.2c-8.7,4.2-17.6,7.9-26.6,11.4a457.8,457.8,0,0,1-53.8,16.6c-18.2,4.5-36.7,7.9-55.3,10.7-9.9,1.5-19.7,2.8-29.7,3.6-4.3.3-9.1,1-13.8,1.3,1,2.5,2,5,3.1,7.6l8.8-.8c10.6-.7,21.2-2.2,31.8-3.8C118,277,138.3,273.2,158.4,268.1Z"/><path class="cls-6" d="M250.3,244.7c-3.7,2.3-7.5,4.4-11.3,6.5-8.1,4.5-16.5,8.5-25,12.2a446.6,446.6,0,0,1-52.8,19.4c-17.7,5.4-35.7,9.6-53.8,13.4-9.5,2-19,3.8-28.6,5.2-3.9.6-7.8.9-11.7,1.3,1.7,2.5,3.5,5.1,5.3,7.5l1.8-.2c10.6-1.2,21.1-3.2,31.6-5.3,20.6-4.2,41.1-9.1,61.2-15.2a457.4,457.4,0,0,0,56.2-21.5q14.4-6.6,28-14.5l4.8-2.7Q253.3,247.7,250.3,244.7Z"/><path class="cls-6" d="M82.2,217.9c20.5-3.1,40.8-6.9,60.8-11.9a449.2,449.2,0,0,0,57.8-18.7q-1.8-3.6-3.3-7.2l-6.4,2.5a457.6,457.6,0,0,1-53.8,16.6c-18.2,4.5-36.7,7.9-55.3,10.7-9.9,1.5-19.7,2.8-29.7,3.6l-10.6,1.1c.1.9.2,1.9.3,2.8l.5,5,7.9-.7C61.1,221,71.6,219.5,82.2,217.9Z"/><path class="cls-6" d="M94.2,258.1c20.5-3.1,40.8-6.9,60.8-11.9A448.9,448.9,0,0,0,213.9,227l11-4.7q-2.9-3.1-5.6-6.2-8.1,3.5-16.3,6.7a457.8,457.8,0,0,1-53.8,16.6c-18.2,4.5-36.7,7.9-55.3,10.7-9.9,1.5-19.7,2.8-29.7,3.6-5.2.4-11.2,1.3-16.9,1.4.6,2.7,1.2,5.3,1.9,7.8,4.4-.2,8.9-.8,13.1-1C73.1,261.2,83.6,259.7,94.2,258.1Z"/><path class="cls-6" d="M84.9,238.4c20.5-3.1,40.8-6.9,60.8-11.9a449,449,0,0,0,58.9-19.2l6.2-2.6q-2.3-3.4-4.3-6.8L193.7,203a457.6,457.6,0,0,1-53.8,16.6c-18.2,4.5-36.7,7.9-55.3,10.7C74.8,231.9,65,233.2,55,234l-11,1.1c.4,2.7.7,5.3,1.1,7.7l7.9-.7C63.7,241.5,74.3,240,84.9,238.4Z"/><path class="cls-1" d="M107,229.1s-3.5,15-23,15.5-41,5.5-44.2,21.3,3.1,22.8,13.9,23.3,34.6-.7,53.3-8,30.5-21.2,33.2-24.7,5.5-7.2,5.5-7.2-12.7-1.3-22.5-6.4A55.4,55.4,0,0,1,107,229.1Z"/><path class="cls-2" d="M145.7,185.9c-30-2.2-38.7,43.2-38.7,43.2a55.4,55.4,0,0,0,16.2,13.6c9.7,5.1,22.5,6.4,22.5,6.4l12.9,1.7s5.4-9.7,10.7-21.7S175.7,188.1,145.7,185.9Z"/><path class="cls-6" d="M147.4,193.9l-13.9-6a29.5,29.5,0,0,0-8,5.1q11.1,5.2,22.5,9.8t24.2,9.1a33,33,0,0,0-1.8-9.1Q158.8,198.6,147.4,193.9Z"/><path class="cls-6" d="M159.1,249.9c.7-1.2,2-3.8,3.8-7.2-10.5-3.6-20.9-7.5-31.2-11.8-7.6-3.2-15.1-6.5-22.5-10-1.3,3.9-1.9,6.9-2.1,7.8,8.3,3.9,16.7,7.6,25.2,11.1S150.1,246.9,159.1,249.9Z"/><path class="cls-6" d="M170.9,224.7c-11-3.7-21.9-7.8-32.6-12.3-7.1-2.9-14.1-6.1-21.1-9.3a68.5,68.5,0,0,0-3.8,7c8.4,3.9,16.9,7.7,25.5,11.2s19.3,7.5,29.2,10.8l1.4-3A30.7,30.7,0,0,0,170.9,224.7Z"/><path class="cls-4" d="M122.6,37.7a5,5,0,0,0-6.7-.5,78.7,78.7,0,0,1-9.4,5.8L103.2,0,44.6,8.1l8.6,42.3a78.8,78.8,0,0,1-10.6-3.1,5,5,0,0,0-6.3,2.3c-1,2.3.4,5.1,3.2,6.2a87.9,87.9,0,0,0,81.7-11.3C123.6,42.8,124.2,39.6,122.6,37.7Z"/></g></g></svg>