<svg xmlns="http://www.w3.org/2000/svg" viewBox="0 0 337.8 316.8"><defs><style>.cls-1{fill:#3c3c3b;}</style></defs><title>osobikeAsset 3puewerta2</title><g id="Layer_2" data-name="Layer 2"><g id="Objects"><path class="cls-1" d="M325.3,234.2c-2,2.7-6,3.2-9.1,1.5a48.8,48.8,0,0,0-44.8,0c-3.1,1.6-7.1,1.2-9.1-1.5h0c-2-2.7-.5-7.1,3.6-9.3a60.9,60.9,0,0,1,55.9,0c4.1,2.1,5.6,6.6,3.6,9.3Z"/><rect class="cls-1" x="92.8" y="20" width="9.4" height="187.67"/><path class="cls-1" d="M97.5,316.8A97.5,97.5,0,1,1,195,219.3,97.6,97.6,0,0,1,97.5,316.8Zm0-187A89.5,89.5,0,1,0,187,219.3,89.6,89.6,0,0,0,97.5,129.8Z"/><circle class="cls-1" cx="97.5" cy="219.3" r="11.7"/><rect class="cls-1" x="85.3" y="127.3" width="1" height="183.98"/><rect class="cls-1" x="108.7" y="127.3" width="1" height="183.98"/><rect class="cls-1" x="86" y="131.3" width="1" height="183.98" transform="translate(-71.2 43.1) rotate(-20)"/><rect class="cls-1" x="108" y="123.4" width="1" height="183.98" transform="translate(-67.1 50.1) rotate(-20)"/><rect class="cls-1" x="88.1" y="134.8" width="1" height="183.98" transform="translate(-125.1 110) rotate(-40)"/><rect class="cls-1" x="105.9" y="119.8" width="1" height="183.98" transform="translate(-111.3 118) rotate(-40)"/><rect class="cls-1" x="91.2" y="137.5" width="1" height="183.98" transform="translate(-152.9 194.1) rotate(-60)"/><rect class="cls-1" x="102.8" y="117.2" width="1" height="183.98" transform="translate(-129.5 194.1) rotate(-60)"/><rect class="cls-1" x="95" y="138.8" width="1" height="183.98" transform="translate(-148.4 284.8) rotate(-80)"/><rect class="cls-1" x="99" y="115.9" width="1" height="183.98" transform="translate(-122.4 269.8) rotate(-80)"/><rect class="cls-1" x="7.5" y="230.3" width="184" height="1" transform="translate(-38.6 20.8) rotate(-10)"/><rect class="cls-1" x="3.5" y="207.3" width="184" height="1" transform="translate(-34.7 19.8) rotate(-10)"/><rect class="cls-1" x="11.3" y="228.9" width="184" height="1" transform="translate(-100.9 82.5) rotate(-30)"/><rect class="cls-1" x="-0.3" y="208.7" width="184" height="1" transform="translate(-92.4 73.9) rotate(-30)"/><rect class="cls-1" x="14.4" y="226.3" width="184" height="1" transform="translate(-135.7 162.5) rotate(-50)"/><rect class="cls-1" x="-3.4" y="211.3" width="184" height="1" transform="translate(-130.6 143.5) rotate(-50)"/><rect class="cls-1" x="16.5" y="222.8" width="184" height="1" transform="translate(-138.5 248.9) rotate(-70)"/><rect class="cls-1" x="-5.5" y="214.8" width="184" height="1" transform="translate(-145.4 223) rotate(-70)"/><path class="cls-1" d="M293.8,316.8a44,44,0,1,1,44-44A44.1,44.1,0,0,1,293.8,316.8Zm0-83.1a39,39,0,1,0,39,39A39.1,39.1,0,0,0,293.8,233.8Z"/><circle class="cls-1" cx="293.8" cy="272.8" r="5.2"/><rect class="cls-1" x="288.1" y="231.9" width="1" height="81.73"/><rect class="cls-1" x="298.5" y="231.9" width="1" height="81.73"/><rect class="cls-1" x="288.4" y="233.7" width="1" height="81.73" transform="translate(-76.5 115.4) rotate(-20)"/><rect class="cls-1" x="298.2" y="230.2" width="1" height="81.72" transform="translate(-74.7 118.5) rotate(-20)"/><rect class="cls-1" x="289.3" y="235.3" width="1" height="81.72" transform="translate(-109.7 250.9) rotate(-40)"/><rect class="cls-1" x="297.3" y="228.6" width="1" height="81.72" transform="translate(-103.6 254.4) rotate(-40)"/><rect class="cls-1" x="290.7" y="236.4" width="1" height="81.72" transform="translate(-94.5 390.8) rotate(-60)"/><rect class="cls-1" x="295.9" y="227.5" width="1" height="81.72" transform="translate(-84.2 390.8) rotate(-60)"/><rect class="cls-1" x="292.4" y="237" width="1" height="81.72" transform="translate(-31.7 518.1) rotate(-80)"/><rect class="cls-1" x="294.2" y="226.8" width="1" height="81.73" transform="translate(-20.1 511.4) rotate(-80)"/><rect class="cls-1" x="253.8" y="277.4" width="81.7" height="1" transform="translate(-43.9 55.5) rotate(-10)"/><rect class="cls-1" x="252" y="267.2" width="81.7" height="1" transform="translate(-42.1 55) rotate(-10)"/><rect class="cls-1" x="255.5" y="276.8" width="81.7" height="1" transform="translate(-99 185.5) rotate(-30)"/><rect class="cls-1" x="250.3" y="267.8" width="81.7" height="1" transform="translate(-95.2 181.7) rotate(-30)"/><rect class="cls-1" x="256.9" y="275.6" width="81.7" height="1" transform="translate(-105.2 326.7) rotate(-50)"/><rect class="cls-1" x="249" y="269" width="81.7" height="1" transform="translate(-102.9 318.2) rotate(-50)"/><rect class="cls-1" x="257.8" y="274.1" width="81.7" height="1" transform="translate(-61.5 461.3) rotate(-70)"/><rect class="cls-1" x="248.1" y="270.5" width="81.7" height="1" transform="translate(-64.6 449.9) rotate(-70)"/><rect class="cls-1" x="85.8" y="43.8" width="23.3" height="42"/><path class="cls-1" d="M297.9,227.4l-9.9-1.2c.1-.9,10.3-93.8-47.4-130.2S104.8,69.7,104.1,69.8l-1.4-9.9c3.3-.5,81.3-11.3,143.3,27.7,26.2,16.5,43.6,46,50.1,85.4A213.5,213.5,0,0,1,297.9,227.4Z"/><circle class="cls-1" cx="97.5" cy="12.2" r="12.2"/></g></g></svg>