<?xml version="1.0" encoding="utf-8"?>
<!-- Generator: Adobe Illustrator 21.0.0, SVG Export Plug-In . SVG Version: 6.00 Build 0)  -->
<svg version="1.1" id="Layer_1" xmlns="http://www.w3.org/2000/svg" xmlns:xlink="http://www.w3.org/1999/xlink" x="0px" y="0px"
	 viewBox="0 0 196.5 158.7" style="enable-background:new 0 0 196.5 158.7;" xml:space="preserve">
<style type="text/css">
	.st0{fill:none;}
	.st1{fill:#AABF51;}
	.st2{fill:#A3B476;}
	.st3{fill:#A0A856;}
	.st4{fill:#DDB90A;}
	.st5{fill:#D8D13E;}
	.st6{fill:#CE4536;}
	.st7{fill:#B3C78F;}
	.st8{fill:#B0CC72;}
	.st9{fill:#A06262;}
	.st10{fill:#9B5050;}
	.st11{fill:#376A7C;}
	.st12{fill:#64BCBA;}
	.st13{fill:#88B27E;}
	.st14{fill:#7A8367;}
	.st15{fill:#564533;}
	.st16{fill:#53697A;}
	.st17{fill:#86B9D8;}
	.st18{fill:#3CA5D5;}
</style>
<title>parte04Asset 5</title>
<g id="Layer_2">
	<g id="Layer_52">
		<path class="st0" d="M154,9.8l-2-0.3c-10.1-1.3-19.7-2.3-28.6-3C139.1,7.9,154,9.8,154,9.8z"/>
		<path class="st0" d="M183.3,4.8L183.3,4.8z"/>
		<path class="st0" d="M163.6,14.4c-0.4-1.4-1.9-2.4-3.7-3.2h0.2C162.8,12.6,163.5,14.1,163.6,14.4z"/>
		<path class="st0" d="M171.7,133.8l-0.4,16.4v8.5l0.5-24.9H171.7z"/>
		<path class="st0" d="M41,73.5h-1L6.3,75.8c0,0,15.8-1,34.7-2V73.5z"/>
		<path class="st0" d="M25.2,148.5c-2.8,5.9-4.6,10.2-4.6,10.2l2.2-5.1L25.2,148.5z"/>
		<path class="st0" d="M41,8.5C52.6,7,61.1,6.2,67.6,5.7C50.3,6.6,41,8.5,41,8.5z"/>
		<path class="st0" d="M40.9,8.5h-2.7c-2.3,0.5-4.1,2.2-4.7,4.4C34.9,9.4,40.2,8.6,40.9,8.5z"/>
		<path class="st0" d="M39.3,8.7H41c-0.9,0-1.9,0.1-2.8,0.4h1.1V8.7z"/>
		<path class="st0" d="M25.2,148.5l3.2-6.4L25.2,148.5z"/>
		<path class="st0" d="M91.5,5.2h-5.7C87.7,5.3,89.6,5.3,91.5,5.2z"/>
		<path class="st0" d="M161.5,134.4l-133,7.6L161.5,134.4z"/>
		<path class="st1" d="M11.7,100c2.5,0,4.8,1.1,6.5,2.9l8.1-13.4l15-0.8l1.5,13.9c-0.6-8-1.2-18.3-1.8-28.9
			c-18.9,1-34.7,2.1-34.7,2.1c-2.1,0.1-4.1,0.5-6.1,1.2c-1.2,6.1,3.2,21.7,4.6,26.4C6.4,101.3,9,100,11.7,100z"/>
		<path class="st2" d="M171.8,133.8l0.3-14.8L171.8,133.8L171.8,133.8z"/>
		<path class="st3" d="M161.5,134.4h0.1l-6.8-11.1l-14.1-16.9H112l-23,0.5l-33.2,1.5l-0.3-0.8l-11.1,10.2v0.7
			C39,122.8,33,133,28.4,142l0,0L161.5,134.4z"/>
		<path class="st1" d="M154.8,90.4h12.5l4.5,7.7c4.5-2,9.8,0,11.8,4.5c1.7,3.8,0.5,8.3-2.9,10.8l2.8,4.9l1.2,14.7l9.2-0.5
			c3.1-7.5,2.6-60.3,2.6-60.3s-5-0.6-11.4-0.6L154.8,72V90.4z"/>
		<path class="st2" d="M9,117.1l0.3,0.7l0.3-0.6L9,117.1z"/>
		<path class="st4" d="M18.5,9.3l-0.7,16.9l-3.9,0.4v8.6l17.9-0.8l1.8-21.1l-0.7,1.8l0.7-1.8c0.6-2.2,2.4-3.9,4.7-4.4l0,0
			c0.9-0.2,1.8-0.4,2.7-0.4c0,0,9.3-1.9,26.7-2.8c6-0.5,12.1-0.7,18.1-0.5h5.7C98,4.6,111,5.5,123.4,6.6c8.9,0.7,18.4,1.6,28.6,3
			l2,0.3c2,0.2,4,0.7,5.9,1.5c1.8,0.7,3.3,1.8,3.7,3.2l0,0l1.8,19.8l11.1-0.2v-5.5h-5.1V17.4h5.1V4.5l6.8,0.3l0,0
			C179.7,4,170,4.4,170,4.4V0H15.2c-0.5,4.5-0.9,9.3-0.9,9.3H18.5z"/>
		<path class="st5" d="M6.5,35.4L6.5,35.4v-8L7.6,9.3c0.3-1.8,0.8-5.7,1.3-9.2H8.4C6.7,11.8,6.1,23.6,6.5,35.4z"/>
		<path class="st5" d="M184,34.1c0-0.1-0.1-0.8-0.2-2.2v2.2H184z"/>
		<path class="st6" d="M14.3,9.3c0,0,0.4-4.8,0.9-9.2H8.9c-0.5,3.6-1,7.5-1.3,9.3L14.3,9.3z"/>
		<polygon class="st6" points="13.8,26.6 17.7,26.1 18.5,9.3 14.3,9.3 7.6,9.3 6.5,27.4 		"/>
		<polygon class="st6" points="13.8,26.6 13.8,26.6 6.5,27.4 6.5,35.4 13.8,35.1 		"/>
		<polygon class="st6" points="176.5,28.7 176.5,34.1 181,34.1 183.8,34.1 183.8,32 183.8,28.7 		"/>
		<polygon class="st6" points="176.5,17.4 171.4,17.4 171.4,28.7 176.5,28.7 183.8,28.7 183.4,17.4 		"/>
		<path class="st6" d="M176.5,4.5v12.9h6.9c-0.1-2.6,0.4-12.6,0.4-12.6h-0.5L176.5,4.5z"/>
		<path class="st6" d="M183.3,4.7h0.5V0H170v4.3C170,4.3,179.7,3.9,183.3,4.7z"/>
		<path class="st0" d="M32.8,15.1l0.7-1.8"/>
		<path class="st7" d="M39.3,8.7L39.3,8.7z"/>
		<path class="st7" d="M38.2,8.9L38.2,8.9z"/>
		<path class="st7" d="M40.3,8.6L40.3,8.6z"/>
		<path class="st7" d="M40.3,8.6L40.3,8.6z"/>
		<path class="st7" d="M40.7,8.5L40.7,8.5z"/>
		<path class="st7" d="M39.9,8.6L39.9,8.6z"/>
		<path class="st7" d="M40.8,8.5L40.8,8.5z"/>
		<path class="st7" d="M37.5,8.9"/>
		<path class="st7" d="M37.7,8.9L37.7,8.9z"/>
		<path class="st7" d="M37.9,8.9L37.9,8.9z"/>
		<path class="st7" d="M37.8,8.9L37.8,8.9z"/>
		<path class="st8" d="M181,34.1h-4.5l-11.1,0.2l-1.8-19.8l0,0c-0.1-0.3-0.9-1.8-3.6-3.1h-0.2C158,10.6,156,10,154,9.8l0,0
			c0,0-14.9-1.8-30.6-3.2C111,5.4,98,4.6,91.5,5.2l0,0c-1.9,0.1-3.8,0.1-5.7,0c-6-0.2-12.1,0-18.1,0.5C61.1,6.2,52.6,7,41,8.5h-0.1
			c-0.7,0.1-6,0.9-7.4,4.7l-1.8,21.2l-17.9,0.8l-7.4,0.3H5.1c0,0-3.3-1.2-2.6,10.2c0,0,0.5,17.5,3.8,30.2L40,73.5h1
			c-1-20-1.5-40.9,0.2-48.7c0,0-1.7-3.2,7.8-3.7c0,0,68.6-8,101.7,3.3c0,0,4.8,3.3,4.1,15.1V72l30.3-0.4h7.2c0,0,2.6-31.2,1.3-36
			c0,0,0.2-1.2-1.5-1.1l-8-0.2H181V34.1z M34.2,47.5h-0.3L32.4,59h-0.8l-0.2,0.2c-0.3,0.4-0.6,0.9-0.8,1.4c0,0.3-0.2,0.5-0.5,0.5
			l-0.2,0.2l-1.1,0.5l0.5,0.2c1.1,0.6,1.7,2,1.3,3.2c-0.3,1.1-1.4,1.7-2.4,1.4c-0.2-0.1-0.4-0.1-0.6-0.2c-1-0.6-1.3-1.9-0.7-2.9
			c0.1-0.2,0.2-0.3,0.3-0.4l0.5-0.3H27l-2.3-0.4c0.7-0.4,1.5-0.7,2.3-0.8l-0.5-0.3l-0.2-0.2c-0.3,0-0.5-0.2-0.5-0.5
			c-0.2-0.5-0.5-1-0.8-1.4L24.8,59h-0.6l-1.7-11.6h-0.3c-0.4,0.2-0.9-0.1-1-0.5c-0.2-0.4,0.1-0.9,0.5-1c0.2-0.1,0.4-0.1,0.6,0h1.2
			c0.5-0.7,0.9-1.4,1.3-2.1c0-0.4,0.3-0.7,0.7-0.8l0.3-0.3c0.7-0.5,1.4-0.8,2.2-0.9l0,0v-0.4c-0.4-0.1-0.7-0.5-0.7-1
			c0-0.6,0.5-1,1-1c0.6,0,1,0.5,1,1c0,0.4-0.3,0.8-0.7,0.9c0,0.1,0,0.3,0,0.4l0,0c0.8,0.1,1.5,0.4,2.2,0.9L31,43
			c0.4,0.1,0.7,0.4,0.7,0.8c0.4,0.7,0.8,1.4,1.3,2.1h1.2c0.4,0,0.7,0.3,0.7,0.7v0.1C34.9,47.1,34.6,47.4,34.2,47.5z M161.6,43.9h1.2
			c0.5-0.7,0.9-1.4,1.3-2.1c0-0.4,0.3-0.7,0.7-0.8l0.3-0.3c0.7-0.5,1.4-0.8,2.2-0.9l0,0v-0.4c-0.4-0.1-0.7-0.5-0.7-1
			c0-0.6,0.5-1,1-1c0.6,0,1,0.5,1,1c0,0.4-0.3,0.8-0.7,0.9c0,0.1,0,0.3,0,0.4l0,0c0.8,0.1,1.5,0.4,2.2,0.9l0.3,0.3
			c0.4,0.1,0.7,0.4,0.7,0.8c0.4,0.7,0.8,1.4,1.2,2.1h1.2c0.4,0,0.7,0.3,0.7,0.7v0.1c0,0.4-0.4,0.8-0.8,0.8l0,0h-0.3L171.9,57h-0.8
			l-0.2,0.2c-0.3,0.4-0.6,0.9-0.8,1.4c0,0.3-0.2,0.5-0.5,0.5l-0.2,0.2l-1.1,0.5l0.5,0.2c1.1,0.6,1.7,2,1.3,3.2
			c-0.3,1.1-1.4,1.7-2.4,1.4c-0.2-0.1-0.4-0.1-0.6-0.2c-1-0.6-1.3-1.9-0.7-2.9c0.1-0.2,0.2-0.3,0.3-0.4l0.5-0.3h-0.7l-2.3-0.4
			c0.7-0.4,1.5-0.7,2.3-0.8l-0.5-0.3l-0.2-0.2c-0.3,0-0.5-0.2-0.5-0.5c-0.2-0.5-0.5-1-0.8-1.4l-0.2-0.2h-0.6L162,45.4h-0.3
			c-0.4,0.2-0.9-0.1-1-0.5c-0.2-0.4,0.1-0.9,0.5-1C161.3,43.8,161.5,43.8,161.6,43.9L161.6,43.9z"/>
		<polygon class="st9" points="89,106.8 112,106.3 99.3,106.3 		"/>
		<path class="st10" d="M42.8,102.7l1.6,15.2l11.1-10.3c0,0-4.2-65.4-1.2-69.9c0,0-0.2-7.4,9.5-7.7c0,0,28.3-3.7,35.5-2.5
			c0,0,37.3-2.8,45.7,1.3c0,0,3,47.3-1.3,77.6h-2.9l14.1,16.9l-0.5-32.8h0.5v-51c0.8-11.9-4.1-15.1-4.1-15.1C117.5,13,49,21,49,21
			c-9.5,0.5-7.7,3.8-7.7,3.8C39.5,32.6,40,53.5,41,73.5v0.3C41.5,84.3,42.2,94.6,42.8,102.7z"/>
		<path class="st9" d="M84.1,31.8l10.3-0.6L84.1,31.8z"/>
		<path class="st11" d="M25.2,148.5L25.2,148.5l3.2-6.4l0,0c4.6-9,10.7-19.2,16-23.5v-0.7l-1.6-15.2l-1.5-14l-21.8,30.5l1.2,39.5
			c0,0,1.8-4.3,4.6-10.2L25.2,148.5L25.2,148.5z"/>
		<polygon class="st11" points="154.3,90.4 154.8,123.3 161.6,134.3 161.6,134.3 167.4,143.8 171.3,150.2 171.7,133.8 172.1,119 		
			"/>
		<path class="st7" d="M19.5,119.2l21.8-30.5l-15,0.8l-8.1,13.4c3.3,3.5,3,9-0.5,12.3c-1.6,1.5-3.8,2.3-6,2.3l-2.1-0.3l-0.3,0.6
			l-1.5,2.5L19.5,119.2z"/>
		<path class="st7" d="M172.1,119l11.3-0.7l-2.8-4.9c-4,2.9-9.5,2-12.4-1.9s-2-9.5,1.9-12.4c0.5-0.4,1.1-0.7,1.6-0.9l-4.5-7.7h-13
			L172.1,119z"/>
		<polygon class="st12" points="172.1,119 171.8,133.8 171.3,158.7 186.6,157.3 184.7,133 183.5,118.3 		"/>
		<polygon class="st12" points="19.5,119.2 7.8,120.3 6.5,157.5 20.6,158.7 		"/>
		<polygon class="st13" points="167.4,143.8 161.6,134.3 161.6,134.3 161.5,134.4 28.5,142 28.4,142 28.4,142 28.4,142.1 
			25.2,148.5 25.2,148.5 		"/>
		<polygon class="st14" points="25.2,148.5 25.2,148.5 22.9,153.6 171.3,150.2 167.4,143.8 		"/>
		<polygon class="st13" points="22.9,153.6 20.6,158.7 171.3,158.7 171.3,150.2 		"/>
		<path class="st15" d="M11.7,117.5c4.9,0,8.8-4,8.7-8.9c0-4.9-4-8.8-8.9-8.7c-4.9,0-8.8,4-8.7,8.9c0,3.8,2.5,7.2,6.2,8.3l0.6,0.2
			L11.7,117.5z"/>
		<path class="st15" d="M166.3,106.3c0,4.9,4,8.9,8.9,8.9s8.9-4,8.9-8.9s-4-8.9-8.9-8.9c-1.2,0-2.3,0.2-3.4,0.7
			C168.5,99.5,166.3,102.7,166.3,106.3z"/>
		<path class="st16" d="M34.2,45.9H33c-0.4-0.7-0.8-1.4-1.2-2.1c0-0.4-0.4-0.8-0.8-0.8l0,0l-0.3-0.3c-0.7-0.5-1.4-0.8-2.2-0.9l0,0
			c0-0.1,0-0.3,0-0.4c0.5-0.2,0.8-0.7,0.7-1.3c-0.2-0.5-0.7-0.8-1.3-0.7c-0.4,0.1-0.7,0.5-0.7,0.9c0,0.5,0.3,0.9,0.7,1v0.4l0,0
			c-0.8,0.1-1.5,0.4-2.2,0.9L25.4,43c-0.4,0.1-0.7,0.4-0.7,0.8c-0.4,0.7-0.8,1.4-1.3,2.1h-1.3c-0.4-0.2-0.9,0.1-1,0.5
			c-0.2,0.4,0.1,0.9,0.5,1c0.2,0.1,0.4,0.1,0.6,0h0.3L24.2,59h0.6l0.2,0.2c0.3,0.4,0.6,0.9,0.8,1.4c0,0.3,0.2,0.5,0.5,0.5l0.2,0.2
			l0.5,0.3c-0.8,0.1-1.6,0.4-2.3,0.8l2.3,0.4h0.7l-0.5,0.3c-0.8,0.8-0.8,2.1,0,3c0.1,0.1,0.3,0.2,0.4,0.3c0.9,0.6,2.2,0.3,2.8-0.6
			c0.1-0.2,0.2-0.4,0.2-0.6c0.4-1.2-0.2-2.6-1.3-3.2l-0.5-0.2l1.1-0.5l0.2-0.2c0.3,0,0.5-0.2,0.5-0.5c0.2-0.5,0.5-1,0.8-1.4l0.2-0.2
			h0.8l1.5-11.5h0.3c0.4,0,0.8-0.4,0.8-0.8c0.1-0.4-0.2-0.7-0.6-0.8C34.3,45.9,34.3,45.9,34.2,45.9z M24.8,58.1l-1.6-10.5h0.5
			l1.6-0.5v0.5L26.2,58L24.8,58.1z M29.3,57.8h-2.1l-0.9-10.3v-0.6h4.1v0.6L29.3,57.8z M31.8,58.1l-1.6-0.3l0.9-10.4V47l1.4,0.4H33
			L31.8,58.1z"/>
		<polygon class="st17" points="30.3,46.8 26.2,46.8 26.3,47.4 27.2,57.7 29.3,57.7 30.2,47.4 		"/>
		<polygon class="st17" points="25.3,47 23.7,47.4 23.2,47.6 24.8,58.1 26.3,57.8 25.3,47.4 		"/>
		<polygon class="st17" points="31.2,47 31.1,47.4 30.2,57.8 31.8,58.1 33.1,47.6 32.6,47.4 		"/>
		<path class="st16" d="M161.6,45.4h0.3l1.8,11.6h0.6l0.2,0.2c0.3,0.4,0.6,0.9,0.8,1.4c0,0.3,0.2,0.5,0.5,0.5l0.2,0.2l0.5,0.3
			c-0.8,0.1-1.6,0.4-2.3,0.8l2.3,0.4h0.7l-0.5,0.3c-0.8,0.8-0.8,2.1,0,3c0.1,0.1,0.3,0.2,0.4,0.3c0.9,0.6,2.2,0.3,2.8-0.6
			c0.1-0.2,0.2-0.4,0.2-0.6c0.4-1.2-0.2-2.6-1.3-3.2l-0.5-0.2l1.1-0.5l0.2-0.2c0.3,0,0.5-0.2,0.5-0.5c0.2-0.5,0.5-1,0.8-1.4l0.2-0.2
			h0.8l1.5-11.5h0.3c0.4,0,0.8-0.4,0.8-0.8l0,0c0.1-0.4-0.2-0.7-0.6-0.8h-0.1h-1.2c-0.4-0.7-0.8-1.4-1.2-2.1c0-0.4-0.3-0.7-0.7-0.8
			l-0.3-0.3c-0.7-0.5-1.4-0.8-2.2-0.9l0,0c0-0.1,0-0.3,0-0.4c0.5-0.2,0.8-0.7,0.7-1.3c-0.2-0.5-0.7-0.8-1.3-0.7
			c-0.4,0.1-0.7,0.5-0.7,0.9c0,0.5,0.3,0.9,0.7,1v0.4l0,0c-0.8,0.1-1.5,0.4-2.2,0.9l-0.3,0.3c-0.4,0.1-0.7,0.4-0.7,0.8
			c-0.4,0.7-0.8,1.4-1.3,2.1h-1.2c-0.4-0.2-0.9,0.1-1,0.5c-0.2,0.4,0.1,0.9,0.5,1c0.2,0.1,0.4,0.1,0.6,0L161.6,45.4z M170.6,45.4V45
			l1.4,0.4h0.5l-1.3,10.5l-1.6-0.3L170.6,45.4z M169.7,44.8v0.6l-0.9,10.3h-2.1l-0.9-10.3v-0.6H169.7z M163.1,45.4l1.6-0.5v0.5
			l0.9,10.4l-1.5,0.3l-1.6-10.5L163.1,45.4z"/>
		<polygon class="st18" points="166.7,55.7 168.8,55.7 169.7,45.4 169.8,44.8 165.7,44.8 165.8,45.4 		"/>
		<polygon class="st18" points="165.8,55.8 164.8,45.4 164.8,45 163.2,45.4 162.7,45.6 164.3,56.1 		"/>
		<polygon class="st18" points="171.3,56.1 172.6,45.6 172.1,45.4 170.7,45 170.6,45.4 169.7,55.8 		"/>
	</g>
</g>
</svg>
