<svg xmlns="http://www.w3.org/2000/svg" viewBox="0 0 46.2 81.2"><defs><style>.cls-1{fill:#7093a5;}.cls-2{fill:#ceebf1;stroke:#a4b2ba;stroke-miterlimit:10;stroke-width:0.5px;}.cls-3{fill:#c8896e;}.cls-4{fill:#60c5bf;}</style></defs><title>puerta01Asset 1</title><g id="Layer_2" data-name="Layer 2"><g id="Layer_2-2" data-name="Layer 2"><path class="cls-1" d="M35.9,79.7l10.3-.5V45.5h-4V38.7l-.4-.5.4,29.7L6,70.4C4.4,64.6,4,50.7,4.2,38.2h0c0-5.3.2-10.3.3-14.4h0c.1-3.2.2-5.8.3-7.5h0V13.9l.5-2.7.4-1.7A5.6,5.6,0,0,1,6,8.4C7.5,6.7,16.2,6,16.2,6h0C20.9,5.4,26.3,5,31,4.7h0l10.3-.6.2,17h0l.2,15.3.4-.6V32.4h4V.3C38.9-1,10.6,2.8,10.6,2.8c-9.7.3-9.5,7.7-9.5,7.7-3,4.6,1.2,69.9,1.2,69.9l.3.8Z"/><path class="cls-2" d="M15.5,22.2,16.2,6S7.5,6.7,6,8.4L5.7,9.5l-.4,1.7a35.1,35.1,0,0,0-.6,5h0l-.3,7.5h0Z"/><polygon class="cls-2" points="15.5 22.2 31 21.2 31 4.7 31 4.7 16.3 6 16.3 6 15.5 22.2"/><polygon class="cls-2" points="31 21.2 41.6 21.1 41.4 4.1 31 4.7 31 4.7 31 21.2"/><polygon class="cls-2" points="16.3 37.2 15.5 22.2 4.5 23.7 4.5 23.7 4.2 38.2 4.2 38.2 16.3 37.2"/><polygon class="cls-2" points="31 21.2 15.5 22.2 16.3 37.2 30.4 36.6 31 21.2"/><polygon class="cls-2" points="31 21.2 30.4 36.6 41.6 36.6 41.6 21.1 41.6 21.1 31 21.2"/><polygon class="cls-2" points="16.3 40.6 16.3 37.2 4.2 38.2 4.2 38.2 4.2 40.6 16.3 40.6"/><polygon class="cls-2" points="30.4 36.6 16.3 37.2 16.3 40.6 30.4 39.8 30.4 36.6"/><path class="cls-2" d="M30.4,36.6v3.2l11.2-.5V37.4h0v-.5Z"/><polygon class="cls-2" points="31 55.4 41.6 54.6 41.6 39.3 30.4 39.8 31 55.4"/><polygon class="cls-2" points="30.4 39.8 16.3 40.6 17 56.2 31 55.4 30.4 39.8"/><polygon class="cls-2" points="16.3 40.6 4.2 40.6 4.5 57.7 17 56.2 16.3 40.6"/><polygon class="cls-2" points="17 56.2 4.5 57.7 6 70.4 18.4 69.5 17 56.2"/><polygon class="cls-2" points="18.4 69.5 31 68.7 31 55.4 17 56.2 18.4 69.5"/><polygon class="cls-2" points="31 55.4 31 68.7 42.2 67.9 41.6 54.6 31 55.4"/><path class="cls-3" d="M45.5,37.2a2,2,0,0,0-3.3-1.4l-.4.6a2,2,0,0,0-.2.7h0a2,2,0,0,0,.2.8l.4.5A2,2,0,0,0,45.5,37Z"/><path class="cls-4" d="M42.2,32.4v3.4a2,2,0,1,1,0,2.9v6.8h4V32.4Z"/></g></g></svg>