<svg xmlns="http://www.w3.org/2000/svg" viewBox="0 0 46.7 79.9"><defs><style>.cls-1{fill:#7093a5;}.cls-2{fill:#ceebf1;stroke:#a4b2ba;stroke-miterlimit:10;stroke-width:0.5px;}.cls-3{fill:#60c5bf;}.cls-4{fill:#c8896e;}</style></defs><title>puesrta02Asset 2</title><g id="Layer_2" data-name="Layer 2"><g id="Layer_1-2" data-name="Layer 1"><path class="cls-1" d="M0,46.1V79.9H44.3c4.4-30.4,1.4-77.7,1.4-77.7C37.4-1.9,0,.9,0,.9ZM1.8,35.4V34l.5-.4a2.7,2.7,0,0,1,3.3,0v3.3h.2V4.7H43.7c.4.7.3,7.4-.1,16.2h0c-.2,5-.5,10.7-.8,16.3h0l-.2,3.1h0c-.3,5.3-.6,10.5-.9,14.8h0c-.4,7-.8,11.9-.8,11.9H5.8V45.6h-4Z"/><rect class="cls-2" x="5.8" y="4.7" width="13.7" height="16.17"/><polygon class="cls-2" points="32.5 20.8 31.7 4.7 19.5 4.7 19.5 20.8 32.5 20.8"/><polygon class="cls-2" points="43.6 20.8 43.6 20.8 43.7 4.7 31.7 4.7 32.5 20.8 43.6 20.8"/><path class="cls-2" d="M19.5,37.2V20.8H5.8V37H19.5Z"/><rect class="cls-2" x="19.5" y="20.8" width="13" height="16.33"/><polygon class="cls-2" points="32.5 20.8 32.5 37.2 42.8 37.2 42.8 37.2 43.6 20.9 43.6 20.8 32.5 20.8"/><path class="cls-2" d="M19.5,37.2H6a1.9,1.9,0,0,1,0,2.7H19.5Z"/><polygon class="cls-2" points="31.7 40.4 32.5 37.2 19.5 37.2 19.5 39.9 31.7 40.4"/><polygon class="cls-2" points="32.5 37.2 31.7 40.4 42.6 40.4 42.6 40.3 42.8 37.2 42.8 37.2 32.5 37.2"/><polygon class="cls-2" points="31.7 40.4 30.7 55.2 41.8 55.2 41.8 55.2 42.6 40.4 42.6 40.4 31.7 40.4"/><polygon class="cls-2" points="18.5 55.2 30.7 55.2 31.7 40.4 19.5 39.9 18.5 55.2"/><path class="cls-2" d="M19.5,39.9H5.8V55.2H18.5Z"/><rect class="cls-2" x="5.8" y="55.2" width="12.7" height="11.96"/><polygon class="cls-2" points="18.5 55.2 18.5 67.2 29.3 67.2 30.7 55.2 18.5 55.2"/><polygon class="cls-2" points="30.7 55.2 29.3 67.2 41 67.2 41.8 55.2 41.8 55.2 30.7 55.2"/><path class="cls-3" d="M5.7,40.1a1.9,1.9,0,1,1-1-3.5l1,.3V33.6a2.7,2.7,0,0,0-3.2,0L2,34V45.6H6Z"/><path class="cls-4" d="M2.8,38.5a1.9,1.9,0,0,0,1.9,1.9l1-.3H6a1.9,1.9,0,0,0,0-2.7H5.6l-1-.3A1.9,1.9,0,0,0,2.8,38.5Z"/></g></g></svg>