<svg xmlns="http://www.w3.org/2000/svg" xmlns:xlink="http://www.w3.org/1999/xlink" viewBox="0 0 644.8 644.8"><defs><style>.cls-1{fill:#fff;}.cls-2{mask:url(#mask);}.cls-3{fill:#bed73d;}.cls-4{fill:#fee013;}.cls-5{fill:#f48270;}.cls-6{fill:#5683c3;}</style><mask id="mask" x="-107.6" y="-126.6" width="860" height="771.4" maskUnits="userSpaceOnUse"><path class="cls-1" d="M-107.6,303.4c0-237.5,192.5-430,430-430s430,192.5,430,430-192.5,286-430,286S-107.6,540.9-107.6,303.4Z"/></mask></defs><title>arco3Asset 1</title><g id="Layer_2" data-name="Layer 2"><g id="Layer_1-2" data-name="Layer 1"><g class="cls-2"><path class="cls-3" d="M322.4,0C144.3,0,0,144.3,0,322.4S144.3,644.8,322.4,644.8,644.8,500.4,644.8,322.4,500.4,0,322.4,0ZM532.7,532.7A297.4,297.4,0,1,1,112.1,112.1,297.4,297.4,0,1,1,532.7,532.7Z"/><path class="cls-4" d="M532.7,112.1A297.4,297.4,0,1,0,112.1,532.7,297.4,297.4,0,1,0,532.7,112.1ZM513.7,515A272.4,272.4,0,1,1,128.4,129.8,272.4,272.4,0,1,1,513.7,515Z"/><path class="cls-5" d="M513.7,129.8A272.4,272.4,0,1,0,128.4,515,272.4,272.4,0,1,0,513.7,129.8ZM496,497.3A247.4,247.4,0,1,1,146.1,147.5,247.4,247.4,0,1,1,496,497.3Z"/><path class="cls-6" d="M496,147.5A247.4,247.4,0,1,0,146.1,497.3,247.4,247.4,0,1,0,496,147.5ZM476.5,479.7a222.4,222.4,0,1,1,65.1-157.3A220.9,220.9,0,0,1,476.5,479.7Z"/></g></g></g></svg>