<svg xmlns="http://www.w3.org/2000/svg" viewBox="0 0 185.2 130.2"><defs><style>.cls-1{fill:#95a53a;}.cls-2{fill:#187694;}.cls-3{fill:#f37775;}.cls-4{fill:#9edae3;}.cls-5{fill:#f2b062;}.cls-6{fill:#f29220;}</style></defs><title>heliiAsset 1</title><g id="Layer_2" data-name="Layer 2"><g id="Layer_1-2" data-name="Layer 1"><rect class="cls-1" x="133.4" y="111" width="3.2" height="15.77"/><rect class="cls-1" x="104.3" y="108.4" width="3.2" height="18.36"/><rect class="cls-1" x="119.6" y="4.5" width="3" height="7.94"/><path class="cls-2" d="M104.6,21.9a11.8,11.8,0,0,0,11.8,11.8h8.2a11.8,11.8,0,0,0,11.8-11.8h0a11.8,11.8,0,0,0-11.8-11.8h-8.2a11.8,11.8,0,0,0-11.8,11.8Z"/><path class="cls-3" d="M.3,30.9C1.7,24.7,7.9,23.6,14,25L79.7,37.4a50.5,50.5,0,1,1-4.6,47.3h0c-9-22.2-35.4-35-49.8-39l-9.7-2.2h0L8.9,42C2.7,40.6-1.1,37.1.3,30.9Z"/><path class="cls-4" d="M121.1,70.4V14.9h.6A50.5,50.5,0,0,1,170.1,80H130.1C121.5,80,121.1,75.4,121.1,70.4Z"/><circle class="cls-5" cx="8.5" cy="32.3" r="4.6"/><path class="cls-5" d="M130.1,83.5h39.9a2.9,2.9,0,1,0,0-5.9H130.1c-6.1,0-6.1-2.1-6.1-6.7V15.4a2.9,2.9,0,0,0-5.9,0V70.9C118.2,75.3,118.2,83.5,130.1,83.5Z"/><circle class="cls-6" cx="121.1" cy="2.9" r="2.9"/><path class="cls-2" d="M57.3,125.3h116a8,8,0,0,0,7.1-8,2.4,2.4,0,1,1,4.8,0,12.9,12.9,0,0,1-12.9,12.9l-115.1-.6a2.1,2.1,0,0,1,0-4.3Z"/></g></g></svg>