<svg xmlns="http://www.w3.org/2000/svg" xmlns:xlink="http://www.w3.org/1999/xlink" viewBox="0 0 344.2 367.6"><defs><style>.cls-1{fill:none;}.cls-2{fill:#fff;}.cls-3{fill:#f9a61b;}.cls-4{fill:url(#linear-gradient);}.cls-5{font-size:75.86px;fill:#f9f9fa;font-family:OogieBoogie, OogieBoogie;}.cls-6{clip-path:url(#clip-path);}</style><linearGradient id="linear-gradient" x1="265.8" y1="64.36" x2="322.54" y2="-2.81" gradientUnits="userSpaceOnUse"><stop offset="0" stop-color="#fff"/><stop offset="0.17" stop-color="#fafafa"/><stop offset="0.37" stop-color="#ebebeb"/><stop offset="0.6" stop-color="#d1d2d3"/><stop offset="0.84" stop-color="#afb0b2"/><stop offset="1" stop-color="#939598"/></linearGradient><clipPath id="clip-path"><rect class="cls-1" x="183.8" y="164.1" width="139.9" height="131"/></clipPath></defs><title>humorAsset 1</title><g id="Layer_2" data-name="Layer 2"><g id="Layer_1-2" data-name="Layer 1"><path class="cls-2" d="M295.3,311.1h47.3V43.4l-12.1,2.1h0V299H272.7c18.1,28.2,37.9,52.2,48.6,57.7,0,0-68.3-24.4-123.3-57.7H12.1V85l249-72.4V0L0,75.9V311.1H194.6c70.2,53.1,149.6,56.5,149.6,56.5S315.3,339.7,295.3,311.1Z"/><path class="cls-3" d="M261.1,12.6h0L12.1,85V299H197.9c55,33.3,123.3,57.7,123.3,57.7-10.6-5.6-30.4-29.5-48.6-57.7h57.8V45.5L261.1,57.7Z"/><polygon class="cls-3" points="342.7 43.4 342.6 43.3 342.6 43.4 342.7 43.4"/><rect class="cls-3" x="330.5" y="36.9" height="8.58"/><polygon class="cls-4" points="330.5 36.9 330.5 36.9 276.4 8.2 261.1 0 261.1 0 261.1 57.7 342.6 43.4 342.6 43.3 330.5 36.9"/></g><g id="Layer_2-2" data-name="Layer 2"><text class="cls-5" transform="translate(56.7 149.2)">HUMOR</text><path class="cls-2" d="M256,280.8l-4-5-14-17.5a9.9,9.9,0,0,1,15.6-12.2l9,11.2,8.9,11-4.7,3.9-8.9-11.1-8.9-11a3.9,3.9,0,0,0-6,4.9l13.7,17,4.1,5.1Zm0,0"/><path class="cls-2" d="M253,255.1l-26.7-33.2a9.9,9.9,0,0,1,15.5-12.3l17.9,22.2-4.8,3.8-17.7-22a3.8,3.8,0,0,0-5.2-.4,3.9,3.9,0,0,0-.8,5.2l26.4,32.9Zm0,0"/><path class="cls-2" d="M273.1,236.2l-11-13.7a9.9,9.9,0,0,1,15.6-12.2l9.9,12.3,4.7,5.9-4.7,3.9-4.8-6-9.8-12.1a3.8,3.8,0,0,0-5.2-.3,3.9,3.9,0,0,0-.8,5.2l10.7,13.3Zm0,0"/><g class="cls-6"><path class="cls-2" d="M262.4,244.8l-18-22.4A9.9,9.9,0,0,1,260,210.1l17.9,22.3-4.8,3.7-17.7-22a3.8,3.8,0,0,0-5.2-.3,3.9,3.9,0,0,0-.8,5.2l17.7,22Zm0,0"/><path class="cls-2" d="M285.4,294.8l-4.1-.2a37.4,37.4,0,0,1-25.3-13.8l4.7-3.8a31.6,31.6,0,0,0,44.4,4.8,31.9,31.9,0,0,0,8.7-39l-17.5-21.8a3.8,3.8,0,0,0-5.2-.3,3.9,3.9,0,0,0-.8,5.2,3.1,3.1,0,0,1-.7,4.2c-1.8,1.3-3.2.4-4.3-.7h-.1l-.9-1.1.2-.2A9.9,9.9,0,0,1,300.8,217l17.9,22.2.3.5a38,38,0,0,1-10.2,46.8,37.4,37.4,0,0,1-23.6,8.3Zm0,0"/><path class="cls-2" d="M217.5,235.1a28,28,0,1,1,39-32.1l-5.9,1.4a21.9,21.9,0,1,0-30.5,25.2Zm0,0"/><path class="cls-2" d="M221.6,255A45.7,45.7,0,1,1,272.8,195l-5.8,2a39.7,39.7,0,1,0-44.3,52Zm0,0"/></g></g></g></svg>