<?xml version="1.0" encoding="utf-8"?>
<!-- Generator: Adobe Illustrator 21.0.0, SVG Export Plug-In . SVG Version: 6.00 Build 0)  -->
<svg version="1.1" id="Layer_1" xmlns="http://www.w3.org/2000/svg" xmlns:xlink="http://www.w3.org/1999/xlink" x="0px" y="0px"
	 viewBox="0 0 256.3 299.6" style="enable-background:new 0 0 256.3 299.6;" xml:space="preserve">
<style type="text/css">
	.st0{opacity:0.2;fill:#231F20;enable-background:new    ;}
	.st1{fill:#4CB748;stroke:#FFFFFF;stroke-width:10;stroke-linecap:round;stroke-linejoin:round;}
	.st2{fill:#F9F9FA;}
</style>
<g id="Layer_2">
	<g id="Layer_1-2">
		<path class="st0" d="M137.7,195.8c-20.7,0.1-41.2-4.1-60-12.2c-13.8,20.1-21.5,51.5-25.3,72.2c-0.6,3.2-5.9,3.1-6.3-0.1
			c-5.4-41.9-3.4-71.8,0.5-92c-17.1-15.5-27.4-35.4-27.4-57.1c0-49.3,53.1-89.3,118.6-89.3s118.5,39.9,118.5,89.3
			S203.2,195.8,137.7,195.8z"/>
		<path class="st1" d="M121.6,209.7c-20.7,0.1-41.2-4.1-60-12.2c-22,32.1-28.5,92.9-28.5,92.9c-9.3-53-7.2-89.5-2.7-112.9
			C13.3,161.9,3,142,3,120.3C3,71,56.1,31.1,121.6,31.1s118.5,40,118.5,89.3S187.2,209.7,121.6,209.7z"/>
	</g>
</g>
<g id="Layer_2_1_">
	<path class="st2" d="M66.3,76.3L61.7,104h-6l-6.1-25.8L66.3,76.3z M52.2,74c-3-2.8-3.1-7.5-0.3-10.5c0.1-0.1,0.2-0.2,0.3-0.3
		c3.2-3,8.2-3,11.3,0c3,2.9,3.1,7.6,0.2,10.6c-0.1,0.1-0.1,0.1-0.2,0.2C60.3,77,55.4,77,52.2,74z"/>
	<path class="st2" d="M92.8,78.3c2.3,2.8,3.3,6.3,3,10.6c-0.5,4.8-1.5,9.6-3.2,14.2h-7.2l0.4-9.5c0.2-1.3,0.1-2.7-0.2-4
		c-0.4-1.1-1.6-1.8-2.8-1.7c-1.1,0-2.1,0.3-3,0.8l-0.3-0.3l0.2,14.4l-8.2,0.8l-5.7-31.5h13.5v2.1c1.2-0.3,2.4-0.4,3.6-0.4
		C87.1,73.9,90.5,75.3,92.8,78.3z"/>
	<path class="st2" d="M114,76.2c-1.1,1-1.7,2.4-1.7,3.9l-0.3,2.5l4.4-0.2v5.9l-5,0.3l-1.7,14.8h-5.9l-0.7-14.3l-3.5,0.2l-2.3-5.9
		l5.6-0.3l-0.4-7.5c-0.3-4,1.4-7.8,4.4-10.4c3-2.9,7.1-4.4,11.2-4.4c1.2,0,2.4,0.1,3.6,0.4l-3.6,13.4
		C116.6,74.6,115.1,75.2,114,76.2z"/>
	<path class="st2" d="M144.7,79.3c6.1,5.6,6.5,15,0.9,21.1c-0.3,0.3-0.6,0.6-0.9,0.9c-6.6,6.1-16.7,6.1-23.3,0
		c-6.1-5.6-6.5-15-0.9-21.1c0.3-0.3,0.6-0.6,0.9-0.9C128,73.2,138.2,73.2,144.7,79.3z M137.4,98.4c2.3-2.1,2.4-5.6,0.3-7.9
		c-0.1-0.1-0.2-0.2-0.3-0.3c-1.2-1.1-2.7-1.7-4.3-1.7c-1.6-0.1-3.2,0.5-4.4,1.7c-2.3,2.1-2.4,5.6-0.3,7.9c0.1,0.1,0.2,0.2,0.3,0.3
		c1.2,1.1,2.8,1.7,4.4,1.7C134.7,100.1,136.3,99.5,137.4,98.4z"/>
	<path class="st2" d="M66,164.4l1.8,5.3c-1.4,0.3-2.8,0.5-4.3,0.5c-4.6,0.1-9.1-1.7-12.4-4.9c-6.4-6-6.8-16-0.8-22.5
		c0.3-0.3,0.6-0.6,0.8-0.8c3.3-3.2,7.8-5,12.4-4.9c2.7,0,5.3,0.6,7.7,1.8l-4.5,14.5c-1-0.6-2.1-0.9-3.2-0.9c-1.7,0-3.3,0.6-4.6,1.8
		c-1.2,1.1-2,2.6-2,4.3c0,1.7,0.7,3.3,2,4.4c1.2,1.2,2.9,1.8,4.6,1.8C64.3,164.7,65.1,164.6,66,164.4z"/>
	<path class="st2" d="M96.3,142.3c6.1,5.6,6.5,15,0.9,21.1c-0.3,0.3-0.6,0.6-0.9,0.9c-6.6,6.1-16.7,6.1-23.3,0
		c-6.1-5.6-6.5-15-0.9-21.1c0.3-0.3,0.6-0.6,0.9-0.9C79.6,136.2,89.7,136.2,96.3,142.3z M89,161.5c2.3-2.1,2.4-5.6,0.3-7.9
		c-0.1-0.1-0.2-0.2-0.3-0.3c-1.2-1.1-2.7-1.7-4.3-1.7c-1.6-0.1-3.2,0.5-4.4,1.7c-2.3,2.1-2.4,5.6-0.3,7.9c0.1,0.1,0.2,0.2,0.3,0.3
		c1.2,1.1,2.8,1.7,4.4,1.7C86.3,163.1,87.8,162.6,89,161.5z"/>
	<path class="st2" d="M134.8,150.5c0,2.6-0.7,5.1-2.1,7.2c-1.5,2.3-3.5,4.1-6,5.2c-2,0.9-4.2,1.4-6.3,1.4c-2.7,0-5.4-0.7-7.7-2.1
		l-0.6,19.1H106l-6.1-42.7l13.3-1.8v2.3c2.3-1.3,4.8-2,7.4-2c2.6,0,5.2,0.6,7.4,2c2.3,1.3,4.1,3.2,5.3,5.6
		C134.3,146.5,134.8,148.5,134.8,150.5z M123.9,153.2c0-0.7-0.2-1.5-0.5-2.1c-0.8-1.8-2.7-2.9-4.7-2.8c-0.8,0-1.6,0.2-2.3,0.5
		c-1.9,0.7-3.1,2.5-3,4.5c0,0.8,0.2,1.6,0.6,2.2c0.8,1.8,2.7,2.9,4.7,2.8c0.8,0,1.6-0.2,2.3-0.5C122.8,157,123.9,155.1,123.9,153.2z
		"/>
	<path class="st2" d="M150.3,140.7c2.4,2.1,3.7,5.1,3.5,8.3l-1.1,19l-3.9,0.4l-0.4-2.2c-1.7,1.5-3.8,2.3-6.1,2.2
		c-3.1,0.2-6-1.4-7.5-4.1c-0.8-1.3-1.2-2.7-1.2-4.2c-0.1-3.1,1.6-5.9,4.4-7.3c1.4-0.8,2.9-1.2,4.5-1.2c1.1,0,2.3,0.2,3.3,0.6
		c-0.1-1.1-0.6-2.1-1.5-2.8c-0.9-0.8-2-1.2-3.1-1.2c-0.8,0-1.6,0.2-2.3,0.6l-3.2-10.3c1.7-0.9,3.6-1.3,5.6-1.3
		C144.7,137.1,147.9,138.4,150.3,140.7z M147.1,160.9c0-0.5-0.1-1.1-0.4-1.6c-0.6-1-1.7-1.6-2.8-1.6c-0.6,0-1.1,0.1-1.7,0.4
		c-1.5,0.8-2,2.7-1.2,4.3c0,0,0,0,0,0c0.6,1,1.7,1.5,2.8,1.5c0.6,0,1.1-0.1,1.7-0.4C146.5,163,147.1,162,147.1,160.9z"/>
	<path class="st2" d="M187.6,124.2l-3.2,43l-6.1,0.4l-0.2-2c-2.6,2.1-5.9,3.3-9.3,3.2c-2.5,0-4.9-0.6-7-1.8c-2.2-1.1-3.9-2.9-5.2-5
		c-2.5-4.2-2.5-9.4,0.1-13.5c1.3-2.1,3.2-3.9,5.4-5.1c4.3-2.4,9.6-2.4,14-0.2l-2-20.1L187.6,124.2z M176.5,158.7c0-2.7-2.2-5-5-5
		c-0.1,0-0.1,0-0.2,0c-1,0-1.9,0.2-2.7,0.7c-1.7,0.8-2.8,2.5-2.7,4.4c0,0.9,0.2,1.7,0.7,2.4c0.9,1.6,2.7,2.6,4.6,2.5
		c1,0,1.9-0.2,2.7-0.7C175.5,162.3,176.5,160.6,176.5,158.7L176.5,158.7z"/>
	<path class="st2" d="M205.5,140.7c2.4,2.1,3.7,5.1,3.5,8.3l-1.2,19.1l-3.9,0.4l-0.4-2.2c-1.7,1.5-3.8,2.3-6.1,2.2
		c-3.1,0.2-6-1.4-7.5-4.1c-0.8-1.3-1.2-2.7-1.2-4.2c-0.1-3.1,1.6-5.9,4.4-7.3c1.4-0.8,2.9-1.2,4.5-1.2c1.1,0,2.3,0.2,3.3,0.6
		c-0.1-1.1-0.6-2.1-1.5-2.8c-0.9-0.8-2-1.2-3.1-1.2c-0.8,0-1.6,0.2-2.3,0.6l-3.1-10.4c1.7-0.9,3.6-1.3,5.6-1.3
		C199.8,137.1,203.1,138.4,205.5,140.7z M202.2,160.9c0-0.5-0.1-1.1-0.4-1.6c-0.6-1-1.7-1.6-2.8-1.6c-0.6,0-1.1,0.1-1.7,0.4
		c-1.5,0.8-2,2.7-1.2,4.3c0,0,0,0,0,0c0.6,1,1.7,1.5,2.8,1.5c0.6,0,1.1-0.1,1.7-0.4C201.7,163,202.3,162,202.2,160.9z"/>
</g>
</svg>
