<svg xmlns="http://www.w3.org/2000/svg" viewBox="0 0 657.5 132.8"><defs><style>.cls-1{fill:#fff;}.cls-2{fill:#5b5342;}.cls-3{fill:#f38498;}.cls-4{fill:#f2633e;}</style></defs><title>libroAsset 1</title><g id="Layer_2" data-name="Layer 2"><g id="Layer_1-2" data-name="Layer 1"><path class="cls-1" d="M94.6,39.9c28.5-1.9,66.5-3.4,104.6-1.6a499.8,499.8,0,0,1,55.6,5.5c8.8,1.4,17.3,3.1,25.2,5.1a197.4,197.4,0,0,1,22,6.9A125.3,125.3,0,0,1,319.7,64a90.9,90.9,0,0,1,9,5.9V64.5l-.8-.7a77.4,77.4,0,0,0-11.4-8.6A112.6,112.6,0,0,0,300,46.9c-12.6-5.2-28-9.3-44.8-12.2A446.4,446.4,0,0,0,202,29.1c-36.4-1.8-72.9-.2-100.1,1.8-13.6,1-25,2.1-32.9,3l-9.2,1.1-2.3.3-3.3,8.2,6.1-.6C68.5,41.9,80.4,40.8,94.6,39.9Z"/><path class="cls-1" d="M284.5,89.3a322.8,322.8,0,0,0-48.2-5.4c-17.8-.8-36.7-.6-55.7.3C142.7,86,105,90.5,76.8,94.5c-14.1,2-25.8,4-33.9,5.4l-9.5,1.7-3.3.6L26,112.3,310.2,96.5l-7-2.4A174.1,174.1,0,0,0,284.5,89.3Z"/><path class="cls-1" d="M105.5,9c13.6-.4,29.4-.7,46.3-.4s35,1.1,53,2.8a442.8,442.8,0,0,1,52.6,7.8c16.6,3.6,31.8,8.4,44.1,14.2a114.6,114.6,0,0,1,16.2,9.1,83.6,83.6,0,0,1,9.8,7.7c-6.6-11.6-47-59.9-256.4-48.4l-3.8,9.2,5.4-.4C80.6,10,91.9,9.4,105.5,9Z"/><path class="cls-1" d="M101.4,23.8c27.5-1.3,64.2-2,100.8.8a450.3,450.3,0,0,1,53.5,7c16.9,3.3,32.4,7.9,45,13.5a114.4,114.4,0,0,1,16.6,8.9,78.8,78.8,0,0,1,11.4,9v-10l-.6-.6A80.3,80.3,0,0,0,317,43.8a112.8,112.8,0,0,0-16.2-8.5c-12.3-5.3-27.5-9.7-44-12.9a438.9,438.9,0,0,0-52.3-6.4c-17.9-1.2-35.9-1.6-52.7-1.4s-32.5.8-46,1.5-24.6,1.7-32.4,2.4l-9.1.9h-.4L61,26.5l7.2-.6C76.2,25.3,87.7,24.4,101.4,23.8Z"/><path class="cls-1" d="M325,92l-2.2-1.3-2.5-1.4a96.8,96.8,0,0,0-13.5-5.9,159.8,159.8,0,0,0-18.4-5.2,307.7,307.7,0,0,0-47.6-6.3c-17.6-1.1-36.4-1.2-55.2-.7s-37.6,1.7-55.1,3.2-33.9,3.3-47.9,5-25.6,3.4-33.8,4.6l-9.4,1.5-2.4.4-3.1,7.5,7.8-1.2c8.3-1.2,20.1-2.9,34.3-4.6,28.4-3.4,66.4-7,104.6-7.8,19.1-.4,38.2-.2,56,1.1a325.3,325.3,0,0,1,48.4,6.6,175.8,175.8,0,0,1,18.8,5.3c3.5,1.2,6.7,2.5,9.6,3.7l15.4-.9v-.8l-.4-.3Z"/><path class="cls-1" d="M327.4,82.1l-1.3-.8-2.8-1.7-3.1-1.7-3.5-1.7-3.8-1.7a144.3,144.3,0,0,0-18.2-6.2c-13.6-3.7-29.9-6.4-47.4-8s-36.4-2.3-55.2-2.3c-37.6.1-75.2,2.9-103.3,5.7-14,1.4-25.7,2.8-33.9,3.8l-9.5,1.3-1.9.3L40.4,77l7.1-.9c8.2-1,20-2.4,34.1-3.8s30.6-2.8,48.3-3.8,36.6-1.8,55.5-1.8,37.8.6,55.5,2.1a310.2,310.2,0,0,1,47.9,7.5A161.7,161.7,0,0,1,307.3,82a98.1,98.1,0,0,1,13.6,6.3l2.5,1.5,2.2,1.4,3.1,2.2V83h-.2Z"/><path class="cls-1" d="M301.4,57.7a195.2,195.2,0,0,0-21.9-6.3c-7.9-1.8-16.3-3.3-25.1-4.5A496,496,0,0,0,199,42.8c-37.8-.9-75.6,1.5-103.8,4.1C81,48.2,69.3,49.6,61.1,50.6l-9.5,1.2h-1l-3.4,8.4,6.9-.8c8.2-.8,20-2,34.2-3,28.3-2.1,66.1-4,104-3.1,18.9.4,37.8,1.6,55.5,3.7s34,5.2,47.6,9.2a146.1,146.1,0,0,1,18.2,6.7l3.8,1.8,3.5,1.8,3.1,1.8,2.8,1.8,1.3.8.7.5V71.5a87.2,87.2,0,0,0-9.8-6.1A123.4,123.4,0,0,0,301.4,57.7Z"/><path class="cls-2" d="M326.8,80.3l-2.8-1.8-3.1-1.8-3.5-1.8-3.8-1.8a146.1,146.1,0,0,0-18.2-6.7c-13.6-4.1-30-7.2-47.6-9.2s-36.6-3.2-55.5-3.7c-37.9-.9-75.7,1-104,3.1-14.2,1.1-25.9,2.2-34.2,3l-6.9.8-3.5,8.7,1.9-.3,9.5-1.3c8.2-1,19.8-2.4,33.9-3.8,28.1-2.8,65.7-5.6,103.3-5.7,18.8,0,37.6.6,55.2,2.3s33.8,4.3,47.4,8a144.3,144.3,0,0,1,18.2,6.2l3.8,1.7,3.5,1.7,3.1,1.7,2.8,1.7,1.3.8,1.1.8h.2V81.6l-.7-.5Z"/><path class="cls-2" d="M73.4,18.5c7.8-.7,19-1.6,32.4-2.4s29.2-1.4,46-1.5,34.8.2,52.7,1.4a438.9,438.9,0,0,1,52.3,6.4c16.5,3.2,31.7,7.5,44,12.9A112.8,112.8,0,0,1,317,43.8a80.3,80.3,0,0,1,11.2,8.6l.6.6v-.3a14.2,14.2,0,0,0-1.2-2.5,83.6,83.6,0,0,0-9.8-7.7,114.6,114.6,0,0,0-16.2-9.1c-12.4-5.7-27.6-10.5-44.1-14.2a442.8,442.8,0,0,0-52.6-7.8c-18-1.7-36.1-2.5-53-2.8s-32.8-.1-46.3.4S80.6,10,72.7,10.6l-5.4.4-3.5,8.5h.4Z"/><path class="cls-2" d="M69,33.8c7.9-.9,19.2-2,32.9-3,27.2-2,63.7-3.6,100.1-1.8a446.4,446.4,0,0,1,53.2,5.6c16.8,2.9,32.3,7,44.8,12.2a112.6,112.6,0,0,1,16.6,8.4A77.4,77.4,0,0,1,328,63.8l.8.7V62.9a78.8,78.8,0,0,0-11.4-9A114.4,114.4,0,0,0,300.8,45c-12.6-5.6-28.2-10.2-45-13.5a450.3,450.3,0,0,0-53.5-7c-36.6-2.7-73.4-2.1-100.8-.8-13.7.7-25.2,1.5-33.2,2.1l-7.2.6-3.5,8.6,2.3-.3Z"/><path class="cls-2" d="M319.7,64a125.3,125.3,0,0,0-17.7-8.3,197.4,197.4,0,0,0-22-6.9c-7.9-2-16.4-3.7-25.2-5.1a499.8,499.8,0,0,0-55.6-5.5c-38-1.8-76.1-.3-104.6,1.6-14.2,1-26.1,2-34.4,2.9l-6.1.6L50.6,52h1l9.5-1.2c8.2-1,19.9-2.4,34.1-3.7,28.2-2.6,66-5,103.8-4.1a496,496,0,0,1,55.3,4.1c8.8,1.2,17.2,2.7,25.1,4.5a195.2,195.2,0,0,1,21.9,6.3A123.4,123.4,0,0,1,319,65.4a87.2,87.2,0,0,1,9.8,6.1V69.9A90.9,90.9,0,0,0,319.7,64Z"/><path class="cls-2" d="M323.4,89.8l-2.5-1.5A98.1,98.1,0,0,0,307.3,82a161.7,161.7,0,0,0-18.5-5.8,310.2,310.2,0,0,0-47.9-7.5c-17.7-1.5-36.6-2.2-55.5-2.1s-37.8.8-55.5,1.8-34.2,2.4-48.3,3.8S55.8,75,47.6,76l-7.1.9-3.6,8.8,2.4-.4,9.4-1.5c8.1-1.2,19.8-2.9,33.8-4.6s30.4-3.5,47.9-5,36.3-2.7,55.1-3.2,37.6-.4,55.2.7a307.7,307.7,0,0,1,47.6,6.3,159.8,159.8,0,0,1,18.4,5.2,96.8,96.8,0,0,1,13.5,5.9l2.5,1.4L325,92l3.3,2.3.4.3V93.4l-3.1-2.2Z"/><path class="cls-2" d="M284.9,87.3a325.3,325.3,0,0,0-48.4-6.6c-17.9-1.2-36.9-1.5-56-1.1-38.2.8-76.2,4.4-104.6,7.8-14.2,1.7-26,3.4-34.3,4.6l-7.8,1.2-3.6,8.9,3.3-.6,9.5-1.7c8.2-1.4,19.9-3.3,33.9-5.4C105,90.5,142.7,86,180.6,84.2c18.9-.9,37.9-1.1,55.7-.3a322.8,322.8,0,0,1,48.2,5.4A174.1,174.1,0,0,1,303.3,94l7,2.4,3.1-.2c-2.8-1.2-6-2.5-9.6-3.7A175.8,175.8,0,0,0,284.9,87.3Z"/><path class="cls-1" d="M565.7,39.9c-28.5-1.9-66.5-3.4-104.6-1.6a499.8,499.8,0,0,0-55.6,5.5c-8.8,1.4-17.3,3.1-25.2,5.1a197.4,197.4,0,0,0-22,6.9A125.3,125.3,0,0,0,340.6,64a90.8,90.8,0,0,0-9,5.9V64.5l.8-.7a77.4,77.4,0,0,1,11.4-8.6,112.6,112.6,0,0,1,16.6-8.4c12.6-5.2,28-9.3,44.8-12.2a446.4,446.4,0,0,1,53.2-5.6c36.4-1.8,72.9-.2,100.1,1.8,13.6,1,25,2.1,32.9,3l9.2,1.1,2.3.3,3.3,8.2-6.1-.6C591.8,41.9,580,40.8,565.7,39.9Z"/><path class="cls-1" d="M375.8,89.3A322.8,322.8,0,0,1,424,83.9c17.8-.8,36.7-.6,55.7.3,37.9,1.8,75.6,6.3,103.8,10.3,14.1,2,25.8,4,33.9,5.4l9.5,1.7,3.3.6,4.1,10.1L350.1,96.5l7-2.4A174.1,174.1,0,0,1,375.8,89.3Z"/><path class="cls-1" d="M554.8,9c-13.6-.4-29.4-.7-46.3-.4s-35,1.1-53,2.8a442.8,442.8,0,0,0-52.6,7.8c-16.6,3.6-31.8,8.4-44.1,14.2a114.6,114.6,0,0,0-16.2,9.1,83.7,83.7,0,0,0-9.8,7.7c6.6-11.6,47-59.9,256.4-48.4l3.8,9.2-5.4-.4C579.7,10,568.4,9.4,554.8,9Z"/><path class="cls-1" d="M558.9,23.8c-27.5-1.3-64.2-2-100.8.8a450.3,450.3,0,0,0-53.5,7c-16.9,3.3-32.4,7.9-45,13.5A114.5,114.5,0,0,0,343,53.9a78.9,78.9,0,0,0-11.4,9v-10l.6-.6a80.3,80.3,0,0,1,11.2-8.6,112.9,112.9,0,0,1,16.2-8.5c12.3-5.3,27.5-9.7,44-12.9a438.9,438.9,0,0,1,52.3-6.4c17.9-1.2,35.9-1.6,52.7-1.4s32.5.8,46,1.5,24.6,1.7,32.4,2.4l9.1.9h.4l2.9,7.1-7.2-.6C584.1,25.3,572.7,24.4,558.9,23.8Z"/><path class="cls-1" d="M335.3,92l2.2-1.3,2.5-1.4a96.8,96.8,0,0,1,13.5-5.9A159.9,159.9,0,0,1,372,78.2a307.7,307.7,0,0,1,47.6-6.3c17.6-1.1,36.4-1.2,55.2-.7s37.6,1.7,55.1,3.2,33.9,3.3,47.9,5,25.6,3.4,33.8,4.6l9.4,1.5,2.4.4,3.1,7.5-7.8-1.2c-8.3-1.2-20.1-2.9-34.3-4.6-28.4-3.4-66.4-7-104.6-7.8-19.1-.4-38.2-.2-56,1.1a325.3,325.3,0,0,0-48.4,6.6,175.8,175.8,0,0,0-18.8,5.3c-3.5,1.2-6.7,2.5-9.6,3.7l-15.4-.9v-.8l.4-.3Z"/><path class="cls-1" d="M359,57.7a195.2,195.2,0,0,1,21.9-6.3c7.9-1.8,16.3-3.3,25.1-4.5a496,496,0,0,1,55.3-4.1c37.8-.9,75.6,1.5,103.8,4.1,14.1,1.3,25.9,2.6,34.1,3.7l9.5,1.2h1l3.4,8.4-6.9-.8c-8.2-.8-20-2-34.2-3-28.3-2.1-66.1-4-104-3.1-18.9.4-37.8,1.6-55.5,3.7s-34,5.2-47.6,9.2a146.2,146.2,0,0,0-18.2,6.7l-3.8,1.8-3.5,1.8-3.1,1.8-2.8,1.8-1.3.8-.7.5V71.5a87.2,87.2,0,0,1,9.8-6.1A123.4,123.4,0,0,1,359,57.7Z"/><path class="cls-1" d="M332.9,82.1l1.3-.8,2.8-1.7,3.1-1.7,3.5-1.7,3.8-1.7a144.2,144.2,0,0,1,18.2-6.2c13.6-3.7,29.9-6.4,47.4-8s36.4-2.3,55.2-2.3c37.6.1,75.2,2.9,103.3,5.7,14,1.4,25.7,2.8,33.9,3.8l9.5,1.3,1.9.3,3.2,7.9-7.2-.9c-8.2-1-20-2.4-34.1-3.8s-30.6-2.8-48.3-3.8-36.6-1.8-55.5-1.8-37.8.6-55.5,2.1a310.2,310.2,0,0,0-47.9,7.5A161.6,161.6,0,0,0,353.1,82a98.1,98.1,0,0,0-13.6,6.3l-2.5,1.5-2.2,1.4-3.1,2.2V83h.2Z"/><path class="cls-2" d="M587,18.5c-7.8-.7-19-1.6-32.4-2.4s-29.2-1.4-46-1.5-34.8.2-52.7,1.4a438.9,438.9,0,0,0-52.3,6.4c-16.5,3.2-31.7,7.5-44,12.9a112.9,112.9,0,0,0-16.2,8.5,80.3,80.3,0,0,0-11.2,8.6l-.6.6v-.3a14.3,14.3,0,0,1,1.2-2.5,83.7,83.7,0,0,1,9.8-7.7,114.6,114.6,0,0,1,16.2-9.1c12.4-5.7,27.6-10.5,44.1-14.2a442.8,442.8,0,0,1,52.6-7.8c18-1.7,36.1-2.5,53-2.8s32.8-.1,46.3.4,24.9,1.1,32.8,1.6l5.4.4,3.5,8.5H596Z"/><path class="cls-2" d="M591.4,33.8c-7.9-.9-19.2-2-32.9-3-27.2-2-63.7-3.6-100.1-1.8a446.4,446.4,0,0,0-53.2,5.6c-16.8,2.9-32.3,7-44.8,12.2a112.6,112.6,0,0,0-16.6,8.4,77.4,77.4,0,0,0-11.4,8.6l-.8.7V62.9a78.9,78.9,0,0,1,11.4-9A114.5,114.5,0,0,1,359.6,45c12.6-5.6,28.2-10.2,45-13.5a450.3,450.3,0,0,1,53.5-7c36.6-2.7,73.4-2.1,100.8-.8,13.7.7,25.2,1.5,33.2,2.1l7.2.6,3.5,8.6-2.3-.3Z"/><path class="cls-2" d="M340.6,64a125.3,125.3,0,0,1,17.7-8.3,197.4,197.4,0,0,1,22-6.9c7.9-2,16.4-3.7,25.2-5.1a499.8,499.8,0,0,1,55.6-5.5c38-1.8,76.1-.3,104.6,1.6,14.2,1,26.1,2,34.4,2.9l6.1.6,3.5,8.6h-1l-9.5-1.2c-8.2-1-19.9-2.4-34.1-3.7-28.2-2.6-66-5-103.8-4.1A496,496,0,0,0,406,46.9c-8.8,1.2-17.2,2.7-25.1,4.5A195.2,195.2,0,0,0,359,57.7a123.4,123.4,0,0,0-17.6,7.7,87.2,87.2,0,0,0-9.8,6.1V69.9A90.8,90.8,0,0,1,340.6,64Z"/><path class="cls-2" d="M333.5,80.3l2.8-1.8,3.1-1.8,3.5-1.8,3.8-1.8a146.2,146.2,0,0,1,18.2-6.7c13.6-4.1,30-7.2,47.6-9.2s36.6-3.2,55.5-3.7c37.9-.9,75.7,1,104,3.1,14.2,1.1,25.9,2.2,34.2,3l6.9.8,3.5,8.7-1.9-.3-9.5-1.3c-8.2-1-19.8-2.4-33.9-3.8-28.1-2.8-65.7-5.6-103.3-5.7-18.8,0-37.6.6-55.2,2.3s-33.8,4.3-47.4,8a144.2,144.2,0,0,0-18.2,6.2l-3.8,1.7L340,77.9l-3.1,1.7-2.8,1.7-1.3.8-1.1.8h-.2V81.6l.7-.5Z"/><path class="cls-2" d="M336.9,89.8l2.5-1.5A98.1,98.1,0,0,1,353.1,82a161.6,161.6,0,0,1,18.5-5.8,310.2,310.2,0,0,1,47.9-7.5c17.7-1.5,36.6-2.2,55.5-2.1s37.8.8,55.5,1.8,34.2,2.4,48.3,3.8S604.5,75,612.8,76l7.2.9,3.6,8.8-2.4-.4-9.4-1.5c-8.1-1.2-19.8-2.9-33.8-4.6s-30.4-3.5-47.9-5-36.3-2.7-55.1-3.2-37.6-.4-55.2.7A307.7,307.7,0,0,0,372,78.2a159.9,159.9,0,0,0-18.4,5.2A96.8,96.8,0,0,0,340,89.3l-2.5,1.4L335.3,92,332,94.3l-.4.3V93.4l3.1-2.2Z"/><path class="cls-2" d="M375.4,87.3a325.3,325.3,0,0,1,48.4-6.6c17.9-1.2,36.9-1.5,56-1.1,38.2.8,76.2,4.4,104.6,7.8,14.2,1.7,26,3.4,34.3,4.6l7.8,1.2,3.6,8.9-3.3-.6-9.5-1.7c-8.2-1.4-19.9-3.3-33.9-5.4-28.2-4.1-65.9-8.6-103.8-10.3-18.9-.9-37.9-1.1-55.7-.3a322.8,322.8,0,0,0-48.2,5.4A174.1,174.1,0,0,0,357.1,94l-7,2.4-3.1-.2c2.8-1.2,6-2.5,9.6-3.7A175.8,175.8,0,0,1,375.4,87.3Z"/><path class="cls-3" d="M365.1,75.2h-1.2a11.3,11.3,0,0,0-10.5,7.2l-.3.7h0l-.3,1.1h0c-.1.3-.1.7-.2,1.1h0c0,.2,0,.4,0,.6s0,.4,0,.5a23.9,23.9,0,1,1-47.8,0c0-.2,0-.4,0-.5s0-.4,0-.6h0c0-.4-.1-.7-.2-1.1h0a11.3,11.3,0,0,0-11-9h-1.2L44,99.5l2.9,22.4L283.9,98.7a46.4,46.4,0,0,0,89.6,0l239.6,23.5L616,99.8Z"/><path class="cls-4" d="M10.2,102.9a11.3,11.3,0,0,0,1.1,22.5h1.1l34.5-3.4L44,99.5Z"/><path class="cls-4" d="M647.3,102.9,616,99.8l-2.9,22.4,32,3.1h1.1a11.3,11.3,0,0,0,1.1-22.5Z"/></g></g></svg>