<svg xmlns="http://www.w3.org/2000/svg" viewBox="0 0 91.7 85.7"><defs><style>.cls-1{isolation:isolate;}.cls-2{fill:#fbbc90;}.cls-3,.cls-5{fill:#231f20;}.cls-3,.cls-4,.cls-5{mix-blend-mode:soft-light;}.cls-4{fill:#fff;}.cls-5{opacity:0.4;}</style></defs><title>manoAsset 1</title><g class="cls-1"><g id="Layer_2" data-name="Layer 2"><g id="Layer_1-2" data-name="Layer 1"><path class="cls-2" d="M71.2,67.3a10.5,10.5,0,0,1-2.9-3.9c-.9-2.3-2.3-23.3-2.9-35a139.4,139.4,0,0,1,0-18.7,5.9,5.9,0,0,0-8.7,0s-.5,20,0,26.2S55,41.2,54,41.1c-2.6-.4-2.9-2.2-3.9-5.4S41.7,10,40.9,1.3c0,0-6.6-4.4-10,3,0,0,5.9,28.3,7.6,33.6s-2.9,7-6.1,3.9S18.3,19.9,18.3,19.9s-2.3-3.2-6.5-.6-1.4,6.3-1.4,6.3L24.3,48.4a3.4,3.4,0,0,1-2.6,3.3L5.3,35.6s-2.2-1-4.4,1.3,0,5.6,0,5.6,12.5,13,15.9,18.8a181.3,181.3,0,0,1,9,18.8c.3,1.3,9.6,6.5,13.3,5.4s8.7-2.2,12.2-2.1,13.2.2,15.9-.2S81.3,73,89.1,72.4a6.8,6.8,0,0,0,2.6-5.6c-.2-3.5-4-6-8.9-5.6S76.1,61.9,71.2,67.3Z"/><path class="cls-3" d="M88.1,63.6s4.5,2.1.4,7.7a50.4,50.4,0,0,0-19.7,9.3s-.4,1-6.6,1.4c-7.9.4-10.5-1-16.4.4s-7.6,1.6-12.7,0S26.7,79,26.7,79s7.1,4,13.5,2.9,5.4-2.8,12.1-2.5,12,2,15.5-.8,14.6-8,18-9.6S88.5,65.3,88.1,63.6Z"/><path class="cls-3" d="M64.7,10.2a4,4,0,0,0-2.3-1.1s.5,11.6,1.1,16.9,3.1,33.8,3.1,33.8-1.7-28.2-2.1-34.4A147.5,147.5,0,0,1,64.7,10.2Z"/><path class="cls-3" d="M40,2.5s7.4,30.8,11.1,37.8c0,0,1.1,1.8,4.1,1.5a4.4,4.4,0,0,1-4.9-1.4c-2-2.5-11.5-33-12.2-38.5Z"/><path class="cls-3" d="M18.2,21.2S28.9,39,31.7,42s5.6,1.4,5.6,1.4-2.6,2.5-6.1-1S16.4,20.2,16.4,20.2,17.9,20.6,18.2,21.2Z"/><path class="cls-3" d="M5.1,36.5,21.2,52.3a3.9,3.9,0,0,0,3.2-1.6,4.1,4.1,0,0,1-4.1,2.1L3.9,36.5A.9.9,0,0,1,5.1,36.5Z"/><path class="cls-4" d="M46.7,75.2S48.9,60.6,59,60.7C66.7,60.9,56.9,62.1,46.7,75.2Z"/><path class="cls-5" d="M61.8,50.1s-13.2,4.1-18.6,5.4-18,5.8-20.6,4.3c0,0,3.1,3.1,6.3,1s13.2-3.3,14.9-3.5,17-6.1,17.9-5.4S61.8,50.1,61.8,50.1Z"/></g></g></g></svg>