<svg xmlns="http://www.w3.org/2000/svg" xmlns:xlink="http://www.w3.org/1999/xlink" viewBox="0 0 250 273.8"><defs><style>.cls-1{isolation:isolate;}.cls-13,.cls-16,.cls-2{fill:#fff;}.cls-3{fill:#7e8b37;}.cls-4{fill:#f0a674;}.cls-5{fill:#fbbc90;}.cls-6{fill:#ee2e7b;}.cls-18,.cls-7{fill:#231f20;}.cls-13,.cls-16,.cls-18,.cls-7{mix-blend-mode:soft-light;}.cls-8{fill:#f89921;}.cls-9{fill:url(#linear-gradient);}.cls-10{fill:#ffd34e;}.cls-11{fill:#c36b28;}.cls-12{fill:#63a69f;}.cls-14,.cls-17{fill:#e6e7e7;}.cls-15{fill:url(#linear-gradient-2);}.cls-16{opacity:0.3;}.cls-17,.cls-18{opacity:0.4;}.cls-17{mix-blend-mode:multiply;}</style><linearGradient id="linear-gradient" x1="88.15" y1="-9.49" x2="89.89" y2="54.94" gradientUnits="userSpaceOnUse"><stop offset="0" stop-color="#f4c120"/><stop offset="0.47" stop-color="#f89921"/><stop offset="0.96" stop-color="#f15b2b"/></linearGradient><linearGradient id="linear-gradient-2" x1="154.34" y1="42.26" x2="156.95" y2="113.66" xlink:href="#linear-gradient"/></defs><title>nenasAsset 1</title><g class="cls-1"><g id="Layer_2" data-name="Layer 2"><g id="Layer_1-2" data-name="Layer 1"><path class="cls-2" d="M112.4,257.2s-1,11.5-5.1,14.8a15.8,15.8,0,0,0,14,.4s-1.1-12.4-1.2-14.9S112.4,257.2,112.4,257.2Z"/><path class="cls-2" d="M131.4,257.6s-.6,9.9-1.8,14c0,0,8.8,4.5,15.7-.6,0,0-4.7-6.4-5.1-13.1s-5.2-2.3-5.2-2.3Z"/><path class="cls-3" d="M107.1,206l4.5,32.7-.7,18.5s3.4,4.8,11.9,1.7l.2-22.5,1.4-22.4Z"/><path class="cls-3" d="M131.5,216.7l-1.8,15.5-.7,25.8a12.8,12.8,0,0,0,13.1,1l.3-28,5.9-15.6Z"/><path class="cls-4" d="M64.1,171.2S34.3,192,30.3,195s-8.1-4.5-8.1-4.5.5-11.9,0-12.4,9.6-16.5,9.6-16.5l1.1-5.4,8.9-10.8,9.1,1.5,8.8-1.5a39.5,39.5,0,0,0,4.4,3.1C64.8,148.6,64.1,171.2,64.1,171.2Z"/><path class="cls-5" d="M9.4,164.5c-.1.3-6.4,6.9-8.6,14.8s-.1,17.5,8.6,20.1,23.7,2,29.9-21.2-1.1-18.9-1.1-18.9l-16.9,2.5Z"/><path class="cls-6" d="M83.8,131.6s-14.1-5.8-23.6-.7-11.9,20.7-10.4,26.4S77.3,192.4,99,196.5l-9.6-58.1Z"/><path class="cls-5" d="M94.4,113s-1.2-6.7-7.3-8.2-13.7,16.3-9,28,11.3-.9,11.3-.9l2.5-8.2Z"/><path class="cls-7" d="M83.8,114.8a28.8,28.8,0,0,1,5.6,13.1l-1.7,3.7A29.2,29.2,0,0,0,83.8,114.8Z"/><path class="cls-5" d="M208.5,179.8s12.6,4.2,22.2,3.9c0,0,6.9-3,9-8.5,0,0,4-.4,5.6,1.8a40.7,40.7,0,0,1-4.6,6.4s5.5-.8,8.2-3.9c0,0,1.9.7.8,3.8,0,0-7.5,4.4-10,5.1s-1.4,2.5-.8,3.2,4.9,2.9,4.3,5.2-4.4,1.9-4.4,1.9a2.4,2.4,0,0,0-1.9-2.9,9.5,9.5,0,0,1-4.2-2.9s-21.8.1-29.1-1.6Z"/><path class="cls-6" d="M206.1,166.2s6.1,7,2.7,18.8-16.4,17-27.9,17.2,4.6-11.1,4.6-11.1,4.3-7.4,4.5-8.1S206.1,166.2,206.1,166.2Z"/><path class="cls-5" d="M207.8,142s4.4-5.2,10.4-3.4,3.7,20.9-6.2,28.7-9.3-6.4-9.3-6.4l1.9-8.4Z"/><path class="cls-7" d="M216.1,148.8a28.7,28.7,0,0,0-11.5,8.5l-.4,4A29.2,29.2,0,0,1,216.1,148.8Z"/><path class="cls-8" d="M219,125.1l-8.8,17.3-5.1-2.9s1.3-12.3,1.6-13S219,125.1,219,125.1Z"/><path class="cls-9" d="M140.7,41.2s6.5-21.4-7.8-34S97,.1,87.2,10.9,82.9,30.9,70.3,35.4s-21.5-2-24.7-7.8-.7-9.5,0-9.8,7,2.1,6.5,5.7a14.1,14.1,0,0,1-2,5.7s5.7-4,5.2-8.5-5.4-9.3-9.3-9.9-9.1,7.2-10,13.2S40,48.4,50.6,55.3s28.4,12.8,41,12,13.6-3.6,14-3.8S140.7,41.2,140.7,41.2Z"/><path class="cls-10" d="M136,43a9.2,9.2,0,0,0-2.3-6.1c-2.5-2.9-9.7-5.5-16-1.6s-9.4,12.7-5.3,19.8,8.6-.2,8.9-.5Z"/><path class="cls-5" d="M98.3,98.9S92,118,87,130.6s-21.3,61.2,41.6,87.9c0,0,57.5,9.7,76.6-44.6,0,0,3.3-8.3,3.3-25.9,0-14.6,6.1-30.9,6.1-30.9L154.9,83,123.6,62.5s-9.8,3.1-11.3,5.7S98.3,98.9,98.3,98.9Z"/><path class="cls-2" d="M104.8,148.8s-5.6-4-3.8-15.3,7.6-23.5,19-21.5,18.5,35.3,1,42A46.6,46.6,0,0,0,104.8,148.8Z"/><polygon class="cls-11" points="111.6 113.3 105.9 104.4 110.3 114.1 111.6 113.3"/><polygon class="cls-11" points="108.2 116 102.6 112.2 107.1 117.3 108.2 116"/><polygon class="cls-11" points="105 120.7 101 119.6 104.2 122.2 105 120.7"/><ellipse class="cls-12" cx="119" cy="137.1" rx="13" ry="7.4" transform="translate(-41.9 221.2) rotate(-76.6)"/><path class="cls-8" d="M132.9,108.1s-4.7-17.3-21.4-7.1C111.6,101,128.1,83.6,132.9,108.1Z"/><path class="cls-2" d="M179.3,169s6.9-.7,11-11.4,5.2-24.1-5.7-28.2-33.7,21.3-21.9,35.9A46.6,46.6,0,0,1,179.3,169Z"/><polygon class="cls-11" points="191.2 134.8 200.6 130 191.9 136.2 191.2 134.8"/><polygon class="cls-11" points="192.8 138.9 199.6 138.4 193.1 140.6 192.8 138.9"/><polygon class="cls-11" points="193.2 144.6 197.2 145.6 193.1 146.2 193.2 144.6"/><ellipse class="cls-12" cx="172.8" cy="151.8" rx="13" ry="7.4" transform="translate(-22.1 273.9) rotate(-73.3)"/><path class="cls-8" d="M175.3,119.7s12.8-12.6,22,4.6C197.4,124.2,191.7,100.9,175.3,119.7Z"/><path class="cls-7" d="M134,168.4a33,33,0,0,0,9.2,2.6c4.4.4.1,5.4-3.8,6.6a5.6,5.6,0,0,1-7.4-4.8C131.7,169.3,132.6,167.8,134,168.4Z"/><ellipse class="cls-13" cx="93.6" cy="150.8" rx="2.5" ry="5.8" transform="translate(-81.1 182.1) rotate(-68.3)"/><ellipse class="cls-13" cx="187.6" cy="176.3" rx="2.5" ry="5.8" transform="matrix(0.21, -0.98, 0.98, 0.21, -24.84, 321.66)"/><path class="cls-2" d="M166.7,187.6s-15.2,5.2-33.8-1.5S110,175.5,109,170.4c0,0-6.3,6.9-2.3,21,0,0,7.4,6.1,23.1,10.3a73.1,73.1,0,0,0,28.2,2.2S164.6,201.6,166.7,187.6Z"/><path class="cls-14" d="M107.9,178.6s1.4,6,11.8,10.8c0,0-10-3.1-11.8-5.7A13,13,0,0,1,107.9,178.6Z"/><path class="cls-14" d="M160.9,196.6s-7.5,1.1-19.8-2C141.1,194.6,150.7,201.5,160.9,196.6Z"/><path class="cls-7" d="M143.2,210.2s-15.1.8-24.5-6.4C118.7,203.8,126.1,216.6,143.2,210.2Z"/><path class="cls-15" d="M119,73.2s31.5,57.9,111.6,53.1c0,0,1.8-52.7-40.7-77.9s-71.2,3-71.2,3-42.1,5.4-34.9,54.3c0,0,4.4-3.5,10.2,5.8C94,111.5,117,97.7,119,73.2Z"/><ellipse class="cls-13" cx="119" cy="130.7" rx="4.1" ry="3.4" transform="translate(-41.7 204.2) rotate(-72.3)"/><ellipse class="cls-13" cx="173.2" cy="145.2" rx="4.1" ry="3.4" transform="translate(-17.8 265.9) rotate(-72.3)"/><path class="cls-7" d="M122.2,72.2s25.3,52.8,104.5,50c0,0-.3-9.9-5.2-25.1a16.1,16.1,0,0,1-5.5,12.2c-5.9,5.3-96.8-14.2-85.1-62.3,0,0-9.1,3.7-9.7,7.6C121.3,54.6,117.4,62.5,122.2,72.2Z"/><path class="cls-7" d="M97.4,64.7s-14.2,8.9-11.9,36.9c0,0,7.3,1.7,8.1,6.5a57.9,57.9,0,0,0,21.9-25.9S104.4,87.5,99,83.4,97.4,64.7,97.4,64.7Z"/><path class="cls-7" d="M109.6,40.5s2.2-5.3,6.8-7.2c0,0-12.2-23.1-31.1-9.1,0,0,12.1-4.5,18.7,5.5,0,0-8.4-4.2-18.5,5.2S61.3,52.5,50.6,46.9s-12-21.6-12-21.6-.9,20.5,13.5,27.9,24.5,11,39,10.7c0,0,7.1-9.7,17.6-11.3C108.7,52.5,106.3,48.4,109.6,40.5Z"/><path class="cls-7" d="M117.5,36.8s-7.5,5.5-5.3,15l5.9-1.6a55.3,55.3,0,0,1,8.7-5.9S118.3,42.8,117.5,36.8Z"/><path class="cls-7" d="M140.2,38.6l-3.5.7s-.8-4.9-6.7-6.5c0,0,11.2-3.7,10.3-12.4A44,44,0,0,1,140.2,38.6Z"/><polygon class="cls-7" points="212.1 127 217.1 127 211.6 138.2 210.2 138.2 212.1 127"/><path class="cls-7" d="M199.6,126.6s-53-6.9-79.8-49c0,0,0,3.5-2.4,9.9C117.4,87.4,157.6,129.2,199.6,126.6Z"/><path class="cls-7" d="M91.1,114.8c.1-.2-6.6,12.7-7.3,20.5,0,0-4.7.3-4.7-9.5C79.2,125.8,84.1,127.4,91.1,114.8Z"/><path class="cls-7" d="M209.8,158.3s-.9,5.2-2.3,10.1c0,0,9.9-2.4,12.4-20.2C219.9,148.2,215.5,161.5,209.8,158.3Z"/><path class="cls-7" d="M132,217.9s35.3,2.6,54.8-17.8,19.7-38.6,19.7-38.6S193.3,215.3,132,217.9Z"/><path class="cls-16" d="M134.8,166.9a13.8,13.8,0,0,0,8.4,2.4c4.7-.3,2.4-11,0-12.5S131,163.1,134.8,166.9Z"/><path class="cls-17" d="M147.9,190.7s11.8,1.6,16.9-1.3c0,0-1.4,10.8-8.4,13.6a119,119,0,0,1-15.9-.8s11.8.4,15.2-2.7,1.5-5.1.1-6S147.9,190.7,147.9,190.7Z"/><path class="cls-7" d="M112.3,138.5s-.4,9,4.1,10.1,7.6-7.3,7.6-7.3-2.8,3.2-6.6,2.5A5.9,5.9,0,0,1,112.3,138.5Z"/><path class="cls-7" d="M165.5,153.6s-.4,9,4.1,10.1,7.6-7.3,7.6-7.3-2.8,3.2-6.6,2.5A5.9,5.9,0,0,1,165.5,153.6Z"/><path class="cls-13" d="M100.7,198.4s-22.5-19.1-15.2-57.2C85.5,141.1,83.2,172.3,100.7,198.4Z"/><path class="cls-13" d="M214.5,80.1S181.4,30.1,140,44.3c0,0,7.9,18.4,33.3,27.8,0,0-24-15.8-21.4-23.1S188.4,51.8,214.5,80.1Z"/><path class="cls-13" d="M127.8,26.8s6-7.4,5.7-14.6a21.7,21.7,0,0,0-18-10.2c-12.8-.5-24.9,6.8-27.8,13,0,0,10.3-13.8,29.6-8.7a46.9,46.9,0,0,0-17,2.2s16.3-2.6,23.6,4.9S127.8,26.8,127.8,26.8Z"/><path class="cls-13" d="M117.4,68.1s-2.4-8.2,0-13.7c0,0-8.5,1-13.9,7.7,0,0,5.2-3.6,8.3-2.5s-2.3,6-2.3,6S112.6,64,117.4,68.1Z"/><path class="cls-13" d="M130.3,42.7a15.6,15.6,0,0,1,3.6-1.8S131,33,121,35.5C121,35.5,123.7,41.8,130.3,42.7Z"/><path class="cls-7" d="M203.5,181s-4.4,12.4-11.8,18.3a26.7,26.7,0,0,0,15.8-13.4S201.5,194,203.5,181Z"/><path class="cls-7" d="M207.5,190.8a14.8,14.8,0,0,0,1.7-2.9s19.1,3.8,24.5.5c0,0-.1,3.3,2.5,4.4s4.7,1.7,4.8,4.7l-1.6.5a2.4,2.4,0,0,0-1.4-2.4c-1.6-.8-4.6-1.6-5.3-3.6C232.7,192,217.1,192.4,207.5,190.8Z"/><path class="cls-7" d="M249.4,183.1s-4.3,2.3-6.5,3.2-4.8,1.7-5.3,2.7a2.6,2.6,0,0,1,1.7-2c1.6-.6,8.8-3.7,10.1-5.1Z"/><path class="cls-7" d="M132,225.4l.6-5.2s9.4,1,13.7,0l-1.6,5.2A13.8,13.8,0,0,0,132,225.4Z"/><path class="cls-7" d="M122.6,223.8v-6.6l-14-8,1.5,12.4S115.8,219.1,122.6,223.8Z"/><path class="cls-7" d="M136,258.8a8.4,8.4,0,0,0,5.1-.8V239.4l5.1-18.7c.1-.5-5.7,10.3-5.7,10.3S140.7,258.3,136,258.8Z"/><path class="cls-7" d="M121.8,225.4l-.5,12,.3,20.8s-6.3,1.6-9.2-1c0,0,6,.4,7.3-2.3s.8-18,.8-18Z"/><path class="cls-7" d="M61.5,169.4s5.9-4.6,10.8-5.2c0,0,4.1,7,9,8,0,0,1,12.2,6.8,18.6C88.2,190.8,67.9,178.8,61.5,169.4Z"/><path class="cls-7" d="M53.2,142.5s.4,8.3,6.5,8.3c0,0-4,2.1-5.1,4.8C54.6,155.6,49.8,147.5,53.2,142.5Z"/><path class="cls-7" d="M195.4,196.6s3.4-4.6,4.5-6.5a1.9,1.9,0,0,0,2.8,1.4S197.8,196,195.4,196.6Z"/><path class="cls-7" d="M64.1,170.8s11.4,12.2,19.9,15.7c0,0-2.8-3.5-2.7-6.5,0,0-12.7-8.4-14.9-11.9Z"/><path class="cls-18" d="M1.9,180.5s-3.1,11.4,6,16.7,19.8.2,23.2-6.4A21.2,21.2,0,0,1,10.4,193S3.1,191.4,1.9,180.5Z"/></g></g></g></svg>