<svg xmlns="http://www.w3.org/2000/svg" viewBox="0 0 461.7 480.6"><defs><style>.cls-1{fill:none;stroke:#fdb913;stroke-miterlimit:10;stroke-width:10px;}.cls-2{fill:#f173ac;}.cls-3{fill:#ef5ba1;}.cls-4{fill:#f49ac1;}.cls-5{fill:#231f20;}.cls-6{fill:#fdb913;}</style></defs><title>pajarosa1Asset 1</title><g id="Layer_2" data-name="Layer 2"><g id="Layer_1-2" data-name="Layer 1"><path class="cls-1" d="M207.7,367c9.6,50.4,40.3,80,82.4,100.8"/><polyline class="cls-1" points="268.2 480.6 268.2 455.4 290.1 444.7"/><path class="cls-1" d="M174.9,357.3c-7.5,42.4,6.3,78.1,31.5,111.7"/><polyline class="cls-1" points="181 470.5 192.4 448 216.8 448.3"/><path class="cls-2" d="M0,25.3C43.5-8.8,127.5-15.1,192.8,48.7S390.2,257,461.7,269.4C421.3,387.5,207.6,430.6,93.3,306.7-13.3,191.2,62.9,60.4,0,25.3Z"/><path class="cls-3" d="M192.8,48.7C127.5-15.1,43.5-8.8,0,25.3c81.8-6,185,34.5,289.6,178.6,45.7,63,92.3,100.4,134.4,121.9,17.2-16,30.3-35,37.6-56.5C390.2,257,258,112.4,192.8,48.7Z"/><path class="cls-4" d="M33.5,175.8c5.5,41.9,19.7,87.5,59.8,130.9,38.4,41.6,88,64.3,138.4,71.8C210.8,253.6,108.5,189.4,33.5,175.8Z"/><circle class="cls-5" cx="99.4" cy="42.5" r="14.8"/><path class="cls-6" d="M48.5,3.3C29.8,7.3,13.1,15.1,0,25.3c13.5,7.5,20.5,19.4,24.4,34.6A107.5,107.5,0,0,0,48.5,3.3Z"/></g></g></svg>