<?xml version="1.0" encoding="utf-8"?>
<!-- Generator: Adobe Illustrator 21.0.0, SVG Export Plug-In . SVG Version: 6.00 Build 0)  -->
<svg version="1.1" id="Layer_1" xmlns="http://www.w3.org/2000/svg" xmlns:xlink="http://www.w3.org/1999/xlink" x="0px" y="0px"
	 viewBox="0 0 266.3 290" style="enable-background:new 0 0 266.3 290;" xml:space="preserve">
<style type="text/css">
	.st0{fill:#D696A4;}
	.st1{fill:#E0809A;}
	.st2{fill:#D8D13E;}
	.st3{fill:#DDB90A;}
	.st4{fill:#F9C20A;}
	.st5{fill:#6988B0;}
	.st6{fill:#487DB7;}
	.st7{fill:#CE4536;}
	.st8{fill:#C26558;}
	.st9{fill:#3EA7CC;}
	.st10{fill:#A9C538;}
	.st11{fill:#97D2B5;}
	.st12{fill:#467082;}
	.st13{fill:#D9BC7B;}
	.st14{fill:#FFCB58;}
	.st15{fill:#00A79D;}
	.st16{fill:#A05F87;}
</style>
<title>parte03Asset 4</title>
<g id="Layer_2">
	<g id="Layer_51">
		<path class="st0" d="M246.9,46L246.9,46z"/>
		<path class="st0" d="M207.3,162.4l3.6-7.2H210L207.3,162.4z"/>
		<path class="st1" d="M243.1,60l-0.5,1.6c-3.5,13.5-6.3,22.8-6.3,22.8c-3.1,9-9.6,26.5-16.7,45.4l33.9,1.7h10.7l-0.5,0.5h1.3
			l1.3-95.8h-16.5c-1,4.1-2.9,9.7-2.9,9.7L243.1,60z"/>
		<path class="st1" d="M27.8,40.8h24.6l-0.3-9c-0.2-5.2,3.8-9.7,9.1-9.9c0,0,0.1,0,0.1,0l50.6-1.8l0.2-3.8c0.4-7.1,0.6-14.4,0.6-16
			V0H42.6l2.6,27.8L27.8,40.8z"/>
		<polygon class="st1" points="53.3,149.5 56.1,145 63.1,135.8 68.3,129.4 63.8,123.1 63.8,123.1 11.5,121.8 17.8,147.3 		"/>
		<polygon class="st0" points="265,133.1 265,132.1 240.3,158.1 		"/>
		<path class="st2" d="M252.6,16.8c1-5.7,1.9-11.4,2.5-16.8h-0.7l-0.3,1.4L252.6,16.8z"/>
		<path class="st2" d="M4.9,266.1l3.8-14.6l3.8-12.9h-0.2C10.4,244.2,8.6,250,7,256c-2.9,11.2-5.1,22.5-6.6,34H1l1-7.6L4.9,266.1z"
			/>
		<path class="st3" d="M159.5,286.5l-111.3-5.2c-2.8-3.4-11.7-66.9-11.7-66.9l7.2-21.6l0.3-1.5c-2.8-0.3-5.5-0.5-8.3-0.5h0.8
			l-4.9,14.3l0,0l4.9-0.3l-4.6,16.5c-1.6-0.1-6,0.2-9.5,0.5l0,0l3-0.2l-3.9,13.7h5.4l-3.8,15.4l-7.1,0.4l-3.1,14.3l-2.4,0.2l7.7-0.2
			l-4,17H8.8c-0.5,0-1.1,3.7-1.5,7.6h154.8v-5.8L159.5,286.5z"/>
		<path class="st2" d="M170.8,276.5l-5.4,4.8c2.1,0,4.2,0.2,6.3,0.4h-0.8L170.8,276.5z"/>
		<path class="st2" d="M193.2,199.4L193.2,199.4l-1.5-0.5l0,0L193.2,199.4z"/>
		<path class="st2" d="M175.8,282.3v1.7c0.2-4,0.6-8.3,1-12.7l-0.2,0.2C176.2,276,175.8,282.3,175.8,282.3z"/>
		<path class="st2" d="M246.5,45.9l-9.1-1.2L246.5,45.9z"/>
		<path class="st2" d="M197.4,188.4L197.4,188.4c-0.8-0.9-3.4-1.5-5.2-1.8l0,0C194,186.9,195.8,187.5,197.4,188.4z"/>
		<path class="st2" d="M192.7,173.9l-0.2,5.1l1.8-5.9l1.4,0.4l-3.1-1.2C192.7,172.8,192.7,173.4,192.7,173.9z"/>
		<path class="st2" d="M234.3,87.6c-0.5-0.2-3.9-1-7.5-1.8L234.3,87.6z"/>
		<path class="st2" d="M48.1,173.4l-2.9-0.4L48.1,173.4z"/>
		<path class="st2" d="M112.7,0L112.7,0L112.7,0z"/>
		<path class="st3" d="M200.2,158.7L203,148L75.8,133.7l-0.8,2.1h-5.4l-5.5,9.8l5,0.9l-5.4,13h-9c-0.4,0-6.6,13.9-6.6,13.9l3.6,1.1
			c0.9-0.7,1.9-1.2,2.9-1.6c0.9-0.4,1.8-0.5,2.8-0.5l127-6.5c2.1-0.2,4.3,0.4,5.9,1.9c1.3-3.9,4-9.7,4-9.7
			C196.3,158,198.3,158.2,200.2,158.7z"/>
		<polygon class="st2" points="191.3,105.8 191.3,105.8 191.3,105.8 		"/>
		<polygon class="st2" points="212.1,148.2 204.8,145.8 204.8,146.1 212.1,148.2 		"/>
		<path class="st2" d="M238,76c-2.9-1.2-5.8-2-8.9-2.5C233.6,74.5,238,76,238,76z"/>
		<path class="st3" d="M121.8,15.9l6-0.2l0.2,3.8l51.1-1.8c2.5-0.1,5,0.9,6.8,2.6l0,0c1.9,1.7,2.9,4.2,3,6.7v1.3L209,80.1l-4.3,64.2
			l2.5-14.1l10.3,3l-7.2-2.1l5.4-17.9l8.9,1.9c-1.9-1.4-15.4-2.9-15.4-2.9c-1.2-3.7,3.5-12.2,3.5-12.2s4.9-0.4,8.5,0.5
			c0.8-6.2,4.2-14.5,4.3-14.7l-7.4-1.5c-2.5-2.4,1.6-10.9,1.6-10.9s5-0.7,9.1,0.2l4.3-15.1l-5.6-0.9l3.8-14c1.9,0.6,3.8,1,5.7,1.2
			c1.9-2.5,3.1-12.9,3.1-12.9h1.6l-7.9-1l1.9-12.2l7.1,0.5c0.6-0.5,1.6-17.9,1.6-17.9l-6-0.7V0H112.8l9.1,0.7
			C122.3,3.8,121.9,14,121.8,15.9z"/>
		<path class="st2" d="M209.6,155l-2.2,5.5l-5.1,14.9l-1.7,4.6l6.7-17.6l2.8-7.3L209.6,155z"/>
		<path class="st2" d="M218.3,131.5h0.2l0.7-1.8h0.5c7.1-19,13.6-36.5,16.7-45.4c0,0,2.8-9.3,6.3-22.8L238,76l-3.7,11.6l-5.3,15.2
			l-4.2,12.2l-7.1,18.1l-0.9,2.5L218.3,131.5z"/>
		<polygon class="st4" points="209.6,155 209.6,155 210,155.1 210.9,155.2 240.3,158.1 240.3,158.1 		"/>
		<polygon class="st4" points="264.3,131.5 253.5,131.5 263.8,132 		"/>
		<polygon class="st4" points="216.7,135.6 214.6,141.7 218.4,131.5 218.3,131.5 		"/>
		<polygon class="st4" points="212.1,148.2 212.1,148.2 212.1,148.2 212.1,148.2 		"/>
		<path class="st5" d="M17.3,222.3l5.1-0.4l0,0L17.3,222.3z"/>
		<path class="st5" d="M30.6,190.8L30.6,190.8z"/>
		<polygon class="st6" points="13.4,235.4 17.3,222.3 23.8,206.3 30.6,190.8 39.9,172.8 47.1,159.5 53.3,149.5 17.8,147.3 0,236.5 
			12.2,238.5 12.4,238.6 		"/>
		<path class="st7" d="M112.1,16.3l9.8-0.3c0.1-1.9,0.4-12.1,0-15.3L112.8,0h-0.1v0.3C112.7,1.8,112.5,9.1,112.1,16.3z"/>
		<polygon class="st7" points="128.1,19.5 127.8,15.8 121.8,15.9 112.1,16.3 111.9,20.1 		"/>
		<polygon class="st7" points="69.6,135.8 75,135.8 75.8,133.7 70.9,133.1 68.3,129.4 63.1,135.8 		"/>
		<path class="st7" d="M64.1,145.6l5.5-9.8h-6.5l-7,9.3C58.8,145,61.5,145.2,64.1,145.6z"/>
		<path class="st7" d="M54.8,159.5h9l5.4-13l-5-0.9c-2.6-0.5-5.3-0.7-8-0.6l-2.8,4.5l-6.2,10H54.8z"/>
		<path class="st7" d="M54.8,159.5h-7.7l-7.2,13.3c1.8-0.1,3.5-0.1,5.3,0.2l2.9,0.4C48.1,173.4,54.4,159.5,54.8,159.5z"/>
		<path class="st7" d="M51.7,174.4l-3.6-1.1l-2.9-0.4c-1.8-0.3-3.5-0.3-5.3-0.2l-9.2,18h5.1c2.8,0,5.5,0.2,8.3,0.5
			c1.2-6.6,3.1-10.9,5.1-13.7C49.8,176.3,50.7,175.2,51.7,174.4z"/>
		<path class="st7" d="M30.6,190.8l-6.9,15.5c2.6-0.6,5.2-1,7.8-1.1l0,0l4.9-14.3L30.6,190.8L30.6,190.8z"/>
		<path class="st7" d="M23.8,206.3l-6.5,16l5.1-0.4c3.5-0.3,7.9-0.5,9.5-0.5l4.6-16.5l-4.9,0.3C29,205.3,26.4,205.7,23.8,206.3z"/>
		<polygon class="st7" points="17.3,222.3 13.4,235.4 21.5,235.4 25.4,221.6 22.4,221.9 		"/>
		<polygon class="st7" points="13.4,235.4 12.4,238.6 8.6,251.5 16,251.1 16,251.1 23.1,250.8 26.9,235.4 21.5,235.4 		"/>
		<polygon class="st7" points="8.6,251.5 4.9,266.1 10.4,265.6 10.4,265.6 12.9,265.4 16,251.1 16,251.1 		"/>
		<polygon class="st7" points="4.9,266.1 2,282.4 8.8,282.4 14.1,282.4 18.1,265.4 10.4,265.6 10.4,265.6 		"/>
		<path class="st7" d="M8.8,282.4H2L1,290h6.2C7.7,286.1,8.2,282.4,8.8,282.4z"/>
		<path class="st7" d="M175.8,282.3l-4.2-0.6c-2.1-0.2-4.2-0.4-6.3-0.4l-3.3,2.9v5.8h13.8V282.3z"/>
		<path class="st7" d="M170.8,276.5v5.1h0.8l4.2,0.6c0,0,0.4-6.3,0.8-10.9L170.8,276.5z"/>
		<path class="st8" d="M191.7,199l-0.2,6.3c1.1-2.7,2.3-5.2,2.8-5.5l-1.1-0.3L191.7,199z"/>
		<path class="st7" d="M192.2,186.6l-0.5,12.3l1.5,0.5l1.1,0.4l3.3-11.2h-0.1C195.9,187.7,194.1,187,192.2,186.6z"/>
		<path class="st7" d="M195.6,173.5l-1.4-0.4l-1.8,5.9l-0.3,7.5c1.8,0.3,4.4,0.9,5.2,1.8h0.1l3.1-8.5l1.7-4.6
			C200,174.8,197.8,174.2,195.6,173.5z"/>
		<path class="st7" d="M200.2,158.7c-1.9-0.5-3.9-0.7-5.9-0.6c0,0-2.6,5.8-4,9.7c1.2,1.2,2,2.8,2.2,4.5l3.1,1.2
			c2.2,0.8,4.4,1.4,6.6,1.9l5.1-14.9L200.2,158.7L200.2,158.7z"/>
		<polygon class="st7" points="204.8,146.1 204.6,148.3 203,148.1 200.2,158.7 200.2,158.7 207.4,160.5 209.6,155 209.6,155 
			209.6,155 212.1,148.2 212.1,148.2 		"/>
		<polygon class="st7" points="212.1,148.2 212.1,148.2 214.6,141.7 216.7,135.6 217.6,133.1 207.4,130.1 204.9,144.2 204.8,145.8 
					"/>
		<polygon class="st7" points="215.9,113.1 210.5,131 217.6,133.1 224.8,115 		"/>
		<path class="st7" d="M221.4,100.4L221.4,100.4c-3.7-1-7.5-1.6-8.5-0.5s-4.7,8.5-3.5,12.3c0,0,13.5,1.5,15.4,2.9l4.3-12.2
			L221.4,100.4z"/>
		<path class="st7" d="M229,102.8l5.3-15.1l-7.5-1.8l-1-0.2c-0.1,0.2-3.6,8.6-4.3,14.7l0,0L229,102.8z"/>
		<path class="st7" d="M234.3,87.6L238,76c0,0-4.4-1.5-8.9-2.5l0,0c-4.1-1-8.3-1.5-9.1-0.2s-4.1,8.5-1.6,10.9l7.4,1.5l1,0.2
			C230.3,86.6,233.8,87.4,234.3,87.6z"/>
		<path class="st7" d="M229.1,73.5c3.1,0.5,6,1.3,8.9,2.5l4.6-14.4l0.5-1.6l-9.7-1.6L229.1,73.5L229.1,73.5z"/>
		<path class="st7" d="M243.1,60l3.8-14h-0.4l-9.1-1.2l0,0c-1.9-0.2-3.8-0.6-5.7-1.2l-3.8,14l5.6,0.9L243.1,60z"/>
		<path class="st7" d="M242.1,32h-1.6c0,0-1.3,10.3-3.1,12.9l0,0l9.1,1.2h0.4c0,0,1.9-5.5,2.9-9.7c0.3-1.2,0.5-2.4,0.6-3.7
			C247.6,32.6,244.8,32.4,242.1,32z"/>
		<path class="st7" d="M243.3,19.2L243.3,19.2l-7.1-0.5L234.3,31l7.9,1c2.8,0.4,5.5,0.6,8.3,0.6l1.9-12.7L243.3,19.2z"/>
		<path class="st7" d="M244.9,1.4c0,0-1,17.4-1.6,17.9l0,0l9,0.6l0.3-3.1l1.6-15.4L244.9,1.4z"/>
		<path class="st8" d="M244.9,1.4h9.3l0.3-1.4h-16v0.6L244.9,1.4z"/>
		<polygon class="st9" points="253.5,131.5 219.6,129.8 219.1,129.8 218.4,131.5 214.6,141.7 212.1,148.2 212.1,148.2 209.6,155 
			209.6,155 240.3,158.1 240.3,158.1 265,132.1 265,132.1 265,132.1 263.8,132 		"/>
		<polygon class="st10" points="45.3,27.8 42.6,0 39.1,0 40.7,19 30.8,27.8 30.3,0 27.4,0 27.8,40.8 		"/>
		<path class="st10" d="M11.5,121.8L0,194.3v42.3l17.8-89.2L11.5,121.8z M1.5,191.7l8.8-55.9l4.7,16.4l-12.7,59L1.5,191.7z"/>
		<polygon class="st11" points="40.7,19 39.1,0 30.3,0 30.8,27.8 		"/>
		<polygon class="st11" points="10.3,135.8 1.5,191.6 2.3,211.2 15,152.2 		"/>
		<path class="st12" d="M70.9,133.1l4.8,0.5L203,148.1l1.6,0.2l-13.4-42.5l0,0c-1.2,3.8-4.7,6.5-8.7,6.6l-117.9,4.1
			c-4.1,0.2-7.9-2.3-9.3-6.2h-0.7l9.2,12.8l4.5,6.3L70.9,133.1z"/>
		<polygon class="st13" points="186,20.3 186,20.3 186,20.3 		"/>
		<path class="st13" d="M191.3,105.8L191.3,105.8l13.4,42.5v-4l4.3-64.2l-19.9-51.9l2.6,74.3C191.8,103.6,191.6,104.7,191.3,105.8z"
			/>
		<path class="st14" d="M64.6,116.5l117.9-4.1c4-0.1,7.5-2.8,8.7-6.6l0,0c0.3-1,0.5-2.1,0.5-3.2l-2.6-74.3v-1.4
			c-0.1-2.5-1.1-5-3-6.7l0,0c-1.8-1.7-4.3-2.7-6.8-2.6l-51.1,1.8L112,20l-50.7,1.8c-5.2,0.2-9.4,4.5-9.2,9.8c0,0,0,0.1,0,0.1l0.3,9
			l2.3,66.6C54.9,112.6,59.3,116.7,64.6,116.5z M186,34.1v68.4H58.7V34.1H186z"/>
		<rect x="58.7" y="34.1" class="st15" width="127.3" height="68.4"/>
		<path class="st16" d="M181.9,263l-119.7-1.9c-5.3,0.3-9.9-2.2-10.2-7.1l-3.8,27.3l111.3,5.2l2.6-2.3l3.3-2.9l5.4-4.8l5.8-5.1
			l0.2-0.2l8.2-7.2c6.3-4.5,4.4-5.4,4.4-5.4l0,0C188.8,261.7,186.3,262.8,181.9,263z"/>
		<path class="st13" d="M48.2,181.7c-0.1-1.4,0.3-2.8,0.9-4.1c-2,2.8-3.8,7.1-5.1,13.7l-0.3,1.5l-7.2,21.6c0,0,8.9,63.5,11.7,66.9
			L52,254L48.2,181.7z"/>
		<path class="st13" d="M54.6,172.9c0.9-0.3,1.8-0.5,2.8-0.5C56.4,172.4,55.5,172.5,54.6,172.9z"/>
		<path class="st14" d="M191.7,199L191.7,199l0.5-12.3l0,0l0.3-7.5l0.2-5.1c0-0.5-0.1-1.1-0.2-1.6c-0.2-1.7-1-3.3-2.2-4.5
			c-1.6-1.5-3.8-2.1-5.9-1.9l-127,6.5c-1,0-1.9,0.2-2.8,0.5c-1,0.4-2,0.9-2.9,1.6c-1.1,0.9-2,2-2.6,3.2c-0.6,1.3-1,2.7-0.9,4.1
			l3.8,72c0.3,4.9,4.8,7.4,10.2,7.1l119.7,1.9c4.4-0.2,6.9-1.3,7.5-4.4c0.1-0.8,0.2-1.6,0.1-2.4l1.9-51L191.7,199z M186,183v68.4
			H58.7V183H186z"/>
		<rect x="58.7" y="183" class="st15" width="127.3" height="68.4"/>
	</g>
</g>
</svg>
