<?xml version="1.0" encoding="utf-8"?>
<!-- Generator: Adobe Illustrator 21.0.0, SVG Export Plug-In . SVG Version: 6.00 Build 0)  -->
<svg version="1.1" id="Layer_1" xmlns="http://www.w3.org/2000/svg" xmlns:xlink="http://www.w3.org/1999/xlink" x="0px" y="0px"
	 viewBox="0 0 296 171.3" style="enable-background:new 0 0 296 171.3;" xml:space="preserve">
<style type="text/css">
	.st0{opacity:0.2;fill:#231F20;enable-background:new    ;}
	.st1{fill:#4972C4;stroke:#FFFFFF;stroke-width:10;stroke-linecap:round;stroke-linejoin:round;}
	.st2{fill:#FFFFFF;}
</style>
<title>saludosAsset 1</title>
<g id="Layer_2">
	<g id="Layer_1-2">
		<path class="st0" d="M37.6,20h203.5c20.7,0,37.6,20.7,37.6,46v12.7c0,25.3-16.9,46-37.6,46H104.7c-1.3,14.1,2,28.2,9.4,40.2
			c2,3.4-1,7.8-4,6c-12.9-7.5-31.5-22.1-38.8-46.2H37.6C16.9,124.7,0,104,0,78.7V66C0,40.7,16.9,20,37.6,20z"/>
		<path class="st1" d="M49.8,5h203.6C274.1,5,291,25.7,291,51v12.7c0,25.3-16.9,46-37.6,46H116.9c-1.3,13.9,1.3,33.2,18.6,52.6
			c0,0-40.4-14.3-52-52.6H49.8c-20.7,0-37.6-20.7-37.6-46V51C12.3,25.7,29.2,5,49.8,5z"/>
	</g>
</g>
<g id="Layer_2_1_">
	<g>
		<path class="st2" d="M80.4,27.1l2.4,17.4l-11.1,0.3l2.2-18L80.4,27.1z M74,24.8c-1-0.8-1.6-1.9-1.7-3.2c-0.1-1.3,0.3-2.5,1.1-3.5
			c0.8-1,1.9-1.5,3.2-1.7c1.3-0.1,2.4,0.3,3.4,1.1c1,0.8,1.5,1.9,1.7,3.2c0.1,1.3-0.3,2.5-1.1,3.5c-0.8,1-1.9,1.5-3.2,1.7
			C76.1,26,75,25.6,74,24.8z"/>
		<path class="st2" d="M104.5,21.4c2.7,2.8,4.1,6.1,4,9.9c-0.1,3.9-1.5,7.1-4.3,9.8c-2.8,2.7-6.2,4-10.1,3.9c-1.1,0-2.3-0.2-3.5-0.5
			l-2.9-0.7l-4.8-21.4l0.5-0.2c2.9-3.4,6.6-5.1,11.1-5C98.4,17.2,101.8,18.6,104.5,21.4z M97.9,39.1c1-1,1.6-2.2,1.6-3.6
			c0-1.4-0.5-2.7-1.5-3.7c-1-1-2.2-1.5-3.7-1.6c-0.3,0-0.7,0-1,0.1l-0.9,9.9c0.6,0.2,1.2,0.3,1.7,0.3C95.6,40.6,96.9,40.1,97.9,39.1
			z"/>
		<path class="st2" d="M129.8,36.6l-15.1,4.3c0.8,1.6,2.1,2.4,3.9,2.4c0.9,0,1.6-0.2,2.3-0.7l3.9,2.3c-2.1,1.5-4.5,2.3-7.1,2.3
			c-2.7,0-5.2-0.8-7.4-2.5c-2.2-1.7-3.6-3.9-4.2-6.6c-0.2-0.8-0.3-1.7-0.3-2.5c0-2.7,0.9-5.2,2.6-7.3c1.7-2.2,4-3.6,6.7-4.2
			c0.9-0.2,1.8-0.3,2.6-0.3c2.7,0,5.2,0.8,7.4,2.5c2.2,1.7,3.6,3.9,4.2,6.6C129.8,33.9,129.9,35.1,129.8,36.6z M122.4,35.1
			c-0.9-1.3-2.1-2-3.7-2c-1.3,0-2.3,0.5-3.2,1.4c-0.9,0.9-1.3,2-1.2,3.3L122.4,35.1z"/>
		<path class="st2" d="M141.3,48.4c0,0.3,0,0.7,0,1c0,2.8-1.2,5.3-3.5,7.3c-2.3,2-5,3-8.1,3c-3.7,0-6.7-1.4-9-4.3l6.9-6.9
			c0.6,0.4,1.4,0.6,2.1,0.6c1.2,0,2.2-0.4,3-1.2c0.8-0.8,1.2-1.8,1.2-3l-0.3-18.1h5.3C140.4,39.7,141.2,46.9,141.3,48.4z
			 M132.5,23.2c-1-1-1.5-2.2-1.5-3.6c0-1.4,0.5-2.6,1.5-3.6c1-1,2.2-1.5,3.6-1.5c1.4,0,2.6,0.5,3.6,1.5c1,1,1.5,2.2,1.5,3.6
			c0,1.4-0.5,2.6-1.5,3.6c-1,1-2.2,1.5-3.6,1.5C134.7,24.7,133.5,24.2,132.5,23.2z"/>
		<path class="st2" d="M155.2,26.3c1.8,1.7,2.6,3.8,2.5,6.1l-0.8,14.1l-2.8,0.3l-0.3-1.6c-1.2,1.1-2.6,1.6-4.3,1.6
			c-2.4,0-4.2-1-5.3-3c-0.6-1-0.9-2-0.9-3.1c0-2.4,1-4.2,3.1-5.4c1-0.6,2-0.9,3.2-0.9c0.8,0,1.6,0.2,2.4,0.5c-0.1-0.8-0.4-1.5-1-2.1
			c-0.6-0.6-1.4-0.9-2.2-0.9c-0.6,0-1.2,0.1-1.7,0.4l-2.3-7.7c1.2-0.6,2.5-0.9,3.9-0.9C151.3,23.7,153.4,24.5,155.2,26.3z
			 M152.9,41.2c0-0.4-0.1-0.8-0.3-1.1c-0.4-0.8-1.1-1.1-2-1.1c-0.4,0-0.8,0.1-1.2,0.3c-0.8,0.5-1.2,1.1-1.2,2c0,0.4,0.1,0.8,0.3,1.2
			c0.4,0.7,1.1,1.1,2,1.1c0.4,0,0.8-0.1,1.2-0.3C152.6,42.7,152.9,42.1,152.9,41.2z M152.6,22.2l-3-2.1l6.1-10.2l4.3,5.3L152.6,22.2
			z"/>
		<path class="st2" d="M193,45.7c-0.9,0.1-1.7,0.2-2.6,0.1c-2.9-0.2-5.3-1.3-7.3-3.4c-2-2-3-4.4-3-7.1c0-0.4,0-0.8,0.1-1.2l1.1-8.8
			l-3.6,0.3l-0.5-5.3l4.7,0l0.8-6.6l4.1,0.2l0.2,6.3l3.5,0l0.7,4.3l-4,0.3l0.2,6.5c-0.1,1.1,0.3,2.1,1,3c0.7,0.8,1.7,1.3,2.8,1.4
			L193,45.7z"/>
		<path class="st2" d="M215.6,26l-3.7,21.2l-5.3-0.5l0.1-3.8c-1.5,1.3-3.3,2.1-5.2,2.2c-2.5,0.2-4.7-0.7-6.5-2.5
			c-1.9-1.8-2.9-4-3-6.7c-0.2-3.6,0.3-7.3,1.4-11l8.6,0.9c-0.2,0.4-0.5,1.5-0.9,3.3c-0.5,2.2-0.7,4-0.7,5.3c0,0.4,0,0.7,0.1,1
			c0.1,1,0.5,1.8,1.2,2.5c0.7,0.7,1.5,1,2.4,0.9c1.4-0.1,2.3-0.8,2.9-2.2v-2.8c0-0.1-0.1-0.2-0.1-0.3l0.1,0l0.1-7.5L215.6,26z"/>
		<path class="st2" d="M227,38.9c0.3,0.5,0.4,1,0.4,1.6c0,1.2-0.7,2.4-2.1,3.7c-1,1-2.4,1.4-4.2,1.4c-1.8,0-3.3-0.5-4.2-1.6
			c-0.3-0.3-0.5-0.7-0.7-1l2.8-2.4c0.5,1,1.3,1.6,2.3,1.6c0.9,0,1.4-0.3,1.5-0.9c0.2-0.8-0.5-1.4-1.9-1.9c-4.2-1.4-6.3-4.1-6.3-8.2
			c0.1-2.3,0.9-4.2,2.5-5.7c1.6-1.6,3.6-2.3,5.9-2.3c1.9,0,2.9,0.1,3.2,0.1l2.4,11.2c-0.5-0.3-1.6-0.5-3.1-0.5
			c-1.1,0-1.8,0.1-2.1,0.2c-0.5,0.2-0.8,0.7-0.7,1.4c0.1,0.5,0.2,0.9,0.5,1.1c0.2,0.2,0.6,0.4,1.2,0.5
			C225.7,37.4,226.6,38.1,227,38.9z"/>
		<path class="st2" d="M44.1,85.5c0.3,0.5,0.4,1,0.4,1.6c0,1.2-0.7,2.4-2.1,3.7c-1,1-2.4,1.4-4.2,1.4c-1.8,0-3.3-0.5-4.2-1.6
			c-0.3-0.3-0.5-0.7-0.7-1l2.8-2.4c0.5,1,1.3,1.6,2.3,1.6c0.9,0,1.4-0.3,1.5-0.9c0.2-0.8-0.5-1.5-1.9-1.9c-4.2-1.4-6.3-4.1-6.3-8.2
			c0.1-2.3,0.9-4.2,2.5-5.7c1.6-1.6,3.6-2.3,5.9-2.3c1.9,0,2.9,0.1,3.2,0.1l2.4,11.2c-0.5-0.3-1.6-0.5-3.1-0.5
			c-1.1,0-1.8,0.1-2.1,0.2c-0.5,0.2-0.8,0.7-0.7,1.4c0.1,0.5,0.2,0.9,0.5,1.1c0.2,0.2,0.6,0.4,1.2,0.5C42.8,84,43.7,84.7,44.1,85.5z
			"/>
		<path class="st2" d="M57.9,72.9c1.8,1.7,2.6,3.8,2.5,6.1l-0.8,14.1l-2.8,0.3l-0.3-1.6c-1.2,1.1-2.6,1.6-4.3,1.6
			c-2.4,0-4.2-1-5.3-3c-0.6-1-0.9-2-0.9-3.1c0-2.4,1-4.2,3.1-5.4c1-0.6,2-0.9,3.2-0.9c0.8,0,1.6,0.2,2.4,0.5c-0.1-0.8-0.4-1.5-1-2.1
			c-0.6-0.6-1.4-0.9-2.2-0.9c-0.6,0-1.2,0.1-1.7,0.4l-2.3-7.7c1.2-0.6,2.5-0.9,3.9-0.9C54,70.3,56.2,71.1,57.9,72.9z M55.7,87.8
			c0-0.4-0.1-0.8-0.3-1.1c-0.4-0.8-1.1-1.1-2-1.1c-0.4,0-0.8,0.1-1.2,0.3c-0.8,0.5-1.2,1.1-1.2,2c0,0.4,0.1,0.8,0.3,1.2
			c0.4,0.7,1.1,1.1,2,1.1c0.4,0,0.8-0.1,1.2-0.3C55.3,89.3,55.7,88.7,55.7,87.8z"/>
		<path class="st2" d="M74.2,54.9c-2.4,19.3-3.9,31.8-4.6,37.6h-5.1l0.2-36.2C66.1,55.9,69.3,55.5,74.2,54.9z"/>
		<path class="st2" d="M96.6,72.6L93,93.8l-5.3-0.5l0.1-3.8c-1.5,1.3-3.3,2.1-5.2,2.2c-2.5,0.2-4.7-0.7-6.5-2.5s-2.9-4-3-6.7
			c-0.2-3.6,0.3-7.3,1.4-11l8.6,0.9c-0.2,0.4-0.5,1.5-0.9,3.3c-0.5,2.2-0.7,4-0.7,5.3c0,0.4,0,0.7,0.1,1c0.1,1,0.5,1.8,1.2,2.5
			c0.7,0.7,1.5,1,2.4,0.9c1.4-0.1,2.3-0.8,2.9-2.2v-2.8c0-0.1-0.1-0.2-0.1-0.3l0.1,0l0.1-7.5L96.6,72.6z"/>
		<path class="st2" d="M119.3,60.7L117,92.5l-4.3,0.3l-0.1-1.5c-1.9,1.6-4.1,2.4-6.6,2.4c-1.8,0-3.4-0.4-5-1.3
			c-1.6-0.9-2.8-2.1-3.7-3.7S96,85.5,96,83.8c0-1.8,0.5-3.5,1.4-5s2.2-2.8,3.8-3.8c1.6-0.9,3.2-1.3,5-1.3c1.7,0,3.3,0.4,4.8,1.2
			l-1.4-14.9L119.3,60.7z M111.4,86.2c0-0.6-0.2-1.3-0.5-1.8c-0.7-1.2-1.8-1.9-3.2-1.9c-0.7,0-1.3,0.2-1.9,0.5
			c-1.3,0.7-1.9,1.8-1.9,3.3c0,0.6,0.2,1.3,0.5,1.8c0.7,1.2,1.8,1.9,3.2,1.9c0.7,0,1.3-0.2,1.9-0.5
			C110.7,88.8,111.4,87.7,111.4,86.2z"/>
		<path class="st2" d="M138.8,74.1c2.3,2.2,3.4,4.9,3.4,8.1c0,3.2-1.1,5.9-3.4,8.1c-2.3,2.2-5,3.4-8.2,3.4c-3.2,0-6-1.1-8.3-3.4
			c-2.3-2.2-3.4-5-3.4-8.1c0-3.2,1.1-5.9,3.4-8.1c2.3-2.2,5-3.4,8.3-3.4C133.7,70.7,136.5,71.8,138.8,74.1z M133.6,88.2
			c0.8-0.8,1.3-1.8,1.3-3c0-1.2-0.4-2.2-1.3-3c-0.8-0.8-1.9-1.3-3-1.3c-1.2,0-2.2,0.4-3.1,1.3c-0.8,0.8-1.3,1.8-1.3,3
			c0,1.2,0.4,2.2,1.3,3c0.8,0.8,1.9,1.2,3.1,1.2C131.7,89.5,132.7,89.1,133.6,88.2z"/>
		<path class="st2" d="M152.4,85.5c0.3,0.5,0.4,1,0.4,1.6c0,1.2-0.7,2.4-2.1,3.7c-1,1-2.4,1.4-4.2,1.4c-1.8,0-3.3-0.5-4.2-1.6
			c-0.3-0.3-0.5-0.7-0.7-1l2.8-2.4c0.5,1,1.3,1.6,2.3,1.6c0.9,0,1.4-0.3,1.5-0.9c0.2-0.8-0.5-1.5-1.9-1.9c-4.2-1.4-6.3-4.1-6.3-8.2
			c0.1-2.3,0.9-4.2,2.5-5.7c1.6-1.6,3.6-2.3,5.9-2.3c1.9,0,2.9,0.1,3.2,0.1l2.4,11.2c-0.5-0.3-1.6-0.5-3.1-0.5
			c-1.1,0-1.8,0.1-2.1,0.2c-0.5,0.2-0.8,0.7-0.7,1.4c0.1,0.5,0.2,0.9,0.5,1.1c0.2,0.2,0.6,0.4,1.2,0.5C151.1,84,152,84.7,152.4,85.5
			z"/>
		<path class="st2" d="M184,72.9c1.8,1.7,2.6,3.8,2.5,6.1l-0.8,14.1l-2.8,0.3l-0.3-1.6c-1.2,1.1-2.6,1.6-4.3,1.6c-2.4,0-4.2-1-5.3-3
			c-0.6-1-0.9-2-0.9-3.1c0-2.4,1-4.2,3.1-5.4c1-0.6,2-0.9,3.2-0.9c0.8,0,1.6,0.2,2.4,0.5c-0.1-0.8-0.4-1.5-1-2.1
			c-0.6-0.6-1.4-0.9-2.2-0.9c-0.6,0-1.2,0.1-1.7,0.4l-2.3-7.7c1.2-0.6,2.5-0.9,3.9-0.9C180.1,70.3,182.2,71.1,184,72.9z M181.7,87.8
			c0-0.4-0.1-0.8-0.3-1.1c-0.4-0.8-1.1-1.1-2-1.1c-0.4,0-0.8,0.1-1.2,0.3c-0.8,0.5-1.2,1.1-1.2,2c0,0.4,0.1,0.8,0.3,1.2
			c0.4,0.7,1.1,1.1,2,1.1c0.4,0,0.8-0.1,1.2-0.3C181.4,89.3,181.7,88.7,181.7,87.8z"/>
		<path class="st2" d="M212,72.5l-4.9,31.4l-4.3-0.1l-0.1-15c-1.7,1.1-3.5,1.6-5.5,1.6c-1.8,0-3.5-0.5-5.1-1.4s-2.9-2.2-3.8-3.8
			c-0.9-1.6-1.4-3.2-1.4-5c0-1.7,0.4-3.4,1.3-4.9c0.9-1.5,2.1-2.8,3.7-3.6c1.6-0.9,3.2-1.3,5-1.3c2,0,3.9,0.6,5.6,1.7l0-1.1
			L212,72.5z M202.4,82.4c0-1.5-0.6-2.5-1.9-3.3c-0.6-0.3-1.2-0.5-1.9-0.5c-1.5,0-2.5,0.6-3.2,1.9c-0.3,0.6-0.5,1.2-0.5,1.8
			c0,1.5,0.6,2.6,1.9,3.3c0.6,0.3,1.2,0.5,1.9,0.5c1.5,0,2.5-0.6,3.2-1.9C202.2,83.7,202.4,83,202.4,82.4z"/>
		<path class="st2" d="M234.9,72.6l-3.7,21.2l-5.3-0.5l0.1-3.8c-1.5,1.3-3.3,2.1-5.2,2.2c-2.5,0.2-4.7-0.7-6.5-2.5
			c-1.9-1.8-2.9-4-3-6.7c-0.2-3.6,0.3-7.3,1.4-11l8.6,0.9c-0.2,0.4-0.5,1.5-0.9,3.3c-0.5,2.2-0.7,4-0.7,5.3c0,0.4,0,0.7,0.1,1
			c0.1,1,0.5,1.8,1.2,2.5c0.7,0.7,1.5,1,2.4,0.9c1.4-0.1,2.3-0.8,2.9-2.2v-2.8c0-0.1-0.1-0.2-0.1-0.3l0.1,0l0.1-7.5L234.9,72.6z"/>
		<path class="st2" d="M236.8,73.3l11.8-1.4l-3.2,20.4h-4.3L236.8,73.3z M243.4,70.5l-3-2.1l6.1-10.2l4.3,5.3L243.4,70.5z"/>
		<path class="st2" d="M254.8,81.6l-2.4-17.4l11.1-0.3l-2.1,18L254.8,81.6z M261.2,84c1,0.8,1.5,1.9,1.7,3.2
			c0.1,1.3-0.2,2.5-1.1,3.5s-1.9,1.5-3.2,1.7s-2.4-0.3-3.4-1.1c-1-0.8-1.5-1.9-1.7-3.2c-0.1-1.3,0.3-2.5,1.1-3.5
			c0.8-1,1.9-1.5,3.2-1.7C259.1,82.8,260.2,83.1,261.2,84z"/>
	</g>
</g>
</svg>
