<svg xmlns="http://www.w3.org/2000/svg" viewBox="0 0 296 171.3"><defs><style>.cls-1{fill:#231f20;opacity:0.2;}.cls-2{fill:#48c2c5;stroke:#fff;stroke-linecap:round;stroke-linejoin:round;stroke-width:10px;}.cls-3{fill:#fff;}</style></defs><title>saludosAsset 1</title><g id="Layer_2" data-name="Layer 2"><g id="Layer_1-2" data-name="Layer 1"><path class="cls-1" d="M37.6,20H241.1c20.7,0,37.6,20.7,37.6,46V78.7c0,25.3-16.9,46-37.6,46H104.7a65.2,65.2,0,0,0,9.4,40.2c2,3.4-1,7.8-4,6-12.9-7.5-31.5-22.1-38.8-46.2H37.6C16.9,124.7,0,104,0,78.7V66C0,40.7,16.9,20,37.6,20Z"/><path class="cls-2" d="M49.8,5H253.4C274.1,5,291,25.7,291,51V63.7c0,25.3-16.9,46-37.6,46H116.9c-1.3,13.9,1.3,33.2,18.6,52.6,0,0-40.4-14.3-52-52.6H49.8c-20.7,0-37.6-20.7-37.6-46V51C12.3,25.7,29.2,5,49.8,5Z"/><path class="cls-3" d="M74.1,71.2a8.7,8.7,0,0,1,.9,3.7q0,4.1-5.1,8.8-3.6,3.3-9.7,3.3T49.8,83A13,13,0,0,1,48,80.4l6.7-5.7a5.9,5.9,0,0,0,5.6,3.8q3.1,0,3.5-2a3.2,3.2,0,0,0,.1-.9,3,3,0,0,0-1.7-2.7,15.6,15.6,0,0,0-2.9-1.2Q44.2,66.6,44.7,51.8a18.4,18.4,0,0,1,6.1-13.5A19.1,19.1,0,0,1,65,33l7.6.3L78,60.1a14.6,14.6,0,0,0-3.6-.9l-3.7-.5a14.8,14.8,0,0,0-4.9.3q-1.9.7-1.7,3.4a3.9,3.9,0,0,0,1.1,2.7,8.8,8.8,0,0,0,2.8,1.4Q72.7,68.2,74.1,71.2Z"/><path class="cls-3" d="M97.8,52.6A13.2,13.2,0,0,1,102,63.1l-1.3,24.2-4.8.5-.5-2.8a10.7,10.7,0,0,1-7.3,2.8,9.9,9.9,0,0,1-9.1-5.2A10.7,10.7,0,0,1,82.9,68a10.8,10.8,0,0,1,5.5-1.5,10.5,10.5,0,0,1,4.1.8,5.3,5.3,0,0,0-1.7-3.6,5.4,5.4,0,0,0-3.8-1.5,5.9,5.9,0,0,0-2.9.7L80.1,49.7a14.6,14.6,0,0,1,6.7-1.6A15.1,15.1,0,0,1,97.8,52.6ZM93.9,78.2a3.6,3.6,0,0,0-.5-1.9A3.7,3.7,0,0,0,90,74.3a4.1,4.1,0,0,0-2.1.5,3.8,3.8,0,0,0-2,3.5,4,4,0,0,0,.5,2,3.7,3.7,0,0,0,3.4,1.9,4.1,4.1,0,0,0,2.1-.5A3.7,3.7,0,0,0,93.9,78.2Z"/><path class="cls-3" d="M125.7,21.8q-6.2,49.7-7.9,64.6h-8.7l.4-62.3Q113.1,23.2,125.7,21.8Z"/><path class="cls-3" d="M164.3,52.1,158,88.5l-9.1-.9V81.1a14.7,14.7,0,0,1-20.2-.5A16.9,16.9,0,0,1,123.7,69a54.9,54.9,0,0,1,2.5-18.9l14.8,1.5a33.4,33.4,0,0,0-1.5,5.7,43.9,43.9,0,0,0-1.3,9.1,9.2,9.2,0,0,0,.1,1.7,7.1,7.1,0,0,0,2.1,4.3,5.2,5.2,0,0,0,4.1,1.6,5.5,5.5,0,0,0,4.9-3.7V65.5l-.2-.5h.2l.2-13Z"/><path class="cls-3" d="M203.2,31.6l-3.9,54.6-7.4.5-.2-2.5a17.1,17.1,0,0,1-11.3,4.1,17.2,17.2,0,0,1-8.6-2.3,16.3,16.3,0,0,1-6.3-6.3,17,17,0,0,1,.1-17.2,17.5,17.5,0,0,1,6.6-6.5,17.7,17.7,0,0,1,17-.2l-2.3-25.6ZM189.6,75.6a6.5,6.5,0,0,0-.8-3.1,5.9,5.9,0,0,0-5.5-3.2,6.5,6.5,0,0,0-3.3.9,6.1,6.1,0,0,0-3.3,5.6,6.4,6.4,0,0,0,.8,3.1,6,6,0,0,0,5.5,3.2,6.5,6.5,0,0,0,3.3-.9A6.1,6.1,0,0,0,189.6,75.6Z"/><path class="cls-3" d="M236.7,54.6a19.5,19.5,0,0,1,0,27.9,20.3,20.3,0,0,1-28.4,0,19.5,19.5,0,0,1,0-27.9,20.3,20.3,0,0,1,28.4,0ZM227.8,79a7.3,7.3,0,0,0,0-10.4,7.1,7.1,0,0,0-5.2-2.2,7.2,7.2,0,0,0-5.3,2.2,7.3,7.3,0,0,0,0,10.4,7.3,7.3,0,0,0,5.3,2.1A7.2,7.2,0,0,0,227.8,79Z"/><path class="cls-3" d="M260.2,74.2a5.9,5.9,0,0,1,.7,2.7q0,3-3.6,6.3a10.2,10.2,0,0,1-7.2,2.5q-4.7,0-7.3-2.7a8.7,8.7,0,0,1-1.3-1.8l4.7-4.2a4.3,4.3,0,0,0,4,2.7q2.3,0,2.6-1.5t-3.3-3.3q-10.9-3.5-10.8-14.1a13.6,13.6,0,0,1,4.3-9.8,13.8,13.8,0,0,1,10.1-4l5.5.2,4.2,19.2q-1.4-.9-5.3-.9a12.2,12.2,0,0,0-3.6.3q-1.3.5-1.2,2.5a2.7,2.7,0,0,0,.9,1.9,5.2,5.2,0,0,0,2,.9Q259.1,72.2,260.2,74.2Z"/></g></g></svg>