<svg xmlns="http://www.w3.org/2000/svg" xmlns:xlink="http://www.w3.org/1999/xlink" viewBox="0 0 139.6 155.1"><defs><style>.cls-1,.cls-7,.cls-8{fill-rule:evenodd;}.cls-1{fill:url(#linear-gradient);}.cls-2{fill:url(#linear-gradient-2);}.cls-3{fill:#fdf8fb;}.cls-4,.cls-7{fill:#414142;}.cls-5,.cls-8{fill:#fff;}.cls-6{fill:url(#linear-gradient-3);}</style><linearGradient id="linear-gradient" y1="77.54" x2="139.64" y2="77.54" gradientUnits="userSpaceOnUse"><stop offset="0" stop-color="#b89cca"/><stop offset="0.26" stop-color="#b887bd"/><stop offset="0.51" stop-color="#b96fae"/><stop offset="1" stop-color="#b96cac"/></linearGradient><linearGradient id="linear-gradient-2" x1="72.22" y1="48.3" x2="59.52" y2="23.33" gradientTransform="translate(33.6 -33.4) rotate(40.1)" xlink:href="#linear-gradient"/><linearGradient id="linear-gradient-3" x1="99.03" y1="40.37" x2="86.33" y2="15.4" gradientTransform="translate(36 -52.7) rotate(40.1)" gradientUnits="userSpaceOnUse"><stop offset="0" stop-color="#b89cca"/><stop offset="0.26" stop-color="#b887bd"/><stop offset="0.51" stop-color="#b96fae"/><stop offset="1" stop-color="#b85aa2"/></linearGradient></defs><title>supermonAsset 1</title><g id="Layer_2" data-name="Layer 2"><g id="Layer_1-2" data-name="Layer 1"><g id="_Group_" data-name="&lt;Group&gt;"><path id="_Path_" data-name="&lt;Path&gt;" class="cls-1" d="M58.2.8h0c-28.4,10.6-24.5,31.9-18,56.1-2.9-.3-6.8-1.7-10.8-3.8C23.5,50,17.7,45.5,14.8,41.1a15.3,15.3,0,0,0,2-2.6c2-3.2,2.7-6.5,1.5-7.4s-3.7,1-5.7,4.2l-.4.6-.2-.5c-1.3-3.8-3.5-6.5-4.8-6S6,33.3,7.3,37v.3H7.1c-3.6-1.2-6.7-1-7.1.4s2.3,3.6,5.8,4.8a15.1,15.1,0,0,0,3.4.7l.5.8c3.4,5.3,10.1,10.7,16.9,14.3s10.8,4.6,15.1,4.4c5.2,18.8,10.5,39,2.7,56.8-5.8,10.9-14.9,19.4-24.7,18.2,4.7,7.8,22.5,9,41.8,5.6,1.3,3.5,4.2,11.9,6.6,11.9s3.9-9.5,3.9-14a71.8,71.8,0,0,0,31.3-15c1.1-.2,7,16.4,9.1,14.4s.1-14.1.2-16.6,16.6-23.1,6.7-67.6a84,84,0,0,0-3.4-11.3,39.5,39.5,0,0,0,8.6-8.8c4.5-6.2,8.2-13.9,8.9-20.2V15a15.1,15.1,0,0,0,2.7-2.1c2.7-2.6,4.1-5.7,3.1-6.9s-3.9.1-6.5,2.7l-.3.3V8.6c-.4-4-1.9-7.1-3.3-6.9s-2.1,3.5-1.7,7.5v.5l-.6-.4c-3.2-2-6.3-2.5-7-1.2s1.4,4,4.6,6a15.3,15.3,0,0,0,3,1.4c-.7,5.2-3.9,11.8-7.8,17.1a38.9,38.9,0,0,1-6.1,6.8C102.6,15,80.5-4.2,58.2.8Z"/><circle id="_Path_2" data-name="&lt;Path&gt;" class="cls-2" cx="62.6" cy="29.4" r="15.1" transform="translate(-4.2 47.2) rotate(-40.1)"/><circle id="_Path_3" data-name="&lt;Path&gt;" class="cls-3" cx="63.8" cy="30.8" r="15.1" transform="translate(-4.8 48.3) rotate(-40.1)"/><circle id="_Path_4" data-name="&lt;Path&gt;" class="cls-4" cx="63.1" cy="29.3" r="5" transform="matrix(0.61, -0.79, 0.79, 0.61, 1.41, 61.49)"/><circle id="_Path_5" data-name="&lt;Path&gt;" class="cls-5" cx="63.1" cy="27" r="2.2" transform="translate(3.2 60.6) rotate(-52.5)"/><circle id="_Path_6" data-name="&lt;Path&gt;" class="cls-6" cx="90.2" cy="23.1" r="9.7" transform="matrix(0.77, -0.64, 0.64, 0.77, 6.32, 63.49)"/><circle id="_Path_7" data-name="&lt;Path&gt;" class="cls-3" cx="91" cy="24" r="9.7" transform="translate(5.9 64.2) rotate(-40.1)"/><circle id="_Path_8" data-name="&lt;Path&gt;" class="cls-4" cx="90.6" cy="23" r="3.2" transform="translate(17.1 80.8) rotate(-52.5)"/><circle id="_Path_9" data-name="&lt;Path&gt;" class="cls-5" cx="90.5" cy="21.6" r="1.4" transform="translate(18.3 80.2) rotate(-52.5)"/><path id="_Path_10" data-name="&lt;Path&gt;" class="cls-7" d="M112.7,41.1C110.4,47.9,98.9,55.3,84,58.7s-28.7,1.8-33.7-3.5c5.9,4.5,19.1,5.6,33.5,2.3S109.3,47.5,112.7,41.1Z"/><path id="_Path_11" data-name="&lt;Path&gt;" class="cls-8" d="M64.7,59.5c0,.3,0,.5,0,.8a35.4,35.4,0,0,0,5.2.2l-.3-1a22.1,22.1,0,0,0-1.2-3.4,8.2,8.2,0,0,0-1.8-2.8A13.1,13.1,0,0,0,64.7,59.5Z"/></g></g></g></svg>