<svg xmlns="http://www.w3.org/2000/svg" viewBox="0 0 127.3 68.4"><defs><style>.cls-1{isolation:isolate;}.cls-2{opacity:0.36;}.cls-3{fill:#80cbc4;opacity:0.54;}.cls-4{opacity:0.42;}.cls-5{fill:#b3e0dc;}.cls-6{fill:#212120;mix-blend-mode:multiply;}.cls-6,.cls-7{opacity:0.2;}.cls-7{fill:#0f384b;}.cls-8{fill:#fff;}</style></defs><title>ventana0kAsset 2</title><g class="cls-1"><g id="Layer_2" data-name="Layer 2"><g id="Layer_1-2" data-name="Layer 1"><g class="cls-2"><rect class="cls-3" x="0.6" y="0.7" width="126.2" height="67.25"/><g class="cls-4"><polygon class="cls-5" points="126.8 20.5 126.8 30.9 94 0.7 105.3 0.7 126.8 20.5"/><polygon class="cls-5" points="126.8 33.8 126.8 39 85.3 0.7 90.9 0.7 126.8 33.8"/><polygon class="cls-5" points="126.8 57.5 126.8 67.9 115.5 67.9 42.7 0.7 65.2 0.7 126.8 57.5"/></g><rect class="cls-6" x="0.6" y="0.7" width="126.2" height="2.35"/></g><rect class="cls-7" x="3" y="1.6" width="121.4" height="4.03"/><rect class="cls-7" x="3" y="32.2" width="121.4" height="4.03"/><rect class="cls-7" y="64.4" width="127.3" height="4.03"/><polygon class="cls-8" points="65.6 31.8 65.6 1.3 61.7 1.3 61.7 31.8 3 31.8 3 33.9 61.7 33.9 61.7 65.1 65.6 65.1 65.6 33.9 124.3 33.9 124.3 31.8 65.6 31.8"/><path class="cls-8" d="M127.3,68.4H0V0H127.3V68.4ZM3.9,65H123.4V3.4H3.9V65Z"/></g></g></g></svg>