<?xml version="1.0" encoding="utf-8"?>
<!-- Generator: Adobe Illustrator 21.0.0, SVG Export Plug-In . SVG Version: 6.00 Build 0)  -->
<svg version="1.1" id="Layer_1" xmlns="http://www.w3.org/2000/svg" xmlns:xlink="http://www.w3.org/1999/xlink" x="0px" y="0px"
	 viewBox="0 0 394.1 286.9" style="enable-background:new 0 0 394.1 286.9;" xml:space="preserve">
<style type="text/css">
	.st0{opacity:0.2;fill:#231F20;enable-background:new    ;}
	.st1{fill:#1FA0A0;stroke:#FFFFFF;stroke-width:10;stroke-linecap:round;stroke-linejoin:round;}
	.st2{fill:#FFFFFF;}
</style>
<title>cuentitosAsset 1</title>
<g id="Layer_2">
	<g id="Layer_1-2">
		<path class="st0" d="M350.9,221.6c27-21.3,43.3-48.7,43.3-78.6c-0.1-68-83.8-123-187.1-123S20,75,20,142.9s83.7,122.9,187.1,122.9
			c38.7,0,74.7-7.7,104.6-21l68.9,41.4c1.9,1.2,4.3,0.6,5.5-1.3c0.8-1.3,0.8-2.9,0-4.2L350.9,221.6z"/>
		<path class="st1" d="M335.9,206.6c27-21.3,43.3-48.7,43.3-78.6C379.1,60,295.4,5,192.1,5S5,60,5,127.9s83.7,123,187.1,123
			c38.7,0,74.7-7.7,104.6-21l82.5,49.6L335.9,206.6z"/>
		<path class="st2" d="M67.7,194.1c-0.7,0-1.4-0.2-2-0.5c-1-0.4-23.7-11.4-33.9-43c-4.8-15.1-4.6-31.4,0.7-46.3
			c1-2.5,3.8-3.6,6.3-2.7c2.5,1,3.6,3.8,2.6,6.3l0,0c-4.3,12.9-4.5,26.8-0.4,39.7c8.9,27.7,28.6,37.1,28.8,37.2
			c2.4,1.1,3.5,3.9,2.5,6.3c-0.8,1.8-2.5,2.9-4.5,2.9L67.7,194.1z"/>
		<path class="st2" d="M351.7,140.5h-0.2c-2.6-0.1-4.7-2.3-4.6-5c0,0,0-0.1,0-0.1c0-0.3,0.6-16-4.9-30s-18-21.2-18.2-21.3
			c-2.2-1.5-2.9-4.5-1.4-6.7c1.5-2.2,4.5-2.9,6.7-1.4l0,0c0.6,0.4,15.8,10.4,21.9,25.9s5.6,33.3,5.5,34
			C356.4,138.5,354.3,140.5,351.7,140.5z"/>
		<path class="st2" d="M76.2,145.8l2.4,7.8c-2,0.4-4.1,0.6-6.1,0.6c-6.5,0-12.6-2.6-17.1-7.3c-9.2-9.4-9-24.5,0.3-33.7
			c0.1-0.1,0.2-0.2,0.3-0.2c4.6-4.5,10.9-7,17.4-6.8c7.5-0.1,14.6,3.5,19,9.5l-15,14.3c-1.4-0.8-3-1.3-4.6-1.3
			c-2.4-0.1-4.7,0.8-6.4,2.5c-3.5,3.4-3.6,9-0.2,12.6c1.7,1.7,3.9,2.7,6.3,2.7C73.8,146.5,75,146.3,76.2,145.8z"/>
		<path class="st2" d="M121.4,121.1l-6.3,36.5l-9.1-0.9v-6.5c-5.8,5.2-14.7,5-20.2-0.5c-3.2-3-5-7.2-5.2-11.6
			c-0.3-6.4,0.6-12.8,2.5-18.9l14.8,1.5c-0.7,1.9-1.2,3.8-1.5,5.7c-0.8,3-1.2,6-1.3,9.1c0,0.6,0,1.1,0.1,1.7
			c0.2,1.6,0.9,3.2,2.1,4.3c1.1,1.1,2.6,1.7,4.1,1.6c2.2-0.1,4.2-1.6,4.9-3.7v-4.8l-0.2-0.5h0.2l0.2-13L121.4,121.1z"/>
		<path class="st2" d="M160.9,139.3l-25.9,7.4c1.2,2.6,3.8,4.2,6.7,4.1c1.4,0,2.8-0.4,4-1.1l6.7,3.9c-3.5,2.6-7.8,3.9-12.1,3.9
			c-4.6,0-9.1-1.5-12.7-4.4c-3.6-2.8-6.2-6.8-7.1-11.3c-0.3-1.4-0.5-2.9-0.5-4.3c0-4.6,1.6-9.1,4.5-12.6c2.9-3.7,6.9-6.2,11.5-7.2
			c1.5-0.3,3-0.5,4.5-0.5c4.6,0,9.1,1.5,12.7,4.4c3.6,2.8,6.2,6.8,7.1,11.3C160.8,135,161,137.1,160.9,139.3z M148.2,136.8
			c-1.3-2.2-3.7-3.5-6.3-3.4c-2.1,0-4.1,0.9-5.5,2.4c-1.5,1.5-2.2,3.5-2.1,5.6L148.2,136.8z"/>
		<path class="st2" d="M191.2,122.4c2.8,3.5,4,8.1,3.7,13.6c-0.6,6.1-1.9,12.2-3.9,18h-8.9l0.5-12.1c0.2-1.7,0.1-3.4-0.3-5.1
			c-0.5-1.4-1.6-2.1-3.4-2.1c-1.3,0-2.6,0.3-3.7,1l-0.3-0.4l0.3,18.4l-9.9,1l-6.9-40.1h16.3v2.7c1.4-0.3,2.9-0.5,4.3-0.5
			C184.3,116.8,188.3,118.7,191.2,122.4z"/>
		<path class="st2" d="M224,155c-1.5,0.2-2.9,0.2-4.4,0.1c-4.8-0.3-9.3-2.4-12.6-5.8c-3.3-3.2-5.2-7.6-5.2-12.2c0-0.7,0-1.4,0.1-2.1
			l1.9-15.1l-6.1,0.5l-0.9-9.1h8.1l1.4-11.3l7.1,0.3l0.4,10.8h5.9l1.2,7.3L214,119l0.4,11.1c-0.3,3.9,2.6,7.2,6.5,7.5c0,0,0,0,0,0
			L224,155z"/>
		<path class="st2" d="M246.7,120l-5.5,35h-7.3l-7.4-32.7L246.7,120z M229.5,117c-3.9-3.8-3.9-10-0.1-13.9s10-3.9,13.9-0.1
			c3.9,3.8,3.9,10,0.1,13.9c-1.8,1.9-4.3,2.9-7,2.9c-2.6,0-5-1-6.8-2.9L229.5,117z"/>
		<path class="st2" d="M277.2,155c-1.5,0.2-2.9,0.2-4.4,0.1c-4.8-0.3-9.3-2.4-12.6-5.8c-3.3-3.2-5.2-7.6-5.2-12.2
			c0-0.7,0-1.4,0.1-2.1l1.9-15l-6.1,0.5l-0.9-9.1h8l1.4-11.3l7.1,0.3l0.4,10.8h5.9l1.2,7.3l-6.9,0.6l0.4,11.1
			c-0.3,3.9,2.6,7.2,6.5,7.5c0,0,0,0,0,0L277.2,155z"/>
		<path class="st2" d="M309,123.7c7.7,7.5,7.8,19.9,0.3,27.6c-0.1,0.1-0.2,0.2-0.3,0.3c-7.9,7.7-20.5,7.7-28.4,0
			c-7.7-7.5-7.8-19.9-0.3-27.6c0.1-0.1,0.2-0.2,0.3-0.3C288.5,116,301.1,116,309,123.7z M300.1,148c2.9-2.8,2.9-7.5,0.1-10.3
			c0,0-0.1-0.1-0.1-0.1c-1.4-1.4-3.2-2.2-5.2-2.2c-2,0-3.9,0.8-5.3,2.2c-2.9,2.8-2.9,7.5-0.1,10.3c0,0,0.1,0.1,0.1,0.1
			c1.4,1.4,3.3,2.1,5.3,2.1C296.8,150.1,298.7,149.4,300.1,148z"/>
		<path class="st2" d="M332.5,143.3c0.4,0.8,0.7,1.8,0.7,2.7c0,2-1.2,4.1-3.6,6.3c-2,1.7-4.6,2.6-7.2,2.5c-3.1,0-5.6-0.9-7.3-2.7
			c-0.5-0.5-0.9-1.1-1.3-1.8l4.7-4.2c0.7,1.6,2.2,2.7,4,2.7c1.5,0,2.4-0.5,2.6-1.5s-0.9-2.1-3.3-3.3c-7.3-2.3-10.9-7-10.8-14.1
			c0-3.7,1.6-7.3,4.3-9.8c2.7-2.7,6.3-4.1,10.1-4l5.5,0.2l4.2,19.2c-0.9-0.6-2.7-0.9-5.3-0.9c-1.2-0.1-2.4,0-3.6,0.3
			c-0.9,0.3-1.3,1.2-1.2,2.5c0,0.7,0.4,1.4,0.9,1.9c0.6,0.4,1.3,0.7,2,0.9C330.3,140.9,331.8,141.9,332.5,143.3z"/>
	</g>
</g>
</svg>
