<svg xmlns="http://www.w3.org/2000/svg" viewBox="0 0 128.8 213.2"><defs><style>.cls-1{fill:#010101;opacity:0.1;}.cls-2{fill:#fdca56;}.cls-3{fill:#f6af1f;}.cls-4{fill:#f9d792;}.cls-5{fill:#f26a6b;}.cls-6{fill:#73cbce;}.cls-7{fill:#8bd3d5;}.cls-8{fill:#fff;opacity:0.3;}</style></defs><title>game2Asset 1</title><g id="Layer_2" data-name="Layer 2"><g id="Layer_1-2" data-name="Layer 1"><path class="cls-1" d="M123.8,11.3H15.2S8,10.3,8,19.4V205.6s-2,7.6,9,7.6H86.6s42.1,1.6,42.1-19.2V17.2S129.6,11.3,123.8,11.3Z"/><path class="cls-2" d="M120.8,57.3V5.9s.9-5.9-4.9-5.9H7.3S.1-1,.1,8.1V194.3s-2,7.6,8.9,7.6H78.7s42.1,1.6,42.1-19.2Z"/><polygon class="cls-3" points="36.2 132 27.2 132 27.2 121.8 15.9 121.8 15.9 132 5.8 132 5.8 143.3 15.9 143.3 15.9 152.3 27.2 152.3 27.2 143.3 36.2 143.3 36.2 132"/><path class="cls-4" d="M114.2,127a10.9,10.9,0,0,1-5.9,14.2l-22.1,9.3a10.8,10.8,0,1,1-8.4-19.9l22.1-9.3A10.9,10.9,0,0,1,114.2,127Z"/><circle class="cls-3" cx="82.8" cy="140.3" r="7.4"/><circle class="cls-3" cx="103.3" cy="131.5" r="7.4"/><path class="cls-4" d="M48.4,163.7a4.2,4.2,0,0,1-2.2,5.5l-8.4,4.2a4,4,0,1,1-3.5-7.1l8.4-4.2A4.2,4.2,0,0,1,48.4,163.7Z"/><path class="cls-3" d="M45,165.3a2.5,2.5,0,0,1-1.3,3.2L38.8,171a2.3,2.3,0,1,1-2.1-4.1l4.9-2.5A2.5,2.5,0,0,1,45,165.3Z"/><path class="cls-4" d="M69.5,163.7a4.2,4.2,0,0,1-2.2,5.5L59,173.3a4,4,0,1,1-3.5-7.1l8.4-4.2A4.2,4.2,0,0,1,69.5,163.7Z"/><path class="cls-3" d="M66.2,165.3a2.5,2.5,0,0,1-1.3,3.2L60,171a2.3,2.3,0,1,1-2.1-4.1l4.9-2.5A2.5,2.5,0,0,1,66.2,165.3Z"/><path class="cls-3" d="M90.1,193.4a2,2,0,0,1-2.6-1.1l-7.7-13.8a1.8,1.8,0,1,1,3-1.7l7.7,13.8A2,2,0,0,1,90.1,193.4Z"/><path class="cls-3" d="M97.4,189.7a2,2,0,0,1-2.6-1.1l-7.7-13.8a1.8,1.8,0,1,1,3-1.7L97.8,187A2,2,0,0,1,97.4,189.7Z"/><path class="cls-3" d="M104.4,186.1a2,2,0,0,1-2.6-1.1l-7.7-13.8a1.8,1.8,0,1,1,3-1.7l7.7,13.8A2,2,0,0,1,104.4,186.1Z"/><path class="cls-3" d="M111.4,182.6a2,2,0,0,1-2.6-1.1l-7.7-13.8a1.8,1.8,0,1,1,3-1.7l7.7,13.8A2,2,0,0,1,111.4,182.6Z"/><path class="cls-3" d="M14.7,16.1S8,15,8,21.3V91.5s.1,4.4,6.7,4.4H94.5s18.4-.3,18.4-16.7V23.7s2-7.7-7.4-7.7Z"/><circle class="cls-5" cx="16.8" cy="46.6" r="4"/><rect class="cls-6" x="27.2" y="26" width="66.5" height="60.9"/><polygon class="cls-7" points="27.2 77.1 63.2 26 43.4 26 27.2 49.3 27.2 77.1"/><polygon class="cls-7" points="60 86.9 93.7 39.7 93.7 26 84 26 40.2 86.9 60 86.9"/><polygon class="cls-7" points="93.7 86.9 93.7 68.5 80.5 86.9 93.7 86.9"/><path class="cls-2" d="M94.9,25.9c0-.7-.1-1.1-.9-1.1H26.7c-.7,0-1.8.3-1.8,1.1V87.4a2.1,2.1,0,0,0,1.8,1.7H94a1.4,1.4,0,0,0,.9-.5h-.2c.2-.2.1-.6.1-1ZM92.6,85.7H28.3V27.1H92.6Z"/><path class="cls-8" d="M61,0H7.3S.1-1,.1,8.1V194.3s-2,7.6,8.9,7.6H61Z"/></g></g></svg>