<svg xmlns="http://www.w3.org/2000/svg" viewBox="0 0 92.9 118.4"><defs><style>.cls-1{isolation:isolate;}.cls-2{fill:#fdca56;}.cls-3{fill:#ffd689;}.cls-4{fill:#ffebc9;}.cls-5{mix-blend-mode:multiply;}.cls-6{fill:#fff;}</style></defs><title>game6Asset 1</title><g class="cls-1"><g id="Layer_2" data-name="Layer 2"><g id="Layer_1-2" data-name="Layer 1"><circle class="cls-2" cx="46.4" cy="71.9" r="46.4"/><path class="cls-3" d="M46.4,111.6A39.6,39.6,0,1,1,86.1,71.9,39.7,39.7,0,0,1,46.4,111.6Zm0-76.2A36.5,36.5,0,1,0,83,71.9,36.6,36.6,0,0,0,46.4,35.4Z"/><polygon class="cls-4" points="46.4 46.3 52.2 64 70.8 64 55.8 75 61.5 92.7 46.4 81.7 31.4 92.7 37.1 75 22 64 40.7 64 46.4 46.3"/><g class="cls-5"><path class="cls-2" d="M46.4,25.5v92.9a46.4,46.4,0,1,0,0-92.9Z"/></g><polygon class="cls-6" points="14.4 42.7 27.7 33.1 18.2 46.5 27.7 59.9 14.4 50.3 1 59.9 10.6 46.5 1 33.1 14.4 42.7"/><polygon class="cls-6" points="32.3 11 24.4 0 35.5 7.9 46.5 0 38.6 11 46.5 22.1 35.5 14.2 24.4 22.1 32.3 11"/></g></g></g></svg>