<svg xmlns="http://www.w3.org/2000/svg" viewBox="0 0 38.4 38.4"><defs><style>.cls-1{fill:#0083c5;}.cls-2{fill:#26597d;}</style></defs><title>game4Asset 1</title><g id="Layer_2" data-name="Layer 2"><g id="Layer_1-2" data-name="Layer 1"><path class="cls-1" d="M38.4,19.2A19.2,19.2,0,1,0,19.2,38.4,19.2,19.2,0,0,0,38.4,19.2Zm-6.9,2.9a1.3,1.3,0,0,1-1.3,1.3H23.5v6.7a1.3,1.3,0,0,1-1.3,1.3H16.3a1.3,1.3,0,0,1-1.3-1.3V23.5H8.3a1.3,1.3,0,0,1-1.3-1.3V16.3a1.3,1.3,0,0,1,1.3-1.3h6.7V8.2a1.3,1.3,0,0,1,1.3-1.3h5.9a1.3,1.3,0,0,1,1.3,1.3v6.7h6.7a1.3,1.3,0,0,1,1.3,1.3Z"/><path class="cls-2" d="M30.2,14.9H23.5V8.2a1.3,1.3,0,0,0-1.3-1.3H16.3a1.3,1.3,0,0,0-1.3,1.3v6.7H8.3a1.3,1.3,0,0,0-1.3,1.3v5.9a1.3,1.3,0,0,0,1.3,1.3h6.7v6.7a1.3,1.3,0,0,0,1.3,1.3h5.9a1.3,1.3,0,0,0,1.3-1.3V23.5h6.7a1.3,1.3,0,0,0,1.3-1.3V16.3A1.3,1.3,0,0,0,30.2,14.9Z"/></g></g></svg>