<svg xmlns="http://www.w3.org/2000/svg" viewBox="0 0 73.3 78.2"><defs><style>.cls-1{fill:#2ebeda;}.cls-2,.cls-4{fill:#fff;}.cls-3{fill:#010101;}.cls-4{opacity:0.3;}</style></defs><title>game01Asset 1</title><g id="Layer_2" data-name="Layer 2"><g id="Layer_1-2" data-name="Layer 1"><path class="cls-1" d="M0,36.4C0,16.4,16.9,0,36.8,0h.4A36.3,36.3,0,0,1,73.3,36.4V78.2H63.5V68.9a5.2,5.2,0,0,0-5.2-5.4H58a5.1,5.1,0,0,0-5.1,5.4v9.3H42.4V68.9a5.4,5.4,0,0,0-5.4-5.4h-.3c-3,0-4.9,2.4-4.9,5.4v9.3H22V68.9a5.5,5.5,0,0,0-5.6-5.4h-.3a5.5,5.5,0,0,0-5.6,5.4v9.3H0Z"/><circle class="cls-2" cx="52.3" cy="26.5" r="6.8"/><circle class="cls-2" cx="21.6" cy="26.5" r="6.8"/><circle class="cls-3" cx="21.6" cy="26.5" r="3.7"/><circle class="cls-3" cx="52.3" cy="26.5" r="3.7"/><path class="cls-4" d="M36.8,0h.7V63.5h-.8c-3,0-4.9,2.4-4.9,5.4v9.3H22V68.9a5.5,5.5,0,0,0-5.6-5.4h-.3a5.5,5.5,0,0,0-5.6,5.4v9.3H0V36.4C0,16.4,16.9,0,36.8,0Z"/></g></g></svg>