<svg xmlns="http://www.w3.org/2000/svg" xmlns:xlink="http://www.w3.org/1999/xlink" viewBox="0 0 22.8 27.8"><defs><style>.cls-1{isolation:isolate;}.cls-2,.cls-3{fill-rule:evenodd;}.cls-2{fill:url(#Green);}.cls-3{fill:#e6e6e5;opacity:0.32;mix-blend-mode:screen;}</style><linearGradient id="Green" y1="13.92" x2="22.81" y2="13.92" gradientUnits="userSpaceOnUse"><stop offset="0" stop-color="#64c18b"/><stop offset="0.5" stop-color="#04a54f"/><stop offset="1" stop-color="#04924c"/></linearGradient></defs><title>globverdeAsset 10</title><g class="cls-1"><g id="Layer_2" data-name="Layer 2"><g id="Layer_11" data-name="Layer 11"><g id="_Group_" data-name="&lt;Group&gt;"><path id="_Path_" data-name="&lt;Path&gt;" class="cls-2" d="M7.6.7c-16.2,5.9-3.2,27.4,7.7,26v.6c0,.2-.1.2.2.3h.3c.1.1.3-.1.4-.2v.3h.4l-.2-.4h.2c.2-.1.2-.3.3-.4h.4l-.5-.6C27,21.4,24.3-4.6,7.6.7Z"/><path id="_Path_2" data-name="&lt;Path&gt;" class="cls-3" d="M12.4,1.8c-.6-.2-5,.2-6.1,2s-1,4.1,1.1,5.1,5.4,2,7.5,4.2,3.9,4.8,5.2,1.4,1.2-6.1-1.3-9.2A10,10,0,0,0,12.4,1.8Z"/></g></g></g></g></svg>