<svg xmlns="http://www.w3.org/2000/svg" xmlns:xlink="http://www.w3.org/1999/xlink" viewBox="0 0 138.2 248.2"><defs><style>.cls-1{isolation:isolate;}.cls-2{fill:url(#linear-gradient);}.cls-3{fill:url(#linear-gradient-2);}.cls-4{fill:url(#linear-gradient-3);}.cls-5{fill:url(#linear-gradient-4);}.cls-6{fill:url(#linear-gradient-5);}.cls-7{fill:#fef6fa;}.cls-8{fill:url(#linear-gradient-6);}.cls-9{mix-blend-mode:screen;fill:url(#linear-gradient-7);}</style><linearGradient id="linear-gradient" x1="506.26" y1="397.11" x2="477.95" y2="435.05" gradientTransform="translate(571.6 225.6) rotate(87.2) scale(0.55)" gradientUnits="userSpaceOnUse"><stop offset="0" stop-color="#e60582"/><stop offset="0.42" stop-color="#ca6dab"/><stop offset="0.65" stop-color="#af3293"/><stop offset="0.84" stop-color="#c96aaa"/><stop offset="1" stop-color="#c968a9"/></linearGradient><linearGradient id="linear-gradient-2" x1="379.75" y1="415.52" x2="429.59" y2="398.95" gradientTransform="translate(571.6 225.6) rotate(87.2) scale(0.55)" gradientUnits="userSpaceOnUse"><stop offset="0" stop-color="#e60582"/><stop offset="0.42" stop-color="#ca6dab"/><stop offset="0.59" stop-color="#c96aaa"/><stop offset="0.77" stop-color="#c968a9"/><stop offset="0.82" stop-color="#c35ca4"/><stop offset="0.93" stop-color="#b53d98"/><stop offset="1" stop-color="#af3293"/></linearGradient><linearGradient id="linear-gradient-3" x1="423.16" y1="398.12" x2="471.06" y2="436.11" gradientTransform="translate(571.6 225.6) rotate(87.2) scale(0.55)" gradientUnits="userSpaceOnUse"><stop offset="0" stop-color="#e60582"/><stop offset="0.23" stop-color="#ca6dab"/><stop offset="0.33" stop-color="#c86dab"/><stop offset="0.51" stop-color="#c968a9"/><stop offset="0.63" stop-color="#c664a7"/><stop offset="0.75" stop-color="#bd58a0"/><stop offset="0.87" stop-color="#ad4494"/><stop offset="0.99" stop-color="#982884"/><stop offset="1" stop-color="#962582"/></linearGradient><linearGradient id="linear-gradient-4" x1="1606.62" y1="660.45" x2="1593.58" y2="674.12" gradientTransform="translate(-510.9 127.1) rotate(-1.8) scale(0.53)" gradientUnits="userSpaceOnUse"><stop offset="0" stop-color="#982d91"/><stop offset="1" stop-color="#c2bcdd"/></linearGradient><linearGradient id="linear-gradient-5" x1="1604.72" y1="662.73" x2="1608.41" y2="662.89" gradientTransform="translate(-510.9 127.1) rotate(-1.8) scale(0.53)" gradientUnits="userSpaceOnUse"><stop offset="0" stop-color="#982d91"/><stop offset="0.14" stop-color="#9a3394"/><stop offset="0.31" stop-color="#9e439d"/><stop offset="0.51" stop-color="#a65dab"/><stop offset="0.73" stop-color="#b182be"/><stop offset="0.95" stop-color="#bfb2d7"/><stop offset="1" stop-color="#c2bcdd"/></linearGradient><linearGradient id="linear-gradient-6" x1="1595.85" y1="663.63" x2="1601.48" y2="665.44" gradientTransform="translate(-510.9 127.1) rotate(-1.8) scale(0.53)" gradientUnits="userSpaceOnUse"><stop offset="0" stop-color="#982d91"/><stop offset="0.91" stop-color="#c2bcdd"/></linearGradient><linearGradient id="linear-gradient-7" x1="65.15" y1="15.48" x2="65.15" y2="108.84" gradientUnits="userSpaceOnUse"><stop offset="0" stop-color="#fff"/><stop offset="0.05" stop-color="#f0f0f0"/><stop offset="0.37" stop-color="#8b8b8b"/><stop offset="0.63" stop-color="#414141"/><stop offset="0.81" stop-color="#131313"/><stop offset="0.9" stop-color="#010101"/></linearGradient></defs><title>globin1</title><g class="cls-1"><g id="Layer_1" data-name="Layer 1"><path class="cls-2" d="M366,520.9s0-4.7-8.4-10.9-14.6-8.8-14-13.9c0,0-2.8,4.9,3.6,10.7S361.3,514.8,366,520.9Z" transform="translate(-281.3 -272.6)"/><path class="cls-3" d="M352.7,443.3s-.7,4,3.1,10.4,9.2,13.9,6.9,20.2c0,0-2.5-4.8-3.9-7.1S348.2,450.3,352.7,443.3Z" transform="translate(-281.3 -272.6)"/><path class="cls-4" d="M363.2,469.4s.7,3-8.3,10.9-13.9,10.2-11.7,20.4c0,0-1-4.4,6.9-10.8S363.9,476.8,363.2,469.4Z" transform="translate(-281.3 -272.6)"/><image width="50" height="28" transform="translate(67 182.2) scale(0.24)" xlink:href="globin11.png"/><path class="cls-5" d="M353.2,449a11.5,11.5,0,0,0-3.9,9.2,1.6,1.6,0,0,0,.3.7c.4.7,1.9,1.7,4.6,1.6s3.9-.9,4.6-1.6a2,2,0,0,0,.5-1.2A13.6,13.6,0,0,0,353.2,449Z" transform="translate(-281.3 -272.6)"/><path class="cls-6" d="M354.5,449.9a39,39,0,0,1,1.4,6.9c0,1.4,2.1.6,2.8-1A14.2,14.2,0,0,0,354.5,449.9Z" transform="translate(-281.3 -272.6)"/><path class="cls-7" d="M353.1,450.5s-2.1,1.2-2.4,5.8C350.7,456.3,352.9,451.2,353.1,450.5Z" transform="translate(-281.3 -272.6)"/><path class="cls-8" d="M353.1,450.5s-5,8.6-.9,8.5S353.1,450.5,353.1,450.5Z" transform="translate(-281.3 -272.6)"/><image width="23" height="12" transform="translate(69.6 175.2) scale(0.24)" xlink:href="globin12.png"/><image width="24" height="14" transform="translate(68.9 173.8) scale(0.24)" xlink:href="globin13.png"/><image width="59" height="74" transform="translate(64.3 157.9) scale(0.24)" xlink:href="globin14.png"/><image width="576" height="696" transform="scale(0.24)" xlink:href="globin15.png"/><circle class="cls-9" cx="65.1" cy="61.9" r="47.6"/></g></g></svg>