<svg xmlns="http://www.w3.org/2000/svg" xmlns:xlink="http://www.w3.org/1999/xlink" viewBox="0 0 23.2 28.7"><defs><style>.cls-1{isolation:isolate;}.cls-2,.cls-3{fill-rule:evenodd;}.cls-2{fill:url(#Red_Orange);}.cls-3{fill:#e6e6e5;opacity:0.32;mix-blend-mode:screen;}</style><linearGradient id="Red_Orange" y1="14.34" x2="23.16" y2="14.34" gradientUnits="userSpaceOnUse"><stop offset="0" stop-color="#f37e5f"/><stop offset="0.5" stop-color="#eb2227"/><stop offset="1" stop-color="#cf232b"/></linearGradient></defs><title>globoredAsset 9</title><g class="cls-1"><g id="Layer_2" data-name="Layer 2"><g id="Layer_9" data-name="Layer 9"><g id="_Group_" data-name="&lt;Group&gt;"><path id="_Path_" data-name="&lt;Path&gt;" class="cls-2" d="M8.4.5C25.5-3.8,26.9,21.9,16.9,27l.5.5c.1.1.2.2.1.4s-.2.1-.3.2-.3.1-.5.1v.3l-.3.3v-.4l-.2.2c-.2.1-.3-.2-.5-.2h-.4s.1-.5.1-.8C3.9,29.2-8.8,5.6,8.4.5Z"/><path id="_Path_2" data-name="&lt;Path&gt;" class="cls-3" d="M5,4.1c.4-.5,4.4-2.8,6.3-1.8s3.2,2.9,2,5S9.8,12,9.3,15.1s-.6,6.3-3.5,4.2-4.5-4.5-4.2-8.6A10.2,10.2,0,0,1,5,4.1Z"/></g></g></g></g></svg>