<?xml version="1.0" encoding="utf-8"?>
<!-- Generator: Adobe Illustrator 21.0.0, SVG Export Plug-In . SVG Version: 6.00 Build 0)  -->
<svg version="1.1" xmlns="http://www.w3.org/2000/svg" xmlns:xlink="http://www.w3.org/1999/xlink" x="0px" y="0px"
	 viewBox="0 0 344.2 367.6" style="enable-background:new 0 0 344.2 367.6;" xml:space="preserve">
<style type="text/css">
	.st0{fill:#FFFFFF;}
	.st1{fill:#F9A61B;}
	.st2{fill:url(#SVGID_1_);}
	.st3{fill:#F9F9F9;}
	.st4{clip-path:url(#SVGID_3_);}
</style>
<g id="Layer_1">
	<g id="Layer_2">
		<g id="Layer_1-2">
			<path class="st0" d="M63.1,60.8H19.3v255.7l11.2-2l0,0V72.4h53.6C67.3,45.4,48.9,22.5,39,17.3c0,0,63.3,23.3,114.3,55.1h172.3
				v204.4L94.8,345.9v12l242-72.5V60.8H156.4C91.4,10.1,17.8,6.9,17.8,6.9S44.6,33.5,63.1,60.8z"/>
			<path class="st1" d="M94.8,345.9L94.8,345.9l230.8-69.1V72.4H153.4c-51-31.8-114.3-55.1-114.3-55.1c9.8,5.3,28.2,28.2,45,55.1
				H30.6v242.1l64.2-11.7V345.9z"/>
			<polygon class="st1" points="19.2,316.5 19.3,316.6 19.3,316.5 			"/>
			<rect x="30.5" y="314.5" class="st1" width="0" height="8.2"/>
			
				<linearGradient id="SVGID_1_" gradientUnits="userSpaceOnUse" x1="-199.8783" y1="-304.5832" x2="4.9909" y2="-62.0549" gradientTransform="matrix(-0.7089 0 0 0.1834 0 367.16)">
				<stop  offset="0" style="stop-color:#FFFFFF"/>
				<stop  offset="0.17" style="stop-color:#FAFAFA"/>
				<stop  offset="0.37" style="stop-color:#EBEBEB"/>
				<stop  offset="0.6" style="stop-color:#D1D2D3"/>
				<stop  offset="0.84" style="stop-color:#AFB0B2"/>
				<stop  offset="1" style="stop-color:#939598"/>
			</linearGradient>
			<polygon class="st2" points="30.5,322.7 30.5,322.7 80.6,350.1 94.8,358 94.8,358 94.8,302.9 19.3,316.5 19.3,316.6 			"/>
		</g>
	</g>
	<g id="Layer_2_1_">
	</g>
</g>
<g id="Layer_3">
	<g>
		<path class="st3" d="M69.9,139.1l2.8,9.1c-2.3,0.5-4.7,0.8-7.1,0.7c-7.8-0.1-14.5-2.9-19.9-8.5c-5.5-5.5-8.1-12.2-8-19.9
			c0.1-7.7,3-14.2,8.6-19.6c5.6-5.4,12.4-8,20.2-7.9c9.2,0.2,16.5,3.8,22.1,11l-17.2,16.6c-1.7-1-3.4-1.5-5.4-1.5
			c-2.9-0.1-5.4,0.9-7.5,2.9c-2.1,2-3.1,4.4-3.2,7.3c-0.1,2.8,0.9,5.3,3,7.4c2,2.1,4.5,3.1,7.4,3.1
			C67.2,139.9,68.6,139.7,69.9,139.1z"/>
		<path class="st3" d="M125.1,92.6l-7.9,54.4l-11.3-0.2l1.4-17.8l-9.6,0.2l-1.2,17.4l-17.1,0.9l-2.5-56.8l23.8-1.9l-1.8,24.5
			l9.5,0.9l1.8-23L125.1,92.6z"/>
		<path class="st3" d="M148.4,93l-6.3,54.4l-12.9-0.2l1.2-55.6L148.4,93z"/>
		<path class="st3" d="M180.3,132.6c0.7,1.4,1,2.9,1,4.3c0,3.2-2,6.6-6,10.2c-2.8,2.5-6.6,3.8-11.3,3.8c-5.2,0-9.2-1.5-12-4.6
			c-0.8-0.9-1.5-1.9-2.1-3l7.8-6.7c1.4,3,3.6,4.4,6.5,4.4c2.4,0,3.8-0.8,4.1-2.3c0.1-0.4,0.2-0.7,0.2-1c0-1.3-0.6-2.3-1.9-3.1
			c-0.6-0.4-1.7-0.8-3.4-1.4c-11.7-4-17.4-11.7-17-23.1c0.2-6.2,2.5-11.5,7.1-15.7s10.1-6.3,16.5-6.1c5.1,0.2,8.1,0.3,8.9,0.4
			l6.3,31.1c-0.6-0.3-2-0.6-4.2-1c-1.9-0.3-3.4-0.5-4.3-0.5c-3-0.1-4.9,0-5.7,0.4c-1.5,0.6-2.2,1.9-2,4c0.1,1.4,0.5,2.4,1.2,3.1
			c0.6,0.5,1.7,1.1,3.3,1.6C176.8,128.5,179.2,130.3,180.3,132.6z"/>
		<path class="st3" d="M231.3,109.4l-15.4-1.2l-4.3,42.2l-12.8-2.4l-1-41.2l-18.2-1.4l1.3-17.8l54-0.2L231.3,109.4z"/>
		<path class="st3" d="M243.2,108.1l-0.3,8.2l15.1,0.5l-0.9,11.1l-14.7-1.2l-0.2,6.4l21-0.5l0.4,17l-24-1.7l-7.2,0.2L229,92.6
			l14.8-0.4v0.6l24.1-2.3l-1.9,17.1L243.2,108.1z"/>
		<path class="st3" d="M297.3,132.6c0.7,1.4,1,2.9,1,4.3c0,3.2-2,6.6-6,10.2c-2.8,2.5-6.6,3.8-11.3,3.8c-5.2,0-9.2-1.5-12-4.6
			c-0.8-0.9-1.5-1.9-2.1-3l7.8-6.7c1.4,3,3.6,4.4,6.5,4.4c2.4,0,3.8-0.8,4.1-2.3c0.1-0.4,0.2-0.7,0.2-1c0-1.3-0.6-2.3-1.9-3.1
			c-0.6-0.4-1.7-0.8-3.4-1.4c-11.7-4-17.4-11.7-17-23.1c0.2-6.2,2.5-11.5,7.1-15.7s10.1-6.3,16.5-6.1c5.1,0.2,8.1,0.3,8.9,0.4
			l6.3,31.1c-0.6-0.3-2-0.6-4.2-1c-1.9-0.3-3.4-0.5-4.3-0.5c-3-0.1-4.9,0-5.7,0.4c-1.5,0.6-2.2,1.9-2,4c0.1,1.4,0.5,2.4,1.2,3.1
			c0.6,0.5,1.7,1.1,3.3,1.6C293.8,128.5,296.2,130.3,297.3,132.6z"/>
	</g>
</g>
<g id="Layer_4">
	<g>
		<defs>
			<rect id="SVGID_2_" x="147.8" y="162.1" width="139.9" height="131"/>
		</defs>
		<clipPath id="SVGID_3_">
			<use xlink:href="#SVGID_2_"  style="overflow:visible;"/>
		</clipPath>
		<g class="st4">
			<path class="st0" d="M226.4,242.8l-18-22.4c-3.4-4.3-2.7-10.6,1.6-14c4.3-3.4,10.6-2.7,14,1.7l17.9,22.3l-4.8,3.7l-17.7-22
				c-1.4-1.5-3.7-1.6-5.2-0.3c-1.6,1.3-1.9,3.5-0.8,5.2l17.7,22L226.4,242.8z"/>
			<path class="st0" d="M249.4,292.8l-4.1-0.2c-9.9-1-19-6-25.3-13.8l4.7-3.8c10.9,13.6,30.8,15.7,44.4,4.8
				c11.7-9.3,15.3-25.6,8.7-39L260.3,219c-1.4-1.5-3.7-1.6-5.2-0.3c-1.6,1.3-1.9,3.5-0.8,5.2c0.9,1.4,0.6,3.2-0.7,4.2
				c-1.8,1.3-3.2,0.4-4.3-0.7h-0.1l-0.9-1.1l0.2-0.2c-2.7-4.8-0.9-10.8,3.8-13.5c4.2-2.3,9.4-1.3,12.5,2.4l17.9,22.2l0.3,0.5
				c8.1,16,3.8,35.6-10.2,46.8c-6.7,5.4-15,8.3-23.6,8.3H249.4z"/>
			<path class="st0" d="M181.5,233.1c-14-6.5-20.1-23.2-13.6-37.2c6.5-14,23.2-20.1,37.2-13.6c7.7,3.6,13.3,10.4,15.4,18.7l-5.9,1.4
				c-3-11.7-14.9-18.8-26.6-15.9s-18.8,14.9-15.9,26.6c1.6,6.4,6,11.7,12,14.5L181.5,233.1z"/>
			<path class="st0" d="M185.6,253c-24.8-4.4-41.4-28.2-37-53s28.2-41.4,53-37c16.3,2.9,29.7,14.4,35.1,30l-5.8,2
				c-7.1-20.7-29.7-31.8-50.4-24.7c-20.7,7.1-31.8,29.7-24.7,50.4c4.7,13.7,16.5,23.8,30.8,26.2L185.6,253z"/>
		</g>
	</g>
	<g id="Layer_2-2">
		<path class="st0" d="M220,278.8l-4-5l-14-17.5c-3.4-4.3-2.6-10.5,1.7-13.9c4.3-3.4,10.5-2.6,13.9,1.7l0,0l9,11.2l8.9,11l-4.7,3.9
			l-8.9-11.1l-8.9-11c-1.5-1.5-4-1.5-5.5,0.1c-1.3,1.3-1.5,3.3-0.5,4.8l13.7,17l4.1,5.1L220,278.8z"/>
		<path class="st0" d="M217,253.1l-26.7-33.2c-3.2-4.4-2.3-10.6,2.1-13.8c4.2-3.1,10-2.4,13.4,1.5l17.9,22.2l-4.8,3.8l-17.7-22
			c-1.4-1.5-3.6-1.7-5.2-0.4c-1.6,1.3-1.9,3.5-0.8,5.2l26.4,32.9L217,253.1z"/>
		<path class="st0" d="M237.1,234.2l-11-13.7c-3.4-4.3-2.6-10.5,1.7-13.9c4.3-3.4,10.5-2.6,13.9,1.7l9.9,12.3l4.7,5.9l-4.7,3.9
			l-4.8-6l-9.8-12.1c-1.4-1.5-3.7-1.6-5.2-0.3c-1.6,1.3-1.9,3.5-0.8,5.2l10.7,13.3L237.1,234.2z"/>
	</g>
</g>
</svg>
