<svg xmlns="http://www.w3.org/2000/svg" xmlns:xlink="http://www.w3.org/1999/xlink" viewBox="0 0 165.2 160"><defs><style>.cls-1,.cls-4,.cls-5,.cls-6{fill-rule:evenodd;}.cls-1{fill:url(#Foliage_6);}.cls-2,.cls-6{fill:#fff;}.cls-3{fill:#414142;}.cls-4{fill:url(#Earthtone_26);}.cls-5{fill:#da67a6;}</style><linearGradient id="Foliage_6" y1="79.98" x2="165.15" y2="79.98" gradientUnits="userSpaceOnUse"><stop offset="0" stop-color="#cdc169"/><stop offset="0.22" stop-color="#c7bb54"/><stop offset="0.51" stop-color="#beb133"/><stop offset="1" stop-color="#8c9036"/></linearGradient><linearGradient id="Earthtone_26" x1="73.79" y1="30.11" x2="121.05" y2="83.25" gradientUnits="userSpaceOnUse"><stop offset="0" stop-color="#7e3925"/><stop offset="0.54" stop-color="#4b1212"/><stop offset="1" stop-color="#2c1010"/></linearGradient></defs><title>monstroAsset 1</title><g id="Layer_2" data-name="Layer 2"><g id="Layer_1-2" data-name="Layer 1"><g id="_Group_" data-name="&lt;Group&gt;"><path id="_Path_" data-name="&lt;Path&gt;" class="cls-1" d="M164.9,11.1c-1-1.2-4,.1-6.8,2.8l-.3.3v-.3c-.4-4.2-1.9-7.4-3.4-7.3s-2.2,3.6-1.8,7.8v.5l-.6-.4c-3.3-2.1-6.6-2.7-7.3-1.3s1.4,4.2,4.7,6.3a15.9,15.9,0,0,0,3.1,1.5c-.8,5.4-4.1,12.2-8.2,17.8a39.9,39.9,0,0,1-6.6,7.2,86.8,86.8,0,0,0-22-29.9,14,14,0,0,0-.3-5.6A13.8,13.8,0,0,0,98.6.4a13.4,13.4,0,0,0-6.2,3.6,35,35,0,0,0-15.8.5h0c-8.3,2.1-15.1,7.1-20.3,14l-.9.2a11.2,11.2,0,0,0-7.9,13.8,11.5,11.5,0,0,0,.6,1.6,87.3,87.3,0,0,0-4.3,37.4c-3.1.1-7.6-1.1-12.3-3.2C25.2,65.5,19,61.2,15.6,56.8A15.9,15.9,0,0,0,17.5,54c1.9-3.5,2.3-6.9,1-7.8s-3.8,1.3-5.7,4.7l-.3.6-.2-.5c-1.7-3.8-4.1-6.5-5.4-5.9s-1,4.1.6,8v.3H7.3c-3.8-1-7.1-.6-7.3.9s2.6,3.6,6.4,4.6a15.7,15.7,0,0,0,3.5.6l.5.8C14.4,65.5,21.7,70.6,29,73.8c5.5,2.5,11.2,3.9,15.5,3.6.4,2.6.9,5.1,1.6,7.6,11.9,46,37,57.3,38.3,59.6s5.2,14.4,8.1,15.3.5-17.3,1.6-17.6l17.4-4.4h0l17.3-4.6c1.1-.3,8,16.8,10,14.6s-.5-14.7-.5-17.3,16.3-24.8,4.2-70.7c-.7-2.7-1.6-5.5-2.6-8.1a40.9,40.9,0,0,0,9.1-9.2c4.8-6.4,8.7-14.5,9.5-21v-.9a15.7,15.7,0,0,0,2.8-2.2C164.3,15.4,165.8,12.3,164.9,11.1Z"/><ellipse id="_Path_2" data-name="&lt;Path&gt;" class="cls-2" cx="58.3" cy="29.7" rx="9.5" ry="9.7" transform="translate(-5.6 15.7) rotate(-14.7)"/><circle id="_Path_3" data-name="&lt;Path&gt;" class="cls-3" cx="58.3" cy="29.7" r="6.2" transform="translate(-5.6 15.7) rotate(-14.7)"/><circle id="_Path_4" data-name="&lt;Path&gt;" class="cls-2" cx="60" cy="27.5" r="2.7" transform="translate(-5 16.1) rotate(-14.7)"/><ellipse id="_Path_5" data-name="&lt;Path&gt;" class="cls-2" cx="102.1" cy="13.9" rx="11.7" ry="11.9" transform="translate(-0.2 26.3) rotate(-14.7)"/><circle id="_Path_6" data-name="&lt;Path&gt;" class="cls-3" cx="102.1" cy="13.9" r="7.6" transform="translate(-0.2 26.3) rotate(-14.7)"/><circle id="_Path_7" data-name="&lt;Path&gt;" class="cls-2" cx="104.2" cy="11.1" r="3.3" transform="translate(0.6 26.8) rotate(-14.7)"/><path id="_Path_8" data-name="&lt;Path&gt;" class="cls-4" d="M119.6,30.6c3.9,18.1-7.8,36.5-26.7,41.4S54.7,66.8,49.2,49Z"/><path id="_Path_9" data-name="&lt;Path&gt;" class="cls-5" d="M113.8,57.8A37.7,37.7,0,0,1,68.5,70.3c.1-6.8,8.3-14.1,19.9-17.1S110,52.3,113.8,57.8Z"/><g id="_Group_2" data-name="&lt;Group&gt;"><path id="_Path_10" data-name="&lt;Path&gt;" class="cls-6" d="M58.8,46.5l2.5,2.3,4,3.6,1.6-8.1-6.3,1.7Z"/><path id="_Path_11" data-name="&lt;Path&gt;" class="cls-6" d="M110,33.1l-1.1,3.3-1.7,5.1-5.3-6.3,6.3-1.7Z"/></g></g></g></g></svg>