<svg xmlns="http://www.w3.org/2000/svg" xmlns:xlink="http://www.w3.org/1999/xlink" viewBox="0 0 165.4 167.6"><defs><style>.cls-1,.cls-6,.cls-7,.cls-8{fill-rule:evenodd;}.cls-1{fill:url(#radial-gradient);}.cls-2{fill:#d27328;}.cls-3{fill:url(#radial-gradient-2);}.cls-4,.cls-6{fill:#414142;}.cls-5{fill:#fff;}.cls-7{fill:url(#Brick_9);}.cls-8{fill:url(#Brick_9-2);}</style><radialGradient id="radial-gradient" cx="82.71" cy="69.75" r="152.1" gradientUnits="userSpaceOnUse"><stop offset="0" stop-color="#f79554"/><stop offset="0.5" stop-color="#f27623"/><stop offset="1" stop-color="#d4632a"/></radialGradient><radialGradient id="radial-gradient-2" cx="84.8" cy="37.89" r="43.13" gradientTransform="translate(112.8 -50.7) rotate(83.4)" gradientUnits="userSpaceOnUse"><stop offset="0" stop-color="#f3e9de"/><stop offset="0.27" stop-color="#efe6db"/><stop offset="0.47" stop-color="#e7dfd5"/><stop offset="0.53" stop-color="#e0d9d0"/><stop offset="0.82" stop-color="#c6c3be"/><stop offset="0.99" stop-color="#bdbbb7"/></radialGradient><linearGradient id="Brick_9" x1="53.86" y1="63.51" x2="59.44" y2="63.51" gradientUnits="userSpaceOnUse"><stop offset="0" stop-color="#f6e6c3"/><stop offset="0.49" stop-color="#f4dfad"/><stop offset="1" stop-color="#d3bd94"/></linearGradient><linearGradient id="Brick_9-2" x1="105.41" y1="68.94" x2="110.59" y2="68.94" xlink:href="#Brick_9"/></defs><title>monsnaranAsset 1</title><g id="Layer_2" data-name="Layer 2"><g id="Layer_1-2" data-name="Layer 1"><g id="_Group_" data-name="&lt;Group&gt;"><path id="_Path_" data-name="&lt;Path&gt;" class="cls-1" d="M165.2,27.7c-.8-1.3-4-.6-7.2,1.7l-.3.2v-.3c.2-4.2-.8-7.6-2.2-7.7s-2.8,3.3-3,7.4v.5l-.5-.5c-3-2.6-6.1-3.7-7-2.4s.8,4.4,3.7,6.9a15.9,15.9,0,0,0,2.8,2c-1.6,5.3-6,11.5-10.9,16.3-3.4,3.3-6.9,6-9.7,7.1.2-1.4.3-2.6.5-3.6,7.6-66-88.5-77-96.1-11-.3,2.3-.6,6-1,10.6-4.3,1.1-9.4,4.5-14,9S9.7,77,7.9,83.3l-.2.9A15.8,15.8,0,0,0,4.5,86C1.4,88.3-.6,91.2.2,92.5s4,.6,7.2-1.7l.3-.2v.3c-.2,4.2.8,7.6,2.2,7.7s2.8-3.3,3-7.4v-.5l.5.5c3,2.6,6.1,3.7,7,2.4s-.8-4.4-3.7-6.9a15.9,15.9,0,0,0-2.8-2c1.6-5.3,6-11.5,10.9-16.3A34.5,34.5,0,0,1,34,61.4c-1.4,22.3-2.2,58,2.4,78.9.5,2.1,2.2,4.9,1.7,10s-3.2,9.7,0,9.8c.6,0,5.3,1.5,5.9-.2,1.5-3.9-4.4-13.6,5.6-11.4,4.8,2.2,15,4.5,21.8,5.5s17.3.7,22.5-.4c10.2.2,2.3,8.2,2.9,12.4.2,1.8,5.1,1.4,5.7,1.5,3.1.6,1.6-5.3,2.2-9.6s3-7.4,3.9-9.3c10.3-21.5,18.2-62.3,21.4-83.2,4.5-.8,10-4.4,14.9-9.2s10.8-13,12.6-19.3l.2-.9a15.7,15.7,0,0,0,3.1-1.8C164.1,31.9,166,29,165.2,27.7Z"/><g id="_Group_2" data-name="&lt;Group&gt;"><circle id="_Path_2" data-name="&lt;Path&gt;" class="cls-2" cx="85.2" cy="34.8" r="26.1" transform="translate(40.9 115.4) rotate(-83.4)"/><circle id="_Path_3" data-name="&lt;Path&gt;" class="cls-3" cx="84.8" cy="37.9" r="26.1" transform="translate(37.5 117.8) rotate(-83.4)"/><circle id="_Path_4" data-name="&lt;Path&gt;" class="cls-4" cx="85.8" cy="35.3" r="8.7" transform="translate(-3.2 8.9) rotate(-5.8)"/><circle id="_Path_5" data-name="&lt;Path&gt;" class="cls-5" cx="88.7" cy="32.6" r="3.8" transform="translate(-2.9 9.2) rotate(-5.8)"/></g><path id="_Path_6" data-name="&lt;Path&gt;" class="cls-6" d="M117.9,66.3c-4.8,6.3-19.4,9.8-36.2,7.9S51.2,65.6,47.9,58.2C52.4,65,65.7,71,81.9,72.8S112.1,71.8,117.9,66.3Z"/><path id="_Path_7" data-name="&lt;Path&gt;" class="cls-7" d="M54.3,64.1l-.4.7a36.8,36.8,0,0,0,4.6,2.8l.3-1a23.1,23.1,0,0,0,.6-3.7,8.5,8.5,0,0,0-.2-3.5A13.6,13.6,0,0,0,54.3,64.1Z"/><path id="_Path_8" data-name="&lt;Path&gt;" class="cls-8" d="M110.4,70.5l.2.8a36.8,36.8,0,0,1-5.1,1.7c0-.3,0-.7,0-1.1a23.1,23.1,0,0,1,.2-3.8,8.5,8.5,0,0,1,1-3.3A13.6,13.6,0,0,1,110.4,70.5Z"/></g></g></g></svg>