<svg xmlns="http://www.w3.org/2000/svg" viewBox="0 0 75.5 40.9"><defs><style>.cls-1{opacity:0.6;}.cls-2{fill:#fff;}</style></defs><title>nuveeAsset 1</title><g id="Layer_2" data-name="Layer 2"><g id="Layer_1-2" data-name="Layer 1"><g class="cls-1"><path class="cls-2" d="M8.2,38.9a8.2,8.2,0,0,0,5.1-1.8,9.4,9.4,0,0,0,14.4.9,10.7,10.7,0,0,0,16.2-1.8,15.2,15.2,0,0,0,18.5,1.2A8.2,8.2,0,1,0,69,22.7,15.2,15.2,0,0,0,50.2,10a14.5,14.5,0,0,0-28.3,4.5c0,.4,0,.9.1,1.3h-.7a7.6,7.6,0,0,0-7.5,8.9l-.5-.4A8.2,8.2,0,1,0,8.2,38.9Z"/></g></g></g></svg>