<svg xmlns="http://www.w3.org/2000/svg" viewBox="0 0 266.3 290"><defs><style>.cls-1{fill:#d696a4;}.cls-2{fill:#d8d13e;}.cls-3{fill:#f9c20a;}.cls-4{fill:#6988b0;}.cls-5{fill:#c26558;}.cls-6{fill:#6badc9;}.cls-7{fill:#a9c538;}.cls-8{fill:#97d2b5;}.cls-9{fill:#467082;}.cls-10{fill:#d9bc7b;}.cls-11{fill:#ffcb58;}.cls-12{fill:#00a79d;}.cls-13{fill:#905e79;}</style></defs><title>parte03Asset 4</title><g id="Layer_2" data-name="Layer 2"><g id="Layer_51" data-name="Layer 51"><path class="cls-1" d="M246.9,46h0Z"/><path class="cls-1" d="M207.3,162.4l3.6-7.2H210Z"/><path class="cls-1" d="M243.1,60l-.5,1.6c-3.5,13.5-6.3,22.8-6.3,22.8-3.1,9-9.6,26.5-16.7,45.4l33.9,1.7h10.7l-.5.5H265l1.3-95.8H249.8c-1,4.1-2.9,9.7-2.9,9.7Z"/><path class="cls-1" d="M27.8,40.8H52.4l-.3-9a9.5,9.5,0,0,1,9.2-9.9l50.6-1.8.2-3.8c.4-7.1.6-14.4.6-16V0H42.6l2.6,27.8Z"/><polygon class="cls-1" points="53.3 149.5 56.1 145 63.1 135.8 68.3 129.4 63.8 123.1 63.8 123.1 11.5 121.8 17.8 147.3 53.3 149.5"/><polygon class="cls-1" points="265 133.1 265 132.1 240.3 158.1 265 133.1"/><path class="cls-2" d="M252.6,16.8c1-5.7,1.9-11.4,2.5-16.8h-.7l-.3,1.4Z"/><path class="cls-2" d="M4.9,266.1l3.8-14.6,3.8-12.9h-.2C10.4,244.2,8.6,250,7,256A295.1,295.1,0,0,0,.4,290H1l1-7.6Z"/><path class="cls-2" d="M159.5,286.5,48.2,281.3c-2.8-3.4-11.7-66.9-11.7-66.9l7.2-21.6.3-1.5a72.2,72.2,0,0,0-8.3-.5h.8l-4.9,14.3h0l4.9-.3-4.6,16.5c-1.6-.1-6,.2-9.5.5h0l3-.2-3.9,13.7h5.4l-3.8,15.4-7.1.4-3.1,14.3-2.4.2,7.7-.2-4,17H8.8c-.5,0-1.1,3.7-1.5,7.6H162.1v-5.8Z"/><path class="cls-2" d="M170.8,276.5l-5.4,4.8a58.4,58.4,0,0,1,6.3.4h-.8Z"/><path class="cls-2" d="M193.2,199.4h0l-1.5-.5h0Z"/><path class="cls-2" d="M175.8,282.3v1.7c.2-4,.6-8.3,1-12.7l-.2.2C176.2,276,175.8,282.3,175.8,282.3Z"/><path class="cls-2" d="M246.5,45.9l-9.1-1.2,9.1,1.2Z"/><path class="cls-2" d="M197.4,188.4h0c-.8-.9-3.4-1.5-5.2-1.8h0A17.8,17.8,0,0,1,197.4,188.4Z"/><path class="cls-2" d="M192.7,173.9l-.2,5.1,1.8-5.9,1.4.4-3.1-1.2A12.9,12.9,0,0,1,192.7,173.9Z"/><path class="cls-2" d="M234.3,87.6c-.5-.2-3.9-1-7.5-1.8Z"/><path class="cls-2" d="M48.1,173.4l-2.9-.4Z"/><path class="cls-2" d="M112.7,0h0V0Z"/><path class="cls-2" d="M200.2,158.7l2.8-10.7L75.8,133.7l-.8,2.1H69.6l-5.5,9.8,5,.9-5.4,13h-9c-.4,0-6.6,13.9-6.6,13.9l3.6,1.1a10,10,0,0,1,2.9-1.6,6.5,6.5,0,0,1,2.8-.5l127-6.5a7.5,7.5,0,0,1,5.9,1.9c1.3-3.9,4-9.7,4-9.7A20.8,20.8,0,0,1,200.2,158.7Z"/><polygon class="cls-2" points="191.3 105.8 191.3 105.8 191.3 105.8 191.3 105.8"/><polygon class="cls-2" points="212.1 148.2 204.8 145.8 204.8 146.1 212.1 148.2 212.1 148.2"/><path class="cls-2" d="M238,76a40.4,40.4,0,0,0-8.9-2.5C233.6,74.5,238,76,238,76Z"/><path class="cls-2" d="M121.8,15.9l6-.2.2,3.8,51.1-1.8a9.5,9.5,0,0,1,6.8,2.6h0a9.5,9.5,0,0,1,3,6.7v1.3l20.1,51.8-4.3,64.2,2.5-14.1,10.3,3-7.2-2.1,5.4-17.9,8.9,1.9c-1.9-1.4-15.4-2.9-15.4-2.9-1.2-3.7,3.5-12.2,3.5-12.2s4.9-.4,8.5.5c.8-6.2,4.2-14.5,4.3-14.7l-7.4-1.5c-2.5-2.4,1.6-10.9,1.6-10.9s5-.7,9.1.2l4.3-15.1-5.6-.9,3.8-14a31.5,31.5,0,0,0,5.7,1.2c1.9-2.5,3.1-12.9,3.1-12.9h1.6l-7.9-1,1.9-12.2,7.1.5c.6-.5,1.6-17.9,1.6-17.9L238.4.6V0H112.8l9.1.7C122.3,3.8,121.9,14,121.8,15.9Z"/><path class="cls-2" d="M209.6,155l-2.2,5.5-5.1,14.9-1.7,4.6,6.7-17.6,2.8-7.3Z"/><path class="cls-2" d="M218.3,131.5h.2l.7-1.8h.5c7.1-19,13.6-36.5,16.7-45.4,0,0,2.8-9.3,6.3-22.8L238,76l-3.7,11.6L229,102.8,224.8,115l-7.1,18.1-.9,2.5Z"/><polygon class="cls-3" points="209.6 155 209.6 155 210 155.1 210.9 155.2 240.3 158.1 240.3 158.1 209.6 155"/><polygon class="cls-3" points="264.3 131.5 253.5 131.5 263.8 132 264.3 131.5"/><polygon class="cls-3" points="216.7 135.6 214.6 141.7 218.4 131.5 218.3 131.5 216.7 135.6"/><polygon class="cls-3" points="212.1 148.2 212.1 148.2 212.1 148.2 212.1 148.2 212.1 148.2"/><path class="cls-4" d="M17.3,222.3l5.1-.4h0Z"/><path class="cls-4" d="M30.6,190.8h0Z"/><polygon class="cls-4" points="13.4 235.4 17.3 222.3 23.8 206.3 30.6 190.8 39.9 172.8 47.1 159.5 53.3 149.5 17.8 147.3 0 236.5 12.2 238.5 12.4 238.6 13.4 235.4"/><path class="cls-5" d="M112.1,16.3l9.8-.3c.1-1.9.4-12.1,0-15.3L112.8,0h-.1V.3C112.7,1.8,112.5,9.1,112.1,16.3Z"/><polygon class="cls-5" points="128.1 19.5 127.8 15.8 121.8 15.9 112.1 16.3 111.9 20.1 128.1 19.5"/><polygon class="cls-5" points="69.6 135.8 75 135.8 75.8 133.7 70.9 133.1 68.3 129.4 63.1 135.8 69.6 135.8"/><path class="cls-5" d="M64.1,145.6l5.5-9.8H63.1l-7,9.3A38.3,38.3,0,0,1,64.1,145.6Z"/><path class="cls-5" d="M54.8,159.5h9l5.4-13-5-.9a38.3,38.3,0,0,0-8-.6l-2.8,4.5-6.2,10Z"/><path class="cls-5" d="M54.8,159.5H47.1l-7.2,13.3a24.1,24.1,0,0,1,5.3.2l2.9.4S54.4,159.5,54.8,159.5Z"/><path class="cls-5" d="M51.7,174.4l-3.6-1.1-2.9-.4a24.1,24.1,0,0,0-5.3-.2l-9.2,18h5.1a72.2,72.2,0,0,1,8.3.5c1.2-6.6,3.1-10.9,5.1-13.7A9.2,9.2,0,0,1,51.7,174.4Z"/><path class="cls-5" d="M30.6,190.8l-6.9,15.5a40.8,40.8,0,0,1,7.8-1.1h0l4.9-14.3H30.6Z"/><path class="cls-5" d="M23.8,206.3l-6.5,16,5.1-.4c3.5-.3,7.9-.5,9.5-.5l4.6-16.5-4.9.3A40.8,40.8,0,0,0,23.8,206.3Z"/><polygon class="cls-5" points="17.3 222.3 13.4 235.4 21.5 235.4 25.4 221.6 22.4 221.9 17.3 222.3"/><polygon class="cls-5" points="13.4 235.4 12.4 238.6 8.6 251.5 16 251.1 16 251.1 23.1 250.8 26.9 235.4 21.5 235.4 13.4 235.4"/><polygon class="cls-5" points="8.6 251.5 4.9 266.1 10.4 265.6 10.4 265.6 12.9 265.4 16 251.1 16 251.1 8.6 251.5"/><polygon class="cls-5" points="4.9 266.1 2 282.4 8.8 282.4 14.1 282.4 18.1 265.4 10.4 265.6 10.4 265.6 4.9 266.1"/><path class="cls-5" d="M8.8,282.4H2L1,290H7.2C7.7,286.1,8.2,282.4,8.8,282.4Z"/><path class="cls-5" d="M175.8,282.3l-4.2-.6a58.4,58.4,0,0,0-6.3-.4l-3.3,2.9V290h13.8v-7.7Z"/><path class="cls-5" d="M170.8,276.5v5.1h.8l4.2.6s.4-6.3.8-10.9Z"/><path class="cls-5" d="M191.7,199l-.2,6.3c1.1-2.7,2.3-5.2,2.8-5.5l-1.1-.3Z"/><path class="cls-5" d="M192.2,186.6l-.5,12.3,1.5.5,1.1.4,3.3-11.2h-.1A17.8,17.8,0,0,0,192.2,186.6Z"/><path class="cls-5" d="M195.6,173.5l-1.4-.4-1.8,5.9-.3,7.5c1.8.3,4.4.9,5.2,1.8h.1l3.1-8.5,1.7-4.6A57.8,57.8,0,0,1,195.6,173.5Z"/><path class="cls-5" d="M200.2,158.7a20.8,20.8,0,0,0-5.9-.6s-2.6,5.8-4,9.7a8.2,8.2,0,0,1,2.2,4.5l3.1,1.2a57.8,57.8,0,0,0,6.6,1.9l5.1-14.9-7.2-1.8Z"/><polygon class="cls-5" points="204.8 146.1 204.6 148.3 203 148.1 200.2 158.7 200.2 158.7 207.4 160.5 209.6 155 209.6 155 209.6 155 212.1 148.2 212.1 148.2 204.8 146.1"/><polygon class="cls-5" points="212.1 148.2 212.1 148.2 214.6 141.7 216.7 135.6 217.6 133.1 207.4 130.1 204.9 144.2 204.8 145.8 212.1 148.2"/><polygon class="cls-5" points="215.9 113.1 210.5 131 217.6 133.1 224.8 115 215.9 113.1"/><path class="cls-5" d="M221.4,100.4h0c-3.7-1-7.5-1.6-8.5-.5s-4.7,8.5-3.5,12.3c0,0,13.5,1.5,15.4,2.9l4.3-12.2Z"/><path class="cls-5" d="M229,102.8l5.3-15.1-7.5-1.8-1-.2c-.1.2-3.6,8.6-4.3,14.7h0Z"/><path class="cls-5" d="M234.3,87.6,238,76s-4.4-1.5-8.9-2.5h0c-4.1-1-8.3-1.5-9.1-.2s-4.1,8.5-1.6,10.9l7.4,1.5,1,.2C230.3,86.6,233.8,87.4,234.3,87.6Z"/><path class="cls-5" d="M229.1,73.5A40.4,40.4,0,0,1,238,76l4.6-14.4.5-1.6-9.7-1.6-4.3,15.1h0Z"/><path class="cls-5" d="M243.1,60l3.8-14h-.4l-9.1-1.2h0a31.5,31.5,0,0,1-5.7-1.2l-3.8,14,5.6.9Z"/><path class="cls-5" d="M242.1,32h-1.6s-1.3,10.3-3.1,12.9h0l9.1,1.2h.4s1.9-5.5,2.9-9.7a16.1,16.1,0,0,0,.6-3.7A63.7,63.7,0,0,1,242.1,32Z"/><path class="cls-5" d="M243.3,19.2h0l-7.1-.5L234.3,31l7.9,1a63.7,63.7,0,0,0,8.3.6l1.9-12.7Z"/><path class="cls-5" d="M244.9,1.4s-1,17.4-1.6,17.9h0l9,.6.3-3.1,1.6-15.4Z"/><path class="cls-5" d="M244.9,1.4h9.3l.3-1.4h-16V.6Z"/><polygon class="cls-6" points="253.5 131.5 219.6 129.8 219.1 129.8 218.4 131.5 214.6 141.7 212.1 148.2 212.1 148.2 209.6 155 209.6 155 240.3 158.1 240.3 158.1 265 132.1 265 132.1 265 132.1 263.8 132 253.5 131.5"/><polygon class="cls-7" points="45.3 27.8 42.6 0 39.1 0 40.7 19 30.8 27.8 30.3 0 27.4 0 27.8 40.8 45.3 27.8"/><path class="cls-7" d="M11.5,121.8,0,194.3v42.3l17.8-89.2Zm-10,69.9,8.8-55.9L15,152.2,2.3,211.2Z"/><polygon class="cls-8" points="40.7 19 39.1 0 30.3 0 30.8 27.8 40.7 19"/><polygon class="cls-8" points="10.3 135.8 1.5 191.6 2.3 211.2 15 152.2 10.3 135.8"/><path class="cls-9" d="M70.9,133.1l4.8.5L203,148.1l1.6.2-13.4-42.5h0a9.5,9.5,0,0,1-8.7,6.6L64.6,116.5a9.5,9.5,0,0,1-9.3-6.2h-.7l9.2,12.8,4.5,6.3Z"/><polygon class="cls-10" points="186 20.3 186 20.3 186 20.3 186 20.3"/><path class="cls-10" d="M191.3,105.8h0l13.4,42.5v-4l4.3-64.2L189.1,28.2l2.6,74.3A9.5,9.5,0,0,1,191.3,105.8Z"/><path class="cls-11" d="M64.6,116.5l117.9-4.1a9.5,9.5,0,0,0,8.7-6.6h0a9.5,9.5,0,0,0,.5-3.2l-2.6-74.3V26.9a9.5,9.5,0,0,0-3-6.7h0a9.5,9.5,0,0,0-6.8-2.6l-51.1,1.8-16.2.6L61.3,21.8a9.5,9.5,0,0,0-9.2,9.9l.3,9,2.3,66.6a9.6,9.6,0,0,0,9.9,9.2ZM186,34.1v68.4H58.7V34.1Z"/><rect class="cls-12" x="58.7" y="34.1" width="127.3" height="68.42"/><path class="cls-13" d="M181.9,263,62.2,261.1c-5.3.3-9.9-2.2-10.2-7.1l-3.8,27.3,111.3,5.2,2.6-2.3,3.3-2.9,5.4-4.8,5.8-5.1.2-.2L185,264c6.3-4.5,4.4-5.4,4.4-5.4h0C188.8,261.7,186.3,262.8,181.9,263Z"/><path class="cls-10" d="M48.2,181.7a8.3,8.3,0,0,1,.9-4.1c-2,2.8-3.8,7.1-5.1,13.7l-.3,1.5-7.2,21.6s8.9,63.5,11.7,66.9L52,254Z"/><path class="cls-10" d="M54.6,172.9a10.5,10.5,0,0,1,2.8-.5A6.5,6.5,0,0,0,54.6,172.9Z"/><path class="cls-11" d="M191.7,199h0l.5-12.3h0l.3-7.5.2-5.1a12.9,12.9,0,0,0-.2-1.6,8.2,8.2,0,0,0-2.2-4.5,7.5,7.5,0,0,0-5.9-1.9l-127,6.5a10.5,10.5,0,0,0-2.8.5,10,10,0,0,0-2.9,1.6,9.2,9.2,0,0,0-2.6,3.2,8.3,8.3,0,0,0-.9,4.1L52,254c.3,4.9,4.8,7.4,10.2,7.1L181.9,263c4.4-.2,6.9-1.3,7.5-4.4a9.4,9.4,0,0,0,.1-2.4l1.9-51ZM186,183v68.4H58.7V183Z"/><rect class="cls-12" x="58.7" y="183" width="127.3" height="68.42"/></g></g></svg>