<?xml version="1.0" encoding="utf-8"?>
<!-- Generator: Adobe Illustrator 21.0.0, SVG Export Plug-In . SVG Version: 6.00 Build 0)  -->
<svg version="1.1" id="Layer_1" xmlns="http://www.w3.org/2000/svg" xmlns:xlink="http://www.w3.org/1999/xlink" x="0px" y="0px"
	 viewBox="0 0 291.8 267.8" style="enable-background:new 0 0 291.8 267.8;" xml:space="preserve">
<style type="text/css">
	.st0{fill:#E0809A;}
	.st1{fill:#D696A4;}
	.st2{fill:#DDB90A;}
	.st3{fill:#D8D13E;}
	.st4{fill:#CE4536;}
	.st5{fill:#C26558;}
	.st6{fill:#A9C538;}
	.st7{fill:#97D2B5;}
	.st8{fill:#B6B6AB;}
	.st9{fill:#99ABBC;}
	.st10{fill:#FFCB58;}
	.st11{fill:#689676;}
	.st12{fill:#ED8C4A;}
	.st13{fill:#467082;}
	.st14{fill:#257287;}
</style>
<title>parte02Asset 3</title>
<g id="Layer_2">
	<g id="Layer_97">
		<path class="st0" d="M221.1,106.5l0.4,0.6l0.3-0.2l5.6,8.3l1.6,2.5c2.2,3,4.7,5.9,7.2,8.7l0.5,0.7l0,0c6.1,9.2,11.3,17.8,15.8,26
			l5.1,7.8l5.5,10.9l5,11.8l3.6,13l0.5,1.4c0.4,0.9,0.7,1.8,1,2.7l1.6-0.5l17-5.6l-9.2-5.7l-16.7-102L220.5,105l0.9,1.4L221.1,106.5
			z"/>
		<polygon class="st1" points="227.2,115.2 227.2,115.2 227.4,115.1 		"/>
		<path class="st0" d="M81.8,241.6L81.8,241.6c-1.9-0.5-3.5-1.6-4.7-3.1l0,0c-1.6-2-2.4-4.5-2.4-7.1l2.1-45.4H57.3l7.8,81.8h70.1
			c0-2.7-0.1-5.5-0.2-8.2L81.8,241.6z"/>
		<polygon class="st1" points="43.2,8.5 42.6,8.6 43.2,8.5 		"/>
		<path class="st0" d="M206,6.1c5.3,0,10.1,5.9,10.1,11.1L215.9,41l0,0l23.1-2.2l-13-7L227.9,0h-47.5c0.4,2.5,0.8,4.9,1.3,7.2
			L206,6.1z"/>
		<polygon class="st1" points="262.1,172 262.1,172 263.1,171.6 		"/>
		<path class="st0" d="M0,41.8l10.3,5.5l16,92.5l34.3-10.4l17.2,36.9l0,0l0.5-11.2c0.1-4.9,2.5-8,7.8-7.9h21.4
			c-3.8-8.1-7.5-14.9-10.7-20.5l-3.6-5.8l-5.8-8.8h0.2l-1.4-1.9h-0.1l-3.2-2.9c-0.5-0.3-0.9-0.7-1.3-1.2l0,0c-1.1-1.6-1.8-3.4-2-5.3
			c-4-6.3-7.6-13.1-10.5-18.7h-0.3l-5.1-10.8l-5.3-13c-1.8-3.7-3.1-7.7-4-11.7c-2.9-8.4-5.3-16.2-7.4-23.4v-0.4L42.6,8.6L40.7,0
			H22.2c0.5,11.4,1.7,23.1,4.1,32.6L0,41.8z"/>
		<path class="st2" d="M278.5,242.1c0,0,1.5-8.4-1.4-24.5c0.3,3.7,0.2,7.6,0.2,7.6l-9.3,1.1l-0.9-12.6l8.8-2
			c-0.4-1.9-0.9-3.8-1.4-5.8c0.7,3.1,1.2,5.8,1.2,5.8l-16.1,3.3l-2.7-13.1l15.2-4.2l-8.8,2.5c0.4-2.7-3.4-12.4-3.8-13.4l-6.9,2
			l-4.3-11.8l13.9-5l0,0l-7.3,2.6l-4.4-10.8l-5.6,2.4l-6.6-10.2l6.1-2.1l-6.8-9.6l7.8-3.9l-13.7,6.8l-5-9.5l12.5-6.1l-7.9,3.9
			l-4.6-7.7l6.3-4.4l-13,7.3l-4.4-7.2l11.8-8l0,0l-6.4,4.4l-5.4-8.2l6.1-4.3l-0.4-0.6l-9.8,7.9l-3.9,16.1c0,0-61.7-3.7-91.2-3.3
			l4.1,8l-5.7,1.7l4.2,8.7l-5.3,1.8l97.1,0.4c1.5,0,3,0.4,4.4,1.1c2.3,0.7,4.4,1.9,6.3,3.4l18.7,15.2l12.9,79.3c0,0,1.3,7.6-2.2,8.9
			l-115,4.2l-0.5-0.2c0.1,2.7,0.1,5.4,0.2,8.2h125.3v-13.3l7.1-0.2v-14.9l-5.8,0.6c-0.7,0.1-1.2-0.4-1.3-1.1c0,0,0,0,0,0v-11.2
			c0-0.6,0.5-1.1,1.1-1.1l14.7-1.7c0.7-0.1,1.3,0.3,1.4,1c0,0,0,0.1,0,0.1l0.8,11.2c0.1,0.6-0.3,1.1-0.9,1.2V255
			c0.1,4.3-0.2,8.6-1,12.9h0.7C278.7,258.1,279.2,249.1,278.5,242.1z"/>
		<path class="st3" d="M86.1,110L86.1,110l1.5,1.9l0.5-0.2L86.1,110z"/>
		<path class="st3" d="M252.5,153c-4.5-8.1-9.7-16.8-15.8-26l2.3,4.5l6.3,8.9l6.3,11L252.5,153z"/>
		<path class="st3" d="M236.3,126.3c-2.5-2.8-5-5.7-7.2-8.7l3.7,5.7l4,3.7L236.3,126.3z"/>
		<path class="st2" d="M43.2,8.5L43.2,8.5L54,7.8C55.3,8.5,58.3,21,58.3,21l-4.9,0.7l3.3,9.1c4.3-0.8,5.5,0,5.5,0
			c1.6,0.9,4.6,11.2,4.6,11.2l-12.5,3.5l7.3-2.1l5.2,11.8l5.4-1.2l5.7,11.8L72,68.1l5.9,10l-8.7,3.8c2.8,5.6,6.5,12.3,10.5,18.7
			c-0.2-1.4-0.3-2.9-0.3-4.3l-2.8-78.8c0-5.3,5.4-5.9,10.6-5.9L166.6,8L166,5.3L180.4,3l-6.6,1l-0.4-4H47.5l1.6,8.1L43.2,8.5z"/>
		<path class="st3" d="M50,32.6l-3-9.4c2,7.2,4.5,15.1,7.4,23.4c-0.1-0.7-0.2-1.1-0.2-1.1L50,32.6z"/>
		<path class="st3" d="M181.5,7.3h0.3c-0.5-2.4-1-4.8-1.4-7.3h-0.6l0.5,3L181.5,7.3z"/>
		<path class="st3" d="M205.9,244.3L205.9,244.3z"/>
		<path class="st3" d="M104.2,139.8l-5-9.3l-2.4-3.7c3.2,5.6,6.9,12.4,10.7,20.5h0.3L104.2,139.8z"/>
		<path class="st3" d="M271.7,196.4l0.3,1.2v0.2L271.7,196.4z"/>
		<polygon class="st4" points="43.2,8.5 49.1,8.1 47.5,0 40.7,0 42.6,8.6 		"/>
		<path class="st4" d="M53.5,21.7L53.5,21.7l4.9-0.7c0,0-3.1-12.5-4.4-13.2L43.2,8.5h-0.6l4.3,14.2L53.5,21.7z"/>
		<path class="st4" d="M56.8,30.8l-3.3-9.1l0,0l-6.5,1v0.4l3,9.4C52.2,31.8,54.5,31.2,56.8,30.8z"/>
		<path class="st4" d="M54.3,45.5l12.6-3.6c0,0-3-10.2-4.6-11.2c0,0-1.2-0.7-5.5,0c-2.3,0.5-4.6,1.1-6.8,1.9L54.3,45.5z"/>
		<path class="st4" d="M66.8,55.2l-5.2-11.8l-7.3,2.1c0,0,0,0.4,0.2,1.1c0.9,4,2.2,8,4,11.7L66.8,55.2z"/>
		<polygon class="st4" points="71.9,68.1 71.9,68.1 77.8,65.8 72.2,54 66.8,55.2 58.4,58.3 63.7,71.3 		"/>
		<polygon class="st4" points="71.9,68.1 71.9,68.1 63.7,71.3 68.8,82 69.1,81.9 77.8,78.1 		"/>
		<path class="st4" d="M99.2,130.4l5,9.3l10.3-3l0,0l5.7-1.7l-4.1-8h-5.5L99.2,130.4z"/>
		<path class="st4" d="M110.6,127.3l-5.3,0.3l-8.6-7.9l-3.5,1.2l3.6,5.8l2.4,3.7L110.6,127.3z"/>
		<polygon class="st4" points="96.7,119.7 88.1,111.8 87.6,112 87.3,112.1 93.2,120.9 		"/>
		<polygon class="st4" points="104.2,139.8 107.9,147.2 113.4,147.2 118.7,145.4 114.5,136.7 114.5,136.7 		"/>
		<polygon class="st5" points="135.2,267.8 135.3,267.8 135.2,267.7 		"/>
		<path class="st4" d="M277.9,254.9H268v-0.2l-7.1,0.2v12.9h16C277.7,263.5,278,259.2,277.9,254.9z"/>
		<path class="st4" d="M277.9,254.9v-16.2h-0.2l-9.7,1v15.1L277.9,254.9z"/>
		<path class="st4" d="M277.9,238.7c0.6-0.1,1-0.6,0.9-1.2l-0.8-11.2c0-0.7-0.6-1.2-1.3-1.1c0,0-0.1,0-0.1,0l-14.7,1.8
			c-0.6,0-1.1,0.5-1.1,1.1v11.1c0.1,0.7,0.6,1.2,1.3,1.1c0,0,0,0,0,0l5.8-0.6l9.7-1L277.9,238.7z"/>
		<path class="st4" d="M268,226.2l9.3-1.1c0,0,0-3.8-0.2-7.6c-0.1-2-0.5-4-1.1-5.9h-0.1l-8.8,2L268,226.2z"/>
		<path class="st4" d="M272.1,197.6l-15.2,4.3l2.8,13.1l16.1-3.4c0,0-0.5-2.7-1.2-5.8s-0.9-3.7-1.3-5.3c-0.3-0.9-0.6-1.8-1-2.7
			L272.1,197.6z"/>
		<path class="st4" d="M268.1,183.4c-1.4,0.9-5.1,2.2-8.6,3.3c0.4,0.9,4.2,10.7,3.8,13.4l8.8-2.5l-0.3-1.2L268.1,183.4z"/>
		<path class="st4" d="M268.1,183.4l-5-11.7l-1,0.4l-13.9,5l4.4,11.8l6.9-2C263,185.6,266.8,184.3,268.1,183.4z"/>
		<polygon class="st4" points="257.6,160.8 250.5,163.8 254.8,174.6 262.1,172 263.1,171.6 		"/>
		<polygon class="st4" points="257.6,160.8 252.5,153 251.5,151.4 244.3,153.9 244.3,153.9 238.3,156 244.9,166.3 250.5,163.8 		"/>
		<polygon class="st4" points="251.5,151.4 245.3,140.4 237.5,144.3 244.3,153.9 244.3,153.9 		"/>
		<polygon class="st4" points="226.5,137.6 231.5,147.1 245.3,140.4 239,131.5 		"/>
		<polygon class="st4" points="236.7,127 236.7,127 232.8,123.3 226.5,127.6 231.1,135.4 239,131.5 236.7,127 		"/>
		<polygon class="st4" points="227.4,115.1 227.2,115.2 215.4,123.3 219.8,130.5 232.8,123.3 229,117.6 		"/>
		<polygon class="st4" points="221.8,106.9 221.5,107.1 215.4,111.4 220.8,119.6 227.2,115.2 227.4,115.1 		"/>
		<path class="st4" d="M214.6,100.6l-3.3,13.7l9.8-7.9l0.3-0.2l-0.9-1.4l-5.1-7.5l0,0C215.4,98.5,215.1,99.6,214.6,100.6z"/>
		<polygon class="st4" points="180.4,3 166,5.3 166.6,8 181.5,7.3 		"/>
		<polygon class="st4" points="180.4,3 179.8,0 173.4,0 173.8,4 		"/>
		<path class="st6" d="M0,41.8v1.7l11,72.2l15.3,24.2l-16-92.5L0,41.8z M14.3,112.6l-10-61L8.8,54L21,120.9L14.3,112.6z"/>
		<polygon class="st6" points="49.3,195.1 49.9,267.8 52.8,267.8 51.5,200.1 55.5,195.1 61.6,267.8 65.1,267.8 57.3,186 		"/>
		<path class="st6" d="M291.8,194.5l-11-78l-15-29.7l16.7,102L291.8,194.5z M279.7,122.8l7.6,62.6l-3.3-2l-11.8-75.5L279.7,122.8z"
			/>
		<polygon class="st6" points="239,38.8 239.7,0 237,0 236.2,30.1 230.2,24.6 231.9,0 227.9,0 226,31.8 		"/>
		<polygon class="st7" points="4.3,51.6 14.3,112.6 21,120.9 8.8,54 		"/>
		<polygon class="st7" points="51.5,200.1 52.8,267.8 61.6,267.8 55.5,195.1 		"/>
		<polygon class="st7" points="287.2,185.4 279.6,122.8 272.1,107.9 283.8,183.4 		"/>
		<polygon class="st7" points="236.2,30.1 237,0 231.9,0 230.2,24.6 		"/>
		<path class="st8" d="M81.6,105.8L81.6,105.8z"/>
		<path class="st9" d="M214.6,100.6c-1.6,2.9-5.4,4.2-9.5,4.2l-119.4,3c-1,0-2-0.3-2.8-0.8l3.2,2.9l2,1.9l8.6,7.9l8.6,7.9l5.3-0.3
			h5.5c29.5-0.4,91.2,3.3,91.2,3.3l3.9-16.1L214.6,100.6z"/>
		<path class="st10" d="M206,6.1l-24.3,1.1h-0.3L166.6,8l-79.3,3.6c-5.3,0-10.6,0.6-10.6,5.9l2.6,78.8c0,1.4,0.1,2.9,0.3,4.3
			c0.2,1.9,0.9,3.7,2,5.3l0,0c0.4,0.5,0.8,0.9,1.3,1.2c0.8,0.5,1.8,0.8,2.8,0.8l119.4-3c4,0,7.9-1.3,9.5-4.2c0.5-1,0.8-2.1,0.8-3.3
			l0,0l0.5-56.2l0.2-23.8C216.1,12,211.3,6.1,206,6.1z M84.2,22.4h127.3v68.5H84.2V22.4z"/>
		<rect x="84.2" y="22.4" class="st11" width="127.3" height="68.4"/>
		<path class="st12" d="M219.9,157l-6.7,77.3c-0.1,4.2-3.1,8.8-7.3,10l0,0l44.6,11.3c3.5-1.3,2.2-8.9,2.2-8.9l-12.9-79.3l-18.7-15.2
			c-1.9-1.5-4-2.7-6.3-3.4C217.9,150.3,219.9,153.5,219.9,157z"/>
		<polygon class="st13" points="77.1,238.4 77.1,238.4 77.1,238.4 		"/>
		<path class="st14" d="M205.8,244.3c-0.7,0.2-1.5,0.3-2.3,0.3l-120-2.8l-1.8-0.3l0,0l53.3,18l0.5,0.2l115-4.2L205.8,244.3
			L205.8,244.3z"/>
		<path class="st10" d="M107.5,147.2H86.1c-5.4-0.1-7.7,3-7.8,7.9l-0.5,11.2l-1,19.7l-2.2,45.4c0,2.6,0.8,5.1,2.4,7.1l0,0
			c1.2,1.5,2.8,2.6,4.7,3.1l1.8,0.3l120,2.8c0.8,0,1.6-0.1,2.3-0.3l0,0c4.2-1.2,7.3-5.8,7.3-10l6.7-77.3c0-3.5-1.9-6.6-5-8.2
			c-1.4-0.7-2.9-1.1-4.4-1.1l-97.1-0.4h-5.8L107.5,147.2z M209.5,227.7H82.2v-68.4h127.3V227.7z"/>
		<rect x="82.2" y="159.3" class="st11" width="127.3" height="68.4"/>
	</g>
</g>
</svg>
