<svg xmlns="http://www.w3.org/2000/svg" xmlns:xlink="http://www.w3.org/1999/xlink" viewBox="0 0 38 38"><defs><style>.cls-1{isolation:isolate;}.Graphic-Style-4,.cls-2{mix-blend-mode:multiply;}.cls-3,.cls-43{fill:#fff;}.cls-3{opacity:0;}.cls-4{fill:#f9f9f9;opacity:0.05;}.cls-5{fill:#f3f3f3;opacity:0.1;}.cls-6{fill:#ededee;opacity:0.14;}.cls-7{fill:#e7e7e8;opacity:0.19;}.cls-8{fill:#e1e1e2;opacity:0.24;}.cls-9{fill:#dbdbdc;opacity:0.29;}.cls-10{fill:#d5d5d6;opacity:0.33;}.cls-11{fill:#cfcfd1;opacity:0.38;}.cls-12{fill:#c9c9cb;opacity:0.43;}.cls-13{fill:#c3c3c5;opacity:0.48;}.cls-14{fill:#bcbebf;opacity:0.52;}.cls-15{fill:#b6b8b9;opacity:0.57;}.cls-16{fill:#b0b2b3;opacity:0.62;}.cls-17{fill:#aaacae;opacity:0.67;}.cls-18{fill:#a4a6a8;opacity:0.71;}.cls-19{fill:#9ea0a2;opacity:0.76;}.cls-20{fill:#989a9c;opacity:0.81;}.cls-21{fill:#929496;opacity:0.86;}.cls-22{fill:#8c8e91;opacity:0.9;}.cls-23{fill:#86888b;opacity:0.95;}.Graphic-Style{fill:#808285;}.cls-24{fill:url(#linear-gradient);}.cls-25{fill:url(#linear-gradient-2);}.cls-26{fill:#f7f7f7;opacity:0.06;}.cls-27{fill:#efeff0;opacity:0.13;}.cls-28{fill:#e7e8e8;opacity:0.19;}.cls-29{fill:#dfe0e1;opacity:0.25;}.cls-30{fill:#d7d8d9;opacity:0.31;}.cls-31{fill:#cfd0d1;opacity:0.38;}.cls-32{fill:#c7c8ca;opacity:0.44;}.cls-33{fill:#c0c1c2;opacity:0.5;}.cls-34{fill:#b8b9ba;opacity:0.56;}.cls-35{fill:#b0b1b3;opacity:0.63;}.cls-36{fill:#a8a9ab;opacity:0.69;}.cls-37{fill:#a0a1a4;opacity:0.75;}.cls-38{fill:#98999c;opacity:0.81;}.cls-39{fill:#909294;opacity:0.88;}.cls-40{fill:#888a8d;opacity:0.94;}.cls-41{fill:url(#linear-gradient-3);}.cls-42{fill:#4084ad;}.Graphic-Style-4{fill:#a7a9ac;opacity:0.8;}</style><linearGradient id="linear-gradient" y1="16.53" x2="33.07" y2="16.53" gradientUnits="userSpaceOnUse"><stop offset="0" stop-color="#fff"/><stop offset="1" stop-color="#d1d3d4"/></linearGradient><linearGradient id="linear-gradient-2" x1="0.83" y1="16.53" x2="32.24" y2="16.53" gradientUnits="userSpaceOnUse"><stop offset="0" stop-color="#d1d3d4"/><stop offset="1" stop-color="#fff"/></linearGradient><linearGradient id="linear-gradient-3" x1="4.13" y1="16.53" x2="28.93" y2="16.53" gradientUnits="userSpaceOnUse"><stop offset="0" stop-color="#ffca05"/><stop offset="1" stop-color="#faac18"/></linearGradient></defs><title>playAsset 1</title><g class="cls-1"><g id="Layer_2" data-name="Layer 2"><g id="Layer_2-2" data-name="Layer 2"><g class="cls-2"><path class="cls-3" d="M21.5,38A16.5,16.5,0,1,1,38,21.5,16.6,16.6,0,0,1,21.5,38Z"/><path class="cls-4" d="M21.3,37.8A16.5,16.5,0,1,1,37.8,21.3,16.5,16.5,0,0,1,21.3,37.8Z"/><path class="cls-5" d="M21,37.5A16.5,16.5,0,1,1,37.5,21,16.5,16.5,0,0,1,21,37.5Z"/><path class="cls-6" d="M20.8,37.3A16.5,16.5,0,1,1,37.3,20.8,16.5,16.5,0,0,1,20.8,37.3Z"/><path class="cls-7" d="M20.5,37A16.5,16.5,0,1,1,37,20.5,16.5,16.5,0,0,1,20.5,37Z"/><path class="cls-8" d="M20.3,36.8A16.5,16.5,0,1,1,36.8,20.3,16.5,16.5,0,0,1,20.3,36.8Z"/><path class="cls-9" d="M20.1,36.5A16.5,16.5,0,1,1,36.5,20.1,16.5,16.5,0,0,1,20.1,36.5Z"/><path class="cls-10" d="M19.8,36.3A16.5,16.5,0,1,1,36.3,19.8,16.5,16.5,0,0,1,19.8,36.3Z"/><path class="cls-11" d="M19.6,36.1A16.5,16.5,0,1,1,36.1,19.6,16.5,16.5,0,0,1,19.6,36.1Z"/><path class="cls-12" d="M19.4,35.8A16.4,16.4,0,1,1,35.8,19.4,16.5,16.5,0,0,1,19.4,35.8Z"/><path class="cls-13" d="M19.1,35.6A16.4,16.4,0,1,1,35.6,19.1,16.5,16.5,0,0,1,19.1,35.6Z"/><path class="cls-14" d="M18.9,35.3A16.4,16.4,0,1,1,35.3,18.9,16.4,16.4,0,0,1,18.9,35.3Z"/><path class="cls-15" d="M18.7,35.1A16.4,16.4,0,1,1,35.1,18.7,16.4,16.4,0,0,1,18.7,35.1Z"/><path class="cls-16" d="M18.4,34.8A16.4,16.4,0,1,1,34.8,18.4,16.4,16.4,0,0,1,18.4,34.8Z"/><path class="cls-17" d="M18.2,34.6A16.4,16.4,0,1,1,34.6,18.2,16.4,16.4,0,0,1,18.2,34.6Z"/><path class="cls-18" d="M17.9,34.3A16.4,16.4,0,1,1,34.3,17.9,16.4,16.4,0,0,1,17.9,34.3Z"/><path class="cls-19" d="M17.7,34.1A16.4,16.4,0,1,1,34.1,17.7,16.4,16.4,0,0,1,17.7,34.1Z"/><path class="cls-20" d="M17.5,33.8A16.4,16.4,0,1,1,33.8,17.5,16.4,16.4,0,0,1,17.5,33.8Z"/><path class="cls-21" d="M17.2,33.6A16.4,16.4,0,1,1,33.6,17.2,16.4,16.4,0,0,1,17.2,33.6Z"/><path class="cls-22" d="M17,33.4A16.3,16.3,0,1,1,33.4,17,16.4,16.4,0,0,1,17,33.4Z"/><path class="cls-23" d="M16.8,33.1A16.3,16.3,0,1,1,33.1,16.8,16.4,16.4,0,0,1,16.8,33.1Z"/><path class="Graphic-Style" d="M16.5,32.9A16.3,16.3,0,1,1,32.9,16.5,16.3,16.3,0,0,1,16.5,32.9Z"/></g><path class="cls-24" d="M16.5,33.1A16.5,16.5,0,1,1,33.1,16.5,16.6,16.6,0,0,1,16.5,33.1Z"/><path class="cls-25" d="M16.5,32.2A15.7,15.7,0,1,1,32.2,16.5,15.7,15.7,0,0,1,16.5,32.2Z"/><g class="cls-2"><circle class="cls-3" cx="19.9" cy="19.9" r="12.4"/><circle class="cls-26" cx="19.7" cy="19.7" r="12.4"/><circle class="cls-27" cx="19.5" cy="19.5" r="12.4"/><circle class="cls-28" cx="19.3" cy="19.3" r="12.4"/><circle class="cls-29" cx="19.1" cy="19.1" r="12.3"/><circle class="cls-30" cx="18.9" cy="18.9" r="12.3"/><circle class="cls-31" cx="18.7" cy="18.7" r="12.3"/><circle class="cls-32" cx="18.4" cy="18.4" r="12.3"/><circle class="cls-33" cx="18.2" cy="18.2" r="12.3"/><circle class="cls-34" cx="18" cy="18" r="12.3"/><circle class="cls-35" cx="17.8" cy="17.8" r="12.3"/><circle class="cls-36" cx="17.6" cy="17.6" r="12.3"/><circle class="cls-37" cx="17.4" cy="17.4" r="12.2"/><circle class="cls-38" cx="17.2" cy="17.2" r="12.2"/><circle class="cls-39" cx="17" cy="17" r="12.2"/><circle class="cls-40" cx="16.7" cy="16.7" r="12.2"/><circle class="Graphic-Style" cx="16.5" cy="16.5" r="12.2"/></g><circle class="cls-41" cx="16.5" cy="16.5" r="12.4"/><path class="cls-42" d="M16.5,26.9A10.3,10.3,0,1,1,26.9,16.5,10.3,10.3,0,0,1,16.5,26.9Z"/><path class="Graphic-Style-4" d="M14.1,23.2a.7.7,0,0,1-.7-.7V11.9a.7.7,0,0,1,.7-.7h.4l9.2,5.3a.7.7,0,0,1,0,1.3l-9.2,5.3h-.4Z"/><path class="cls-43" d="M13.5,22.6a.7.7,0,0,1-.7-.7V11.2a.7.7,0,0,1,.7-.7h.4L23,15.9a.7.7,0,0,1,0,1.3l-9.2,5.3h-.4Z"/></g></g></g></svg>